M48
; DRILL file {KiCad 7.0.7} date Mon 05 Feb 2024 09:16:26 PM PST
; FORMAT={-:-/ absolute / inch / decimal}
; #@! TF.CreationDate,2024-02-05T21:16:26-08:00
; #@! TF.GenerationSoftware,Kicad,Pcbnew,7.0.7
; #@! TF.FileFunction,Plated,1,4,PTH
FMAT,2
INCH
; #@! TA.AperFunction,Plated,PTH,ViaDrill
T1C0.0079
; #@! TA.AperFunction,Plated,PTH,ViaDrill
T2C0.0157
; #@! TA.AperFunction,Plated,PTH,ComponentDrill
T3C0.0236
; #@! TA.AperFunction,Plated,PTH,ComponentDrill
T4C0.0394
; #@! TA.AperFunction,Plated,PTH,ComponentDrill
T5C0.0433
; #@! TA.AperFunction,Plated,PTH,ComponentDrill
T6C0.0472
; #@! TA.AperFunction,Plated,PTH,ComponentDrill
T7C0.0866
%
G90
G05
T1
X0.9189Y-0.9587
X0.9189Y-1.0
X0.9189Y-1.0413
X1.0551Y-1.2874
X1.0551Y-1.5394
X1.0748Y-1.2874
X1.0748Y-1.5394
X1.1339Y-1.0315
X1.1977Y-1.4996
X1.1988Y-1.0429
X1.202Y-1.0039
X1.2244Y-1.5264
X1.2315Y-1.3594
X1.2382Y-1.0429
X1.2413Y-1.0039
X1.2539Y-1.5043
X1.2736Y-1.5256
X1.2791Y-1.1772
X1.2791Y-1.2165
X1.2795Y-1.2917
X1.2862Y-1.3622
X1.298Y-1.4594
X1.3173Y-1.2917
X1.324Y-1.4843
X1.3465Y-0.9531
X1.3594Y-1.1091
X1.361Y-1.1504
X1.361Y-1.1882
X1.4291Y-1.5591
X1.4299Y-1.5205
X1.4362Y-1.0724
X1.4362Y-1.1102
X1.4669Y-1.5591
X1.4677Y-1.5205
X1.4764Y-1.4957
X1.4846Y-1.0276
X1.5037Y-1.4962
X1.5197Y-1.5728
X1.5275Y-1.495
X1.5492Y-1.5978
X1.5618Y-1.0276
X1.5667Y-0.9659
X1.5815Y-1.5315
X1.5827Y-1.0827
X1.5893Y-1.2047
X1.5893Y-1.4094
X1.6051Y-1.7488
X1.6051Y-1.7866
X1.6445Y-1.7488
X1.6445Y-1.7866
X1.6535Y-1.3386
X1.6535Y-1.3543
X1.6564Y-1.4778
X1.6668Y-1.0866
X1.676Y-1.4449
X1.6947Y-1.4845
X1.7077Y-0.9077
X1.7087Y-1.0866
X1.7278Y-1.3543
X1.7283Y-1.4165
X1.7283Y-1.3968
X1.7286Y-1.3771
X1.7343Y-1.2228
X1.747Y-0.9077
X1.7689Y-1.4016
X1.7736Y-1.2106
X1.7736Y-1.2484
X1.8114Y-1.3272
X1.813Y-1.2106
X1.813Y-1.2484
X1.8295Y-1.3417
X1.8472Y-1.3555
X1.8626Y-1.5937
X1.8626Y-1.6287
X1.8984Y-1.3941
X1.9006Y-1.201
X1.902Y-1.5594
X1.902Y-1.661
X1.9161Y-1.4087
X1.922Y-1.2874
X1.9291Y-1.0108
X1.9339Y-1.4228
X1.9774Y-0.8699
X1.9774Y-0.9077
X1.9774Y-0.9447
X1.9774Y-0.9825
X1.9781Y-1.0226
X2.0159Y-1.0226
X2.1093Y-0.8719
X2.1093Y-0.9096
X2.126Y-1.2473
X2.1453Y-1.681
X2.173Y-1.4362
X2.1925Y-1.5056
X2.2729Y-1.0244
X2.2949Y-1.9135
X2.3135Y-1.4362
X2.3189Y-1.0244
X2.3189Y-1.0622
X2.3382Y-1.8757
X2.3382Y-1.9135
X2.3421Y-1.5056
X2.3583Y-1.0244
X2.3583Y-1.0622
X2.3776Y-1.8757
X2.3776Y-1.9135
X2.387Y-1.4352
X2.4016Y-1.0244
X2.4091Y-1.5017
X2.4193Y-1.9135
X2.4235Y-1.4352
X2.4386Y-1.0245
X2.4386Y-1.0623
X2.4484Y-1.5017
X2.4563Y-1.8757
X2.4563Y-1.9135
X2.5365Y-1.0667
X2.5587Y-1.8753
X2.5787Y-1.4339
X2.6181Y-1.4417
X2.6181Y-1.4803
X2.6654Y-1.4874
X2.69Y-1.3374
X2.69Y-1.3874
X2.69Y-1.4374
X2.7165Y-1.4874
X3.0551Y-1.328
X3.0551Y-1.4961
X3.0984Y-1.328
X3.0984Y-1.4961
T2
X1.061Y-0.9528
X1.0827Y-1.1063
X1.1142Y-1.2795
X1.1142Y-1.5512
X1.1358Y-0.9528
X1.1496Y-1.1722
X1.1575Y-1.6467
X1.185Y-1.1063
X1.2151Y-0.9331
X1.3245Y-1.0587
X1.3937Y-0.9193
X1.462Y-1.6606
X1.5118Y-1.2677
X1.5118Y-1.3425
X1.5827Y-1.3425
X1.5866Y-1.663
X1.5906Y-1.2638
X1.6467Y-0.9459
X1.6996Y-1.5866
X1.6996Y-1.6378
X1.7522Y-0.9368
X1.7785Y-1.0822
X1.9193Y-1.0719
X2.0148Y-1.1191
X2.0482Y-0.8711
X2.0482Y-0.9459
X2.3189Y-1.2598
X2.3382Y-1.6781
X2.3583Y-1.2598
X2.3776Y-1.6781
X2.8228Y-1.3189
X2.8543Y-1.3031
T4
X2.5945Y-0.8947
X2.6945Y-0.8947
T5
X0.9075Y-1.7362
X0.9075Y-1.9134
X1.1634Y-1.7362
X1.1634Y-1.9134
T6
X2.9921Y-1.0384
X2.9921Y-1.7864
T7
X2.8622Y-0.9085
X2.8622Y-1.1683
X2.8622Y-1.6565
X2.8622Y-1.9163
X3.122Y-0.9085
X3.122Y-1.1683
X3.122Y-1.6565
X3.122Y-1.9163
T3
G00X0.8907Y-1.2421
M15
G01X0.8593Y-1.2421
M16
G05
G00X0.8907Y-1.5823
M15
G01X0.8593Y-1.5823
M16
G05
G00X1.0612Y-1.2421
M15
G01X1.0179Y-1.2421
M16
G05
G00X1.0612Y-1.5823
M15
G01X1.0179Y-1.5823
M16
G05
T0
M30
