%TF.GenerationSoftware,KiCad,Pcbnew,7.0.7*%
%TF.CreationDate,2024-02-10T10:35:29-08:00*%
%TF.ProjectId,Bandit_Dev_Platform,42616e64-6974-45f4-9465-765f506c6174,rev?*%
%TF.SameCoordinates,Original*%
%TF.FileFunction,Copper,L1,Top*%
%TF.FilePolarity,Positive*%
%FSLAX46Y46*%
G04 Gerber Fmt 4.6, Leading zero omitted, Abs format (unit mm)*
G04 Created by KiCad (PCBNEW 7.0.7) date 2024-02-10 10:35:29*
%MOMM*%
%LPD*%
G01*
G04 APERTURE LIST*
G04 Aperture macros list*
%AMRoundRect*
0 Rectangle with rounded corners*
0 $1 Rounding radius*
0 $2 $3 $4 $5 $6 $7 $8 $9 X,Y pos of 4 corners*
0 Add a 4 corners polygon primitive as box body*
4,1,4,$2,$3,$4,$5,$6,$7,$8,$9,$2,$3,0*
0 Add four circle primitives for the rounded corners*
1,1,$1+$1,$2,$3*
1,1,$1+$1,$4,$5*
1,1,$1+$1,$6,$7*
1,1,$1+$1,$8,$9*
0 Add four rect primitives between the rounded corners*
20,1,$1+$1,$2,$3,$4,$5,0*
20,1,$1+$1,$4,$5,$6,$7,0*
20,1,$1+$1,$6,$7,$8,$9,0*
20,1,$1+$1,$8,$9,$2,$3,0*%
%AMRotRect*
0 Rectangle, with rotation*
0 The origin of the aperture is its center*
0 $1 length*
0 $2 width*
0 $3 Rotation angle, in degrees counterclockwise*
0 Add horizontal line*
21,1,$1,$2,0,0,$3*%
G04 Aperture macros list end*
%ADD10C,0.300000*%
%TA.AperFunction,NonConductor*%
%ADD11C,0.300000*%
%TD*%
%TA.AperFunction,SMDPad,CuDef*%
%ADD12RoundRect,0.140000X0.170000X-0.140000X0.170000X0.140000X-0.170000X0.140000X-0.170000X-0.140000X0*%
%TD*%
%TA.AperFunction,ComponentPad*%
%ADD13C,2.000000*%
%TD*%
%TA.AperFunction,SMDPad,CuDef*%
%ADD14RoundRect,0.140000X0.140000X0.170000X-0.140000X0.170000X-0.140000X-0.170000X0.140000X-0.170000X0*%
%TD*%
%TA.AperFunction,SMDPad,CuDef*%
%ADD15RoundRect,0.140000X-0.140000X-0.170000X0.140000X-0.170000X0.140000X0.170000X-0.140000X0.170000X0*%
%TD*%
%TA.AperFunction,SMDPad,CuDef*%
%ADD16RoundRect,0.135000X-0.135000X-0.185000X0.135000X-0.185000X0.135000X0.185000X-0.135000X0.185000X0*%
%TD*%
%TA.AperFunction,SMDPad,CuDef*%
%ADD17RoundRect,0.135000X0.185000X-0.135000X0.185000X0.135000X-0.185000X0.135000X-0.185000X-0.135000X0*%
%TD*%
%TA.AperFunction,SMDPad,CuDef*%
%ADD18RoundRect,0.135000X-0.185000X0.135000X-0.185000X-0.135000X0.185000X-0.135000X0.185000X0.135000X0*%
%TD*%
%TA.AperFunction,SMDPad,CuDef*%
%ADD19RoundRect,0.135000X0.135000X0.185000X-0.135000X0.185000X-0.135000X-0.185000X0.135000X-0.185000X0*%
%TD*%
%TA.AperFunction,SMDPad,CuDef*%
%ADD20RoundRect,0.140000X-0.170000X0.140000X-0.170000X-0.140000X0.170000X-0.140000X0.170000X0.140000X0*%
%TD*%
%TA.AperFunction,SMDPad,CuDef*%
%ADD21RoundRect,0.200000X-0.200000X-0.275000X0.200000X-0.275000X0.200000X0.275000X-0.200000X0.275000X0*%
%TD*%
%TA.AperFunction,SMDPad,CuDef*%
%ADD22R,1.150000X0.600000*%
%TD*%
%TA.AperFunction,SMDPad,CuDef*%
%ADD23R,1.150000X0.300000*%
%TD*%
%TA.AperFunction,ComponentPad*%
%ADD24O,2.100000X1.000000*%
%TD*%
%TA.AperFunction,ComponentPad*%
%ADD25O,1.800000X1.000000*%
%TD*%
%TA.AperFunction,SMDPad,CuDef*%
%ADD26RoundRect,0.200000X-0.275000X0.200000X-0.275000X-0.200000X0.275000X-0.200000X0.275000X0.200000X0*%
%TD*%
%TA.AperFunction,SMDPad,CuDef*%
%ADD27RoundRect,0.218750X0.218750X0.256250X-0.218750X0.256250X-0.218750X-0.256250X0.218750X-0.256250X0*%
%TD*%
%TA.AperFunction,SMDPad,CuDef*%
%ADD28RoundRect,0.200000X0.200000X0.275000X-0.200000X0.275000X-0.200000X-0.275000X0.200000X-0.275000X0*%
%TD*%
%TA.AperFunction,SMDPad,CuDef*%
%ADD29RoundRect,0.150000X0.825000X0.150000X-0.825000X0.150000X-0.825000X-0.150000X0.825000X-0.150000X0*%
%TD*%
%TA.AperFunction,SMDPad,CuDef*%
%ADD30RoundRect,0.200000X0.275000X-0.200000X0.275000X0.200000X-0.275000X0.200000X-0.275000X-0.200000X0*%
%TD*%
%TA.AperFunction,SMDPad,CuDef*%
%ADD31RoundRect,0.140000X-0.021213X0.219203X-0.219203X0.021213X0.021213X-0.219203X0.219203X-0.021213X0*%
%TD*%
%TA.AperFunction,SMDPad,CuDef*%
%ADD32RoundRect,0.100000X0.637500X0.100000X-0.637500X0.100000X-0.637500X-0.100000X0.637500X-0.100000X0*%
%TD*%
%TA.AperFunction,SMDPad,CuDef*%
%ADD33R,1.000000X0.800000*%
%TD*%
%TA.AperFunction,SMDPad,CuDef*%
%ADD34RoundRect,0.243750X0.243750X0.456250X-0.243750X0.456250X-0.243750X-0.456250X0.243750X-0.456250X0*%
%TD*%
%TA.AperFunction,SMDPad,CuDef*%
%ADD35RoundRect,0.250000X0.250000X0.475000X-0.250000X0.475000X-0.250000X-0.475000X0.250000X-0.475000X0*%
%TD*%
%TA.AperFunction,SMDPad,CuDef*%
%ADD36RotRect,0.600000X0.300000X135.000000*%
%TD*%
%TA.AperFunction,SMDPad,CuDef*%
%ADD37RotRect,0.300000X1.700000X135.000000*%
%TD*%
%TA.AperFunction,ComponentPad*%
%ADD38C,1.800000*%
%TD*%
%TA.AperFunction,ComponentPad*%
%ADD39C,3.250000*%
%TD*%
%TA.AperFunction,SMDPad,CuDef*%
%ADD40RoundRect,0.150000X-0.512500X-0.150000X0.512500X-0.150000X0.512500X0.150000X-0.512500X0.150000X0*%
%TD*%
%TA.AperFunction,SMDPad,CuDef*%
%ADD41RoundRect,0.135000X-0.035355X0.226274X-0.226274X0.035355X0.035355X-0.226274X0.226274X-0.035355X0*%
%TD*%
%TA.AperFunction,SMDPad,CuDef*%
%ADD42RoundRect,0.140000X-0.219203X-0.021213X-0.021213X-0.219203X0.219203X0.021213X0.021213X0.219203X0*%
%TD*%
%TA.AperFunction,SMDPad,CuDef*%
%ADD43RoundRect,0.150000X-0.150000X0.825000X-0.150000X-0.825000X0.150000X-0.825000X0.150000X0.825000X0*%
%TD*%
%TA.AperFunction,ComponentPad*%
%ADD44R,1.700000X1.700000*%
%TD*%
%TA.AperFunction,ComponentPad*%
%ADD45O,1.700000X1.700000*%
%TD*%
%TA.AperFunction,SMDPad,CuDef*%
%ADD46RoundRect,0.250000X0.450000X-0.262500X0.450000X0.262500X-0.450000X0.262500X-0.450000X-0.262500X0*%
%TD*%
%TA.AperFunction,SMDPad,CuDef*%
%ADD47R,1.400000X1.200000*%
%TD*%
%TA.AperFunction,SMDPad,CuDef*%
%ADD48RoundRect,0.150000X0.150000X-0.825000X0.150000X0.825000X-0.150000X0.825000X-0.150000X-0.825000X0*%
%TD*%
%TA.AperFunction,SMDPad,CuDef*%
%ADD49RoundRect,0.250000X-0.475000X0.250000X-0.475000X-0.250000X0.475000X-0.250000X0.475000X0.250000X0*%
%TD*%
%TA.AperFunction,SMDPad,CuDef*%
%ADD50RoundRect,0.150000X0.512500X0.150000X-0.512500X0.150000X-0.512500X-0.150000X0.512500X-0.150000X0*%
%TD*%
%TA.AperFunction,SMDPad,CuDef*%
%ADD51RoundRect,0.135000X0.035355X-0.226274X0.226274X-0.035355X-0.035355X0.226274X-0.226274X0.035355X0*%
%TD*%
%TA.AperFunction,SMDPad,CuDef*%
%ADD52RoundRect,0.050000X0.050000X-0.387500X0.050000X0.387500X-0.050000X0.387500X-0.050000X-0.387500X0*%
%TD*%
%TA.AperFunction,SMDPad,CuDef*%
%ADD53RoundRect,0.050000X0.387500X-0.050000X0.387500X0.050000X-0.387500X0.050000X-0.387500X-0.050000X0*%
%TD*%
%TA.AperFunction,SMDPad,CuDef*%
%ADD54R,3.200000X3.200000*%
%TD*%
%TA.AperFunction,SMDPad,CuDef*%
%ADD55RoundRect,0.150000X0.150000X-0.512500X0.150000X0.512500X-0.150000X0.512500X-0.150000X-0.512500X0*%
%TD*%
%TA.AperFunction,SMDPad,CuDef*%
%ADD56RoundRect,0.250000X0.475000X-0.250000X0.475000X0.250000X-0.475000X0.250000X-0.475000X-0.250000X0*%
%TD*%
%TA.AperFunction,ViaPad*%
%ADD57C,0.800000*%
%TD*%
%TA.AperFunction,ViaPad*%
%ADD58C,0.300000*%
%TD*%
%TA.AperFunction,Conductor*%
%ADD59C,0.350000*%
%TD*%
%TA.AperFunction,Conductor*%
%ADD60C,0.500000*%
%TD*%
%TA.AperFunction,Conductor*%
%ADD61C,0.200000*%
%TD*%
%TA.AperFunction,Conductor*%
%ADD62C,0.400000*%
%TD*%
%TA.AperFunction,Conductor*%
%ADD63C,0.250000*%
%TD*%
G04 APERTURE END LIST*
D10*
D11*
X22887844Y-48039638D02*
X23554510Y-50039638D01*
X23554510Y-50039638D02*
X24221177Y-48039638D01*
X25935463Y-50039638D02*
X24792606Y-50039638D01*
X25364034Y-50039638D02*
X25364034Y-48039638D01*
X25364034Y-48039638D02*
X25173558Y-48325352D01*
X25173558Y-48325352D02*
X24983082Y-48515828D01*
X24983082Y-48515828D02*
X24792606Y-48611066D01*
D10*
D11*
G36*
X31884085Y-46528520D02*
G01*
X31940703Y-46529583D01*
X31995683Y-46531354D01*
X32049024Y-46533833D01*
X32100727Y-46537021D01*
X32150790Y-46540917D01*
X32199216Y-46545522D01*
X32246002Y-46550835D01*
X32291150Y-46556856D01*
X32334659Y-46563586D01*
X32376530Y-46571024D01*
X32416762Y-46579171D01*
X32455356Y-46588026D01*
X32492311Y-46597589D01*
X32527627Y-46607861D01*
X32561304Y-46618841D01*
X32608946Y-46635703D01*
X32654785Y-46654232D01*
X32698820Y-46674429D01*
X32741052Y-46696293D01*
X32781481Y-46719824D01*
X32820106Y-46745022D01*
X32856929Y-46771888D01*
X32891948Y-46800420D01*
X32925164Y-46830620D01*
X32956577Y-46862488D01*
X32986187Y-46896022D01*
X33013993Y-46931224D01*
X33039997Y-46968093D01*
X33064197Y-47006629D01*
X33086594Y-47046833D01*
X33107187Y-47088703D01*
X33124361Y-47131465D01*
X33139244Y-47174570D01*
X33151838Y-47218018D01*
X33162142Y-47261810D01*
X33170156Y-47305946D01*
X33175881Y-47350425D01*
X33179315Y-47395247D01*
X33180460Y-47440413D01*
X33178492Y-47504165D01*
X33172589Y-47565821D01*
X33162750Y-47625380D01*
X33148976Y-47682843D01*
X33131266Y-47738209D01*
X33109620Y-47791479D01*
X33084039Y-47842652D01*
X33054522Y-47891728D01*
X33021070Y-47938708D01*
X32983682Y-47983591D01*
X32942359Y-48026378D01*
X32897100Y-48067068D01*
X32847906Y-48105661D01*
X32794776Y-48142158D01*
X32737710Y-48176558D01*
X32676709Y-48208862D01*
X32717394Y-48222982D01*
X32756787Y-48237978D01*
X32794889Y-48253851D01*
X32831698Y-48270600D01*
X32867217Y-48288226D01*
X32901444Y-48306729D01*
X32934379Y-48326108D01*
X32966022Y-48346363D01*
X32996375Y-48367495D01*
X33053204Y-48412389D01*
X33104867Y-48460789D01*
X33151364Y-48512696D01*
X33192694Y-48568108D01*
X33228858Y-48627027D01*
X33259856Y-48689452D01*
X33285688Y-48755383D01*
X33306353Y-48824821D01*
X33314748Y-48860854D01*
X33321852Y-48897765D01*
X33327664Y-48935551D01*
X33332185Y-48974215D01*
X33335414Y-49013754D01*
X33337351Y-49054171D01*
X33337997Y-49095464D01*
X33337346Y-49139667D01*
X33335392Y-49182976D01*
X33332136Y-49225390D01*
X33327578Y-49266911D01*
X33321718Y-49307536D01*
X33314555Y-49347267D01*
X33306090Y-49386104D01*
X33296323Y-49424047D01*
X33285253Y-49461094D01*
X33272881Y-49497248D01*
X33259207Y-49532507D01*
X33244230Y-49566871D01*
X33227951Y-49600341D01*
X33210370Y-49632917D01*
X33191487Y-49664598D01*
X33171301Y-49695385D01*
X33149813Y-49725277D01*
X33127022Y-49754275D01*
X33102930Y-49782379D01*
X33077535Y-49809588D01*
X33050837Y-49835902D01*
X33022838Y-49861322D01*
X32993536Y-49885848D01*
X32962931Y-49909479D01*
X32931025Y-49932216D01*
X32897816Y-49954058D01*
X32863305Y-49975006D01*
X32827491Y-49995060D01*
X32790375Y-50014219D01*
X32751957Y-50032483D01*
X32712237Y-50049853D01*
X32671214Y-50066329D01*
X32623778Y-50083516D01*
X32571802Y-50099012D01*
X32534629Y-50108404D01*
X32495438Y-50117044D01*
X32454229Y-50124933D01*
X32411002Y-50132071D01*
X32365758Y-50138457D01*
X32318495Y-50144092D01*
X32269215Y-50148976D01*
X32217917Y-50153108D01*
X32164601Y-50156489D01*
X32109267Y-50159119D01*
X32051915Y-50160997D01*
X31992545Y-50162124D01*
X31931158Y-50162500D01*
X29805329Y-50162500D01*
X29805329Y-49724694D01*
X29858516Y-49719384D01*
X29907822Y-49713413D01*
X29953248Y-49706783D01*
X29994794Y-49699492D01*
X30032460Y-49691542D01*
X30076645Y-49679914D01*
X30113933Y-49667113D01*
X30150842Y-49649461D01*
X30172609Y-49634019D01*
X30199787Y-49604019D01*
X30222358Y-49563823D01*
X30237099Y-49524324D01*
X30248891Y-49478300D01*
X30255801Y-49439499D01*
X30261052Y-49397027D01*
X30264645Y-49350885D01*
X30266580Y-49301071D01*
X30266948Y-49265823D01*
X30266948Y-48521188D01*
X31185607Y-48521188D01*
X31185607Y-49433435D01*
X31186404Y-49473089D01*
X31189542Y-49511716D01*
X31195682Y-49541512D01*
X31210880Y-49577576D01*
X31237699Y-49608831D01*
X31276139Y-49635278D01*
X31312594Y-49651958D01*
X31355587Y-49665933D01*
X31405116Y-49677203D01*
X31441766Y-49683213D01*
X31481322Y-49688022D01*
X31523783Y-49691628D01*
X31569150Y-49694033D01*
X31617421Y-49695235D01*
X31642646Y-49695385D01*
X31682828Y-49694777D01*
X31722087Y-49692952D01*
X31760423Y-49689911D01*
X31797836Y-49685654D01*
X31834325Y-49680180D01*
X31887329Y-49669688D01*
X31938256Y-49656459D01*
X31987106Y-49640493D01*
X32033879Y-49621790D01*
X32078576Y-49600350D01*
X32121195Y-49576174D01*
X32161738Y-49549260D01*
X32174790Y-49539680D01*
X32211946Y-49508986D01*
X32245448Y-49475634D01*
X32275294Y-49439627D01*
X32301486Y-49400963D01*
X32324024Y-49359642D01*
X32342906Y-49315665D01*
X32358134Y-49269031D01*
X32369707Y-49219741D01*
X32377626Y-49167795D01*
X32381890Y-49113191D01*
X32382702Y-49075314D01*
X32381822Y-49034996D01*
X32379181Y-48996245D01*
X32374781Y-48959061D01*
X32364879Y-48906223D01*
X32351017Y-48856912D01*
X32333194Y-48811126D01*
X32311411Y-48768866D01*
X32285667Y-48730132D01*
X32255963Y-48694924D01*
X32222298Y-48663242D01*
X32184672Y-48635086D01*
X32157388Y-48618274D01*
X32123108Y-48600924D01*
X32085528Y-48585280D01*
X32044648Y-48571343D01*
X32000467Y-48559112D01*
X31952985Y-48548588D01*
X31902203Y-48539771D01*
X31848120Y-48532660D01*
X31810232Y-48528867D01*
X31770876Y-48525833D01*
X31730054Y-48523558D01*
X31687764Y-48522041D01*
X31644008Y-48521282D01*
X31621580Y-48521188D01*
X31185607Y-48521188D01*
X30266948Y-48521188D01*
X30266948Y-47993623D01*
X31185607Y-47993623D01*
X31606010Y-47993623D01*
X31647990Y-47993180D01*
X31688638Y-47991852D01*
X31727954Y-47989638D01*
X31765936Y-47986539D01*
X31802586Y-47982554D01*
X31871888Y-47971928D01*
X31935858Y-47957760D01*
X31994498Y-47940050D01*
X32047807Y-47918798D01*
X32095785Y-47894004D01*
X32138432Y-47865668D01*
X32175748Y-47833790D01*
X32207733Y-47798370D01*
X32234388Y-47759408D01*
X32255711Y-47716904D01*
X32271704Y-47670858D01*
X32282366Y-47621270D01*
X32287697Y-47568140D01*
X32288363Y-47540247D01*
X32285737Y-47481575D01*
X32277859Y-47426689D01*
X32264728Y-47375587D01*
X32246346Y-47328271D01*
X32222711Y-47284740D01*
X32193824Y-47244995D01*
X32159685Y-47209035D01*
X32120293Y-47176860D01*
X32075650Y-47148470D01*
X32025754Y-47123866D01*
X31970606Y-47103047D01*
X31910206Y-47086013D01*
X31844554Y-47072764D01*
X31773650Y-47063301D01*
X31736228Y-47059989D01*
X31697493Y-47057623D01*
X31657446Y-47056204D01*
X31616085Y-47055730D01*
X31573291Y-47056085D01*
X31532837Y-47057147D01*
X31494723Y-47058918D01*
X31441939Y-47062903D01*
X31394420Y-47068482D01*
X31352166Y-47075654D01*
X31315176Y-47084421D01*
X31274046Y-47098589D01*
X31235795Y-47120283D01*
X31212168Y-47146406D01*
X31198161Y-47185117D01*
X31191443Y-47222859D01*
X31187708Y-47262186D01*
X31186022Y-47299878D01*
X31185607Y-47333251D01*
X31185607Y-47993623D01*
X30266948Y-47993623D01*
X30266948Y-47424842D01*
X30266119Y-47372582D01*
X30263632Y-47323992D01*
X30259486Y-47279073D01*
X30253682Y-47237825D01*
X30246219Y-47200248D01*
X30233690Y-47155855D01*
X30218213Y-47117987D01*
X30194720Y-47079830D01*
X30172609Y-47056646D01*
X30137372Y-47033924D01*
X30096151Y-47017006D01*
X30055415Y-47004791D01*
X30007780Y-46993750D01*
X29967528Y-46986239D01*
X29923395Y-46979389D01*
X29875382Y-46973198D01*
X29823489Y-46967668D01*
X29805329Y-46965971D01*
X29805329Y-46528166D01*
X31825828Y-46528166D01*
X31884085Y-46528520D01*
G37*
G36*
X36878907Y-49149502D02*
G01*
X36896285Y-49189548D01*
X36912925Y-49227483D01*
X36928828Y-49263308D01*
X36943994Y-49297021D01*
X36965362Y-49343633D01*
X36985071Y-49385496D01*
X37003122Y-49422609D01*
X37024610Y-49464705D01*
X37043150Y-49498358D01*
X37065432Y-49533005D01*
X37068501Y-49536933D01*
X37099026Y-49566227D01*
X37135649Y-49592746D01*
X37178367Y-49616488D01*
X37214407Y-49632473D01*
X37253876Y-49646895D01*
X37296775Y-49659757D01*
X37343102Y-49671056D01*
X37392859Y-49680794D01*
X37446046Y-49688970D01*
X37483408Y-49693553D01*
X37483408Y-50162500D01*
X35566407Y-50162500D01*
X35566407Y-49693553D01*
X35619867Y-49688727D01*
X35669877Y-49683178D01*
X35716438Y-49676906D01*
X35759550Y-49669911D01*
X35799213Y-49662194D01*
X35835428Y-49653754D01*
X35883282Y-49639739D01*
X35923376Y-49624098D01*
X35955711Y-49606831D01*
X35986751Y-49581278D01*
X36006152Y-49545272D01*
X36007876Y-49529605D01*
X36000309Y-49487820D01*
X35986857Y-49439105D01*
X35972353Y-49391618D01*
X35960583Y-49354746D01*
X35947130Y-49313702D01*
X35931996Y-49268486D01*
X35915181Y-49219098D01*
X35896684Y-49165539D01*
X35876505Y-49107808D01*
X35854645Y-49045905D01*
X35831103Y-48979831D01*
X35818701Y-48945229D01*
X35805880Y-48909585D01*
X35792637Y-48872897D01*
X34663319Y-48872897D01*
X34495708Y-49314366D01*
X34481987Y-49351222D01*
X34468592Y-49391493D01*
X34458545Y-49427450D01*
X34451057Y-49463946D01*
X34448080Y-49498464D01*
X34454907Y-49535129D01*
X34475386Y-49568188D01*
X34502881Y-49592982D01*
X34539858Y-49615271D01*
X34576265Y-49631300D01*
X34618740Y-49645726D01*
X34642254Y-49652337D01*
X34681294Y-49660752D01*
X34723948Y-49667890D01*
X34768250Y-49674379D01*
X34809423Y-49679925D01*
X34855691Y-49685785D01*
X34893735Y-49690387D01*
X34920690Y-49693553D01*
X34920690Y-50162500D01*
X33330669Y-50162500D01*
X33330669Y-49693553D01*
X33369645Y-49686772D01*
X33410238Y-49677821D01*
X33449133Y-49668147D01*
X33492634Y-49656462D01*
X33530752Y-49645664D01*
X33571818Y-49633578D01*
X33582545Y-49630355D01*
X33622765Y-49607102D01*
X33662712Y-49577182D01*
X33702385Y-49540598D01*
X33728682Y-49512505D01*
X33754857Y-49481450D01*
X33780910Y-49447433D01*
X33806842Y-49410453D01*
X33832652Y-49370510D01*
X33858340Y-49327606D01*
X33883907Y-49281739D01*
X33909352Y-49232909D01*
X33934676Y-49181117D01*
X33959878Y-49126363D01*
X33984958Y-49068646D01*
X33997452Y-49038677D01*
X34260281Y-48403951D01*
X34831847Y-48403951D01*
X35619530Y-48403951D01*
X35230268Y-47389122D01*
X34831847Y-48403951D01*
X34260281Y-48403951D01*
X35037011Y-46528166D01*
X35850340Y-46528166D01*
X36878907Y-49149502D01*
G37*
G36*
X41055460Y-46965971D02*
G01*
X41019013Y-46970082D01*
X40967630Y-46976637D01*
X40920192Y-46983660D01*
X40876697Y-46991149D01*
X40837148Y-46999105D01*
X40790551Y-47010439D01*
X40750966Y-47022604D01*
X40711347Y-47038977D01*
X40682684Y-47056646D01*
X40657090Y-47086646D01*
X40635833Y-47126842D01*
X40621952Y-47166341D01*
X40610846Y-47212366D01*
X40604339Y-47251167D01*
X40599394Y-47293638D01*
X40596010Y-47339781D01*
X40594188Y-47389594D01*
X40593841Y-47424842D01*
X40593841Y-50162500D01*
X39942629Y-50162500D01*
X38309560Y-47255399D01*
X38309560Y-49250252D01*
X38310389Y-49302382D01*
X38312876Y-49350920D01*
X38317022Y-49395869D01*
X38322826Y-49437227D01*
X38330289Y-49474995D01*
X38342818Y-49519767D01*
X38358295Y-49558157D01*
X38376721Y-49590164D01*
X38403899Y-49621196D01*
X38439447Y-49641031D01*
X38480878Y-49656380D01*
X38521751Y-49667886D01*
X38569492Y-49678705D01*
X38609807Y-49686369D01*
X38653985Y-49693646D01*
X38702028Y-49700537D01*
X38753934Y-49707041D01*
X38772095Y-49709124D01*
X38772095Y-50162500D01*
X37359760Y-50162500D01*
X37359760Y-49724694D01*
X37411965Y-49719384D01*
X37460385Y-49713413D01*
X37505023Y-49706783D01*
X37545876Y-49699492D01*
X37582947Y-49691542D01*
X37626488Y-49679914D01*
X37663303Y-49667113D01*
X37699864Y-49649461D01*
X37721545Y-49634019D01*
X37750306Y-49604422D01*
X37774192Y-49565433D01*
X37789791Y-49527480D01*
X37802271Y-49483516D01*
X37809583Y-49446599D01*
X37815140Y-49406301D01*
X37818942Y-49362621D01*
X37820989Y-49315561D01*
X37821379Y-49282309D01*
X37821379Y-47408356D01*
X37820502Y-47359042D01*
X37817870Y-47313109D01*
X37813482Y-47270556D01*
X37807340Y-47231385D01*
X37799443Y-47195595D01*
X37786184Y-47153134D01*
X37769805Y-47116683D01*
X37744944Y-47079573D01*
X37721545Y-47056646D01*
X37686501Y-47033924D01*
X37645737Y-47017006D01*
X37605558Y-47004791D01*
X37558654Y-46993750D01*
X37519061Y-46986239D01*
X37475685Y-46979389D01*
X37428525Y-46973198D01*
X37377582Y-46967668D01*
X37359760Y-46965971D01*
X37359760Y-46528166D01*
X38908565Y-46528166D01*
X40104745Y-48650331D01*
X40104745Y-47419347D01*
X40103867Y-47369370D01*
X40101235Y-47322822D01*
X40096848Y-47279704D01*
X40090706Y-47240015D01*
X40082809Y-47203755D01*
X40069549Y-47160743D01*
X40053170Y-47123827D01*
X40028309Y-47086256D01*
X40004911Y-47063058D01*
X39969866Y-47039992D01*
X39929102Y-47022787D01*
X39888923Y-47010344D01*
X39842019Y-46999074D01*
X39802426Y-46991391D01*
X39759050Y-46984369D01*
X39711891Y-46978007D01*
X39660948Y-46972305D01*
X39643126Y-46970551D01*
X39643126Y-46528166D01*
X41055460Y-46528166D01*
X41055460Y-46965971D01*
G37*
G36*
X42982806Y-46528244D02*
G01*
X43020940Y-46528477D01*
X43058469Y-46528866D01*
X43095394Y-46529411D01*
X43167428Y-46530967D01*
X43237045Y-46533146D01*
X43304243Y-46535948D01*
X43369022Y-46539372D01*
X43431382Y-46543418D01*
X43491325Y-46548087D01*
X43548848Y-46553379D01*
X43603953Y-46559293D01*
X43656639Y-46565829D01*
X43706907Y-46572988D01*
X43754756Y-46580770D01*
X43800187Y-46589174D01*
X43843199Y-46598201D01*
X43883792Y-46607850D01*
X43921209Y-46618630D01*
X43958582Y-46630819D01*
X43995913Y-46644419D01*
X44033200Y-46659427D01*
X44070445Y-46675846D01*
X44107647Y-46693674D01*
X44144805Y-46712912D01*
X44181921Y-46733559D01*
X44218994Y-46755616D01*
X44256024Y-46779083D01*
X44293011Y-46803959D01*
X44329955Y-46830245D01*
X44366856Y-46857940D01*
X44403715Y-46887045D01*
X44440530Y-46917560D01*
X44477302Y-46949485D01*
X44513479Y-46982249D01*
X44548507Y-47015742D01*
X44582387Y-47049962D01*
X44615118Y-47084911D01*
X44646701Y-47120588D01*
X44677135Y-47156992D01*
X44706421Y-47194125D01*
X44734559Y-47231986D01*
X44761548Y-47270575D01*
X44787388Y-47309892D01*
X44812080Y-47349937D01*
X44835624Y-47390711D01*
X44858019Y-47432212D01*
X44879266Y-47474441D01*
X44899364Y-47517399D01*
X44918313Y-47561084D01*
X44936115Y-47605498D01*
X44952767Y-47650640D01*
X44968272Y-47696509D01*
X44982627Y-47743107D01*
X44995835Y-47790433D01*
X45007894Y-47838487D01*
X45018804Y-47887269D01*
X45028566Y-47936779D01*
X45037180Y-47987018D01*
X45044645Y-48037984D01*
X45050961Y-48089678D01*
X45056129Y-48142101D01*
X45060149Y-48195251D01*
X45063020Y-48249130D01*
X45064743Y-48303737D01*
X45065317Y-48359071D01*
X45064290Y-48429257D01*
X45061210Y-48498533D01*
X45056076Y-48566901D01*
X45048888Y-48634360D01*
X45039646Y-48700910D01*
X45028351Y-48766551D01*
X45015003Y-48831284D01*
X44999600Y-48895108D01*
X44982144Y-48958023D01*
X44962635Y-49020030D01*
X44941072Y-49081127D01*
X44917455Y-49141316D01*
X44891784Y-49200597D01*
X44864060Y-49258968D01*
X44834282Y-49316431D01*
X44802451Y-49372984D01*
X44766895Y-49431810D01*
X44729607Y-49488303D01*
X44690588Y-49542464D01*
X44649837Y-49594291D01*
X44607355Y-49643786D01*
X44563140Y-49690949D01*
X44517195Y-49735778D01*
X44469517Y-49778275D01*
X44420108Y-49818439D01*
X44368967Y-49856270D01*
X44316095Y-49891769D01*
X44261491Y-49924935D01*
X44205155Y-49955768D01*
X44147088Y-49984269D01*
X44087289Y-50010437D01*
X44025758Y-50034272D01*
X43981433Y-50049800D01*
X43935012Y-50064325D01*
X43886493Y-50077849D01*
X43835879Y-50090372D01*
X43783167Y-50101892D01*
X43728359Y-50112411D01*
X43671455Y-50121928D01*
X43612454Y-50130443D01*
X43551356Y-50137956D01*
X43488162Y-50144468D01*
X43422871Y-50149977D01*
X43355484Y-50154485D01*
X43286000Y-50157992D01*
X43214419Y-50160496D01*
X43140742Y-50161999D01*
X43103117Y-50162374D01*
X43064968Y-50162500D01*
X41243222Y-50162500D01*
X41243222Y-49724694D01*
X41296408Y-49719384D01*
X41345714Y-49713413D01*
X41391140Y-49706783D01*
X41432686Y-49699492D01*
X41470352Y-49691542D01*
X41514538Y-49679914D01*
X41551826Y-49667113D01*
X41588735Y-49649461D01*
X41610502Y-49634019D01*
X41637680Y-49604019D01*
X41660251Y-49563823D01*
X41674991Y-49524324D01*
X41686784Y-49478300D01*
X41690206Y-49459080D01*
X42623499Y-49459080D01*
X42624129Y-49498407D01*
X42626687Y-49537101D01*
X42633574Y-49571737D01*
X42654473Y-49605775D01*
X42687402Y-49634044D01*
X42722407Y-49652505D01*
X42765111Y-49667274D01*
X42802192Y-49675928D01*
X42843604Y-49682505D01*
X42889347Y-49687005D01*
X42939420Y-49689428D01*
X42975209Y-49689890D01*
X43041219Y-49688230D01*
X43105297Y-49683249D01*
X43167443Y-49674949D01*
X43227657Y-49663328D01*
X43285939Y-49648387D01*
X43342289Y-49630126D01*
X43396707Y-49608545D01*
X43449193Y-49583644D01*
X43499747Y-49555422D01*
X43548369Y-49523881D01*
X43595059Y-49489019D01*
X43639817Y-49450837D01*
X43682643Y-49409335D01*
X43723536Y-49364512D01*
X43762498Y-49316370D01*
X43799528Y-49264907D01*
X43830694Y-49217208D01*
X43859850Y-49167992D01*
X43886994Y-49117259D01*
X43912128Y-49065010D01*
X43935251Y-49011243D01*
X43956364Y-48955959D01*
X43975466Y-48899158D01*
X43992557Y-48840840D01*
X44007637Y-48781006D01*
X44020707Y-48719654D01*
X44031765Y-48656785D01*
X44040814Y-48592400D01*
X44047851Y-48526497D01*
X44052878Y-48459077D01*
X44055894Y-48390141D01*
X44056899Y-48319687D01*
X44055955Y-48249334D01*
X44053121Y-48180698D01*
X44048399Y-48113779D01*
X44041787Y-48048578D01*
X44033286Y-47985094D01*
X44022896Y-47923327D01*
X44010617Y-47863277D01*
X43996449Y-47804945D01*
X43980392Y-47748331D01*
X43962446Y-47693433D01*
X43942611Y-47640253D01*
X43920887Y-47588790D01*
X43897273Y-47539045D01*
X43871771Y-47491017D01*
X43844379Y-47444706D01*
X43815099Y-47400113D01*
X43779293Y-47351312D01*
X43741483Y-47305660D01*
X43701669Y-47263156D01*
X43659852Y-47223800D01*
X43616031Y-47187593D01*
X43570207Y-47154534D01*
X43522380Y-47124624D01*
X43472548Y-47097862D01*
X43420714Y-47074249D01*
X43366875Y-47053784D01*
X43311033Y-47036468D01*
X43253188Y-47022300D01*
X43193339Y-47011280D01*
X43131486Y-47003409D01*
X43067630Y-46998686D01*
X43001770Y-46997112D01*
X42964510Y-46997442D01*
X42918585Y-46998909D01*
X42876954Y-47001550D01*
X42839617Y-47005363D01*
X42798982Y-47011781D01*
X42759075Y-47021903D01*
X42728829Y-47034665D01*
X42698485Y-47056400D01*
X42673284Y-47084396D01*
X42653226Y-47118653D01*
X42638311Y-47159171D01*
X42630082Y-47196094D01*
X42625145Y-47237024D01*
X42623499Y-47281960D01*
X42623499Y-49459080D01*
X41690206Y-49459080D01*
X41693693Y-49439499D01*
X41698945Y-49397027D01*
X41702538Y-49350885D01*
X41704472Y-49301071D01*
X41704841Y-49265823D01*
X41704841Y-47424842D01*
X41704012Y-47372582D01*
X41701524Y-47323992D01*
X41697378Y-47279073D01*
X41691574Y-47237825D01*
X41684112Y-47200248D01*
X41671583Y-47155855D01*
X41656105Y-47117987D01*
X41632613Y-47079830D01*
X41610502Y-47056646D01*
X41575264Y-47033924D01*
X41534044Y-47017006D01*
X41493307Y-47004791D01*
X41445673Y-46993750D01*
X41405420Y-46986239D01*
X41361287Y-46979389D01*
X41313275Y-46973198D01*
X41261382Y-46967668D01*
X41243222Y-46965971D01*
X41243222Y-46528166D01*
X42944068Y-46528166D01*
X42982806Y-46528244D01*
G37*
G36*
X47219539Y-50162500D02*
G01*
X45335511Y-50162500D01*
X45335511Y-49693553D01*
X45388745Y-49688511D01*
X45438196Y-49683002D01*
X45483864Y-49677027D01*
X45525748Y-49670584D01*
X45563849Y-49663674D01*
X45608764Y-49653735D01*
X45646953Y-49642966D01*
X45685231Y-49628338D01*
X45708286Y-49615701D01*
X45739950Y-49586636D01*
X45766246Y-49548671D01*
X45783420Y-49511892D01*
X45797158Y-49469416D01*
X45807462Y-49421245D01*
X45812936Y-49381379D01*
X45816478Y-49338309D01*
X45818088Y-49292035D01*
X45818196Y-49275898D01*
X45818196Y-47414767D01*
X45817230Y-47367425D01*
X45814332Y-47323287D01*
X45809502Y-47282353D01*
X45802740Y-47244623D01*
X45790718Y-47199299D01*
X45775262Y-47159672D01*
X45756372Y-47125740D01*
X45727928Y-47091336D01*
X45708286Y-47074965D01*
X45671181Y-47056321D01*
X45628700Y-47042211D01*
X45587147Y-47031857D01*
X45538869Y-47022333D01*
X45498246Y-47015735D01*
X45453839Y-47009603D01*
X45405649Y-47003939D01*
X45353676Y-46998741D01*
X45335511Y-46997112D01*
X45335511Y-46528166D01*
X47219539Y-46528166D01*
X47219539Y-46997112D01*
X47166304Y-47002154D01*
X47116853Y-47007663D01*
X47071186Y-47013639D01*
X47029301Y-47020082D01*
X46991201Y-47026991D01*
X46946285Y-47036930D01*
X46908096Y-47047699D01*
X46869818Y-47062328D01*
X46846763Y-47074965D01*
X46815100Y-47104030D01*
X46788803Y-47141994D01*
X46771630Y-47178774D01*
X46757891Y-47221249D01*
X46747587Y-47269420D01*
X46742113Y-47309287D01*
X46738571Y-47352357D01*
X46736961Y-47398631D01*
X46736854Y-47414767D01*
X46736854Y-49275898D01*
X46737820Y-49323240D01*
X46740718Y-49367378D01*
X46745548Y-49408312D01*
X46752310Y-49446043D01*
X46764331Y-49491366D01*
X46779787Y-49530993D01*
X46798678Y-49564925D01*
X46827121Y-49599330D01*
X46846763Y-49615701D01*
X46883868Y-49634345D01*
X46926350Y-49648454D01*
X46967902Y-49658809D01*
X47016181Y-49668333D01*
X47056804Y-49674931D01*
X47101210Y-49681062D01*
X47149400Y-49686727D01*
X47201374Y-49691924D01*
X47219539Y-49693553D01*
X47219539Y-50162500D01*
G37*
G36*
X51020568Y-47666643D02*
G01*
X50636802Y-47826011D01*
X50615773Y-47790350D01*
X50596697Y-47758279D01*
X50575616Y-47723059D01*
X50552533Y-47684691D01*
X50527445Y-47643174D01*
X50507315Y-47609971D01*
X50486057Y-47574996D01*
X50463673Y-47538251D01*
X50448124Y-47512770D01*
X50422822Y-47480484D01*
X50398286Y-47452363D01*
X50368984Y-47420893D01*
X50340925Y-47392109D01*
X50309557Y-47361001D01*
X50296083Y-47347906D01*
X50258727Y-47312525D01*
X50221536Y-47279427D01*
X50184510Y-47248612D01*
X50147648Y-47220079D01*
X50110951Y-47193829D01*
X50074418Y-47169862D01*
X50038050Y-47148177D01*
X50001847Y-47128774D01*
X49965808Y-47111655D01*
X49929933Y-47096818D01*
X49894224Y-47084263D01*
X49858678Y-47073991D01*
X49805669Y-47062864D01*
X49753030Y-47056872D01*
X49718143Y-47055730D01*
X49678244Y-47058993D01*
X49642377Y-47072249D01*
X49619880Y-47101615D01*
X49618309Y-47107937D01*
X49614021Y-47146666D01*
X49613076Y-47188326D01*
X49612819Y-47229413D01*
X49612814Y-47237081D01*
X49612814Y-49267655D01*
X49613194Y-49308227D01*
X49614334Y-49345221D01*
X49616706Y-49384891D01*
X49620857Y-49424662D01*
X49627426Y-49461527D01*
X49628384Y-49465491D01*
X49640262Y-49508322D01*
X49659296Y-49546367D01*
X49685485Y-49579627D01*
X49718830Y-49608102D01*
X49750658Y-49627436D01*
X49787066Y-49643708D01*
X49828053Y-49656917D01*
X49865863Y-49665870D01*
X49902370Y-49671943D01*
X49946793Y-49677748D01*
X49988030Y-49682199D01*
X50034334Y-49686478D01*
X50072386Y-49689575D01*
X50113288Y-49692575D01*
X50127555Y-49693553D01*
X50127555Y-50162500D01*
X48180329Y-50162500D01*
X48180329Y-49693553D01*
X48222173Y-49690585D01*
X48261151Y-49687521D01*
X48308664Y-49683285D01*
X48351082Y-49678877D01*
X48388406Y-49674298D01*
X48427895Y-49668332D01*
X48464775Y-49660818D01*
X48478916Y-49656917D01*
X48519989Y-49643693D01*
X48556654Y-49627379D01*
X48588911Y-49607973D01*
X48623034Y-49579369D01*
X48650270Y-49545934D01*
X48670619Y-49507670D01*
X48684080Y-49464576D01*
X48688950Y-49423303D01*
X48691636Y-49383288D01*
X48693171Y-49343479D01*
X48693909Y-49306417D01*
X48694155Y-49265823D01*
X48694155Y-47222426D01*
X48692767Y-47183357D01*
X48687127Y-47141846D01*
X48674634Y-47102776D01*
X48652163Y-47072009D01*
X48616070Y-47056382D01*
X48605312Y-47055730D01*
X48550507Y-47057912D01*
X48496347Y-47064457D01*
X48442831Y-47075364D01*
X48389958Y-47090635D01*
X48355068Y-47103240D01*
X48320464Y-47117783D01*
X48286146Y-47134266D01*
X48252114Y-47152688D01*
X48218368Y-47173049D01*
X48184909Y-47195350D01*
X48151736Y-47219589D01*
X48118849Y-47245768D01*
X48086248Y-47273885D01*
X48053934Y-47303942D01*
X48025512Y-47331205D01*
X47997949Y-47359183D01*
X47971244Y-47387877D01*
X47945398Y-47417286D01*
X47920411Y-47447411D01*
X47896282Y-47478252D01*
X47873013Y-47509808D01*
X47850601Y-47542079D01*
X47829049Y-47575066D01*
X47808355Y-47608769D01*
X47788520Y-47643187D01*
X47769543Y-47678321D01*
X47751425Y-47714170D01*
X47734166Y-47750735D01*
X47717766Y-47788015D01*
X47702224Y-47826011D01*
X47329448Y-47666643D01*
X47702224Y-46528166D01*
X50595586Y-46528166D01*
X51020568Y-47666643D01*
G37*
D10*
D11*
X22342028Y-21354510D02*
X22270600Y-21425939D01*
X22270600Y-21425939D02*
X22199171Y-21354510D01*
X22199171Y-21354510D02*
X22270600Y-21283082D01*
X22270600Y-21283082D02*
X22342028Y-21354510D01*
X22342028Y-21354510D02*
X22199171Y-21354510D01*
X23127742Y-21354510D02*
X23056314Y-21425939D01*
X23056314Y-21425939D02*
X22984885Y-21354510D01*
X22984885Y-21354510D02*
X23056314Y-21283082D01*
X23056314Y-21283082D02*
X23127742Y-21354510D01*
X23127742Y-21354510D02*
X22984885Y-21354510D01*
X23199171Y-22068796D02*
X21699171Y-22068796D01*
X23127742Y-22068796D02*
X23199171Y-22211654D01*
X23199171Y-22211654D02*
X23199171Y-22497368D01*
X23199171Y-22497368D02*
X23127742Y-22640225D01*
X23127742Y-22640225D02*
X23056314Y-22711654D01*
X23056314Y-22711654D02*
X22913457Y-22783082D01*
X22913457Y-22783082D02*
X22484885Y-22783082D01*
X22484885Y-22783082D02*
X22342028Y-22711654D01*
X22342028Y-22711654D02*
X22270600Y-22640225D01*
X22270600Y-22640225D02*
X22199171Y-22497368D01*
X22199171Y-22497368D02*
X22199171Y-22211654D01*
X22199171Y-22211654D02*
X22270600Y-22068796D01*
D12*
%TO.P,C70,1*%
%TO.N,+3V3*%
X39200000Y-28460000D03*
%TO.P,C70,2*%
%TO.N,GND*%
X39200000Y-27500000D03*
%TD*%
D13*
%TO.P,SW1,1,A*%
%TO.N,Net-(SW1-A)*%
X27600000Y-44200000D03*
%TO.P,SW1,2,B*%
%TO.N,GND*%
X23100000Y-44200000D03*
%TD*%
D14*
%TO.P,C15,1*%
%TO.N,VDDA*%
X50180000Y-40400000D03*
%TO.P,C15,2*%
%TO.N,GND*%
X49220000Y-40400000D03*
%TD*%
%TO.P,C12,1*%
%TO.N,VDDA*%
X50180000Y-41400000D03*
%TO.P,C12,2*%
%TO.N,GND*%
X49220000Y-41400000D03*
%TD*%
D15*
%TO.P,C3,1*%
%TO.N,VDDA*%
X67620000Y-43300000D03*
%TO.P,C3,2*%
%TO.N,GND*%
X68580000Y-43300000D03*
%TD*%
D16*
%TO.P,R42,1*%
%TO.N,Net-(C18-Pad1)*%
X50890000Y-36600000D03*
%TO.P,R42,2*%
%TO.N,GND*%
X51910000Y-36600000D03*
%TD*%
D17*
%TO.P,R20,1*%
%TO.N,VDDA*%
X51100000Y-39610000D03*
%TO.P,R20,2*%
%TO.N,Net-(C18-Pad1)*%
X51100000Y-38590000D03*
%TD*%
%TO.P,R19,1*%
%TO.N,Net-(C17-Pad1)*%
X52100000Y-43110000D03*
%TO.P,R19,2*%
%TO.N,GND*%
X52100000Y-42090000D03*
%TD*%
D18*
%TO.P,R18,1*%
%TO.N,VDDA*%
X51100000Y-42090000D03*
%TO.P,R18,2*%
%TO.N,Net-(C17-Pad1)*%
X51100000Y-43110000D03*
%TD*%
D16*
%TO.P,R17,1*%
%TO.N,/SIG_IN*%
X67590000Y-39300000D03*
%TO.P,R17,2*%
%TO.N,GND*%
X68610000Y-39300000D03*
%TD*%
D17*
%TO.P,R16,1*%
%TO.N,VDDA*%
X67600000Y-42310000D03*
%TO.P,R16,2*%
%TO.N,/SIG_IN*%
X67600000Y-41290000D03*
%TD*%
D15*
%TO.P,C18,1*%
%TO.N,Net-(C18-Pad1)*%
X50920000Y-37650000D03*
%TO.P,C18,2*%
%TO.N,/SE_SIG_A*%
X51880000Y-37650000D03*
%TD*%
%TO.P,C17,1*%
%TO.N,Net-(C17-Pad1)*%
X50920000Y-44150000D03*
%TO.P,C17,2*%
%TO.N,/SE_SIG_B*%
X51880000Y-44150000D03*
%TD*%
%TO.P,C2,1*%
%TO.N,/SIG_IN*%
X67620000Y-40300000D03*
%TO.P,C2,2*%
%TO.N,Net-(U7-VOUT)*%
X68580000Y-40300000D03*
%TD*%
D19*
%TO.P,R22,1*%
%TO.N,Net-(C18-Pad1)*%
X49270000Y-37650000D03*
%TO.P,R22,2*%
%TO.N,Net-(U1-AINP_B)*%
X48250000Y-37650000D03*
%TD*%
D20*
%TO.P,C3,1*%
%TO.N,VBUS*%
X44375000Y-22095000D03*
%TO.P,C3,2*%
%TO.N,GND*%
X44375000Y-23055000D03*
%TD*%
%TO.P,C21,1*%
%TO.N,Net-(U1-REFIO_B)*%
X47310000Y-39520000D03*
%TO.P,C21,2*%
%TO.N,GND*%
X47310000Y-40480000D03*
%TD*%
D12*
%TO.P,C59,1*%
%TO.N,Net-(U10B--)*%
X55127100Y-26960000D03*
%TO.P,C59,2*%
%TO.N,Net-(C54-Pad2)*%
X55127100Y-26000000D03*
%TD*%
D20*
%TO.P,C23,1*%
%TO.N,Net-(U1-AINP_B)*%
X47310000Y-37620000D03*
%TO.P,C23,2*%
%TO.N,Net-(U1-AINM_B)*%
X47310000Y-38580000D03*
%TD*%
%TO.P,C8,1*%
%TO.N,VDDA*%
X50225000Y-22095000D03*
%TO.P,C8,2*%
%TO.N,GND*%
X50225000Y-23055000D03*
%TD*%
D18*
%TO.P,R32,1*%
%TO.N,Net-(C47-Pad2)*%
X64990200Y-46612500D03*
%TO.P,R32,2*%
%TO.N,Net-(U9B-+)*%
X64990200Y-47632500D03*
%TD*%
D21*
%TO.P,R8,1*%
%TO.N,Net-(U4-PG{slash}ADJ)*%
X47350000Y-25675000D03*
%TO.P,R8,2*%
%TO.N,VDDA*%
X49000000Y-25675000D03*
%TD*%
D18*
%TO.P,R24,1*%
%TO.N,GND*%
X48310000Y-42190000D03*
%TO.P,R24,2*%
%TO.N,Net-(U1-AINM_A)*%
X48310000Y-43210000D03*
%TD*%
D22*
%TO.P,P1,A1,GND*%
%TO.N,GND*%
X26980000Y-32670000D03*
%TO.P,P1,A4,VBUS*%
%TO.N,VBUS*%
X26980000Y-33470000D03*
D23*
%TO.P,P1,A5,CC*%
%TO.N,/USB_CC*%
X26980000Y-34620000D03*
%TO.P,P1,A6,D+*%
%TO.N,Net-(P1-D+)*%
X26980000Y-35620000D03*
%TO.P,P1,A7,D-*%
%TO.N,Net-(P1-D-)*%
X26980000Y-36120000D03*
%TO.P,P1,A8*%
%TO.N,N/C*%
X26980000Y-37120000D03*
D22*
%TO.P,P1,A9,VBUS*%
%TO.N,VBUS*%
X26980000Y-38270000D03*
%TO.P,P1,A12,GND*%
%TO.N,GND*%
X26980000Y-39070000D03*
%TO.P,P1,B1,GND*%
X26980000Y-39070000D03*
%TO.P,P1,B4,VBUS*%
%TO.N,VBUS*%
X26980000Y-38270000D03*
D23*
%TO.P,P1,B5,VCONN*%
%TO.N,/USB_VCONN*%
X26980000Y-37620000D03*
%TO.P,P1,B6*%
%TO.N,N/C*%
X26980000Y-36620000D03*
%TO.P,P1,B7*%
X26980000Y-35120000D03*
%TO.P,P1,B8*%
X26980000Y-34120000D03*
D22*
%TO.P,P1,B9,VBUS*%
%TO.N,VBUS*%
X26980000Y-33470000D03*
%TO.P,P1,B12,GND*%
%TO.N,GND*%
X26980000Y-32670000D03*
D24*
%TO.P,P1,S1,SHIELD*%
X26405000Y-31550000D03*
D25*
X22225000Y-31550000D03*
D24*
X26405000Y-40190000D03*
D25*
X22225000Y-40190000D03*
%TD*%
D14*
%TO.P,C11,1*%
%TO.N,Net-(U2-ADC_AVDD)*%
X35490000Y-28170000D03*
%TO.P,C11,2*%
%TO.N,GND*%
X34530000Y-28170000D03*
%TD*%
D12*
%TO.P,C30,1*%
%TO.N,VDDA*%
X65500000Y-37380000D03*
%TO.P,C30,2*%
%TO.N,GND*%
X65500000Y-36420000D03*
%TD*%
D26*
%TO.P,R33,1*%
%TO.N,Net-(U9C--)*%
X65290200Y-41697500D03*
%TO.P,R33,2*%
%TO.N,Net-(C47-Pad2)*%
X65290200Y-43347500D03*
%TD*%
D27*
%TO.P,FB1,1*%
%TO.N,Net-(U2-ADC_AVDD)*%
X35217500Y-26890000D03*
%TO.P,FB1,2*%
%TO.N,+3V3*%
X33642500Y-26890000D03*
%TD*%
D12*
%TO.P,C14,1*%
%TO.N,VDDA*%
X50225000Y-24955000D03*
%TO.P,C14,2*%
%TO.N,GND*%
X50225000Y-23995000D03*
%TD*%
D17*
%TO.P,R21,1*%
%TO.N,GND*%
X48310000Y-39610000D03*
%TO.P,R21,2*%
%TO.N,Net-(U1-AINM_B)*%
X48310000Y-38590000D03*
%TD*%
D20*
%TO.P,C60,1*%
%TO.N,Net-(U9A--)*%
X55690200Y-47642500D03*
%TO.P,C60,2*%
%TO.N,Net-(C45-Pad2)*%
X55690200Y-48602500D03*
%TD*%
D28*
%TO.P,R9,1*%
%TO.N,GND*%
X48750000Y-27225000D03*
%TO.P,R9,2*%
%TO.N,Net-(U4-PG{slash}ADJ)*%
X47100000Y-27225000D03*
%TD*%
D29*
%TO.P,U7,1,VOUT*%
%TO.N,Net-(U7-VOUT)*%
X73275000Y-37780000D03*
%TO.P,U7,2,CH0*%
%TO.N,Net-(U7-CH0)*%
X73275000Y-36510000D03*
%TO.P,U7,3,CH1*%
%TO.N,/WGN_PGA_IN*%
X73275000Y-35240000D03*
%TO.P,U7,4,VSS*%
%TO.N,GND*%
X73275000Y-33970000D03*
%TO.P,U7,5,~{CS}*%
%TO.N,/~{PGA_CS}*%
X68325000Y-33970000D03*
%TO.P,U7,6,SI*%
%TO.N,/PGA_SI*%
X68325000Y-35240000D03*
%TO.P,U7,7,SCK*%
%TO.N,/PGA_SCK*%
X68325000Y-36510000D03*
%TO.P,U7,8,VDD*%
%TO.N,VDDA*%
X68325000Y-37780000D03*
%TD*%
D14*
%TO.P,C7,1*%
%TO.N,GND*%
X48820000Y-32700000D03*
%TO.P,C7,2*%
%TO.N,/XOUT*%
X47860000Y-32700000D03*
%TD*%
D12*
%TO.P,C16,1*%
%TO.N,GND*%
X62390200Y-48602500D03*
%TO.P,C16,2*%
%TO.N,Net-(U9B-+)*%
X62390200Y-47642500D03*
%TD*%
D20*
%TO.P,C26,1*%
%TO.N,VDDA*%
X40770000Y-44420000D03*
%TO.P,C26,2*%
%TO.N,GND*%
X40770000Y-45380000D03*
%TD*%
D30*
%TO.P,R30,1*%
%TO.N,Net-(C45-Pad2)*%
X56990200Y-49547500D03*
%TO.P,R30,2*%
%TO.N,Net-(U9A-+)*%
X56990200Y-47897500D03*
%TD*%
D12*
%TO.P,C37,1*%
%TO.N,+3V3*%
X36480000Y-28200000D03*
%TO.P,C37,2*%
%TO.N,GND*%
X36480000Y-27240000D03*
%TD*%
D14*
%TO.P,C6,1*%
%TO.N,VBUS*%
X24300000Y-25400000D03*
%TO.P,C6,2*%
%TO.N,GND*%
X23340000Y-25400000D03*
%TD*%
D19*
%TO.P,R23,1*%
%TO.N,Net-(C17-Pad1)*%
X49270000Y-44150000D03*
%TO.P,R23,2*%
%TO.N,Net-(U1-AINP_A)*%
X48250000Y-44150000D03*
%TD*%
D20*
%TO.P,C32,1*%
%TO.N,Net-(U6-VIN+)*%
X48275000Y-29545000D03*
%TO.P,C32,2*%
%TO.N,GND*%
X48275000Y-30505000D03*
%TD*%
D31*
%TO.P,C34,1*%
%TO.N,+1V1*%
X31959411Y-33850589D03*
%TO.P,C34,2*%
%TO.N,GND*%
X31280589Y-34529411D03*
%TD*%
D32*
%TO.P,U1,1,AINP_A*%
%TO.N,Net-(U1-AINP_A)*%
X44652500Y-43185000D03*
%TO.P,U1,2,AINM_A*%
%TO.N,Net-(U1-AINM_A)*%
X44652500Y-42535000D03*
%TO.P,U1,3,REFIO_A*%
%TO.N,Net-(U1-REFIO_A)*%
X44652500Y-41885000D03*
%TO.P,U1,4,REFGND_A*%
%TO.N,GND*%
X44652500Y-41235000D03*
%TO.P,U1,5,REFGND_B*%
X44652500Y-40585000D03*
%TO.P,U1,6,REFIO_B*%
%TO.N,Net-(U1-REFIO_B)*%
X44652500Y-39935000D03*
%TO.P,U1,7,AINM_B*%
%TO.N,Net-(U1-AINM_B)*%
X44652500Y-39285000D03*
%TO.P,U1,8,AINP_B*%
%TO.N,Net-(U1-AINP_B)*%
X44652500Y-38635000D03*
%TO.P,U1,9,DVDD*%
%TO.N,+3V3*%
X38927500Y-38635000D03*
%TO.P,U1,10,SDI*%
%TO.N,/ADC_SDI*%
X38927500Y-39285000D03*
%TO.P,U1,11,~{CS}*%
%TO.N,/ADC_CSN*%
X38927500Y-39935000D03*
%TO.P,U1,12,SCLK*%
%TO.N,/ADC_SCK*%
X38927500Y-40585000D03*
%TO.P,U1,13,SDO_A*%
%TO.N,/ADC_SDO_A*%
X38927500Y-41235000D03*
%TO.P,U1,14,SDO_B*%
%TO.N,/ADC_SDO_B*%
X38927500Y-41885000D03*
%TO.P,U1,15,GND*%
%TO.N,GND*%
X38927500Y-42535000D03*
%TO.P,U1,16,AVDD*%
%TO.N,VDDA*%
X38927500Y-43185000D03*
%TD*%
D20*
%TO.P,C47,1*%
%TO.N,Net-(U9B--)*%
X64990200Y-44742500D03*
%TO.P,C47,2*%
%TO.N,Net-(C47-Pad2)*%
X64990200Y-45702500D03*
%TD*%
D17*
%TO.P,R39,1*%
%TO.N,Net-(C56-Pad2)*%
X64427300Y-28114700D03*
%TO.P,R39,2*%
%TO.N,Net-(U10A-+)*%
X64427300Y-27094700D03*
%TD*%
D19*
%TO.P,R34,1*%
%TO.N,/SIG_IN*%
X64200200Y-38522500D03*
%TO.P,R34,2*%
%TO.N,Net-(U9C-+)*%
X63180200Y-38522500D03*
%TD*%
D20*
%TO.P,C38,1*%
%TO.N,GND*%
X61000000Y-26020000D03*
%TO.P,C38,2*%
%TO.N,Net-(U10A-+)*%
X61000000Y-26980000D03*
%TD*%
D33*
%TO.P,D2,1,A*%
%TO.N,+3V3*%
X36770000Y-23525000D03*
%TO.P,D2,2,BK*%
%TO.N,Net-(D2-BK)*%
X38270000Y-23525000D03*
%TO.P,D2,3,GK*%
%TO.N,Net-(D2-GK)*%
X38270000Y-24625000D03*
%TO.P,D2,4,RK*%
%TO.N,Net-(D2-RK)*%
X36770000Y-24625000D03*
%TD*%
D20*
%TO.P,C50,1*%
%TO.N,GND*%
X62190200Y-38142500D03*
%TO.P,C50,2*%
%TO.N,Net-(U9C-+)*%
X62190200Y-39102500D03*
%TD*%
D12*
%TO.P,C68,1*%
%TO.N,+3V3*%
X30530000Y-26460000D03*
%TO.P,C68,2*%
%TO.N,GND*%
X30530000Y-25500000D03*
%TD*%
D14*
%TO.P,C29,1*%
%TO.N,+3V3*%
X37260000Y-39600000D03*
%TO.P,C29,2*%
%TO.N,GND*%
X36300000Y-39600000D03*
%TD*%
D34*
%TO.P,D1,1,K*%
%TO.N,Net-(D1-K)*%
X32737500Y-23700000D03*
%TO.P,D1,2,A*%
%TO.N,+3V3*%
X30862500Y-23700000D03*
%TD*%
D14*
%TO.P,C63,1*%
%TO.N,+1V1*%
X33450000Y-29900000D03*
%TO.P,C63,2*%
%TO.N,GND*%
X32490000Y-29900000D03*
%TD*%
D12*
%TO.P,C74,1*%
%TO.N,+3V3*%
X40200000Y-28460000D03*
%TO.P,C74,2*%
%TO.N,GND*%
X40200000Y-27500000D03*
%TD*%
%TO.P,C51,1*%
%TO.N,GND*%
X58763100Y-36480000D03*
%TO.P,C51,2*%
%TO.N,Net-(U10C-+)*%
X58763100Y-35520000D03*
%TD*%
%TO.P,C24,1*%
%TO.N,Net-(U1-AINP_A)*%
X47310000Y-44180000D03*
%TO.P,C24,2*%
%TO.N,Net-(U1-AINM_A)*%
X47310000Y-43220000D03*
%TD*%
D26*
%TO.P,R37,1*%
%TO.N,Net-(C54-Pad2)*%
X56427100Y-25075000D03*
%TO.P,R37,2*%
%TO.N,Net-(U10B-+)*%
X56427100Y-26725000D03*
%TD*%
D18*
%TO.P,R1,1*%
%TO.N,Net-(D2-BK)*%
X39795000Y-23515000D03*
%TO.P,R1,2*%
%TO.N,/LED_B*%
X39795000Y-24535000D03*
%TD*%
D35*
%TO.P,C73,1*%
%TO.N,/WGN_OUT_PORT*%
X69150000Y-26375000D03*
%TO.P,C73,2*%
%TO.N,/WGN_OUT*%
X67250000Y-26375000D03*
%TD*%
D12*
%TO.P,C20,1*%
%TO.N,GND*%
X61557100Y-36454600D03*
%TO.P,C20,2*%
%TO.N,Net-(U10D-+)*%
X61557100Y-35494600D03*
%TD*%
D36*
%TO.P,U5,1,~{CS}*%
%TO.N,/~{FLASH_CSN}*%
X33097106Y-39268428D03*
%TO.P,U5,2,DO(IO1)*%
%TO.N,/FLASH_IO1*%
X33450660Y-38914874D03*
%TO.P,U5,3,IO2*%
%TO.N,/FLASH_IO2*%
X33804213Y-38561321D03*
%TO.P,U5,4,GND*%
%TO.N,GND*%
X34157767Y-38207767D03*
%TO.P,U5,5,DI(IO0)*%
%TO.N,/FLASH_IO0*%
X32390000Y-36440000D03*
%TO.P,U5,6,CLK*%
%TO.N,/FLASH_SCK*%
X32036446Y-36793554D03*
%TO.P,U5,7,IO3*%
%TO.N,/FLASH_IO3*%
X31682893Y-37147107D03*
%TO.P,U5,8,VCC*%
%TO.N,+3V3*%
X31329339Y-37500661D03*
D37*
%TO.P,U5,9*%
%TO.N,N/C*%
X32743553Y-37854214D03*
%TD*%
D16*
%TO.P,R2,1*%
%TO.N,Net-(D2-GK)*%
X38650000Y-26100000D03*
%TO.P,R2,2*%
%TO.N,/LED_G*%
X39670000Y-26100000D03*
%TD*%
D15*
%TO.P,C13,1*%
%TO.N,VDDA*%
X50245000Y-25975000D03*
%TO.P,C13,2*%
%TO.N,GND*%
X51205000Y-25975000D03*
%TD*%
D12*
%TO.P,C35,1*%
%TO.N,+3V3*%
X37500000Y-28200000D03*
%TO.P,C35,2*%
%TO.N,GND*%
X37500000Y-27240000D03*
%TD*%
%TO.P,C41,1*%
%TO.N,GND*%
X60630000Y-36454600D03*
%TO.P,C41,2*%
%TO.N,Net-(U10D-+)*%
X60630000Y-35494600D03*
%TD*%
D17*
%TO.P,R35,1*%
%TO.N,Net-(C39-Pad2)*%
X57823300Y-36535400D03*
%TO.P,R35,2*%
%TO.N,Net-(U10C-+)*%
X57823300Y-35515400D03*
%TD*%
D38*
%TO.P,J6,1,In*%
%TO.N,/WGN_OUT_PORT*%
X76000000Y-26375000D03*
D39*
%TO.P,J6,2,Ext*%
%TO.N,GND*%
X72700000Y-23075000D03*
X72700000Y-29675000D03*
X79300000Y-23075000D03*
X79300000Y-29675000D03*
%TD*%
D40*
%TO.P,U4,1,VIN*%
%TO.N,VBUS*%
X45850000Y-22125000D03*
%TO.P,U4,2,GND*%
%TO.N,GND*%
X45850000Y-23075000D03*
%TO.P,U4,3,EN*%
%TO.N,/VDDA_EN*%
X45850000Y-24025000D03*
%TO.P,U4,4,PG/ADJ*%
%TO.N,Net-(U4-PG{slash}ADJ)*%
X48125000Y-24025000D03*
%TO.P,U4,5,VOUT*%
%TO.N,VDDA*%
X48125000Y-22125000D03*
%TD*%
D12*
%TO.P,C66,1*%
%TO.N,+3V3*%
X46050000Y-31710000D03*
%TO.P,C66,2*%
%TO.N,GND*%
X46050000Y-30750000D03*
%TD*%
D20*
%TO.P,C10,1*%
%TO.N,/CLK_12M*%
X44930000Y-34640000D03*
%TO.P,C10,2*%
%TO.N,GND*%
X44930000Y-35600000D03*
%TD*%
D31*
%TO.P,C33,1*%
%TO.N,+1V1*%
X33349411Y-33920589D03*
%TO.P,C33,2*%
%TO.N,GND*%
X32670589Y-34599411D03*
%TD*%
D14*
%TO.P,C4,1*%
%TO.N,VBUS*%
X24300000Y-26450000D03*
%TO.P,C4,2*%
%TO.N,GND*%
X23340000Y-26450000D03*
%TD*%
D12*
%TO.P,C65,1*%
%TO.N,+3V3*%
X45050000Y-31710000D03*
%TO.P,C65,2*%
%TO.N,GND*%
X45050000Y-30750000D03*
%TD*%
D41*
%TO.P,R12,1*%
%TO.N,/~{FLASH_CSN}*%
X32760624Y-41739376D03*
%TO.P,R12,2*%
%TO.N,Net-(SW1-A)*%
X32039376Y-42460624D03*
%TD*%
D12*
%TO.P,C44,1*%
%TO.N,GND*%
X58290200Y-48602500D03*
%TO.P,C44,2*%
%TO.N,Net-(U9A-+)*%
X58290200Y-47642500D03*
%TD*%
D20*
%TO.P,C53,1*%
%TO.N,GND*%
X57730700Y-26020000D03*
%TO.P,C53,2*%
%TO.N,Net-(U10B-+)*%
X57730700Y-26980000D03*
%TD*%
D17*
%TO.P,R15,1*%
%TO.N,/WGN_PGA_IN*%
X77600000Y-34750000D03*
%TO.P,R15,2*%
%TO.N,GND*%
X77600000Y-33730000D03*
%TD*%
D30*
%TO.P,R29,1*%
%TO.N,Net-(U9A--)*%
X54490200Y-44347500D03*
%TO.P,R29,2*%
%TO.N,Net-(C40-Pad2)*%
X54490200Y-42697500D03*
%TD*%
D20*
%TO.P,C9,1*%
%TO.N,VDDA*%
X53575000Y-22145000D03*
%TO.P,C9,2*%
%TO.N,GND*%
X53575000Y-23105000D03*
%TD*%
D12*
%TO.P,C58,1*%
%TO.N,VDDA*%
X59900000Y-26980000D03*
%TO.P,C58,2*%
%TO.N,GND*%
X59900000Y-26020000D03*
%TD*%
D30*
%TO.P,R40,1*%
%TO.N,Net-(U10D--)*%
X64744800Y-32925000D03*
%TO.P,R40,2*%
%TO.N,Net-(C56-Pad2)*%
X64744800Y-31275000D03*
%TD*%
%TO.P,R38,1*%
%TO.N,Net-(U10A--)*%
X63182700Y-26825000D03*
%TO.P,R38,2*%
%TO.N,Net-(C54-Pad2)*%
X63182700Y-25175000D03*
%TD*%
D12*
%TO.P,C54,1*%
%TO.N,Net-(U10B--)*%
X54200000Y-26960000D03*
%TO.P,C54,2*%
%TO.N,Net-(C54-Pad2)*%
X54200000Y-26000000D03*
%TD*%
D16*
%TO.P,R3,1*%
%TO.N,Net-(D2-RK)*%
X36690000Y-26100000D03*
%TO.P,R3,2*%
%TO.N,/LED_R*%
X37710000Y-26100000D03*
%TD*%
D42*
%TO.P,C1,1*%
%TO.N,+3V3*%
X30420589Y-38090589D03*
%TO.P,C1,2*%
%TO.N,GND*%
X31099411Y-38769411D03*
%TD*%
D43*
%TO.P,U10,1*%
%TO.N,Net-(U10A--)*%
X63170000Y-28800000D03*
%TO.P,U10,2,-*%
X61900000Y-28800000D03*
%TO.P,U10,3,+*%
%TO.N,Net-(U10A-+)*%
X60630000Y-28800000D03*
%TO.P,U10,4,V+*%
%TO.N,VDDA*%
X59360000Y-28800000D03*
%TO.P,U10,5,+*%
%TO.N,Net-(U10B-+)*%
X58090000Y-28800000D03*
%TO.P,U10,6,-*%
%TO.N,Net-(U10B--)*%
X56820000Y-28800000D03*
%TO.P,U10,7*%
X55550000Y-28800000D03*
%TO.P,U10,8*%
%TO.N,/SE_SIG_A*%
X55550000Y-33750000D03*
%TO.P,U10,9,-*%
X56820000Y-33750000D03*
%TO.P,U10,10,+*%
%TO.N,Net-(U10C-+)*%
X58090000Y-33750000D03*
%TO.P,U10,11,V-*%
%TO.N,GND*%
X59360000Y-33750000D03*
%TO.P,U10,12,+*%
%TO.N,Net-(U10D-+)*%
X60630000Y-33750000D03*
%TO.P,U10,13,-*%
%TO.N,Net-(U10D--)*%
X61900000Y-33750000D03*
%TO.P,U10,14*%
X63170000Y-33750000D03*
%TD*%
D18*
%TO.P,R28,1*%
%TO.N,Net-(C40-Pad2)*%
X58490200Y-38212500D03*
%TO.P,R28,2*%
%TO.N,Net-(U9D-+)*%
X58490200Y-39232500D03*
%TD*%
D12*
%TO.P,C43,1*%
%TO.N,/SE_SIG_B*%
X56700200Y-39202500D03*
%TO.P,C43,2*%
%TO.N,Net-(C40-Pad2)*%
X56700200Y-38242500D03*
%TD*%
%TO.P,C40,1*%
%TO.N,/SE_SIG_B*%
X55690200Y-39202500D03*
%TO.P,C40,2*%
%TO.N,Net-(C40-Pad2)*%
X55690200Y-38242500D03*
%TD*%
D44*
%TO.P,J12,1,Pin_1*%
%TO.N,/WGN_OUT_PORT*%
X68440000Y-22725000D03*
D45*
%TO.P,J12,2,Pin_2*%
%TO.N,/WGN_OUT*%
X65900000Y-22725000D03*
%TD*%
D19*
%TO.P,R27,1*%
%TO.N,Net-(U6-VIN+)*%
X47270000Y-29525000D03*
%TO.P,R27,2*%
%TO.N,/PDM_WGN*%
X46250000Y-29525000D03*
%TD*%
D18*
%TO.P,R6,1*%
%TO.N,Net-(D1-K)*%
X34200000Y-23190000D03*
%TO.P,R6,2*%
%TO.N,/USER_LED*%
X34200000Y-24210000D03*
%TD*%
D14*
%TO.P,C28,1*%
%TO.N,+3V3*%
X37280000Y-38620000D03*
%TO.P,C28,2*%
%TO.N,GND*%
X36320000Y-38620000D03*
%TD*%
D17*
%TO.P,R25,1*%
%TO.N,VDDA*%
X78700000Y-38000000D03*
%TO.P,R25,2*%
%TO.N,Net-(U7-CH0)*%
X78700000Y-36980000D03*
%TD*%
D14*
%TO.P,C62,1*%
%TO.N,+1V1*%
X33450000Y-30900000D03*
%TO.P,C62,2*%
%TO.N,GND*%
X32490000Y-30900000D03*
%TD*%
D46*
%TO.P,R7,1*%
%TO.N,GND*%
X45175000Y-27487500D03*
%TO.P,R7,2*%
%TO.N,/VDDA_EN*%
X45175000Y-25662500D03*
%TD*%
D26*
%TO.P,R11,1*%
%TO.N,/USB_VCONN*%
X29400000Y-40175000D03*
%TO.P,R11,2*%
%TO.N,GND*%
X29400000Y-41825000D03*
%TD*%
D20*
%TO.P,C48,1*%
%TO.N,VDDA*%
X60390200Y-47642500D03*
%TO.P,C48,2*%
%TO.N,GND*%
X60390200Y-48602500D03*
%TD*%
D47*
%TO.P,Y1,1,1*%
%TO.N,/XOUT*%
X48670000Y-34080000D03*
%TO.P,Y1,2,2*%
%TO.N,GND*%
X46470000Y-34080000D03*
%TO.P,Y1,3,3*%
%TO.N,/CLK_12M*%
X46470000Y-35780000D03*
%TO.P,Y1,4,4*%
%TO.N,GND*%
X48670000Y-35780000D03*
%TD*%
D35*
%TO.P,C69,1*%
%TO.N,+3V3*%
X28850000Y-24200000D03*
%TO.P,C69,2*%
%TO.N,GND*%
X26950000Y-24200000D03*
%TD*%
D12*
%TO.P,C22,1*%
%TO.N,Net-(U1-REFIO_A)*%
X47310000Y-42330000D03*
%TO.P,C22,2*%
%TO.N,GND*%
X47310000Y-41370000D03*
%TD*%
D48*
%TO.P,U9,1*%
%TO.N,Net-(U9A--)*%
X56080200Y-45897500D03*
%TO.P,U9,2,-*%
X57350200Y-45897500D03*
%TO.P,U9,3,+*%
%TO.N,Net-(U9A-+)*%
X58620200Y-45897500D03*
%TO.P,U9,4,V+*%
%TO.N,VDDA*%
X59890200Y-45897500D03*
%TO.P,U9,5,+*%
%TO.N,Net-(U9B-+)*%
X61160200Y-45897500D03*
%TO.P,U9,6,-*%
%TO.N,Net-(U9B--)*%
X62430200Y-45897500D03*
%TO.P,U9,7*%
X63700200Y-45897500D03*
%TO.P,U9,8*%
%TO.N,Net-(U9C--)*%
X63700200Y-40947500D03*
%TO.P,U9,9,-*%
X62430200Y-40947500D03*
%TO.P,U9,10,+*%
%TO.N,Net-(U9C-+)*%
X61160200Y-40947500D03*
%TO.P,U9,11,V-*%
%TO.N,GND*%
X59890200Y-40947500D03*
%TO.P,U9,12,+*%
%TO.N,Net-(U9D-+)*%
X58620200Y-40947500D03*
%TO.P,U9,13,-*%
%TO.N,/SE_SIG_B*%
X57350200Y-40947500D03*
%TO.P,U9,14*%
X56080200Y-40947500D03*
%TD*%
D49*
%TO.P,C72,1*%
%TO.N,/WGN_OUT_PORT*%
X76000000Y-32850000D03*
%TO.P,C72,2*%
%TO.N,/WGN_PGA_IN*%
X76000000Y-34750000D03*
%TD*%
D50*
%TO.P,U11,1,GND*%
%TO.N,GND*%
X28800000Y-28100000D03*
%TO.P,U11,2,VO*%
%TO.N,+3V3*%
X28800000Y-26200000D03*
%TO.P,U11,3,VI*%
%TO.N,VBUS*%
X26525000Y-27150000D03*
%TD*%
D14*
%TO.P,C36,1*%
%TO.N,+3V3*%
X33460000Y-32810000D03*
%TO.P,C36,2*%
%TO.N,GND*%
X32500000Y-32810000D03*
%TD*%
D12*
%TO.P,C67,1*%
%TO.N,+3V3*%
X31530000Y-26460000D03*
%TO.P,C67,2*%
%TO.N,GND*%
X31530000Y-25500000D03*
%TD*%
D38*
%TO.P,J5,1,In*%
%TO.N,Net-(J5-In)*%
X76000000Y-45375000D03*
D39*
%TO.P,J5,2,Ext*%
%TO.N,GND*%
X72700000Y-42075000D03*
X72700000Y-48675000D03*
X79300000Y-42075000D03*
X79300000Y-48675000D03*
%TD*%
D51*
%TO.P,R4,1*%
%TO.N,Net-(P1-D-)*%
X30039376Y-32710624D03*
%TO.P,R4,2*%
%TO.N,/USB_D-*%
X30760624Y-31989376D03*
%TD*%
D20*
%TO.P,C52,1*%
%TO.N,/SE_SIG_A*%
X56200000Y-35534900D03*
%TO.P,C52,2*%
%TO.N,Net-(C39-Pad2)*%
X56200000Y-36494900D03*
%TD*%
D12*
%TO.P,C64,1*%
%TO.N,+1V1*%
X44050000Y-32020000D03*
%TO.P,C64,2*%
%TO.N,GND*%
X44050000Y-31060000D03*
%TD*%
D16*
%TO.P,R14,1*%
%TO.N,Net-(U2-XOUT)*%
X45880000Y-32690000D03*
%TO.P,R14,2*%
%TO.N,/XOUT*%
X46900000Y-32690000D03*
%TD*%
D20*
%TO.P,C42,1*%
%TO.N,GND*%
X59490200Y-38242500D03*
%TO.P,C42,2*%
%TO.N,Net-(U9D-+)*%
X59490200Y-39202500D03*
%TD*%
D12*
%TO.P,C56,1*%
%TO.N,Net-(U10A--)*%
X64401900Y-29926200D03*
%TO.P,C56,2*%
%TO.N,Net-(C56-Pad2)*%
X64401900Y-28966200D03*
%TD*%
D18*
%TO.P,R13,1*%
%TO.N,VDDA*%
X78700000Y-33730000D03*
%TO.P,R13,2*%
%TO.N,/WGN_PGA_IN*%
X78700000Y-34750000D03*
%TD*%
D19*
%TO.P,R41,1*%
%TO.N,/WGN_PGA_IN*%
X63610000Y-36000000D03*
%TO.P,R41,2*%
%TO.N,Net-(U10D-+)*%
X62590000Y-36000000D03*
%TD*%
D52*
%TO.P,U2,1,IOVDD*%
%TO.N,+3V3*%
X36767500Y-36607500D03*
%TO.P,U2,2,GPIO0*%
%TO.N,unconnected-(U2-GPIO0-Pad2)*%
X37167500Y-36607500D03*
%TO.P,U2,3,GPIO1*%
%TO.N,/ADC_CSN*%
X37567500Y-36607500D03*
%TO.P,U2,4,GPIO2*%
%TO.N,/ADC_SCK*%
X37967500Y-36607500D03*
%TO.P,U2,5,GPIO3*%
%TO.N,/ADC_SDI*%
X38367500Y-36607500D03*
%TO.P,U2,6,GPIO4*%
%TO.N,/ADC_SDO_A*%
X38767500Y-36607500D03*
%TO.P,U2,7,GPIO5*%
%TO.N,/ADC_SDO_B*%
X39167500Y-36607500D03*
%TO.P,U2,8,GPIO6*%
%TO.N,unconnected-(U2-GPIO6-Pad8)*%
X39567500Y-36607500D03*
%TO.P,U2,9,GPIO7*%
%TO.N,unconnected-(U2-GPIO7-Pad9)*%
X39967500Y-36607500D03*
%TO.P,U2,10,IOVDD*%
%TO.N,+3V3*%
X40367500Y-36607500D03*
%TO.P,U2,11,GPIO8*%
%TO.N,unconnected-(U2-GPIO8-Pad11)*%
X40767500Y-36607500D03*
%TO.P,U2,12,GPIO9*%
%TO.N,/~{PGA_CS}*%
X41167500Y-36607500D03*
%TO.P,U2,13,GPIO10*%
%TO.N,/PGA_SCK*%
X41567500Y-36607500D03*
%TO.P,U2,14,GPIO11*%
%TO.N,/PGA_SI*%
X41967500Y-36607500D03*
D53*
%TO.P,U2,15,GPIO12*%
%TO.N,/LED_R*%
X42805000Y-35770000D03*
%TO.P,U2,16,GPIO13*%
%TO.N,/LED_G*%
X42805000Y-35370000D03*
%TO.P,U2,17,GPIO14*%
%TO.N,/LED_B*%
X42805000Y-34970000D03*
%TO.P,U2,18,GPIO15*%
%TO.N,/USER_LED*%
X42805000Y-34570000D03*
%TO.P,U2,19,TESTEN*%
%TO.N,GND*%
X42805000Y-34170000D03*
%TO.P,U2,20,XIN*%
%TO.N,/CLK_12M*%
X42805000Y-33770000D03*
%TO.P,U2,21,XOUT*%
%TO.N,Net-(U2-XOUT)*%
X42805000Y-33370000D03*
%TO.P,U2,22,IOVDD*%
%TO.N,+3V3*%
X42805000Y-32970000D03*
%TO.P,U2,23,DVDD*%
%TO.N,+1V1*%
X42805000Y-32570000D03*
%TO.P,U2,24,SWCLK*%
%TO.N,unconnected-(U2-SWCLK-Pad24)*%
X42805000Y-32170000D03*
%TO.P,U2,25,SWD*%
%TO.N,unconnected-(U2-SWD-Pad25)*%
X42805000Y-31770000D03*
%TO.P,U2,26,RUN*%
%TO.N,unconnected-(U2-RUN-Pad26)*%
X42805000Y-31370000D03*
%TO.P,U2,27,GPIO16*%
%TO.N,unconnected-(U2-GPIO16-Pad27)*%
X42805000Y-30970000D03*
%TO.P,U2,28,GPIO17*%
%TO.N,unconnected-(U2-GPIO17-Pad28)*%
X42805000Y-30570000D03*
D52*
%TO.P,U2,29,GPIO18*%
%TO.N,/PDM_WGN*%
X41967500Y-29732500D03*
%TO.P,U2,30,GPIO19*%
%TO.N,unconnected-(U2-GPIO19-Pad30)*%
X41567500Y-29732500D03*
%TO.P,U2,31,GPIO20*%
%TO.N,unconnected-(U2-GPIO20-Pad31)*%
X41167500Y-29732500D03*
%TO.P,U2,32,GPIO21*%
%TO.N,/VDDA_EN*%
X40767500Y-29732500D03*
%TO.P,U2,33,IOVDD*%
%TO.N,+3V3*%
X40367500Y-29732500D03*
%TO.P,U2,34,GPIO22*%
%TO.N,unconnected-(U2-GPIO22-Pad34)*%
X39967500Y-29732500D03*
%TO.P,U2,35,GPIO23*%
%TO.N,unconnected-(U2-GPIO23-Pad35)*%
X39567500Y-29732500D03*
%TO.P,U2,36,GPIO24*%
%TO.N,unconnected-(U2-GPIO24-Pad36)*%
X39167500Y-29732500D03*
%TO.P,U2,37,GPIO25*%
%TO.N,unconnected-(U2-GPIO25-Pad37)*%
X38767500Y-29732500D03*
%TO.P,U2,38,GPIO26_ADC0*%
%TO.N,unconnected-(U2-GPIO26_ADC0-Pad38)*%
X38367500Y-29732500D03*
%TO.P,U2,39,GPIO27_ADC1*%
%TO.N,unconnected-(U2-GPIO27_ADC1-Pad39)*%
X37967500Y-29732500D03*
%TO.P,U2,40,GPIO28_ADC2*%
%TO.N,unconnected-(U2-GPIO28_ADC2-Pad40)*%
X37567500Y-29732500D03*
%TO.P,U2,41,GPIO29_ADC3*%
%TO.N,unconnected-(U2-GPIO29_ADC3-Pad41)*%
X37167500Y-29732500D03*
%TO.P,U2,42,IOVDD*%
%TO.N,+3V3*%
X36767500Y-29732500D03*
D53*
%TO.P,U2,43,ADC_AVDD*%
%TO.N,Net-(U2-ADC_AVDD)*%
X35930000Y-30570000D03*
%TO.P,U2,44,VREG_IN*%
%TO.N,+3V3*%
X35930000Y-30970000D03*
%TO.P,U2,45,VREG_VOUT*%
%TO.N,+1V1*%
X35930000Y-31370000D03*
%TO.P,U2,46,USB_DM*%
%TO.N,/USB_D-*%
X35930000Y-31770000D03*
%TO.P,U2,47,USB_DP*%
%TO.N,/USB_D+*%
X35930000Y-32170000D03*
%TO.P,U2,48,USB_VDD*%
%TO.N,+3V3*%
X35930000Y-32570000D03*
%TO.P,U2,49,IOVDD*%
X35930000Y-32970000D03*
%TO.P,U2,50,DVDD*%
%TO.N,+1V1*%
X35930000Y-33370000D03*
%TO.P,U2,51,QSPI_SD3*%
%TO.N,/FLASH_IO3*%
X35930000Y-33770000D03*
%TO.P,U2,52,QSPI_SCLK*%
%TO.N,/FLASH_SCK*%
X35930000Y-34170000D03*
%TO.P,U2,53,QSPI_SD0*%
%TO.N,/FLASH_IO0*%
X35930000Y-34570000D03*
%TO.P,U2,54,QSPI_SD2*%
%TO.N,/FLASH_IO2*%
X35930000Y-34970000D03*
%TO.P,U2,55,QSPI_SD1*%
%TO.N,/FLASH_IO1*%
X35930000Y-35370000D03*
%TO.P,U2,56,QSPI_SS*%
%TO.N,/~{FLASH_CSN}*%
X35930000Y-35770000D03*
D54*
%TO.P,U2,57,GND*%
%TO.N,GND*%
X39367500Y-33170000D03*
%TD*%
D49*
%TO.P,C71,1*%
%TO.N,VDDA*%
X52025000Y-22125000D03*
%TO.P,C71,2*%
%TO.N,GND*%
X52025000Y-24025000D03*
%TD*%
D12*
%TO.P,C57,1*%
%TO.N,VDDA*%
X58900000Y-26980000D03*
%TO.P,C57,2*%
%TO.N,GND*%
X58900000Y-26020000D03*
%TD*%
%TO.P,C46,1*%
%TO.N,GND*%
X61450200Y-48602500D03*
%TO.P,C46,2*%
%TO.N,Net-(U9B-+)*%
X61450200Y-47642500D03*
%TD*%
D20*
%TO.P,C27,1*%
%TO.N,VDDA*%
X41770000Y-44420000D03*
%TO.P,C27,2*%
%TO.N,GND*%
X41770000Y-45380000D03*
%TD*%
%TO.P,C45,1*%
%TO.N,Net-(U9A--)*%
X54690200Y-47642500D03*
%TO.P,C45,2*%
%TO.N,Net-(C45-Pad2)*%
X54690200Y-48602500D03*
%TD*%
%TO.P,C39,1*%
%TO.N,/SE_SIG_A*%
X55194400Y-35520000D03*
%TO.P,C39,2*%
%TO.N,Net-(C39-Pad2)*%
X55194400Y-36480000D03*
%TD*%
D12*
%TO.P,C31,1*%
%TO.N,VDDA*%
X66500000Y-37580000D03*
%TO.P,C31,2*%
%TO.N,GND*%
X66500000Y-36620000D03*
%TD*%
D55*
%TO.P,U6,1,VIN+*%
%TO.N,Net-(U6-VIN+)*%
X50225000Y-29762500D03*
%TO.P,U6,2,VSS*%
%TO.N,GND*%
X51175000Y-29762500D03*
%TO.P,U6,3,VIN-*%
%TO.N,/WGN_OUT*%
X52125000Y-29762500D03*
%TO.P,U6,4,VOUT*%
X52125000Y-27487500D03*
%TO.P,U6,5,VDD*%
%TO.N,VDDA*%
X50225000Y-27487500D03*
%TD*%
D49*
%TO.P,C70,1*%
%TO.N,VBUS*%
X41825000Y-22125000D03*
%TO.P,C70,2*%
%TO.N,GND*%
X41825000Y-24025000D03*
%TD*%
D12*
%TO.P,C61,1*%
%TO.N,+3V3*%
X34570000Y-30180000D03*
%TO.P,C61,2*%
%TO.N,GND*%
X34570000Y-29220000D03*
%TD*%
D18*
%TO.P,R26,1*%
%TO.N,Net-(U7-CH0)*%
X77600000Y-36980000D03*
%TO.P,R26,2*%
%TO.N,GND*%
X77600000Y-38000000D03*
%TD*%
D51*
%TO.P,R5,1*%
%TO.N,Net-(P1-D+)*%
X30589376Y-33610624D03*
%TO.P,R5,2*%
%TO.N,/USB_D+*%
X31310624Y-32889376D03*
%TD*%
D56*
%TO.P,C25,1*%
%TO.N,Net-(J5-In)*%
X76000000Y-38880000D03*
%TO.P,C25,2*%
%TO.N,Net-(U7-CH0)*%
X76000000Y-36980000D03*
%TD*%
D20*
%TO.P,C19,1*%
%TO.N,GND*%
X61190200Y-38142500D03*
%TO.P,C19,2*%
%TO.N,Net-(U9C-+)*%
X61190200Y-39102500D03*
%TD*%
D26*
%TO.P,R36,1*%
%TO.N,Net-(U10B--)*%
X54000600Y-30030900D03*
%TO.P,R36,2*%
%TO.N,Net-(C39-Pad2)*%
X54000600Y-31680900D03*
%TD*%
%TO.P,R31,1*%
%TO.N,Net-(U9B--)*%
X63690200Y-47822500D03*
%TO.P,R31,2*%
%TO.N,Net-(C45-Pad2)*%
X63690200Y-49472500D03*
%TD*%
D14*
%TO.P,C5,1*%
%TO.N,VBUS*%
X24300000Y-24350000D03*
%TO.P,C5,2*%
%TO.N,GND*%
X23340000Y-24350000D03*
%TD*%
D20*
%TO.P,C49,1*%
%TO.N,VDDA*%
X59390200Y-47642500D03*
%TO.P,C49,2*%
%TO.N,GND*%
X59390200Y-48602500D03*
%TD*%
D30*
%TO.P,R10,1*%
%TO.N,/USB_CC*%
X29200000Y-31425000D03*
%TO.P,R10,2*%
%TO.N,GND*%
X29200000Y-29775000D03*
%TD*%
D20*
%TO.P,C55,1*%
%TO.N,GND*%
X61939800Y-26022600D03*
%TO.P,C55,2*%
%TO.N,Net-(U10A-+)*%
X61939800Y-26982600D03*
%TD*%
D57*
%TO.N,+3V3*%
X21800000Y-38200000D03*
X21300000Y-37500000D03*
X20800000Y-36800000D03*
X21600000Y-33500000D03*
X21100000Y-34200000D03*
X20800000Y-35000000D03*
X20700000Y-35900000D03*
X21900000Y-35900000D03*
X22500000Y-35300000D03*
X23200000Y-35800000D03*
X24100000Y-37300000D03*
X24099312Y-34400688D03*
D58*
X40200000Y-28400000D03*
X39200000Y-28460000D03*
%TO.N,GND*%
X39200000Y-27500000D03*
X52100000Y-42090000D03*
%TO.N,VDDA*%
X50180000Y-41400000D03*
X50180000Y-40400000D03*
%TO.N,GND*%
X51910000Y-36600000D03*
X68610000Y-39300000D03*
X68580000Y-43300000D03*
%TO.N,VDDA*%
X67620000Y-43300000D03*
%TO.N,+3V3*%
X36480000Y-28200000D03*
X33460000Y-32810000D03*
X34570000Y-30180000D03*
X45050000Y-31710000D03*
X37260000Y-39600000D03*
X30450000Y-26490000D03*
X46050000Y-31710000D03*
D57*
X33642500Y-26890000D03*
X35400000Y-23350000D03*
D58*
X30420589Y-38090589D03*
D57*
X30862500Y-23700000D03*
D58*
X37280000Y-38620000D03*
X31450000Y-26490000D03*
X40367500Y-35800000D03*
D57*
X28850000Y-24200000D03*
D58*
X28800000Y-26200000D03*
D57*
%TO.N,GND*%
X52025000Y-24025000D03*
D58*
X77600000Y-33730000D03*
X41770000Y-45380000D03*
X23340000Y-26450000D03*
X48220000Y-35410000D03*
D57*
X28300000Y-39400000D03*
D58*
X27300000Y-39100000D03*
X77600000Y-38000000D03*
X53575000Y-23105000D03*
X61939800Y-26022600D03*
X61000000Y-26020000D03*
D57*
X29400000Y-41825000D03*
X51175000Y-28425000D03*
D58*
X31850000Y-38210000D03*
X47310000Y-40480000D03*
X46470000Y-34080000D03*
X32350000Y-38750000D03*
X32500000Y-32810000D03*
D57*
X28300000Y-32500000D03*
X59390200Y-42622500D03*
D58*
X42000000Y-34400000D03*
D57*
X27500000Y-28100000D03*
D58*
X61557100Y-36454600D03*
D57*
X40400000Y-32100000D03*
D58*
X46920000Y-34430000D03*
D57*
X38400000Y-34100000D03*
D58*
X59390200Y-48602500D03*
X30530000Y-25500000D03*
X34530000Y-28170000D03*
X40770000Y-45380000D03*
D57*
X48750000Y-27225000D03*
D58*
X58290200Y-48602500D03*
X50225000Y-23055000D03*
D57*
X40200000Y-34100000D03*
D58*
X31530000Y-25500000D03*
X62190200Y-38142500D03*
D57*
X29200000Y-29775000D03*
D58*
X27300000Y-32700000D03*
D57*
X45175000Y-27487500D03*
D58*
X62390200Y-48602500D03*
X31099411Y-38769411D03*
X48820000Y-32700000D03*
X48310000Y-39610000D03*
D57*
X37134668Y-42178675D03*
D58*
X44050000Y-31060000D03*
X57730700Y-26020000D03*
X60630000Y-36454600D03*
X46050000Y-30750000D03*
X44375000Y-23055000D03*
X58763100Y-36480000D03*
X51205000Y-25975000D03*
D57*
X40400000Y-42400000D03*
D58*
X60390200Y-48602500D03*
D57*
X43170000Y-41600000D03*
D58*
X49120000Y-36140000D03*
X23340000Y-25400000D03*
X59490200Y-38242500D03*
X26800000Y-32700000D03*
X58900000Y-26020000D03*
D57*
X30100000Y-28100000D03*
D58*
X34570000Y-29220000D03*
D57*
X60390200Y-42622500D03*
D58*
X36480000Y-27240000D03*
X23340000Y-24350000D03*
X32970000Y-37070000D03*
X47310000Y-41370000D03*
D57*
X58900000Y-32000000D03*
X38400000Y-32200000D03*
X71700000Y-33500000D03*
D58*
X32490000Y-30900000D03*
D57*
X41825000Y-24025000D03*
D58*
X32670589Y-34599411D03*
D57*
X26950000Y-24200000D03*
X44506500Y-23793500D03*
D58*
X50225000Y-23995000D03*
X33630000Y-37700000D03*
X32490000Y-29900000D03*
X61450200Y-48602500D03*
D57*
X59900000Y-32000000D03*
X43170000Y-40300000D03*
D58*
X36300000Y-39600000D03*
X31280589Y-34529411D03*
X66500000Y-36620000D03*
X65500000Y-36420000D03*
D57*
X72500000Y-33100000D03*
D58*
X48275000Y-30505000D03*
X61190200Y-38142500D03*
X40200000Y-27500000D03*
X45050000Y-30750000D03*
X36320000Y-38620000D03*
X44930000Y-35600000D03*
X26800000Y-39100000D03*
X59900000Y-26020000D03*
X43375000Y-23055000D03*
X46010000Y-33710000D03*
X48670000Y-35780000D03*
X48310000Y-42190000D03*
X42000000Y-34000000D03*
%TO.N,VDDA*%
X50245000Y-25975000D03*
X41770000Y-44420000D03*
X78700000Y-38000000D03*
X67700000Y-37780000D03*
D57*
X52025000Y-22125000D03*
D58*
X58900000Y-26980000D03*
X59900000Y-26980000D03*
X66500000Y-37600000D03*
X53575000Y-22145000D03*
X49000000Y-25675000D03*
X78700000Y-33730000D03*
X50225000Y-24955000D03*
X60390200Y-47642500D03*
X69000000Y-37780000D03*
X59390200Y-47642500D03*
X40770000Y-44420000D03*
X50225000Y-22095000D03*
%TO.N,Net-(U10A-+)*%
X64427300Y-27094700D03*
X61939800Y-26982600D03*
%TO.N,Net-(C39-Pad2)*%
X54000600Y-31680900D03*
X55194400Y-36480000D03*
%TO.N,Net-(C40-Pad2)*%
X55690200Y-38242500D03*
X54490200Y-42697500D03*
%TO.N,Net-(U9B-+)*%
X62390200Y-47642500D03*
X64990200Y-47632500D03*
%TO.N,/LED_B*%
X39795000Y-24535000D03*
X43906597Y-34978940D03*
%TO.N,/LED_G*%
X39670000Y-26100000D03*
X43900079Y-35478400D03*
%TO.N,/LED_R*%
X43899956Y-35977902D03*
X37710000Y-26100000D03*
%TO.N,/USER_LED*%
X34200000Y-24210000D03*
X43886905Y-34400000D03*
%TO.N,/ADC_SDI*%
X40170000Y-38900000D03*
X38798074Y-37971925D03*
%TO.N,/ADC_CSN*%
X37500000Y-37990000D03*
X38600000Y-39950000D03*
%TO.N,/ADC_SCK*%
X39350000Y-40585000D03*
X38193262Y-38002803D03*
%TO.N,/~{PGA_CS}*%
X68325000Y-33970000D03*
X43044500Y-37706525D03*
%TO.N,/PGA_SCK*%
X68325000Y-36510000D03*
X42071896Y-37537358D03*
%TO.N,/PGA_SI*%
X42570000Y-36700000D03*
X68325000Y-35240000D03*
%TD*%
D59*
%TO.N,Net-(SW1-A)*%
X30300000Y-44200000D02*
X27600000Y-44200000D01*
X32039376Y-42460624D02*
X30300000Y-44200000D01*
D60*
%TO.N,VBUS*%
X24300000Y-27100000D02*
X24300000Y-33400000D01*
X24300000Y-33400000D02*
X25360000Y-34460000D01*
X25360000Y-34460000D02*
X25360000Y-34950000D01*
D59*
%TO.N,+3V3*%
X40367500Y-28627500D02*
X40367500Y-28900000D01*
X40200000Y-28400000D02*
X40200000Y-28460000D01*
X40200000Y-28460000D02*
X40367500Y-28627500D01*
%TO.N,GND*%
X39200000Y-27500000D02*
X40200000Y-27500000D01*
%TO.N,+3V3*%
X39200000Y-28460000D02*
X40200000Y-28460000D01*
D61*
%TO.N,/ADC_SDO_B*%
X39167500Y-36607500D02*
X39167500Y-37139975D01*
X39167500Y-37139975D02*
X39372525Y-37345000D01*
X39372525Y-37345000D02*
X40115000Y-37345000D01*
X40115000Y-37345000D02*
X41270000Y-38500000D01*
X41270000Y-38500000D02*
X41270000Y-40430000D01*
X41270000Y-40430000D02*
X39815000Y-41885000D01*
X39815000Y-41885000D02*
X38927500Y-41885000D01*
D62*
%TO.N,GND*%
X40400000Y-42400000D02*
X40265000Y-42535000D01*
X40265000Y-42535000D02*
X38927500Y-42535000D01*
D61*
%TO.N,/ADC_SDO_A*%
X38767500Y-36607500D02*
X38767500Y-37305661D01*
X38767500Y-37305661D02*
X39261839Y-37800000D01*
X40770000Y-40214365D02*
X39749365Y-41235000D01*
X39261839Y-37800000D02*
X39870000Y-37800000D01*
X39870000Y-37800000D02*
X40770000Y-38700000D01*
X40770000Y-38700000D02*
X40770000Y-40214365D01*
X39749365Y-41235000D02*
X38927500Y-41235000D01*
%TO.N,+3V3*%
X40367500Y-29732500D02*
X40367500Y-28900000D01*
D59*
X40200000Y-28460000D02*
X40200000Y-28460000D01*
D60*
X37500000Y-28200000D02*
X37100000Y-28200000D01*
X37100000Y-28200000D02*
X36480000Y-28200000D01*
D62*
X36767500Y-29000000D02*
X36767500Y-28532500D01*
X36767500Y-28532500D02*
X37100000Y-28200000D01*
D61*
X36767500Y-29732500D02*
X36767500Y-29000000D01*
D62*
X36767500Y-29000000D02*
X36767500Y-28487500D01*
X36767500Y-28487500D02*
X36480000Y-28200000D01*
D59*
%TO.N,/VDDA_EN*%
X45175000Y-25662500D02*
X42937500Y-25662500D01*
X42937500Y-25662500D02*
X41100000Y-27500000D01*
X45850000Y-24025000D02*
X45850000Y-24987500D01*
X45850000Y-24987500D02*
X45175000Y-25662500D01*
D60*
%TO.N,/WGN_OUT_PORT*%
X69150000Y-26375000D02*
X69150000Y-23435000D01*
X69150000Y-23435000D02*
X68440000Y-22725000D01*
%TO.N,Net-(C17-Pad1)*%
X49270000Y-44150000D02*
X50920000Y-44150000D01*
D59*
%TO.N,/VDDA_EN*%
X41100000Y-27500000D02*
X41100000Y-28867525D01*
D61*
X40767500Y-29200025D02*
X41100000Y-28867525D01*
X40767500Y-29732500D02*
X40767500Y-29200025D01*
D60*
%TO.N,/SE_SIG_A*%
X51880000Y-37650000D02*
X52250000Y-37650000D01*
X52250000Y-37650000D02*
X54380000Y-35520000D01*
X54380000Y-35520000D02*
X55194400Y-35520000D01*
D62*
%TO.N,Net-(C18-Pad1)*%
X49270000Y-37650000D02*
X50920000Y-37650000D01*
X50920000Y-37650000D02*
X50920000Y-38410000D01*
X50920000Y-38410000D02*
X51100000Y-38590000D01*
X50920000Y-37650000D02*
X50920000Y-36630000D01*
X50920000Y-36630000D02*
X50890000Y-36600000D01*
%TO.N,VDDA*%
X50180000Y-40400000D02*
X50310000Y-40400000D01*
X50310000Y-40400000D02*
X51100000Y-39610000D01*
%TO.N,Net-(C17-Pad1)*%
X52100000Y-43110000D02*
X51100000Y-43110000D01*
%TO.N,GND*%
X49220000Y-41400000D02*
X49100000Y-41400000D01*
X49100000Y-41400000D02*
X48310000Y-42190000D01*
X49220000Y-40400000D02*
X49100000Y-40400000D01*
X49100000Y-40400000D02*
X48310000Y-39610000D01*
%TO.N,VDDA*%
X51100000Y-42090000D02*
X50870000Y-42090000D01*
X50870000Y-42090000D02*
X50180000Y-41400000D01*
D59*
%TO.N,Net-(C17-Pad1)*%
X50920000Y-44150000D02*
X50920000Y-43290000D01*
X50920000Y-43290000D02*
X51100000Y-43110000D01*
D60*
%TO.N,/SE_SIG_B*%
X56080200Y-40947500D02*
X53852500Y-40947500D01*
X53852500Y-40947500D02*
X53000000Y-41800000D01*
X52450000Y-44150000D02*
X51880000Y-44150000D01*
X53000000Y-41800000D02*
X53000000Y-43600000D01*
X53000000Y-43600000D02*
X52450000Y-44150000D01*
X57350200Y-40947500D02*
X56080200Y-40947500D01*
%TO.N,VDDA*%
X67600000Y-42310000D02*
X67600000Y-43280000D01*
X67600000Y-43280000D02*
X67620000Y-43300000D01*
%TO.N,Net-(U7-VOUT)*%
X73275000Y-37780000D02*
X72020000Y-37780000D01*
X72020000Y-37780000D02*
X69500000Y-40300000D01*
X69500000Y-40300000D02*
X68580000Y-40300000D01*
%TO.N,/SIG_IN*%
X64200200Y-38522500D02*
X64722500Y-38522500D01*
X66500000Y-40300000D02*
X67620000Y-40300000D01*
X64722500Y-38522500D02*
X66500000Y-40300000D01*
D63*
X67590000Y-39300000D02*
X67590000Y-41300000D01*
D61*
%TO.N,+3V3*%
X35360000Y-30970000D02*
X35930000Y-30970000D01*
X40367500Y-36607500D02*
X40367500Y-35800000D01*
D60*
X37280000Y-39580000D02*
X37260000Y-39600000D01*
D61*
X34570000Y-30180000D02*
X35360000Y-30970000D01*
X44130000Y-32970000D02*
X42805000Y-32970000D01*
X45050000Y-31710000D02*
X45050000Y-32050000D01*
D60*
X45050000Y-31710000D02*
X46050000Y-31710000D01*
X28800000Y-26200000D02*
X28800000Y-24800000D01*
D62*
X38927500Y-38635000D02*
X37295000Y-38635000D01*
D59*
X35575000Y-23525000D02*
X35400000Y-23350000D01*
D62*
X30739411Y-38090589D02*
X31293984Y-37536016D01*
D61*
X33620000Y-32970000D02*
X35930000Y-32970000D01*
D62*
X30450000Y-26490000D02*
X31450000Y-26490000D01*
D61*
X36767500Y-38107500D02*
X37280000Y-38620000D01*
D62*
X28800000Y-26200000D02*
X30160000Y-26200000D01*
D60*
X28800000Y-24800000D02*
X29000000Y-24600000D01*
D62*
X30160000Y-26200000D02*
X30450000Y-26490000D01*
D61*
X33460000Y-32810000D02*
X33620000Y-32970000D01*
D59*
X36770000Y-23525000D02*
X35575000Y-23525000D01*
D60*
X37280000Y-38620000D02*
X37280000Y-39580000D01*
D62*
X30420589Y-38090589D02*
X30739411Y-38090589D01*
D61*
X36767500Y-36607500D02*
X36767500Y-38107500D01*
D62*
X37295000Y-38635000D02*
X37280000Y-38620000D01*
D61*
X45050000Y-32050000D02*
X44130000Y-32970000D01*
D60*
%TO.N,GND*%
X36300000Y-39600000D02*
X36300000Y-38640000D01*
D62*
X37490993Y-42535000D02*
X38927500Y-42535000D01*
D60*
X59360000Y-33750000D02*
X59360000Y-32540000D01*
X45288972Y-23075000D02*
X45850000Y-23075000D01*
D61*
X42230000Y-34170000D02*
X42000000Y-34400000D01*
D62*
X48310000Y-39610000D02*
X47440000Y-40480000D01*
D60*
X45830000Y-23055000D02*
X45850000Y-23075000D01*
X27500000Y-28100000D02*
X30100000Y-28100000D01*
X32670589Y-34599411D02*
X32660589Y-34599411D01*
X43375000Y-23055000D02*
X44375000Y-23055000D01*
X44375000Y-23055000D02*
X43768000Y-23055000D01*
D61*
X42170000Y-34170000D02*
X42000000Y-34000000D01*
D62*
X47310000Y-40480000D02*
X47310000Y-41370000D01*
D60*
X44737500Y-23626472D02*
X45288972Y-23075000D01*
X44375000Y-23055000D02*
X44375000Y-23662000D01*
X59360000Y-32540000D02*
X59900000Y-32000000D01*
X44375000Y-23263972D02*
X44737500Y-23626472D01*
X44506500Y-23793500D02*
X43768000Y-23055000D01*
X72500000Y-33195000D02*
X73275000Y-33970000D01*
X59890200Y-42122500D02*
X60390200Y-42622500D01*
X28100000Y-32700000D02*
X28300000Y-32500000D01*
X72100000Y-33500000D02*
X72500000Y-33100000D01*
X46050000Y-30750000D02*
X45050000Y-30750000D01*
X59390200Y-42622500D02*
X60390200Y-42622500D01*
X44375000Y-23055000D02*
X45830000Y-23055000D01*
X26980000Y-32125000D02*
X26405000Y-31550000D01*
X59890200Y-42122500D02*
X59390200Y-42622500D01*
X51175000Y-29762500D02*
X51175000Y-28425000D01*
X72170000Y-33970000D02*
X71700000Y-33500000D01*
X26980000Y-39070000D02*
X26980000Y-39615000D01*
D61*
X42805000Y-34170000D02*
X42170000Y-34170000D01*
D60*
X72500000Y-33100000D02*
X72500000Y-33195000D01*
D62*
X47440000Y-40480000D02*
X47310000Y-40480000D01*
D60*
X71700000Y-33500000D02*
X72100000Y-33500000D01*
X44673528Y-23626472D02*
X44737500Y-23626472D01*
X26800000Y-39100000D02*
X28000000Y-39100000D01*
D61*
X42805000Y-34170000D02*
X42230000Y-34170000D01*
D60*
X37500000Y-27240000D02*
X36480000Y-27240000D01*
X26980000Y-39615000D02*
X26405000Y-40190000D01*
X32490000Y-30900000D02*
X32490000Y-29900000D01*
D61*
X42000000Y-34000000D02*
X42000000Y-34400000D01*
D60*
X73275000Y-33970000D02*
X72570000Y-33970000D01*
X59890200Y-40947500D02*
X59890200Y-42122500D01*
D62*
X47490000Y-41370000D02*
X47310000Y-41370000D01*
D60*
X44375000Y-23055000D02*
X44375000Y-23263972D01*
X26980000Y-32670000D02*
X26980000Y-32125000D01*
X44506500Y-23793500D02*
X44673528Y-23626472D01*
X28000000Y-39100000D02*
X28300000Y-39400000D01*
D62*
X48310000Y-42190000D02*
X47490000Y-41370000D01*
D60*
X72570000Y-33970000D02*
X72100000Y-33500000D01*
X59360000Y-32460000D02*
X58900000Y-32000000D01*
D62*
X37134668Y-42178675D02*
X37490993Y-42535000D01*
D60*
X44375000Y-23662000D02*
X44506500Y-23793500D01*
X59360000Y-33750000D02*
X59360000Y-32460000D01*
X26800000Y-32700000D02*
X28100000Y-32700000D01*
X58900000Y-32000000D02*
X59900000Y-32000000D01*
X73275000Y-33970000D02*
X72170000Y-33970000D01*
X36300000Y-38640000D02*
X36320000Y-38620000D01*
D63*
%TO.N,VBUS*%
X26404949Y-38270000D02*
X25934949Y-37800000D01*
D60*
X25775000Y-22125000D02*
X45850000Y-22125000D01*
X25360000Y-36800000D02*
X25360000Y-37225051D01*
X24300000Y-23600000D02*
X25775000Y-22125000D01*
X25360000Y-37225051D02*
X25934949Y-37800000D01*
X24300000Y-26450000D02*
X24300000Y-24350000D01*
X25360000Y-34340000D02*
X25895000Y-33805000D01*
X24300000Y-26450000D02*
X24300000Y-27100000D01*
D63*
X26980000Y-38270000D02*
X26404949Y-38270000D01*
D60*
X25360000Y-34950000D02*
X25360000Y-34340000D01*
D63*
X26980000Y-33470000D02*
X26404949Y-33470000D01*
X26404949Y-33470000D02*
X26074949Y-33800000D01*
D60*
X24350000Y-27150000D02*
X24300000Y-27100000D01*
X25360000Y-36800000D02*
X25360000Y-34950000D01*
X25895000Y-33805000D02*
X25900000Y-33805000D01*
X24300000Y-24350000D02*
X24300000Y-23600000D01*
X26525000Y-27150000D02*
X24350000Y-27150000D01*
D59*
%TO.N,/XOUT*%
X46910000Y-32700000D02*
X46900000Y-32690000D01*
X47860000Y-32700000D02*
X46910000Y-32700000D01*
X47860000Y-33270000D02*
X47860000Y-32700000D01*
X48670000Y-34080000D02*
X47860000Y-33270000D01*
D60*
%TO.N,VDDA*%
X50225000Y-22095000D02*
X50195000Y-22125000D01*
X53575000Y-22145000D02*
X53555000Y-22125000D01*
X50225000Y-22095000D02*
X50255000Y-22125000D01*
X49895000Y-25675000D02*
X50245000Y-25325000D01*
X50255000Y-22125000D02*
X52025000Y-22125000D01*
X50245000Y-25325000D02*
X50245000Y-24975000D01*
X50245000Y-25975000D02*
X50245000Y-25325000D01*
X50225000Y-27487500D02*
X50225000Y-25995000D01*
X59890200Y-45897500D02*
X59890200Y-47142500D01*
X67800000Y-37800000D02*
X67780000Y-37780000D01*
X50195000Y-22125000D02*
X48125000Y-22125000D01*
X66700000Y-37780000D02*
X66520000Y-37600000D01*
X49000000Y-25675000D02*
X49895000Y-25675000D01*
X58900000Y-26980000D02*
X59360000Y-27440000D01*
X59390200Y-47642500D02*
X60390200Y-47642500D01*
D62*
X39535000Y-43185000D02*
X40770000Y-44420000D01*
D60*
X65700000Y-37580000D02*
X65500000Y-37380000D01*
X59900000Y-26980000D02*
X59900000Y-26980000D01*
X66500000Y-37580000D02*
X65700000Y-37580000D01*
X49945000Y-25675000D02*
X50245000Y-25975000D01*
X49000000Y-25675000D02*
X49945000Y-25675000D01*
X67780000Y-37780000D02*
X66700000Y-37780000D01*
X50225000Y-25995000D02*
X50245000Y-25975000D01*
X60390200Y-47642500D02*
X59890200Y-47142500D01*
X59900000Y-26980000D02*
X59360000Y-27520000D01*
X68325000Y-37780000D02*
X67820000Y-37780000D01*
X50245000Y-24975000D02*
X50225000Y-24955000D01*
X66520000Y-37600000D02*
X66500000Y-37600000D01*
X58900000Y-26980000D02*
X59900000Y-26980000D01*
X66500000Y-37580000D02*
X66500000Y-37580000D01*
X59360000Y-27520000D02*
X59360000Y-28800000D01*
X59360000Y-27440000D02*
X59360000Y-28800000D01*
D62*
X41770000Y-44420000D02*
X40770000Y-44420000D01*
D60*
X59890200Y-47142500D02*
X59390200Y-47642500D01*
X53555000Y-22125000D02*
X52025000Y-22125000D01*
X67820000Y-37780000D02*
X67800000Y-37800000D01*
X66500000Y-37600000D02*
X66500000Y-37580000D01*
D59*
%TO.N,Net-(U2-ADC_AVDD)*%
X35490000Y-27162500D02*
X35217500Y-26890000D01*
X35490000Y-28170000D02*
X35490000Y-29420000D01*
X35490000Y-28170000D02*
X35490000Y-27162500D01*
X35490000Y-29420000D02*
X35930000Y-29860000D01*
X35930000Y-29860000D02*
X35930000Y-30495000D01*
D60*
%TO.N,/SE_SIG_A*%
X56820000Y-33750000D02*
X55550000Y-33750000D01*
X55209300Y-35534900D02*
X55194400Y-35520000D01*
X56200000Y-35534900D02*
X55209300Y-35534900D01*
X55550000Y-33750000D02*
X55550000Y-34884900D01*
X55550000Y-33750000D02*
X55550000Y-35164400D01*
X55550000Y-34884900D02*
X56200000Y-35534900D01*
X55550000Y-35164400D02*
X55194400Y-35520000D01*
D62*
%TO.N,Net-(U1-REFIO_B)*%
X45935000Y-39935000D02*
X46350000Y-39520000D01*
X44652500Y-39935000D02*
X45935000Y-39935000D01*
X46350000Y-39520000D02*
X47310000Y-39520000D01*
%TO.N,Net-(U1-REFIO_A)*%
X45967500Y-41885000D02*
X46382500Y-42300000D01*
X46382500Y-42300000D02*
X47342500Y-42300000D01*
X44685000Y-41885000D02*
X45967500Y-41885000D01*
%TO.N,Net-(U1-AINP_B)*%
X45637500Y-37650000D02*
X48250000Y-37650000D01*
X44652500Y-38635000D02*
X45637500Y-37650000D01*
%TO.N,Net-(U1-AINM_B)*%
X45736472Y-39285000D02*
X46431472Y-38590000D01*
X46431472Y-38590000D02*
X48310000Y-38590000D01*
X44652500Y-39285000D02*
X45736472Y-39285000D01*
%TO.N,Net-(U1-AINP_A)*%
X45670000Y-44170000D02*
X48282500Y-44170000D01*
X44685000Y-43185000D02*
X45670000Y-44170000D01*
%TO.N,Net-(U1-AINM_A)*%
X46463972Y-43230000D02*
X48342500Y-43230000D01*
X45768972Y-42535000D02*
X46463972Y-43230000D01*
X44685000Y-42535000D02*
X45768972Y-42535000D01*
D60*
%TO.N,Net-(J5-In)*%
X76000000Y-45375000D02*
X76000000Y-38880000D01*
%TO.N,Net-(U7-CH0)*%
X73275000Y-36510000D02*
X74410000Y-36510000D01*
X74410000Y-36510000D02*
X74880000Y-36980000D01*
X74880000Y-36980000D02*
X76000000Y-36980000D01*
X78700000Y-36980000D02*
X76000000Y-36980000D01*
D62*
%TO.N,Net-(U6-VIN+)*%
X47270000Y-29525000D02*
X48255000Y-29525000D01*
X48275000Y-29545000D02*
X50007500Y-29545000D01*
X50007500Y-29545000D02*
X50225000Y-29762500D01*
X48255000Y-29525000D02*
X48275000Y-29545000D01*
%TO.N,+1V1*%
X41400000Y-35137500D02*
X41367500Y-35170000D01*
X31969792Y-33840208D02*
X33269030Y-33840208D01*
X37170000Y-33700000D02*
X37170000Y-31700000D01*
X37367500Y-35170000D02*
X37170000Y-34972500D01*
X31959411Y-33850589D02*
X31969792Y-33840208D01*
D61*
X41700000Y-32570000D02*
X42805000Y-32570000D01*
D62*
X41400000Y-32870000D02*
X41400000Y-35137500D01*
D60*
X33450000Y-29900000D02*
X33450000Y-30900000D01*
D61*
X35930000Y-33370000D02*
X37040000Y-33370000D01*
X34570000Y-30900000D02*
X33450000Y-30900000D01*
X35930000Y-33370000D02*
X33900000Y-33370000D01*
X33900000Y-33370000D02*
X33349411Y-33920589D01*
D62*
X33269030Y-33840208D02*
X33349411Y-33920589D01*
X37170000Y-34972500D02*
X37170000Y-33700000D01*
X41700000Y-32570000D02*
X41400000Y-32870000D01*
D61*
X35930000Y-31370000D02*
X35040000Y-31370000D01*
X35930000Y-31370000D02*
X36840000Y-31370000D01*
X37170000Y-33500000D02*
X37170000Y-33700000D01*
X43500000Y-32570000D02*
X44050000Y-32020000D01*
X42805000Y-32570000D02*
X43500000Y-32570000D01*
X36840000Y-31370000D02*
X37170000Y-31700000D01*
X37040000Y-33370000D02*
X37170000Y-33500000D01*
D62*
X41367500Y-35170000D02*
X37367500Y-35170000D01*
D61*
X35040000Y-31370000D02*
X34570000Y-30900000D01*
D60*
%TO.N,Net-(U10A-+)*%
X60630000Y-28070000D02*
X61000000Y-27700000D01*
X61937200Y-26980000D02*
X61939800Y-26982600D01*
X61000000Y-27700000D02*
X61000000Y-26980000D01*
X61000000Y-26980000D02*
X61937200Y-26980000D01*
X60630000Y-28800000D02*
X60630000Y-28070000D01*
%TO.N,Net-(U10D-+)*%
X60630000Y-33750000D02*
X60630000Y-35494600D01*
X62590000Y-36000000D02*
X62084600Y-35494600D01*
X62084600Y-35494600D02*
X61557100Y-35494600D01*
%TO.N,Net-(C39-Pad2)*%
X57767900Y-36480000D02*
X57823300Y-36535400D01*
X55194400Y-36480000D02*
X57767900Y-36480000D01*
%TO.N,Net-(U9D-+)*%
X58490200Y-39232500D02*
X59460200Y-39232500D01*
X58620200Y-40947500D02*
X58620200Y-39362500D01*
X59460200Y-39232500D02*
X59490200Y-39202500D01*
X58620200Y-39362500D02*
X58490200Y-39232500D01*
%TO.N,/SE_SIG_B*%
X56080200Y-39592500D02*
X55690200Y-39202500D01*
X56080200Y-40947500D02*
X56080200Y-39592500D01*
X56700200Y-39202500D02*
X55690200Y-39202500D01*
%TO.N,Net-(C40-Pad2)*%
X56730200Y-38212500D02*
X56700200Y-38242500D01*
X55690200Y-38242500D02*
X56700200Y-38242500D01*
X58490200Y-38212500D02*
X56730200Y-38212500D01*
%TO.N,Net-(U9C-+)*%
X62190200Y-39102500D02*
X62600200Y-39102500D01*
X62600200Y-39102500D02*
X63180200Y-38522500D01*
X61190200Y-39102500D02*
X62190200Y-39102500D01*
X61160200Y-39132500D02*
X61190200Y-39102500D01*
X61160200Y-40947500D02*
X61160200Y-39132500D01*
%TO.N,Net-(U9C--)*%
X64450200Y-41697500D02*
X63700200Y-40947500D01*
X62430200Y-40947500D02*
X63700200Y-40947500D01*
X65290200Y-41697500D02*
X64450200Y-41697500D01*
%TO.N,Net-(C45-Pad2)*%
X56915200Y-49547500D02*
X55970200Y-48602500D01*
X56990200Y-49547500D02*
X56915200Y-49547500D01*
X54690200Y-48602500D02*
X55390200Y-48602500D01*
X63690200Y-49472500D02*
X57065200Y-49472500D01*
X55970200Y-48602500D02*
X55390200Y-48602500D01*
X57065200Y-49472500D02*
X56990200Y-49547500D01*
X55390200Y-48602500D02*
X55690200Y-48602500D01*
%TO.N,Net-(U9B-+)*%
X61160200Y-45897500D02*
X61160200Y-46672500D01*
X61160200Y-46672500D02*
X61450200Y-46962500D01*
X61450200Y-47642500D02*
X61450200Y-46962500D01*
X61450200Y-47642500D02*
X62390200Y-47642500D01*
%TO.N,Net-(U9B--)*%
X64570200Y-44742500D02*
X63700200Y-45612500D01*
X63700200Y-45897500D02*
X62430200Y-45897500D01*
X63700200Y-45897500D02*
X63700200Y-47812500D01*
X64990200Y-44742500D02*
X64570200Y-44742500D01*
X63700200Y-47812500D02*
X63690200Y-47822500D01*
X63700200Y-45612500D02*
X63700200Y-45897500D01*
%TO.N,Net-(C47-Pad2)*%
X65210200Y-45702500D02*
X65790200Y-45122500D01*
X65790200Y-43847500D02*
X65290200Y-43347500D01*
X64990200Y-46612500D02*
X64990200Y-45702500D01*
X64990200Y-45702500D02*
X65210200Y-45702500D01*
X65790200Y-45122500D02*
X65790200Y-43847500D01*
%TO.N,Net-(U9A-+)*%
X57715200Y-47897500D02*
X56990200Y-47897500D01*
X58290200Y-47642500D02*
X57970200Y-47642500D01*
X58620200Y-45897500D02*
X58620200Y-46792500D01*
X58620200Y-46792500D02*
X58290200Y-47122500D01*
X57970200Y-47642500D02*
X57715200Y-47897500D01*
X58290200Y-47122500D02*
X58290200Y-47642500D01*
D59*
%TO.N,Net-(D1-K)*%
X34200000Y-23190000D02*
X33247500Y-23190000D01*
X33247500Y-23190000D02*
X32737500Y-23700000D01*
%TO.N,Net-(D2-BK)*%
X39795000Y-23515000D02*
X38280000Y-23515000D01*
X38280000Y-23515000D02*
X38270000Y-23525000D01*
%TO.N,Net-(D2-GK)*%
X38715000Y-25070000D02*
X38270000Y-24625000D01*
X38715000Y-26100000D02*
X38715000Y-25070000D01*
%TO.N,Net-(D2-RK)*%
X36755000Y-26100000D02*
X36755000Y-24640000D01*
X36755000Y-24640000D02*
X36770000Y-24625000D01*
D60*
%TO.N,/WGN_OUT*%
X65900000Y-22725000D02*
X65900000Y-24300000D01*
X52125000Y-27487500D02*
X52125000Y-26175000D01*
X67250000Y-25650000D02*
X67250000Y-26375000D01*
X65900000Y-24300000D02*
X67250000Y-25650000D01*
X52125000Y-29762500D02*
X52125000Y-28225000D01*
X55575000Y-22725000D02*
X54900000Y-23400000D01*
X65900000Y-22725000D02*
X55575000Y-22725000D01*
X52125000Y-26175000D02*
X54900000Y-23400000D01*
X52125000Y-28225000D02*
X52125000Y-27487500D01*
D63*
%TO.N,/USB_CC*%
X29200000Y-31425000D02*
X29200000Y-33670000D01*
X29200000Y-33670000D02*
X28250000Y-34620000D01*
X26980000Y-34620000D02*
X28250000Y-34620000D01*
%TO.N,Net-(P1-D+)*%
X26980000Y-35620000D02*
X28580000Y-35620000D01*
D61*
X28090000Y-35905000D02*
X28090000Y-36335000D01*
X26980000Y-35620000D02*
X27805000Y-35620000D01*
X28090000Y-36335000D02*
X27805000Y-36620000D01*
X27805000Y-35620000D02*
X28090000Y-35905000D01*
X27805000Y-36620000D02*
X26980000Y-36620000D01*
D63*
X28580000Y-35620000D02*
X30589376Y-33610624D01*
D61*
%TO.N,Net-(P1-D-)*%
X26155000Y-36120000D02*
X25910000Y-35875000D01*
X26980000Y-36120000D02*
X26155000Y-36120000D01*
D63*
X26980000Y-35120000D02*
X28430000Y-35120000D01*
X30039376Y-32710624D02*
X29750000Y-33000000D01*
X28430000Y-35120000D02*
X29750000Y-33800000D01*
X29750000Y-33000000D02*
X29750000Y-33800000D01*
D61*
X25910000Y-35365000D02*
X26155000Y-35120000D01*
X25910000Y-35875000D02*
X25910000Y-35365000D01*
X26155000Y-35120000D02*
X26980000Y-35120000D01*
D63*
%TO.N,/USB_VCONN*%
X29400000Y-38520000D02*
X28500000Y-37620000D01*
X29400000Y-40175000D02*
X29400000Y-38520000D01*
X26980000Y-37620000D02*
X28500000Y-37620000D01*
D61*
%TO.N,/LED_B*%
X43906597Y-34978940D02*
X43897657Y-34970000D01*
X43897657Y-34970000D02*
X42805000Y-34970000D01*
%TO.N,/LED_G*%
X43718251Y-35478400D02*
X43609851Y-35370000D01*
X43609851Y-35370000D02*
X42805000Y-35370000D01*
X43900079Y-35478400D02*
X43718251Y-35478400D01*
%TO.N,/LED_R*%
X43477902Y-35977902D02*
X43899956Y-35977902D01*
X42805000Y-35770000D02*
X43270000Y-35770000D01*
X43270000Y-35770000D02*
X43477902Y-35977902D01*
%TO.N,/USB_D-*%
X32330000Y-31770000D02*
X30980000Y-31770000D01*
X35930000Y-31770000D02*
X32330000Y-31770000D01*
X30980000Y-31770000D02*
X30760624Y-31989376D01*
%TO.N,/USB_D+*%
X35930000Y-32170000D02*
X31900000Y-32170000D01*
X31310624Y-32759376D02*
X31900000Y-32170000D01*
X31310624Y-32839376D02*
X31310624Y-32759376D01*
%TO.N,/USER_LED*%
X42805000Y-34570000D02*
X43720000Y-34570000D01*
X42805000Y-34570000D02*
X43716905Y-34570000D01*
X43716905Y-34570000D02*
X43886905Y-34400000D01*
D60*
%TO.N,Net-(U4-PG{slash}ADJ)*%
X47100000Y-27225000D02*
X47100000Y-25925000D01*
X47100000Y-25925000D02*
X47350000Y-25675000D01*
X48125000Y-24900000D02*
X47350000Y-25675000D01*
X48125000Y-24025000D02*
X48125000Y-24900000D01*
D61*
%TO.N,/~{FLASH_CSN}*%
X33454643Y-39625965D02*
X33097106Y-39268428D01*
X34845405Y-39625965D02*
X33454643Y-39625965D01*
X35350000Y-35770000D02*
X35080000Y-36040000D01*
X35080000Y-37248628D02*
X35575965Y-37744594D01*
X34985685Y-39485685D02*
X34845405Y-39625965D01*
X34985685Y-39485685D02*
X32760624Y-41710746D01*
X35575964Y-38895407D02*
X34985685Y-39485685D01*
X35575965Y-37744594D02*
X35575964Y-38895407D01*
X35930000Y-35770000D02*
X35350000Y-35770000D01*
X35080000Y-36040000D02*
X35080000Y-37248628D01*
X32760624Y-41710746D02*
X32760624Y-41739376D01*
D60*
%TO.N,Net-(U10C-+)*%
X58361300Y-35520000D02*
X58090000Y-35248700D01*
X58763100Y-35520000D02*
X58361300Y-35520000D01*
X58090000Y-35248700D02*
X57823300Y-35515400D01*
X58758500Y-35515400D02*
X58763100Y-35520000D01*
X57823300Y-35515400D02*
X58758500Y-35515400D01*
X58090000Y-33750000D02*
X58090000Y-35248700D01*
D62*
%TO.N,/PDM_WGN*%
X46250000Y-29525000D02*
X44125000Y-29525000D01*
X44125000Y-29525000D02*
X44000000Y-29650000D01*
X44000000Y-29650000D02*
X42067500Y-29650000D01*
X42067500Y-29650000D02*
X42067500Y-29732500D01*
D61*
%TO.N,/ADC_SDI*%
X38367500Y-37541351D02*
X38798074Y-37971925D01*
X38367500Y-36607500D02*
X38367500Y-37541351D01*
X39785000Y-39285000D02*
X40170000Y-38900000D01*
X38927500Y-39285000D02*
X39785000Y-39285000D01*
%TO.N,/ADC_CSN*%
X37567500Y-37922500D02*
X37500000Y-37990000D01*
X37567500Y-36607500D02*
X37567500Y-37922500D01*
%TO.N,/ADC_SCK*%
X37967500Y-37777041D02*
X37967500Y-36607500D01*
X38193262Y-38002803D02*
X37967500Y-37777041D01*
%TO.N,/~{PGA_CS}*%
X42539126Y-37706525D02*
X42258293Y-37987358D01*
X43044500Y-37706525D02*
X42539126Y-37706525D01*
X41798567Y-37987358D02*
X41167500Y-37356291D01*
X42258293Y-37987358D02*
X41798567Y-37987358D01*
X41167500Y-37356291D02*
X41167500Y-36607500D01*
%TO.N,/PGA_SCK*%
X41914252Y-37537358D02*
X41567500Y-37190606D01*
X41567500Y-37190606D02*
X41567500Y-36607500D01*
X42071896Y-37537358D02*
X41914252Y-37537358D01*
%TO.N,/PGA_SI*%
X42060000Y-36700000D02*
X41967500Y-36607500D01*
X42570000Y-36700000D02*
X42060000Y-36700000D01*
%TO.N,/FLASH_IO3*%
X31840000Y-35480000D02*
X31860000Y-35480000D01*
X31371802Y-35948198D02*
X31840000Y-35480000D01*
X35930000Y-33770000D02*
X34508628Y-33770000D01*
X31371802Y-36836016D02*
X31371802Y-35948198D01*
X31682893Y-37147107D02*
X31371802Y-36836016D01*
X34508628Y-33770000D02*
X32798628Y-35480000D01*
X32798628Y-35480000D02*
X31860000Y-35480000D01*
%TO.N,/FLASH_SCK*%
X32036446Y-36793554D02*
X31771802Y-36528910D01*
X31771802Y-36528910D02*
X31771802Y-36118198D01*
X34674314Y-34170000D02*
X32964314Y-35880000D01*
X35930000Y-34170000D02*
X34674314Y-34170000D01*
X32964314Y-35880000D02*
X32010000Y-35880000D01*
X31771802Y-36118198D02*
X32010000Y-35880000D01*
%TO.N,/FLASH_IO0*%
X33130000Y-36280000D02*
X34040000Y-35370000D01*
X35930000Y-34570000D02*
X34840000Y-34570000D01*
X34840000Y-34570000D02*
X34040000Y-35370000D01*
X32390000Y-36440000D02*
X32550000Y-36280000D01*
X32550000Y-36280000D02*
X32640000Y-36280000D01*
X32640000Y-36280000D02*
X33130000Y-36280000D01*
%TO.N,/FLASH_IO2*%
X35010000Y-34970000D02*
X35930000Y-34970000D01*
X34775965Y-38564035D02*
X34775965Y-38075965D01*
X33804213Y-38561321D02*
X34068857Y-38825965D01*
X34514035Y-38825965D02*
X34775965Y-38564035D01*
X34280000Y-37580000D02*
X34280000Y-35700000D01*
X34068857Y-38825965D02*
X34514035Y-38825965D01*
X34280000Y-35700000D02*
X35010000Y-34970000D01*
X34775965Y-38075965D02*
X34280000Y-37580000D01*
%TO.N,/FLASH_IO1*%
X35175965Y-37910279D02*
X35175965Y-38729721D01*
X35175965Y-38729721D02*
X34679720Y-39225965D01*
X35184314Y-35370000D02*
X34680000Y-35874315D01*
X34680000Y-37414314D02*
X35175965Y-37910279D01*
X35930000Y-35370000D02*
X35184314Y-35370000D01*
X34680000Y-35874315D02*
X34680000Y-37414314D01*
X33761751Y-39225965D02*
X33450660Y-38914874D01*
X34679720Y-39225965D02*
X33761751Y-39225965D01*
D60*
%TO.N,Net-(U10A--)*%
X64217514Y-29926200D02*
X63170000Y-28878686D01*
X63170000Y-28800000D02*
X61900000Y-28800000D01*
X63170000Y-28800000D02*
X63170000Y-26837700D01*
X63170000Y-26837700D02*
X63182700Y-26825000D01*
X64401900Y-29926200D02*
X64217514Y-29926200D01*
X63170000Y-28878686D02*
X63170000Y-28800000D01*
%TO.N,Net-(C54-Pad2)*%
X55400000Y-26000000D02*
X55127100Y-26000000D01*
X56427100Y-25075000D02*
X63082700Y-25075000D01*
X56427100Y-25075000D02*
X56325000Y-25075000D01*
X56325000Y-25075000D02*
X55400000Y-26000000D01*
X63082700Y-25075000D02*
X63182700Y-25175000D01*
X54200000Y-26000000D02*
X55127100Y-26000000D01*
%TO.N,Net-(U10B-+)*%
X56682100Y-26980000D02*
X56427100Y-26725000D01*
X58090000Y-28800000D02*
X58090000Y-27990000D01*
X57730700Y-27630700D02*
X57730700Y-26980000D01*
X57730700Y-26980000D02*
X56682100Y-26980000D01*
X58090000Y-27990000D02*
X57730700Y-27630700D01*
%TO.N,Net-(U10B--)*%
X56820000Y-28800000D02*
X55550000Y-28800000D01*
X55550000Y-27650000D02*
X55127100Y-27227100D01*
X55550000Y-28800000D02*
X55550000Y-27650000D01*
X55550000Y-29550000D02*
X55069100Y-30030900D01*
X55127100Y-27227100D02*
X55127100Y-26960000D01*
X55550000Y-28800000D02*
X55550000Y-29550000D01*
X55069100Y-30030900D02*
X54000600Y-30030900D01*
X55127100Y-26960000D02*
X54200000Y-26960000D01*
%TO.N,Net-(C56-Pad2)*%
X65484000Y-29712700D02*
X65484000Y-29312700D01*
X65484000Y-29712700D02*
X65484000Y-29171400D01*
X64744800Y-31251900D02*
X65484000Y-30512700D01*
X65484000Y-29312700D02*
X65137500Y-28966200D01*
X65484000Y-30512700D02*
X65484000Y-29712700D01*
X65137500Y-28966200D02*
X64401900Y-28966200D01*
X64401900Y-28966200D02*
X64401900Y-28140100D01*
X64744800Y-31275000D02*
X64744800Y-31251900D01*
X64401900Y-28140100D02*
X64427300Y-28114700D01*
X65484000Y-29171400D02*
X64427300Y-28114700D01*
%TO.N,Net-(U10D--)*%
X63170000Y-33750000D02*
X63919800Y-33750000D01*
X63919800Y-33750000D02*
X64744800Y-32925000D01*
X63170000Y-33750000D02*
X61900000Y-33750000D01*
D59*
%TO.N,/CLK_12M*%
X46470000Y-35780000D02*
X46148320Y-35780000D01*
D61*
X42805000Y-33770000D02*
X43910000Y-33770000D01*
D59*
X46148320Y-35780000D02*
X45008320Y-34640000D01*
X46470000Y-35780000D02*
X46120000Y-35780000D01*
D61*
X44930000Y-34640000D02*
X44060000Y-33770000D01*
X44060000Y-33770000D02*
X43910000Y-33770000D01*
D59*
X45008320Y-34640000D02*
X44930000Y-34640000D01*
D60*
%TO.N,Net-(U9A--)*%
X55315200Y-44347500D02*
X54490200Y-44347500D01*
X55690200Y-47322500D02*
X55690200Y-47642500D01*
X56080200Y-45112500D02*
X55315200Y-44347500D01*
X56080200Y-45897500D02*
X56080200Y-45112500D01*
X56080200Y-46932500D02*
X55690200Y-47322500D01*
X54690200Y-47642500D02*
X55690200Y-47642500D01*
X57350200Y-45897500D02*
X56080200Y-45897500D01*
X56080200Y-45897500D02*
X56080200Y-46932500D01*
D61*
%TO.N,Net-(U2-XOUT)*%
X42805000Y-33370000D02*
X43960000Y-33370000D01*
X45200000Y-33370000D02*
X43960000Y-33370000D01*
X45880000Y-32690000D02*
X45200000Y-33370000D01*
D60*
%TO.N,/WGN_OUT_PORT*%
X76000000Y-26375000D02*
X69150000Y-26375000D01*
X76000000Y-26375000D02*
X76000000Y-32850000D01*
%TO.N,/WGN_PGA_IN*%
X69300000Y-32800000D02*
X71740000Y-35240000D01*
X71740000Y-35240000D02*
X73275000Y-35240000D01*
X66800000Y-32800000D02*
X69300000Y-32800000D01*
X63610000Y-35990000D02*
X66800000Y-32800000D01*
X63610000Y-36000000D02*
X63610000Y-35990000D01*
X73275000Y-35235000D02*
X74410000Y-35235000D01*
X74410000Y-35235000D02*
X74880000Y-34765000D01*
X74880000Y-34765000D02*
X76000000Y-34765000D01*
X78700000Y-34750000D02*
X76000000Y-34750000D01*
%TD*%
%TA.AperFunction,Conductor*%
%TO.N,GND*%
G36*
X32978130Y-36847915D02*
G01*
X33109651Y-36975952D01*
X33113128Y-36984038D01*
X33109869Y-36992214D01*
X33109761Y-36992324D01*
X31880704Y-38221381D01*
X31847580Y-38270955D01*
X31847578Y-38270960D01*
X31832019Y-38349187D01*
X31832019Y-38349190D01*
X31841344Y-38396075D01*
X31847579Y-38427420D01*
X31880707Y-38477000D01*
X32120767Y-38717060D01*
X32170347Y-38750188D01*
X32226532Y-38761363D01*
X32248577Y-38765748D01*
X32248578Y-38765748D01*
X32248579Y-38765748D01*
X32264224Y-38762636D01*
X32326810Y-38750188D01*
X32376389Y-38717060D01*
X33606399Y-37487050D01*
X33609857Y-37481873D01*
X33617172Y-37476985D01*
X33625805Y-37478701D01*
X33627439Y-37480024D01*
X34471648Y-38301869D01*
X34475125Y-38309955D01*
X34471866Y-38318131D01*
X34471758Y-38318241D01*
X34272418Y-38517581D01*
X34264286Y-38520949D01*
X34256155Y-38517581D01*
X33825958Y-38087384D01*
X33825954Y-38087381D01*
X33781226Y-38057494D01*
X33779540Y-38056120D01*
X33610548Y-37889444D01*
X33470000Y-37870000D01*
X33469999Y-37870000D01*
X32353407Y-38976623D01*
X32345260Y-38979954D01*
X32345241Y-38979954D01*
X32345202Y-38979954D01*
X31300003Y-38969999D01*
X31300001Y-38969999D01*
X31088132Y-39181868D01*
X31080000Y-39185236D01*
X31071868Y-39181868D01*
X30688228Y-38798228D01*
X30684860Y-38790096D01*
X30688228Y-38781964D01*
X30688278Y-38781913D01*
X31108028Y-38371925D01*
X31112630Y-38369178D01*
X31590000Y-38220000D01*
X32961977Y-36848022D01*
X32970108Y-36844655D01*
X32978130Y-36847915D01*
G37*
%TD.AperFunction*%
%TD*%
%TA.AperFunction,Conductor*%
%TO.N,+3V3*%
G36*
X36366632Y-32473368D02*
G01*
X36370000Y-32481500D01*
X36370000Y-33058000D01*
X36366632Y-33066132D01*
X36358500Y-33069500D01*
X35501500Y-33069500D01*
X35493368Y-33066132D01*
X35490000Y-33058000D01*
X35490000Y-32482000D01*
X35493368Y-32473868D01*
X35501500Y-32470500D01*
X36342173Y-32470500D01*
X36342174Y-32470500D01*
X36343577Y-32470220D01*
X36345819Y-32470000D01*
X36358500Y-32470000D01*
X36366632Y-32473368D01*
G37*
%TD.AperFunction*%
%TD*%
%TA.AperFunction,Conductor*%
%TO.N,GND*%
G36*
X43373045Y-39803368D02*
G01*
X43373417Y-39803759D01*
X43870000Y-40350000D01*
X47608500Y-40350000D01*
X47616632Y-40353368D01*
X47620000Y-40361500D01*
X47620000Y-41438500D01*
X47616632Y-41446632D01*
X47608500Y-41450000D01*
X43870000Y-41450000D01*
X43273415Y-42096300D01*
X43265425Y-42099991D01*
X43264965Y-42100000D01*
X42681500Y-42100000D01*
X42673368Y-42096632D01*
X42670000Y-42088500D01*
X42670000Y-39811500D01*
X42673368Y-39803368D01*
X42681500Y-39800000D01*
X43364913Y-39800000D01*
X43373045Y-39803368D01*
G37*
%TD.AperFunction*%
%TD*%
M02*
