%TF.GenerationSoftware,KiCad,Pcbnew,7.0.7*%
%TF.CreationDate,2024-02-05T21:16:27-08:00*%
%TF.ProjectId,Bandit_Dev_Platform,42616e64-6974-45f4-9465-765f506c6174,rev?*%
%TF.SameCoordinates,Original*%
%TF.FileFunction,Copper,L2,Inr*%
%TF.FilePolarity,Positive*%
%FSLAX46Y46*%
G04 Gerber Fmt 4.6, Leading zero omitted, Abs format (unit mm)*
G04 Created by KiCad (PCBNEW 7.0.7) date 2024-02-05 21:16:27*
%MOMM*%
%LPD*%
G01*
G04 APERTURE LIST*
%TA.AperFunction,ComponentPad*%
%ADD10O,2.100000X1.000000*%
%TD*%
%TA.AperFunction,ComponentPad*%
%ADD11O,1.800000X1.000000*%
%TD*%
%TA.AperFunction,ComponentPad*%
%ADD12C,1.800000*%
%TD*%
%TA.AperFunction,ComponentPad*%
%ADD13C,3.250000*%
%TD*%
%TA.AperFunction,ComponentPad*%
%ADD14R,1.700000X1.700000*%
%TD*%
%TA.AperFunction,ComponentPad*%
%ADD15O,1.700000X1.700000*%
%TD*%
%TA.AperFunction,ComponentPad*%
%ADD16C,2.000000*%
%TD*%
%TA.AperFunction,ViaPad*%
%ADD17C,0.300000*%
%TD*%
%TA.AperFunction,ViaPad*%
%ADD18C,0.800000*%
%TD*%
G04 APERTURE END LIST*
D10*
%TO.N,GND*%
%TO.C,P1*%
X26405000Y-31550000D03*
D11*
X22225000Y-31550000D03*
D10*
X26405000Y-40190000D03*
D11*
X22225000Y-40190000D03*
%TD*%
D12*
%TO.N,/WGN_OUT_PORT*%
%TO.C,J6*%
X76000000Y-26375000D03*
D13*
%TO.N,GND*%
X72700000Y-23075000D03*
X72700000Y-29675000D03*
X79300000Y-23075000D03*
X79300000Y-29675000D03*
%TD*%
D14*
%TO.N,/WGN_OUT_PORT*%
%TO.C,J12*%
X68440000Y-22725000D03*
D15*
%TO.N,/WGN_OUT*%
X65900000Y-22725000D03*
%TD*%
D12*
%TO.N,Net-(J2-In)*%
%TO.C,J5*%
X76000000Y-45375000D03*
D13*
%TO.N,GND*%
X72700000Y-42075000D03*
X72700000Y-48675000D03*
X79300000Y-42075000D03*
X79300000Y-48675000D03*
%TD*%
D16*
%TO.N,Net-(SW1-A)*%
%TO.C,SW1*%
X23050000Y-44100000D03*
X29550000Y-44100000D03*
%TO.N,GND*%
X23050000Y-48600000D03*
X29550000Y-48600000D03*
%TD*%
D17*
%TO.N,VDDA*%
X53575000Y-22145000D03*
X50225000Y-22095000D03*
%TO.N,+3V3*%
X42335523Y-27600000D03*
X43400000Y-27600000D03*
X36480000Y-28200000D03*
X33460000Y-32810000D03*
X34570000Y-30180000D03*
X40367500Y-30600000D03*
X45050000Y-31710000D03*
X37260000Y-39600000D03*
X30450000Y-26490000D03*
X46050000Y-31710000D03*
D18*
X33642500Y-26890000D03*
X35400000Y-23350000D03*
D17*
X30420589Y-38090589D03*
D18*
X30862500Y-23700000D03*
D17*
X37280000Y-38620000D03*
X31450000Y-26490000D03*
X40367500Y-35800000D03*
D18*
X28850000Y-24200000D03*
D17*
X28800000Y-26200000D03*
D18*
%TO.N,GND*%
X52025000Y-24025000D03*
D17*
X77600000Y-33730000D03*
X41770000Y-45380000D03*
X23340000Y-26450000D03*
X48220000Y-35410000D03*
D18*
X28300000Y-39400000D03*
D17*
X27300000Y-39100000D03*
X77600000Y-38000000D03*
X53575000Y-23105000D03*
X61939800Y-26022600D03*
X61000000Y-26020000D03*
D18*
X29400000Y-41825000D03*
X51175000Y-28425000D03*
D17*
X31850000Y-38210000D03*
X47310000Y-40480000D03*
X46470000Y-34080000D03*
X32350000Y-38750000D03*
X32500000Y-32810000D03*
D18*
X28300000Y-32500000D03*
X59390200Y-42622500D03*
D17*
X42000000Y-34400000D03*
D18*
X27500000Y-28100000D03*
D17*
X61557100Y-36454600D03*
D18*
X40400000Y-32100000D03*
D17*
X46920000Y-34430000D03*
D18*
X38400000Y-34100000D03*
D17*
X59390200Y-48602500D03*
X30530000Y-25500000D03*
X34530000Y-28170000D03*
X40770000Y-45380000D03*
D18*
X48750000Y-27225000D03*
D17*
X58290200Y-48602500D03*
X50225000Y-23055000D03*
D18*
X40200000Y-34100000D03*
D17*
X31530000Y-25500000D03*
X62190200Y-38142500D03*
D18*
X29200000Y-29775000D03*
D17*
X27300000Y-32700000D03*
D18*
X45175000Y-27487500D03*
D17*
X62390200Y-48602500D03*
X31099411Y-38769411D03*
X48820000Y-32700000D03*
X48310000Y-39610000D03*
D18*
X37134668Y-42178675D03*
D17*
X44050000Y-31060000D03*
X57730700Y-26020000D03*
X60630000Y-36454600D03*
X46050000Y-30750000D03*
X44375000Y-23055000D03*
X58763100Y-36480000D03*
X51205000Y-25975000D03*
D18*
X40300000Y-42240000D03*
D17*
X60390200Y-48602500D03*
D18*
X43170000Y-41600000D03*
D17*
X49120000Y-36140000D03*
X23340000Y-25400000D03*
X59490200Y-38242500D03*
X26800000Y-32700000D03*
X58900000Y-26020000D03*
D18*
X30100000Y-28100000D03*
D17*
X34570000Y-29220000D03*
D18*
X60390200Y-42622500D03*
D17*
X36480000Y-27240000D03*
X23340000Y-24350000D03*
X32970000Y-37070000D03*
X47310000Y-41370000D03*
D18*
X58900000Y-32000000D03*
X38400000Y-32200000D03*
X71700000Y-33500000D03*
D17*
X32490000Y-30900000D03*
D18*
X41825000Y-24025000D03*
D17*
X32670589Y-34599411D03*
D18*
X26950000Y-24200000D03*
X44506500Y-23793500D03*
D17*
X50225000Y-23995000D03*
X33630000Y-37700000D03*
X32490000Y-29900000D03*
X61450200Y-48602500D03*
D18*
X59900000Y-32000000D03*
X43170000Y-40300000D03*
D17*
X36300000Y-39600000D03*
X31280589Y-34529411D03*
X66500000Y-36620000D03*
X65500000Y-36420000D03*
D18*
X72500000Y-33100000D03*
D17*
X48275000Y-30505000D03*
X61190200Y-38142500D03*
X40200000Y-27500000D03*
X45050000Y-30750000D03*
X36320000Y-38620000D03*
X44930000Y-35600000D03*
X26800000Y-39100000D03*
X59900000Y-26020000D03*
X43375000Y-23055000D03*
X46010000Y-33710000D03*
X48670000Y-35780000D03*
X48310000Y-42190000D03*
X42000000Y-34000000D03*
%TO.N,VDDA*%
X50245000Y-25975000D03*
X41770000Y-44420000D03*
X78700000Y-38000000D03*
X67700000Y-37780000D03*
D18*
X52025000Y-22125000D03*
D17*
X58900000Y-26980000D03*
X59900000Y-26980000D03*
X66500000Y-37600000D03*
X49000000Y-25675000D03*
X78700000Y-33730000D03*
X50225000Y-24955000D03*
X60390200Y-47642500D03*
X69000000Y-37780000D03*
X59390200Y-47642500D03*
X40770000Y-44420000D03*
%TO.N,Net-(U10A-+)*%
X64427300Y-27094700D03*
X61939800Y-26982600D03*
%TO.N,Net-(C39-Pad2)*%
X54000600Y-31680900D03*
X55194400Y-36480000D03*
%TO.N,Net-(C40-Pad2)*%
X55690200Y-38242500D03*
X54490200Y-42697500D03*
%TO.N,Net-(U9B-+)*%
X62390200Y-47642500D03*
X64990200Y-47632500D03*
%TO.N,/LED_B*%
X39795000Y-24535000D03*
X43906597Y-34978940D03*
%TO.N,/LED_G*%
X39670000Y-26100000D03*
X43900079Y-35478400D03*
%TO.N,/LED_R*%
X43899956Y-35977902D03*
X37710000Y-26100000D03*
%TO.N,/USER_LED*%
X34200000Y-24210000D03*
X43886905Y-34400000D03*
%TO.N,/ADC_SDI*%
X40170000Y-38900000D03*
X38798074Y-37971925D03*
%TO.N,/ADC_CSN*%
X37500000Y-37990000D03*
X38600000Y-39950000D03*
%TO.N,/ADC_SCK*%
X39350000Y-40585000D03*
X38193262Y-38002803D03*
%TO.N,/~{PGA_CS}*%
X68325000Y-33970000D03*
X43044500Y-37706525D03*
%TO.N,/PGA_SCK*%
X68325000Y-36510000D03*
X42071896Y-37537358D03*
%TO.N,/PGA_SI*%
X42570000Y-36700000D03*
X68325000Y-35240000D03*
%TD*%
%TA.AperFunction,Conductor*%
%TO.N,VDDA*%
G36*
X83442539Y-20020185D02*
G01*
X83488294Y-20072989D01*
X83499500Y-20124500D01*
X83499500Y-51625500D01*
X83479815Y-51692539D01*
X83427011Y-51738294D01*
X83375500Y-51749500D01*
X40524000Y-51749500D01*
X40456961Y-51729815D01*
X40411206Y-51677011D01*
X40400000Y-51625500D01*
X40400000Y-48602502D01*
X57935331Y-48602502D01*
X57952698Y-48712158D01*
X58003104Y-48811085D01*
X58003109Y-48811092D01*
X58081607Y-48889590D01*
X58081610Y-48889592D01*
X58081613Y-48889595D01*
X58180539Y-48940000D01*
X58180541Y-48940001D01*
X58290198Y-48957369D01*
X58290200Y-48957369D01*
X58290202Y-48957369D01*
X58399858Y-48940001D01*
X58399859Y-48940000D01*
X58399861Y-48940000D01*
X58498787Y-48889595D01*
X58577295Y-48811087D01*
X58627700Y-48712161D01*
X58627700Y-48712159D01*
X58627701Y-48712158D01*
X58645069Y-48602502D01*
X59035331Y-48602502D01*
X59052698Y-48712158D01*
X59103104Y-48811085D01*
X59103109Y-48811092D01*
X59181607Y-48889590D01*
X59181610Y-48889592D01*
X59181613Y-48889595D01*
X59280539Y-48940000D01*
X59280541Y-48940001D01*
X59390198Y-48957369D01*
X59390200Y-48957369D01*
X59390202Y-48957369D01*
X59499858Y-48940001D01*
X59499859Y-48940000D01*
X59499861Y-48940000D01*
X59598787Y-48889595D01*
X59677295Y-48811087D01*
X59727700Y-48712161D01*
X59727700Y-48712159D01*
X59727701Y-48712158D01*
X59745069Y-48602502D01*
X60035331Y-48602502D01*
X60052698Y-48712158D01*
X60103104Y-48811085D01*
X60103109Y-48811092D01*
X60181607Y-48889590D01*
X60181610Y-48889592D01*
X60181613Y-48889595D01*
X60280539Y-48940000D01*
X60280541Y-48940001D01*
X60390198Y-48957369D01*
X60390200Y-48957369D01*
X60390202Y-48957369D01*
X60499858Y-48940001D01*
X60499859Y-48940000D01*
X60499861Y-48940000D01*
X60598787Y-48889595D01*
X60677295Y-48811087D01*
X60727700Y-48712161D01*
X60727700Y-48712159D01*
X60727701Y-48712158D01*
X60745069Y-48602502D01*
X61095331Y-48602502D01*
X61112698Y-48712158D01*
X61163104Y-48811085D01*
X61163109Y-48811092D01*
X61241607Y-48889590D01*
X61241610Y-48889592D01*
X61241613Y-48889595D01*
X61340539Y-48940000D01*
X61340541Y-48940001D01*
X61450198Y-48957369D01*
X61450200Y-48957369D01*
X61450202Y-48957369D01*
X61559858Y-48940001D01*
X61559859Y-48940000D01*
X61559861Y-48940000D01*
X61658787Y-48889595D01*
X61737295Y-48811087D01*
X61787700Y-48712161D01*
X61797726Y-48648854D01*
X61819291Y-48603364D01*
X61818501Y-48601634D01*
X62021106Y-48601634D01*
X62042672Y-48648856D01*
X62052698Y-48712158D01*
X62103104Y-48811085D01*
X62103109Y-48811092D01*
X62181607Y-48889590D01*
X62181610Y-48889592D01*
X62181613Y-48889595D01*
X62280539Y-48940000D01*
X62280541Y-48940001D01*
X62390198Y-48957369D01*
X62390200Y-48957369D01*
X62390202Y-48957369D01*
X62499858Y-48940001D01*
X62499859Y-48940000D01*
X62499861Y-48940000D01*
X62598787Y-48889595D01*
X62677295Y-48811087D01*
X62727700Y-48712161D01*
X62727700Y-48712159D01*
X62727701Y-48712158D01*
X62733586Y-48675003D01*
X70869381Y-48675003D01*
X70889827Y-48947839D01*
X70889827Y-48947840D01*
X70950706Y-49214570D01*
X70950708Y-49214579D01*
X70950710Y-49214584D01*
X71050669Y-49469276D01*
X71187472Y-49706224D01*
X71325257Y-49879002D01*
X71358064Y-49920141D01*
X71547399Y-50095817D01*
X71558628Y-50106236D01*
X71784691Y-50260363D01*
X71784696Y-50260365D01*
X71784697Y-50260366D01*
X71784698Y-50260367D01*
X71915618Y-50323414D01*
X72031196Y-50379073D01*
X72031197Y-50379073D01*
X72031200Y-50379075D01*
X72292649Y-50459722D01*
X72292650Y-50459722D01*
X72292653Y-50459723D01*
X72563190Y-50500499D01*
X72563195Y-50500499D01*
X72563198Y-50500500D01*
X72563199Y-50500500D01*
X72836801Y-50500500D01*
X72836802Y-50500500D01*
X72836809Y-50500499D01*
X73107346Y-50459723D01*
X73107347Y-50459722D01*
X73107351Y-50459722D01*
X73368800Y-50379075D01*
X73615310Y-50260363D01*
X73841372Y-50106236D01*
X74041939Y-49920137D01*
X74212528Y-49706224D01*
X74349331Y-49469276D01*
X74449290Y-49214584D01*
X74510172Y-48947840D01*
X74520420Y-48811092D01*
X74530619Y-48675003D01*
X77469381Y-48675003D01*
X77489827Y-48947839D01*
X77489827Y-48947840D01*
X77550706Y-49214570D01*
X77550708Y-49214579D01*
X77550710Y-49214584D01*
X77650669Y-49469276D01*
X77787472Y-49706224D01*
X77925257Y-49879002D01*
X77958064Y-49920141D01*
X78147399Y-50095817D01*
X78158628Y-50106236D01*
X78384691Y-50260363D01*
X78384696Y-50260365D01*
X78384697Y-50260366D01*
X78384698Y-50260367D01*
X78515618Y-50323414D01*
X78631196Y-50379073D01*
X78631197Y-50379073D01*
X78631200Y-50379075D01*
X78892649Y-50459722D01*
X78892650Y-50459722D01*
X78892653Y-50459723D01*
X79163190Y-50500499D01*
X79163195Y-50500499D01*
X79163198Y-50500500D01*
X79163199Y-50500500D01*
X79436801Y-50500500D01*
X79436802Y-50500500D01*
X79436809Y-50500499D01*
X79707346Y-50459723D01*
X79707347Y-50459722D01*
X79707351Y-50459722D01*
X79968800Y-50379075D01*
X80215310Y-50260363D01*
X80441372Y-50106236D01*
X80641939Y-49920137D01*
X80812528Y-49706224D01*
X80949331Y-49469276D01*
X81049290Y-49214584D01*
X81110172Y-48947840D01*
X81120420Y-48811092D01*
X81130619Y-48675003D01*
X81130619Y-48674996D01*
X81110172Y-48402160D01*
X81110172Y-48402159D01*
X81049293Y-48135429D01*
X81049292Y-48135428D01*
X81049290Y-48135416D01*
X80949331Y-47880724D01*
X80812528Y-47643776D01*
X80641939Y-47429863D01*
X80641938Y-47429862D01*
X80641935Y-47429858D01*
X80441372Y-47243764D01*
X80441371Y-47243763D01*
X80215310Y-47089637D01*
X80215306Y-47089635D01*
X80215303Y-47089633D01*
X80215302Y-47089632D01*
X79968802Y-46970926D01*
X79968804Y-46970926D01*
X79707352Y-46890278D01*
X79707346Y-46890276D01*
X79436809Y-46849500D01*
X79436802Y-46849500D01*
X79163198Y-46849500D01*
X79163190Y-46849500D01*
X78892653Y-46890276D01*
X78892647Y-46890278D01*
X78631196Y-46970926D01*
X78384698Y-47089632D01*
X78384697Y-47089633D01*
X78158627Y-47243764D01*
X77958064Y-47429858D01*
X77787472Y-47643776D01*
X77650669Y-47880723D01*
X77550712Y-48135410D01*
X77550706Y-48135429D01*
X77489827Y-48402159D01*
X77489827Y-48402160D01*
X77469381Y-48674996D01*
X77469381Y-48675003D01*
X74530619Y-48675003D01*
X74530619Y-48674996D01*
X74510172Y-48402160D01*
X74510172Y-48402159D01*
X74449293Y-48135429D01*
X74449292Y-48135428D01*
X74449290Y-48135416D01*
X74349331Y-47880724D01*
X74212528Y-47643776D01*
X74041939Y-47429863D01*
X74041938Y-47429862D01*
X74041935Y-47429858D01*
X73841372Y-47243764D01*
X73841372Y-47243763D01*
X73615310Y-47089637D01*
X73615306Y-47089635D01*
X73615303Y-47089633D01*
X73615302Y-47089632D01*
X73368802Y-46970926D01*
X73368804Y-46970926D01*
X73107352Y-46890278D01*
X73107346Y-46890276D01*
X72836809Y-46849500D01*
X72836802Y-46849500D01*
X72563198Y-46849500D01*
X72563190Y-46849500D01*
X72292653Y-46890276D01*
X72292647Y-46890278D01*
X72031196Y-46970926D01*
X71784698Y-47089632D01*
X71784697Y-47089633D01*
X71558627Y-47243764D01*
X71358064Y-47429858D01*
X71187472Y-47643776D01*
X71050669Y-47880723D01*
X70950712Y-48135410D01*
X70950706Y-48135429D01*
X70889827Y-48402159D01*
X70889827Y-48402160D01*
X70869381Y-48674996D01*
X70869381Y-48675003D01*
X62733586Y-48675003D01*
X62745069Y-48602502D01*
X62745069Y-48602497D01*
X62727701Y-48492841D01*
X62681497Y-48402160D01*
X62677295Y-48393913D01*
X62677292Y-48393910D01*
X62677290Y-48393907D01*
X62598792Y-48315409D01*
X62598788Y-48315406D01*
X62598787Y-48315405D01*
X62594943Y-48313446D01*
X62499858Y-48264998D01*
X62390202Y-48247631D01*
X62390198Y-48247631D01*
X62280541Y-48264998D01*
X62181614Y-48315404D01*
X62181607Y-48315409D01*
X62103109Y-48393907D01*
X62103104Y-48393914D01*
X62052699Y-48492841D01*
X62042672Y-48556144D01*
X62021106Y-48601634D01*
X61818501Y-48601634D01*
X61797726Y-48556143D01*
X61787700Y-48492839D01*
X61737295Y-48393913D01*
X61737292Y-48393910D01*
X61737290Y-48393907D01*
X61658792Y-48315409D01*
X61658788Y-48315406D01*
X61658787Y-48315405D01*
X61654943Y-48313446D01*
X61559858Y-48264998D01*
X61450202Y-48247631D01*
X61450198Y-48247631D01*
X61340541Y-48264998D01*
X61241614Y-48315404D01*
X61241607Y-48315409D01*
X61163109Y-48393907D01*
X61163104Y-48393914D01*
X61112698Y-48492841D01*
X61095331Y-48602497D01*
X61095331Y-48602502D01*
X60745069Y-48602502D01*
X60745069Y-48602497D01*
X60727701Y-48492841D01*
X60681497Y-48402160D01*
X60677295Y-48393913D01*
X60677292Y-48393910D01*
X60677290Y-48393907D01*
X60598792Y-48315409D01*
X60598788Y-48315406D01*
X60598787Y-48315405D01*
X60594943Y-48313446D01*
X60499858Y-48264998D01*
X60390202Y-48247631D01*
X60390198Y-48247631D01*
X60280541Y-48264998D01*
X60181614Y-48315404D01*
X60181607Y-48315409D01*
X60103109Y-48393907D01*
X60103104Y-48393914D01*
X60052698Y-48492841D01*
X60035331Y-48602497D01*
X60035331Y-48602502D01*
X59745069Y-48602502D01*
X59745069Y-48602497D01*
X59727701Y-48492841D01*
X59681497Y-48402160D01*
X59677295Y-48393913D01*
X59677292Y-48393910D01*
X59677290Y-48393907D01*
X59598792Y-48315409D01*
X59598788Y-48315406D01*
X59598787Y-48315405D01*
X59594943Y-48313446D01*
X59499858Y-48264998D01*
X59390202Y-48247631D01*
X59390198Y-48247631D01*
X59280541Y-48264998D01*
X59181614Y-48315404D01*
X59181607Y-48315409D01*
X59103109Y-48393907D01*
X59103104Y-48393914D01*
X59052698Y-48492841D01*
X59035331Y-48602497D01*
X59035331Y-48602502D01*
X58645069Y-48602502D01*
X58645069Y-48602497D01*
X58627701Y-48492841D01*
X58581497Y-48402160D01*
X58577295Y-48393913D01*
X58577292Y-48393910D01*
X58577290Y-48393907D01*
X58498792Y-48315409D01*
X58498788Y-48315406D01*
X58498787Y-48315405D01*
X58494943Y-48313446D01*
X58399858Y-48264998D01*
X58290202Y-48247631D01*
X58290198Y-48247631D01*
X58180541Y-48264998D01*
X58081614Y-48315404D01*
X58081607Y-48315409D01*
X58003109Y-48393907D01*
X58003104Y-48393914D01*
X57952698Y-48492841D01*
X57935331Y-48602497D01*
X57935331Y-48602502D01*
X40400000Y-48602502D01*
X40400000Y-47642502D01*
X62035331Y-47642502D01*
X62052698Y-47752158D01*
X62103104Y-47851085D01*
X62103109Y-47851092D01*
X62181607Y-47929590D01*
X62181610Y-47929592D01*
X62181613Y-47929595D01*
X62260913Y-47970000D01*
X62280541Y-47980001D01*
X62390198Y-47997369D01*
X62390200Y-47997369D01*
X62390202Y-47997369D01*
X62499858Y-47980001D01*
X62499859Y-47980000D01*
X62499861Y-47980000D01*
X62598787Y-47929595D01*
X62677295Y-47851087D01*
X62727700Y-47752161D01*
X62727700Y-47752159D01*
X62727701Y-47752158D01*
X62745069Y-47642502D01*
X62745069Y-47642497D01*
X62743486Y-47632502D01*
X64635331Y-47632502D01*
X64652698Y-47742158D01*
X64703104Y-47841085D01*
X64703109Y-47841092D01*
X64781607Y-47919590D01*
X64781610Y-47919592D01*
X64781613Y-47919595D01*
X64880539Y-47970000D01*
X64880541Y-47970001D01*
X64990198Y-47987369D01*
X64990200Y-47987369D01*
X64990202Y-47987369D01*
X65099858Y-47970001D01*
X65099859Y-47970000D01*
X65099861Y-47970000D01*
X65198787Y-47919595D01*
X65277295Y-47841087D01*
X65327700Y-47742161D01*
X65327700Y-47742159D01*
X65327701Y-47742158D01*
X65345069Y-47632502D01*
X65345069Y-47632497D01*
X65327701Y-47522841D01*
X65327700Y-47522839D01*
X65277295Y-47423913D01*
X65277292Y-47423910D01*
X65277290Y-47423907D01*
X65198792Y-47345409D01*
X65198788Y-47345406D01*
X65198787Y-47345405D01*
X65194943Y-47343446D01*
X65099858Y-47294998D01*
X64990202Y-47277631D01*
X64990198Y-47277631D01*
X64880541Y-47294998D01*
X64781614Y-47345404D01*
X64781607Y-47345409D01*
X64703109Y-47423907D01*
X64703104Y-47423914D01*
X64652698Y-47522841D01*
X64635331Y-47632497D01*
X64635331Y-47632502D01*
X62743486Y-47632502D01*
X62727701Y-47532841D01*
X62722605Y-47522839D01*
X62677295Y-47433913D01*
X62677292Y-47433910D01*
X62677290Y-47433907D01*
X62598792Y-47355409D01*
X62598788Y-47355406D01*
X62598787Y-47355405D01*
X62579159Y-47345404D01*
X62499858Y-47304998D01*
X62390202Y-47287631D01*
X62390198Y-47287631D01*
X62280541Y-47304998D01*
X62181614Y-47355404D01*
X62181607Y-47355409D01*
X62103109Y-47433907D01*
X62103104Y-47433914D01*
X62052698Y-47532841D01*
X62035331Y-47642497D01*
X62035331Y-47642502D01*
X40400000Y-47642502D01*
X40400000Y-45787200D01*
X40419685Y-45720161D01*
X40472489Y-45674406D01*
X40541647Y-45664462D01*
X40580290Y-45676713D01*
X40660339Y-45717500D01*
X40660341Y-45717500D01*
X40660343Y-45717501D01*
X40769998Y-45734869D01*
X40770000Y-45734869D01*
X40770002Y-45734869D01*
X40879658Y-45717501D01*
X40879659Y-45717500D01*
X40879661Y-45717500D01*
X40978587Y-45667095D01*
X41057095Y-45588587D01*
X41107500Y-45489661D01*
X41107500Y-45489659D01*
X41107501Y-45489658D01*
X41124869Y-45380002D01*
X41415131Y-45380002D01*
X41432498Y-45489658D01*
X41482904Y-45588585D01*
X41482909Y-45588592D01*
X41561407Y-45667090D01*
X41561410Y-45667092D01*
X41561413Y-45667095D01*
X41660339Y-45717500D01*
X41660341Y-45717501D01*
X41769998Y-45734869D01*
X41770000Y-45734869D01*
X41770002Y-45734869D01*
X41879658Y-45717501D01*
X41879659Y-45717500D01*
X41879661Y-45717500D01*
X41978587Y-45667095D01*
X42057095Y-45588587D01*
X42107500Y-45489661D01*
X42107500Y-45489659D01*
X42107501Y-45489658D01*
X42124869Y-45380002D01*
X42124869Y-45379997D01*
X42124078Y-45375000D01*
X74894785Y-45375000D01*
X74913602Y-45578082D01*
X74969417Y-45774247D01*
X74969422Y-45774260D01*
X75060327Y-45956821D01*
X75183237Y-46119581D01*
X75333958Y-46256980D01*
X75333960Y-46256982D01*
X75433141Y-46318392D01*
X75507363Y-46364348D01*
X75697544Y-46438024D01*
X75898024Y-46475500D01*
X75898026Y-46475500D01*
X76101974Y-46475500D01*
X76101976Y-46475500D01*
X76302456Y-46438024D01*
X76492637Y-46364348D01*
X76666041Y-46256981D01*
X76816764Y-46119579D01*
X76939673Y-45956821D01*
X77030582Y-45774250D01*
X77086397Y-45578083D01*
X77105215Y-45375000D01*
X77086397Y-45171917D01*
X77030582Y-44975750D01*
X76939673Y-44793179D01*
X76816764Y-44630421D01*
X76816762Y-44630418D01*
X76666041Y-44493019D01*
X76666039Y-44493017D01*
X76492642Y-44385655D01*
X76492635Y-44385651D01*
X76397546Y-44348814D01*
X76302456Y-44311976D01*
X76101976Y-44274500D01*
X75898024Y-44274500D01*
X75697544Y-44311976D01*
X75697541Y-44311976D01*
X75697541Y-44311977D01*
X75507364Y-44385651D01*
X75507357Y-44385655D01*
X75333960Y-44493017D01*
X75333958Y-44493019D01*
X75183237Y-44630418D01*
X75060327Y-44793178D01*
X74969422Y-44975739D01*
X74969417Y-44975752D01*
X74913602Y-45171917D01*
X74894785Y-45374999D01*
X74894785Y-45375000D01*
X42124078Y-45375000D01*
X42107501Y-45270341D01*
X42107500Y-45270339D01*
X42057095Y-45171413D01*
X42057092Y-45171410D01*
X42057090Y-45171407D01*
X41978592Y-45092909D01*
X41978588Y-45092906D01*
X41978587Y-45092905D01*
X41933443Y-45069903D01*
X41879658Y-45042498D01*
X41770002Y-45025131D01*
X41769998Y-45025131D01*
X41660341Y-45042498D01*
X41561414Y-45092904D01*
X41561407Y-45092909D01*
X41482909Y-45171407D01*
X41482904Y-45171414D01*
X41432498Y-45270341D01*
X41415131Y-45379997D01*
X41415131Y-45380002D01*
X41124869Y-45380002D01*
X41124869Y-45379997D01*
X41107501Y-45270341D01*
X41107500Y-45270339D01*
X41057095Y-45171413D01*
X41057092Y-45171410D01*
X41057090Y-45171407D01*
X40978592Y-45092909D01*
X40978588Y-45092906D01*
X40978587Y-45092905D01*
X40933443Y-45069903D01*
X40879658Y-45042498D01*
X40770002Y-45025131D01*
X40769998Y-45025131D01*
X40660341Y-45042498D01*
X40580294Y-45083284D01*
X40511624Y-45096180D01*
X40446884Y-45069903D01*
X40406628Y-45012796D01*
X40400000Y-44972799D01*
X40400000Y-43673610D01*
X40419685Y-43606571D01*
X40464620Y-43564752D01*
X42054579Y-42697502D01*
X54135331Y-42697502D01*
X54152698Y-42807158D01*
X54203104Y-42906085D01*
X54203109Y-42906092D01*
X54281607Y-42984590D01*
X54281610Y-42984592D01*
X54281613Y-42984595D01*
X54367741Y-43028479D01*
X54380541Y-43035001D01*
X54490198Y-43052369D01*
X54490200Y-43052369D01*
X54490202Y-43052369D01*
X54599858Y-43035001D01*
X54599859Y-43035000D01*
X54599861Y-43035000D01*
X54698787Y-42984595D01*
X54777295Y-42906087D01*
X54827700Y-42807161D01*
X54827700Y-42807159D01*
X54827701Y-42807158D01*
X54845069Y-42697502D01*
X54845069Y-42697497D01*
X54833191Y-42622501D01*
X58784518Y-42622501D01*
X58805155Y-42779260D01*
X58805156Y-42779262D01*
X58865664Y-42925341D01*
X58961918Y-43050782D01*
X59087359Y-43147036D01*
X59233438Y-43207544D01*
X59311818Y-43217862D01*
X59390199Y-43228182D01*
X59390200Y-43228182D01*
X59390201Y-43228182D01*
X59442454Y-43221302D01*
X59546962Y-43207544D01*
X59693041Y-43147036D01*
X59814715Y-43053671D01*
X59879883Y-43028479D01*
X59948327Y-43042517D01*
X59965678Y-43053667D01*
X60087359Y-43147036D01*
X60233438Y-43207544D01*
X60311818Y-43217862D01*
X60390199Y-43228182D01*
X60390200Y-43228182D01*
X60390201Y-43228182D01*
X60442453Y-43221302D01*
X60546962Y-43207544D01*
X60693041Y-43147036D01*
X60818482Y-43050782D01*
X60914736Y-42925341D01*
X60975244Y-42779262D01*
X60995882Y-42622500D01*
X60975244Y-42465738D01*
X60914736Y-42319659D01*
X60818482Y-42194218D01*
X60693041Y-42097964D01*
X60657489Y-42083238D01*
X60637608Y-42075003D01*
X70869381Y-42075003D01*
X70889827Y-42347839D01*
X70889827Y-42347840D01*
X70950706Y-42614570D01*
X70950708Y-42614579D01*
X70950710Y-42614584D01*
X71050669Y-42869276D01*
X71187472Y-43106224D01*
X71268271Y-43207543D01*
X71358064Y-43320141D01*
X71547399Y-43495817D01*
X71558628Y-43506236D01*
X71784691Y-43660363D01*
X71784696Y-43660365D01*
X71784697Y-43660366D01*
X71784698Y-43660367D01*
X71915618Y-43723414D01*
X72031196Y-43779073D01*
X72031197Y-43779073D01*
X72031200Y-43779075D01*
X72292649Y-43859722D01*
X72292650Y-43859722D01*
X72292653Y-43859723D01*
X72563190Y-43900499D01*
X72563195Y-43900499D01*
X72563198Y-43900500D01*
X72563199Y-43900500D01*
X72836801Y-43900500D01*
X72836802Y-43900500D01*
X72836809Y-43900499D01*
X73107346Y-43859723D01*
X73107347Y-43859722D01*
X73107351Y-43859722D01*
X73368800Y-43779075D01*
X73615310Y-43660363D01*
X73841372Y-43506236D01*
X74041939Y-43320137D01*
X74212528Y-43106224D01*
X74349331Y-42869276D01*
X74449290Y-42614584D01*
X74510172Y-42347840D01*
X74530619Y-42075003D01*
X77469381Y-42075003D01*
X77489827Y-42347839D01*
X77489827Y-42347840D01*
X77550706Y-42614570D01*
X77550708Y-42614579D01*
X77550710Y-42614584D01*
X77650669Y-42869276D01*
X77787472Y-43106224D01*
X77868271Y-43207543D01*
X77958064Y-43320141D01*
X78147399Y-43495817D01*
X78158628Y-43506236D01*
X78384691Y-43660363D01*
X78384696Y-43660365D01*
X78384697Y-43660366D01*
X78384698Y-43660367D01*
X78515618Y-43723414D01*
X78631196Y-43779073D01*
X78631197Y-43779073D01*
X78631200Y-43779075D01*
X78892649Y-43859722D01*
X78892650Y-43859722D01*
X78892653Y-43859723D01*
X79163190Y-43900499D01*
X79163195Y-43900499D01*
X79163198Y-43900500D01*
X79163199Y-43900500D01*
X79436801Y-43900500D01*
X79436802Y-43900500D01*
X79436809Y-43900499D01*
X79707346Y-43859723D01*
X79707347Y-43859722D01*
X79707351Y-43859722D01*
X79968800Y-43779075D01*
X80215310Y-43660363D01*
X80441372Y-43506236D01*
X80641939Y-43320137D01*
X80812528Y-43106224D01*
X80949331Y-42869276D01*
X81049290Y-42614584D01*
X81110172Y-42347840D01*
X81130619Y-42075000D01*
X81129359Y-42058190D01*
X81110172Y-41802160D01*
X81110172Y-41802159D01*
X81049293Y-41535429D01*
X81049292Y-41535428D01*
X81049290Y-41535416D01*
X80949331Y-41280724D01*
X80812528Y-41043776D01*
X80641939Y-40829863D01*
X80641938Y-40829862D01*
X80641935Y-40829858D01*
X80441372Y-40643764D01*
X80381346Y-40602839D01*
X80215310Y-40489637D01*
X80215306Y-40489635D01*
X80215303Y-40489633D01*
X80215302Y-40489632D01*
X79968802Y-40370926D01*
X79968804Y-40370926D01*
X79707352Y-40290278D01*
X79707346Y-40290276D01*
X79436809Y-40249500D01*
X79436802Y-40249500D01*
X79163198Y-40249500D01*
X79163190Y-40249500D01*
X78892653Y-40290276D01*
X78892647Y-40290278D01*
X78631196Y-40370926D01*
X78384698Y-40489632D01*
X78384697Y-40489633D01*
X78158627Y-40643764D01*
X77958064Y-40829858D01*
X77787472Y-41043776D01*
X77650669Y-41280723D01*
X77550712Y-41535410D01*
X77550706Y-41535429D01*
X77489827Y-41802159D01*
X77489827Y-41802160D01*
X77469381Y-42074996D01*
X77469381Y-42075003D01*
X74530619Y-42075003D01*
X74530619Y-42075000D01*
X74529359Y-42058190D01*
X74510172Y-41802160D01*
X74510172Y-41802159D01*
X74449293Y-41535429D01*
X74449292Y-41535428D01*
X74449290Y-41535416D01*
X74349331Y-41280724D01*
X74212528Y-41043776D01*
X74041939Y-40829863D01*
X74041938Y-40829862D01*
X74041935Y-40829858D01*
X73841372Y-40643764D01*
X73781346Y-40602839D01*
X73615310Y-40489637D01*
X73615306Y-40489635D01*
X73615303Y-40489633D01*
X73615302Y-40489632D01*
X73368802Y-40370926D01*
X73368804Y-40370926D01*
X73107352Y-40290278D01*
X73107346Y-40290276D01*
X72836809Y-40249500D01*
X72836802Y-40249500D01*
X72563198Y-40249500D01*
X72563190Y-40249500D01*
X72292653Y-40290276D01*
X72292647Y-40290278D01*
X72031196Y-40370926D01*
X71784698Y-40489632D01*
X71784697Y-40489633D01*
X71558627Y-40643764D01*
X71358064Y-40829858D01*
X71187472Y-41043776D01*
X71050669Y-41280723D01*
X70950712Y-41535410D01*
X70950706Y-41535429D01*
X70889827Y-41802159D01*
X70889827Y-41802160D01*
X70869381Y-42074996D01*
X70869381Y-42075003D01*
X60637608Y-42075003D01*
X60546962Y-42037456D01*
X60546960Y-42037455D01*
X60390201Y-42016818D01*
X60390199Y-42016818D01*
X60233439Y-42037455D01*
X60233437Y-42037456D01*
X60087357Y-42097964D01*
X59965686Y-42191326D01*
X59900517Y-42216520D01*
X59832072Y-42202481D01*
X59814714Y-42191326D01*
X59693042Y-42097964D01*
X59546962Y-42037456D01*
X59546960Y-42037455D01*
X59390201Y-42016818D01*
X59390199Y-42016818D01*
X59233439Y-42037455D01*
X59233437Y-42037456D01*
X59087360Y-42097963D01*
X58961918Y-42194218D01*
X58865663Y-42319660D01*
X58805156Y-42465737D01*
X58805155Y-42465739D01*
X58784518Y-42622498D01*
X58784518Y-42622501D01*
X54833191Y-42622501D01*
X54827701Y-42587841D01*
X54805806Y-42544869D01*
X54777295Y-42488913D01*
X54777292Y-42488910D01*
X54777290Y-42488907D01*
X54698792Y-42410409D01*
X54698788Y-42410406D01*
X54698787Y-42410405D01*
X54672011Y-42396762D01*
X54599858Y-42359998D01*
X54490202Y-42342631D01*
X54490198Y-42342631D01*
X54380541Y-42359998D01*
X54281614Y-42410404D01*
X54281607Y-42410409D01*
X54203109Y-42488907D01*
X54203104Y-42488914D01*
X54152698Y-42587841D01*
X54135331Y-42697497D01*
X54135331Y-42697502D01*
X42054579Y-42697502D01*
X42600000Y-42400000D01*
X42600000Y-42170983D01*
X42619685Y-42103945D01*
X42672489Y-42058190D01*
X42741647Y-42048246D01*
X42799485Y-42072608D01*
X42832528Y-42097963D01*
X42867157Y-42124535D01*
X42867158Y-42124535D01*
X42867159Y-42124536D01*
X43013238Y-42185044D01*
X43050860Y-42189997D01*
X43169999Y-42205682D01*
X43170000Y-42205682D01*
X43170001Y-42205682D01*
X43257078Y-42194218D01*
X43289102Y-42190002D01*
X47955131Y-42190002D01*
X47972498Y-42299658D01*
X48022904Y-42398585D01*
X48022909Y-42398592D01*
X48101407Y-42477090D01*
X48101410Y-42477092D01*
X48101413Y-42477095D01*
X48200339Y-42527500D01*
X48200341Y-42527501D01*
X48309998Y-42544869D01*
X48310000Y-42544869D01*
X48310002Y-42544869D01*
X48419658Y-42527501D01*
X48419659Y-42527500D01*
X48419661Y-42527500D01*
X48518587Y-42477095D01*
X48597095Y-42398587D01*
X48647500Y-42299661D01*
X48647500Y-42299659D01*
X48647501Y-42299658D01*
X48664869Y-42190002D01*
X48664869Y-42189997D01*
X48647501Y-42080341D01*
X48643561Y-42072609D01*
X48597095Y-41981413D01*
X48597092Y-41981410D01*
X48597090Y-41981407D01*
X48518592Y-41902909D01*
X48518588Y-41902906D01*
X48518587Y-41902905D01*
X48514743Y-41900946D01*
X48419658Y-41852498D01*
X48310002Y-41835131D01*
X48309998Y-41835131D01*
X48200341Y-41852498D01*
X48101414Y-41902904D01*
X48101407Y-41902909D01*
X48022909Y-41981407D01*
X48022904Y-41981414D01*
X47972498Y-42080341D01*
X47955131Y-42189997D01*
X47955131Y-42190002D01*
X43289102Y-42190002D01*
X43326762Y-42185044D01*
X43472841Y-42124536D01*
X43598282Y-42028282D01*
X43694536Y-41902841D01*
X43755044Y-41756762D01*
X43775682Y-41600000D01*
X43767179Y-41535416D01*
X43755044Y-41443239D01*
X43755044Y-41443238D01*
X43724709Y-41370002D01*
X46955131Y-41370002D01*
X46972498Y-41479658D01*
X47022904Y-41578585D01*
X47022909Y-41578592D01*
X47101407Y-41657090D01*
X47101410Y-41657092D01*
X47101413Y-41657095D01*
X47200339Y-41707500D01*
X47200341Y-41707501D01*
X47309998Y-41724869D01*
X47310000Y-41724869D01*
X47310002Y-41724869D01*
X47419658Y-41707501D01*
X47419659Y-41707500D01*
X47419661Y-41707500D01*
X47518587Y-41657095D01*
X47597095Y-41578587D01*
X47647500Y-41479661D01*
X47647500Y-41479659D01*
X47647501Y-41479658D01*
X47664869Y-41370002D01*
X47664869Y-41369997D01*
X47647501Y-41260341D01*
X47647500Y-41260339D01*
X47597095Y-41161413D01*
X47597092Y-41161410D01*
X47597090Y-41161407D01*
X47518592Y-41082909D01*
X47518588Y-41082906D01*
X47518587Y-41082905D01*
X47425516Y-41035483D01*
X47374722Y-40987511D01*
X47357926Y-40919690D01*
X47380463Y-40853555D01*
X47425515Y-40814516D01*
X47518587Y-40767095D01*
X47597095Y-40688587D01*
X47647500Y-40589661D01*
X47647500Y-40589659D01*
X47647501Y-40589658D01*
X47664869Y-40480002D01*
X47664869Y-40479997D01*
X47647501Y-40370341D01*
X47611661Y-40300001D01*
X47597095Y-40271413D01*
X47597092Y-40271410D01*
X47597090Y-40271407D01*
X47518592Y-40192909D01*
X47518588Y-40192906D01*
X47518587Y-40192905D01*
X47514743Y-40190946D01*
X47419658Y-40142498D01*
X47310002Y-40125131D01*
X47309998Y-40125131D01*
X47200341Y-40142498D01*
X47101414Y-40192904D01*
X47101407Y-40192909D01*
X47022909Y-40271407D01*
X47022904Y-40271414D01*
X46972498Y-40370341D01*
X46955131Y-40479997D01*
X46955131Y-40480002D01*
X46972498Y-40589658D01*
X47022904Y-40688585D01*
X47022909Y-40688592D01*
X47101407Y-40767090D01*
X47101411Y-40767093D01*
X47101413Y-40767095D01*
X47194483Y-40814516D01*
X47245278Y-40862489D01*
X47262073Y-40930310D01*
X47239536Y-40996445D01*
X47194484Y-41035483D01*
X47116021Y-41075462D01*
X47101411Y-41082906D01*
X47101407Y-41082909D01*
X47022909Y-41161407D01*
X47022904Y-41161414D01*
X46972498Y-41260341D01*
X46955131Y-41369997D01*
X46955131Y-41370002D01*
X43724709Y-41370002D01*
X43694536Y-41297159D01*
X43598282Y-41171718D01*
X43472841Y-41075464D01*
X43472840Y-41075463D01*
X43472838Y-41075462D01*
X43446519Y-41064561D01*
X43392115Y-41020721D01*
X43370050Y-40954427D01*
X43387329Y-40886727D01*
X43438466Y-40839116D01*
X43446519Y-40835439D01*
X43451246Y-40833480D01*
X43472841Y-40824536D01*
X43598282Y-40728282D01*
X43694536Y-40602841D01*
X43755044Y-40456762D01*
X43775682Y-40300000D01*
X43771918Y-40271413D01*
X43755044Y-40143239D01*
X43755044Y-40143238D01*
X43694536Y-39997159D01*
X43598282Y-39871718D01*
X43472841Y-39775464D01*
X43326762Y-39714956D01*
X43326760Y-39714955D01*
X43170001Y-39694318D01*
X43169999Y-39694318D01*
X43013239Y-39714955D01*
X43013237Y-39714956D01*
X42867157Y-39775464D01*
X42799486Y-39827391D01*
X42734317Y-39852585D01*
X42665872Y-39838547D01*
X42615883Y-39789733D01*
X42600000Y-39729015D01*
X42600000Y-39610002D01*
X47955131Y-39610002D01*
X47972498Y-39719658D01*
X48022904Y-39818585D01*
X48022909Y-39818592D01*
X48101407Y-39897090D01*
X48101410Y-39897092D01*
X48101413Y-39897095D01*
X48200339Y-39947500D01*
X48200341Y-39947501D01*
X48309998Y-39964869D01*
X48310000Y-39964869D01*
X48310002Y-39964869D01*
X48419658Y-39947501D01*
X48419659Y-39947500D01*
X48419661Y-39947500D01*
X48518587Y-39897095D01*
X48597095Y-39818587D01*
X48647500Y-39719661D01*
X48647500Y-39719659D01*
X48647501Y-39719658D01*
X48664869Y-39610002D01*
X48664869Y-39609997D01*
X48647501Y-39500341D01*
X48647500Y-39500339D01*
X48597095Y-39401413D01*
X48597092Y-39401410D01*
X48597090Y-39401407D01*
X48518592Y-39322909D01*
X48518588Y-39322906D01*
X48518587Y-39322905D01*
X48514743Y-39320946D01*
X48419658Y-39272498D01*
X48310002Y-39255131D01*
X48309998Y-39255131D01*
X48200341Y-39272498D01*
X48101414Y-39322904D01*
X48101407Y-39322909D01*
X48022909Y-39401407D01*
X48022904Y-39401414D01*
X47972498Y-39500341D01*
X47955131Y-39609997D01*
X47955131Y-39610002D01*
X42600000Y-39610002D01*
X42600000Y-38324000D01*
X42619685Y-38256961D01*
X42636372Y-38242502D01*
X55335331Y-38242502D01*
X55352698Y-38352158D01*
X55403104Y-38451085D01*
X55403109Y-38451092D01*
X55481607Y-38529590D01*
X55481610Y-38529592D01*
X55481613Y-38529595D01*
X55546193Y-38562500D01*
X55580541Y-38580001D01*
X55690198Y-38597369D01*
X55690200Y-38597369D01*
X55690202Y-38597369D01*
X55799858Y-38580001D01*
X55799859Y-38580000D01*
X55799861Y-38580000D01*
X55898787Y-38529595D01*
X55977295Y-38451087D01*
X56027700Y-38352161D01*
X56027700Y-38352159D01*
X56027701Y-38352158D01*
X56045069Y-38242502D01*
X59135331Y-38242502D01*
X59152698Y-38352158D01*
X59203104Y-38451085D01*
X59203109Y-38451092D01*
X59281607Y-38529590D01*
X59281610Y-38529592D01*
X59281613Y-38529595D01*
X59346193Y-38562500D01*
X59380541Y-38580001D01*
X59490198Y-38597369D01*
X59490200Y-38597369D01*
X59490202Y-38597369D01*
X59599858Y-38580001D01*
X59599859Y-38580000D01*
X59599861Y-38580000D01*
X59698787Y-38529595D01*
X59777295Y-38451087D01*
X59827700Y-38352161D01*
X59827700Y-38352159D01*
X59827701Y-38352158D01*
X59845069Y-38242502D01*
X59845069Y-38242497D01*
X59829231Y-38142502D01*
X60835331Y-38142502D01*
X60852698Y-38252158D01*
X60903104Y-38351085D01*
X60903109Y-38351092D01*
X60981607Y-38429590D01*
X60981610Y-38429592D01*
X60981613Y-38429595D01*
X61023790Y-38451085D01*
X61080541Y-38480001D01*
X61190198Y-38497369D01*
X61190200Y-38497369D01*
X61190202Y-38497369D01*
X61299858Y-38480001D01*
X61299859Y-38480000D01*
X61299861Y-38480000D01*
X61398787Y-38429595D01*
X61477295Y-38351087D01*
X61527700Y-38252161D01*
X61527700Y-38252159D01*
X61527701Y-38252158D01*
X61545069Y-38142502D01*
X61835331Y-38142502D01*
X61852698Y-38252158D01*
X61903104Y-38351085D01*
X61903109Y-38351092D01*
X61981607Y-38429590D01*
X61981610Y-38429592D01*
X61981613Y-38429595D01*
X62023790Y-38451085D01*
X62080541Y-38480001D01*
X62190198Y-38497369D01*
X62190200Y-38497369D01*
X62190202Y-38497369D01*
X62299858Y-38480001D01*
X62299859Y-38480000D01*
X62299861Y-38480000D01*
X62398787Y-38429595D01*
X62477295Y-38351087D01*
X62527700Y-38252161D01*
X62527700Y-38252159D01*
X62527701Y-38252158D01*
X62545069Y-38142502D01*
X62545069Y-38142497D01*
X62527701Y-38032841D01*
X62510969Y-38000002D01*
X77245131Y-38000002D01*
X77262498Y-38109658D01*
X77312904Y-38208585D01*
X77312909Y-38208592D01*
X77391407Y-38287090D01*
X77391410Y-38287092D01*
X77391413Y-38287095D01*
X77463844Y-38324000D01*
X77490341Y-38337501D01*
X77599998Y-38354869D01*
X77600000Y-38354869D01*
X77600002Y-38354869D01*
X77709658Y-38337501D01*
X77709659Y-38337500D01*
X77709661Y-38337500D01*
X77808587Y-38287095D01*
X77887095Y-38208587D01*
X77937500Y-38109661D01*
X77937500Y-38109659D01*
X77937501Y-38109658D01*
X77954869Y-38000002D01*
X77954869Y-37999997D01*
X77937501Y-37890341D01*
X77919700Y-37855404D01*
X77887095Y-37791413D01*
X77887092Y-37791410D01*
X77887090Y-37791407D01*
X77808592Y-37712909D01*
X77808588Y-37712906D01*
X77808587Y-37712905D01*
X77804743Y-37710946D01*
X77709658Y-37662498D01*
X77600002Y-37645131D01*
X77599998Y-37645131D01*
X77490341Y-37662498D01*
X77391414Y-37712904D01*
X77391407Y-37712909D01*
X77312909Y-37791407D01*
X77312904Y-37791414D01*
X77262498Y-37890341D01*
X77245131Y-37999997D01*
X77245131Y-38000002D01*
X62510969Y-38000002D01*
X62507717Y-37993620D01*
X62477295Y-37933913D01*
X62477292Y-37933910D01*
X62477290Y-37933907D01*
X62398792Y-37855409D01*
X62398788Y-37855406D01*
X62398787Y-37855405D01*
X62338040Y-37824453D01*
X62299858Y-37804998D01*
X62190202Y-37787631D01*
X62190198Y-37787631D01*
X62080541Y-37804998D01*
X61981614Y-37855404D01*
X61981607Y-37855409D01*
X61903109Y-37933907D01*
X61903104Y-37933914D01*
X61852698Y-38032841D01*
X61835331Y-38142497D01*
X61835331Y-38142502D01*
X61545069Y-38142502D01*
X61545069Y-38142497D01*
X61527701Y-38032841D01*
X61507717Y-37993620D01*
X61477295Y-37933913D01*
X61477292Y-37933910D01*
X61477290Y-37933907D01*
X61398792Y-37855409D01*
X61398788Y-37855406D01*
X61398787Y-37855405D01*
X61338040Y-37824453D01*
X61299858Y-37804998D01*
X61190202Y-37787631D01*
X61190198Y-37787631D01*
X61080541Y-37804998D01*
X60981614Y-37855404D01*
X60981607Y-37855409D01*
X60903109Y-37933907D01*
X60903104Y-37933914D01*
X60852698Y-38032841D01*
X60835331Y-38142497D01*
X60835331Y-38142502D01*
X59829231Y-38142502D01*
X59827701Y-38132841D01*
X59782447Y-38044025D01*
X59777295Y-38033913D01*
X59777292Y-38033910D01*
X59777290Y-38033907D01*
X59698792Y-37955409D01*
X59698788Y-37955406D01*
X59698787Y-37955405D01*
X59694943Y-37953446D01*
X59599858Y-37904998D01*
X59490202Y-37887631D01*
X59490198Y-37887631D01*
X59380541Y-37904998D01*
X59281614Y-37955404D01*
X59281607Y-37955409D01*
X59203109Y-38033907D01*
X59203104Y-38033914D01*
X59152698Y-38132841D01*
X59135331Y-38242497D01*
X59135331Y-38242502D01*
X56045069Y-38242502D01*
X56045069Y-38242497D01*
X56027701Y-38132841D01*
X55982447Y-38044025D01*
X55977295Y-38033913D01*
X55977292Y-38033910D01*
X55977290Y-38033907D01*
X55898792Y-37955409D01*
X55898788Y-37955406D01*
X55898787Y-37955405D01*
X55894943Y-37953446D01*
X55799858Y-37904998D01*
X55690202Y-37887631D01*
X55690198Y-37887631D01*
X55580541Y-37904998D01*
X55481614Y-37955404D01*
X55481607Y-37955409D01*
X55403109Y-38033907D01*
X55403104Y-38033914D01*
X55352698Y-38132841D01*
X55335331Y-38242497D01*
X55335331Y-38242502D01*
X42636372Y-38242502D01*
X42672489Y-38211206D01*
X42724000Y-38200000D01*
X45000000Y-38200000D01*
X45000000Y-37124000D01*
X45019685Y-37056961D01*
X45072489Y-37011206D01*
X45124000Y-37000000D01*
X50200000Y-37000000D01*
X50200000Y-36480002D01*
X54839531Y-36480002D01*
X54856898Y-36589658D01*
X54907304Y-36688585D01*
X54907309Y-36688592D01*
X54985807Y-36767090D01*
X54985810Y-36767092D01*
X54985813Y-36767095D01*
X55044682Y-36797090D01*
X55084741Y-36817501D01*
X55194398Y-36834869D01*
X55194400Y-36834869D01*
X55194402Y-36834869D01*
X55304058Y-36817501D01*
X55304059Y-36817500D01*
X55304061Y-36817500D01*
X55402987Y-36767095D01*
X55481495Y-36688587D01*
X55531900Y-36589661D01*
X55531900Y-36589659D01*
X55531901Y-36589658D01*
X55549269Y-36480002D01*
X58408231Y-36480002D01*
X58425598Y-36589658D01*
X58476004Y-36688585D01*
X58476009Y-36688592D01*
X58554507Y-36767090D01*
X58554510Y-36767092D01*
X58554513Y-36767095D01*
X58613382Y-36797090D01*
X58653441Y-36817501D01*
X58763098Y-36834869D01*
X58763100Y-36834869D01*
X58763102Y-36834869D01*
X58872758Y-36817501D01*
X58872759Y-36817500D01*
X58872761Y-36817500D01*
X58971687Y-36767095D01*
X59050195Y-36688587D01*
X59100600Y-36589661D01*
X59100600Y-36589659D01*
X59100601Y-36589658D01*
X59117969Y-36480002D01*
X59117969Y-36479997D01*
X59113947Y-36454602D01*
X60275131Y-36454602D01*
X60292498Y-36564258D01*
X60342904Y-36663185D01*
X60342909Y-36663192D01*
X60421407Y-36741690D01*
X60421410Y-36741692D01*
X60421413Y-36741695D01*
X60471254Y-36767090D01*
X60520341Y-36792101D01*
X60629998Y-36809469D01*
X60630000Y-36809469D01*
X60630002Y-36809469D01*
X60739658Y-36792101D01*
X60739659Y-36792100D01*
X60739661Y-36792100D01*
X60838587Y-36741695D01*
X60917095Y-36663187D01*
X60967500Y-36564261D01*
X60967500Y-36564259D01*
X60967501Y-36564258D01*
X60971077Y-36541681D01*
X61001006Y-36478546D01*
X61039142Y-36454799D01*
X61038539Y-36454399D01*
X61147956Y-36454399D01*
X61188413Y-36481223D01*
X61216023Y-36541681D01*
X61219598Y-36564258D01*
X61270004Y-36663185D01*
X61270009Y-36663192D01*
X61348507Y-36741690D01*
X61348510Y-36741692D01*
X61348513Y-36741695D01*
X61398354Y-36767090D01*
X61447441Y-36792101D01*
X61557098Y-36809469D01*
X61557100Y-36809469D01*
X61557102Y-36809469D01*
X61666758Y-36792101D01*
X61666759Y-36792100D01*
X61666761Y-36792100D01*
X61765687Y-36741695D01*
X61844195Y-36663187D01*
X61894600Y-36564261D01*
X61894600Y-36564259D01*
X61894601Y-36564258D01*
X61911969Y-36454602D01*
X61911969Y-36454597D01*
X61906490Y-36420002D01*
X65145131Y-36420002D01*
X65162498Y-36529658D01*
X65212904Y-36628585D01*
X65212909Y-36628592D01*
X65291407Y-36707090D01*
X65291410Y-36707092D01*
X65291413Y-36707095D01*
X65335696Y-36729658D01*
X65390341Y-36757501D01*
X65499998Y-36774869D01*
X65500000Y-36774869D01*
X65500002Y-36774869D01*
X65609658Y-36757501D01*
X65609659Y-36757500D01*
X65609661Y-36757500D01*
X65708587Y-36707095D01*
X65787095Y-36628587D01*
X65791469Y-36620002D01*
X66145131Y-36620002D01*
X66162498Y-36729658D01*
X66212904Y-36828585D01*
X66212909Y-36828592D01*
X66291407Y-36907090D01*
X66291410Y-36907092D01*
X66291413Y-36907095D01*
X66390339Y-36957500D01*
X66390341Y-36957501D01*
X66499998Y-36974869D01*
X66500000Y-36974869D01*
X66500002Y-36974869D01*
X66609658Y-36957501D01*
X66609659Y-36957500D01*
X66609661Y-36957500D01*
X66708587Y-36907095D01*
X66787095Y-36828587D01*
X66837500Y-36729661D01*
X66837500Y-36729659D01*
X66837501Y-36729658D01*
X66854869Y-36620002D01*
X66854869Y-36619997D01*
X66837501Y-36510341D01*
X66837328Y-36510002D01*
X67970131Y-36510002D01*
X67987498Y-36619658D01*
X68037904Y-36718585D01*
X68037909Y-36718592D01*
X68116407Y-36797090D01*
X68116410Y-36797092D01*
X68116413Y-36797095D01*
X68178216Y-36828585D01*
X68215341Y-36847501D01*
X68324998Y-36864869D01*
X68325000Y-36864869D01*
X68325002Y-36864869D01*
X68434658Y-36847501D01*
X68434659Y-36847500D01*
X68434661Y-36847500D01*
X68533587Y-36797095D01*
X68612095Y-36718587D01*
X68662500Y-36619661D01*
X68662500Y-36619659D01*
X68662501Y-36619658D01*
X68679869Y-36510002D01*
X68679869Y-36509997D01*
X68662501Y-36400341D01*
X68628140Y-36332904D01*
X68612095Y-36301413D01*
X68612092Y-36301410D01*
X68612090Y-36301407D01*
X68533592Y-36222909D01*
X68533588Y-36222906D01*
X68533587Y-36222905D01*
X68495581Y-36203540D01*
X68434658Y-36172498D01*
X68325002Y-36155131D01*
X68324998Y-36155131D01*
X68215341Y-36172498D01*
X68116414Y-36222904D01*
X68116407Y-36222909D01*
X68037909Y-36301407D01*
X68037904Y-36301414D01*
X67987498Y-36400341D01*
X67970131Y-36509997D01*
X67970131Y-36510002D01*
X66837328Y-36510002D01*
X66822665Y-36481223D01*
X66787095Y-36411413D01*
X66787092Y-36411410D01*
X66787090Y-36411407D01*
X66708592Y-36332909D01*
X66708588Y-36332906D01*
X66708587Y-36332905D01*
X66704743Y-36330946D01*
X66609658Y-36282498D01*
X66500002Y-36265131D01*
X66499998Y-36265131D01*
X66390341Y-36282498D01*
X66291414Y-36332904D01*
X66291407Y-36332909D01*
X66212909Y-36411407D01*
X66212904Y-36411414D01*
X66162498Y-36510341D01*
X66145131Y-36619997D01*
X66145131Y-36620002D01*
X65791469Y-36620002D01*
X65837500Y-36529661D01*
X65837500Y-36529659D01*
X65837501Y-36529658D01*
X65854869Y-36420002D01*
X65854869Y-36419997D01*
X65837501Y-36310341D01*
X65837500Y-36310339D01*
X65787095Y-36211413D01*
X65787092Y-36211410D01*
X65787090Y-36211407D01*
X65708592Y-36132909D01*
X65708588Y-36132906D01*
X65708587Y-36132905D01*
X65677564Y-36117098D01*
X65609658Y-36082498D01*
X65500002Y-36065131D01*
X65499998Y-36065131D01*
X65390341Y-36082498D01*
X65291414Y-36132904D01*
X65291407Y-36132909D01*
X65212909Y-36211407D01*
X65212904Y-36211414D01*
X65162498Y-36310341D01*
X65145131Y-36419997D01*
X65145131Y-36420002D01*
X61906490Y-36420002D01*
X61894601Y-36344941D01*
X61879550Y-36315402D01*
X61844195Y-36246013D01*
X61844192Y-36246010D01*
X61844190Y-36246007D01*
X61765692Y-36167509D01*
X61765688Y-36167506D01*
X61765687Y-36167505D01*
X61741402Y-36155131D01*
X61666758Y-36117098D01*
X61557102Y-36099731D01*
X61557098Y-36099731D01*
X61447441Y-36117098D01*
X61348514Y-36167504D01*
X61348507Y-36167509D01*
X61270009Y-36246007D01*
X61270004Y-36246014D01*
X61219599Y-36344941D01*
X61216023Y-36367519D01*
X61186093Y-36430653D01*
X61147956Y-36454399D01*
X61038539Y-36454399D01*
X60998687Y-36427976D01*
X60971077Y-36367519D01*
X60967500Y-36344941D01*
X60967500Y-36344939D01*
X60917095Y-36246013D01*
X60917092Y-36246010D01*
X60917090Y-36246007D01*
X60838592Y-36167509D01*
X60838588Y-36167506D01*
X60838587Y-36167505D01*
X60814302Y-36155131D01*
X60739658Y-36117098D01*
X60630002Y-36099731D01*
X60629998Y-36099731D01*
X60520341Y-36117098D01*
X60421414Y-36167504D01*
X60421407Y-36167509D01*
X60342909Y-36246007D01*
X60342904Y-36246014D01*
X60292498Y-36344941D01*
X60275131Y-36454597D01*
X60275131Y-36454602D01*
X59113947Y-36454602D01*
X59100601Y-36370341D01*
X59087658Y-36344939D01*
X59050195Y-36271413D01*
X59050192Y-36271410D01*
X59050190Y-36271407D01*
X58971692Y-36192909D01*
X58971688Y-36192906D01*
X58971687Y-36192905D01*
X58931636Y-36172498D01*
X58872758Y-36142498D01*
X58763102Y-36125131D01*
X58763098Y-36125131D01*
X58653441Y-36142498D01*
X58554514Y-36192904D01*
X58554507Y-36192909D01*
X58476009Y-36271407D01*
X58476004Y-36271414D01*
X58425598Y-36370341D01*
X58408231Y-36479997D01*
X58408231Y-36480002D01*
X55549269Y-36480002D01*
X55549269Y-36479997D01*
X55531901Y-36370341D01*
X55518958Y-36344939D01*
X55481495Y-36271413D01*
X55481492Y-36271410D01*
X55481490Y-36271407D01*
X55402992Y-36192909D01*
X55402988Y-36192906D01*
X55402987Y-36192905D01*
X55362936Y-36172498D01*
X55304058Y-36142498D01*
X55194402Y-36125131D01*
X55194398Y-36125131D01*
X55084741Y-36142498D01*
X54985814Y-36192904D01*
X54985807Y-36192909D01*
X54907309Y-36271407D01*
X54907304Y-36271414D01*
X54856898Y-36370341D01*
X54839531Y-36479997D01*
X54839531Y-36480002D01*
X50200000Y-36480002D01*
X50200000Y-35240002D01*
X67970131Y-35240002D01*
X67987498Y-35349658D01*
X68037904Y-35448585D01*
X68037909Y-35448592D01*
X68116407Y-35527090D01*
X68116410Y-35527092D01*
X68116413Y-35527095D01*
X68203393Y-35571413D01*
X68215341Y-35577501D01*
X68324998Y-35594869D01*
X68325000Y-35594869D01*
X68325002Y-35594869D01*
X68434658Y-35577501D01*
X68434659Y-35577500D01*
X68434661Y-35577500D01*
X68533587Y-35527095D01*
X68612095Y-35448587D01*
X68662500Y-35349661D01*
X68662500Y-35349659D01*
X68662501Y-35349658D01*
X68679869Y-35240002D01*
X68679869Y-35239997D01*
X68662501Y-35130341D01*
X68658712Y-35122905D01*
X68612095Y-35031413D01*
X68612092Y-35031410D01*
X68612090Y-35031407D01*
X68533592Y-34952909D01*
X68533588Y-34952906D01*
X68533587Y-34952905D01*
X68529743Y-34950946D01*
X68434658Y-34902498D01*
X68325002Y-34885131D01*
X68324998Y-34885131D01*
X68215341Y-34902498D01*
X68116414Y-34952904D01*
X68116407Y-34952909D01*
X68037909Y-35031407D01*
X68037904Y-35031414D01*
X67987498Y-35130341D01*
X67970131Y-35239997D01*
X67970131Y-35240002D01*
X50200000Y-35240002D01*
X50200000Y-33970002D01*
X67970131Y-33970002D01*
X67987498Y-34079658D01*
X68037904Y-34178585D01*
X68037909Y-34178592D01*
X68116407Y-34257090D01*
X68116410Y-34257092D01*
X68116413Y-34257095D01*
X68215339Y-34307500D01*
X68215341Y-34307501D01*
X68324998Y-34324869D01*
X68325000Y-34324869D01*
X68325002Y-34324869D01*
X68434658Y-34307501D01*
X68434659Y-34307500D01*
X68434661Y-34307500D01*
X68533587Y-34257095D01*
X68612095Y-34178587D01*
X68662500Y-34079661D01*
X68662500Y-34079659D01*
X68662501Y-34079658D01*
X68679869Y-33970002D01*
X68679869Y-33969997D01*
X68662501Y-33860341D01*
X68651964Y-33839661D01*
X68612095Y-33761413D01*
X68612092Y-33761410D01*
X68612090Y-33761407D01*
X68533592Y-33682909D01*
X68533588Y-33682906D01*
X68533587Y-33682905D01*
X68489275Y-33660327D01*
X68434658Y-33632498D01*
X68325002Y-33615131D01*
X68324998Y-33615131D01*
X68215341Y-33632498D01*
X68116414Y-33682904D01*
X68116407Y-33682909D01*
X68037909Y-33761407D01*
X68037904Y-33761414D01*
X67987498Y-33860341D01*
X67970131Y-33969997D01*
X67970131Y-33970002D01*
X50200000Y-33970002D01*
X50200000Y-33500001D01*
X71094318Y-33500001D01*
X71114955Y-33656760D01*
X71114956Y-33656762D01*
X71150611Y-33742842D01*
X71175464Y-33802841D01*
X71271718Y-33928282D01*
X71397159Y-34024536D01*
X71543238Y-34085044D01*
X71621619Y-34095363D01*
X71699999Y-34105682D01*
X71700000Y-34105682D01*
X71700001Y-34105682D01*
X71752253Y-34098802D01*
X71856762Y-34085044D01*
X72002841Y-34024536D01*
X72128282Y-33928282D01*
X72224536Y-33802841D01*
X72240533Y-33764220D01*
X72268107Y-33730002D01*
X77245131Y-33730002D01*
X77262498Y-33839658D01*
X77312904Y-33938585D01*
X77312909Y-33938592D01*
X77391407Y-34017090D01*
X77391410Y-34017092D01*
X77391413Y-34017095D01*
X77451087Y-34047500D01*
X77490341Y-34067501D01*
X77599998Y-34084869D01*
X77600000Y-34084869D01*
X77600002Y-34084869D01*
X77709658Y-34067501D01*
X77709659Y-34067500D01*
X77709661Y-34067500D01*
X77808587Y-34017095D01*
X77887095Y-33938587D01*
X77937500Y-33839661D01*
X77937500Y-33839659D01*
X77937501Y-33839658D01*
X77954869Y-33730002D01*
X77954869Y-33729997D01*
X77937501Y-33620341D01*
X77934846Y-33615131D01*
X77887095Y-33521413D01*
X77887092Y-33521410D01*
X77887090Y-33521407D01*
X77808592Y-33442909D01*
X77808588Y-33442906D01*
X77808587Y-33442905D01*
X77769335Y-33422905D01*
X77709658Y-33392498D01*
X77600002Y-33375131D01*
X77599998Y-33375131D01*
X77490341Y-33392498D01*
X77391414Y-33442904D01*
X77391407Y-33442909D01*
X77312909Y-33521407D01*
X77312904Y-33521414D01*
X77262498Y-33620341D01*
X77245131Y-33729997D01*
X77245131Y-33730002D01*
X72268107Y-33730002D01*
X72284371Y-33709819D01*
X72350665Y-33687753D01*
X72371271Y-33688734D01*
X72500000Y-33705682D01*
X72500001Y-33705682D01*
X72552253Y-33698802D01*
X72656762Y-33685044D01*
X72802841Y-33624536D01*
X72928282Y-33528282D01*
X73024536Y-33402841D01*
X73085044Y-33256762D01*
X73105682Y-33100000D01*
X73099740Y-33054869D01*
X73085044Y-32943239D01*
X73085044Y-32943238D01*
X73024536Y-32797159D01*
X72928282Y-32671718D01*
X72802841Y-32575464D01*
X72656762Y-32514956D01*
X72656760Y-32514955D01*
X72500001Y-32494318D01*
X72499999Y-32494318D01*
X72343239Y-32514955D01*
X72343237Y-32514956D01*
X72197160Y-32575463D01*
X72071716Y-32671719D01*
X71975464Y-32797158D01*
X71975461Y-32797163D01*
X71959465Y-32835780D01*
X71915623Y-32890183D01*
X71849328Y-32912246D01*
X71828720Y-32911264D01*
X71700001Y-32894318D01*
X71699999Y-32894318D01*
X71543239Y-32914955D01*
X71543237Y-32914956D01*
X71397160Y-32975463D01*
X71271718Y-33071718D01*
X71175463Y-33197160D01*
X71114956Y-33343237D01*
X71114955Y-33343239D01*
X71094318Y-33499998D01*
X71094318Y-33500001D01*
X50200000Y-33500001D01*
X50200000Y-31680902D01*
X53645731Y-31680902D01*
X53663098Y-31790558D01*
X53713504Y-31889485D01*
X53713509Y-31889492D01*
X53792007Y-31967990D01*
X53792010Y-31967992D01*
X53792013Y-31967995D01*
X53854823Y-31999998D01*
X53890941Y-32018401D01*
X54000598Y-32035769D01*
X54000600Y-32035769D01*
X54000602Y-32035769D01*
X54110258Y-32018401D01*
X54110259Y-32018400D01*
X54110261Y-32018400D01*
X54146371Y-32000001D01*
X58294318Y-32000001D01*
X58314955Y-32156760D01*
X58314956Y-32156762D01*
X58375464Y-32302841D01*
X58471718Y-32428282D01*
X58597159Y-32524536D01*
X58743238Y-32585044D01*
X58783458Y-32590339D01*
X58899999Y-32605682D01*
X58900000Y-32605682D01*
X58900001Y-32605682D01*
X58952254Y-32598802D01*
X59056762Y-32585044D01*
X59202841Y-32524536D01*
X59324515Y-32431171D01*
X59389683Y-32405979D01*
X59458127Y-32420017D01*
X59475478Y-32431167D01*
X59597159Y-32524536D01*
X59743238Y-32585044D01*
X59783458Y-32590339D01*
X59899999Y-32605682D01*
X59900000Y-32605682D01*
X59900001Y-32605682D01*
X59952254Y-32598802D01*
X60056762Y-32585044D01*
X60202841Y-32524536D01*
X60328282Y-32428282D01*
X60424536Y-32302841D01*
X60485044Y-32156762D01*
X60500973Y-32035769D01*
X60505682Y-32000001D01*
X60505682Y-31999998D01*
X60491133Y-31889487D01*
X60485044Y-31843238D01*
X60424536Y-31697159D01*
X60328282Y-31571718D01*
X60202841Y-31475464D01*
X60195236Y-31472314D01*
X60056762Y-31414956D01*
X60056760Y-31414955D01*
X59900001Y-31394318D01*
X59899999Y-31394318D01*
X59743239Y-31414955D01*
X59743237Y-31414956D01*
X59597157Y-31475464D01*
X59475486Y-31568826D01*
X59410317Y-31594020D01*
X59341872Y-31579981D01*
X59324514Y-31568826D01*
X59202842Y-31475464D01*
X59056762Y-31414956D01*
X59056760Y-31414955D01*
X58900001Y-31394318D01*
X58899999Y-31394318D01*
X58743239Y-31414955D01*
X58743237Y-31414956D01*
X58597160Y-31475463D01*
X58471718Y-31571718D01*
X58375463Y-31697160D01*
X58314956Y-31843237D01*
X58314955Y-31843239D01*
X58294318Y-31999998D01*
X58294318Y-32000001D01*
X54146371Y-32000001D01*
X54209187Y-31967995D01*
X54287695Y-31889487D01*
X54338100Y-31790561D01*
X54338100Y-31790559D01*
X54338101Y-31790558D01*
X54355469Y-31680902D01*
X54355469Y-31680897D01*
X54338101Y-31571241D01*
X54338100Y-31571239D01*
X54287695Y-31472313D01*
X54287692Y-31472310D01*
X54287690Y-31472307D01*
X54209192Y-31393809D01*
X54209188Y-31393806D01*
X54209187Y-31393805D01*
X54180274Y-31379073D01*
X54110258Y-31343398D01*
X54000602Y-31326031D01*
X54000598Y-31326031D01*
X53890941Y-31343398D01*
X53792014Y-31393804D01*
X53792007Y-31393809D01*
X53713509Y-31472307D01*
X53713504Y-31472314D01*
X53663098Y-31571241D01*
X53645731Y-31680897D01*
X53645731Y-31680902D01*
X50200000Y-31680902D01*
X50200000Y-29675003D01*
X70869381Y-29675003D01*
X70889827Y-29947839D01*
X70889827Y-29947840D01*
X70950706Y-30214570D01*
X70950708Y-30214579D01*
X70950710Y-30214584D01*
X71050669Y-30469276D01*
X71187472Y-30706224D01*
X71296148Y-30842500D01*
X71358064Y-30920141D01*
X71508797Y-31060000D01*
X71558628Y-31106236D01*
X71784691Y-31260363D01*
X71784696Y-31260365D01*
X71784697Y-31260366D01*
X71784698Y-31260367D01*
X71915618Y-31323414D01*
X72031196Y-31379073D01*
X72031197Y-31379073D01*
X72031200Y-31379075D01*
X72292649Y-31459722D01*
X72292650Y-31459722D01*
X72292653Y-31459723D01*
X72563190Y-31500499D01*
X72563195Y-31500499D01*
X72563198Y-31500500D01*
X72563199Y-31500500D01*
X72836801Y-31500500D01*
X72836802Y-31500500D01*
X72877818Y-31494318D01*
X73107346Y-31459723D01*
X73107347Y-31459722D01*
X73107351Y-31459722D01*
X73368800Y-31379075D01*
X73615310Y-31260363D01*
X73841372Y-31106236D01*
X74041939Y-30920137D01*
X74212528Y-30706224D01*
X74349331Y-30469276D01*
X74449290Y-30214584D01*
X74510172Y-29947840D01*
X74530619Y-29675003D01*
X77469381Y-29675003D01*
X77489827Y-29947839D01*
X77489827Y-29947840D01*
X77550706Y-30214570D01*
X77550708Y-30214579D01*
X77550710Y-30214584D01*
X77650669Y-30469276D01*
X77787472Y-30706224D01*
X77896148Y-30842500D01*
X77958064Y-30920141D01*
X78108797Y-31060000D01*
X78158628Y-31106236D01*
X78384691Y-31260363D01*
X78384696Y-31260365D01*
X78384697Y-31260366D01*
X78384698Y-31260367D01*
X78515618Y-31323414D01*
X78631196Y-31379073D01*
X78631197Y-31379073D01*
X78631200Y-31379075D01*
X78892649Y-31459722D01*
X78892650Y-31459722D01*
X78892653Y-31459723D01*
X79163190Y-31500499D01*
X79163195Y-31500499D01*
X79163198Y-31500500D01*
X79163199Y-31500500D01*
X79436801Y-31500500D01*
X79436802Y-31500500D01*
X79477818Y-31494318D01*
X79707346Y-31459723D01*
X79707347Y-31459722D01*
X79707351Y-31459722D01*
X79968800Y-31379075D01*
X80215310Y-31260363D01*
X80441372Y-31106236D01*
X80641939Y-30920137D01*
X80812528Y-30706224D01*
X80949331Y-30469276D01*
X81049290Y-30214584D01*
X81110172Y-29947840D01*
X81130619Y-29675000D01*
X81110172Y-29402160D01*
X81049290Y-29135416D01*
X80949331Y-28880724D01*
X80812528Y-28643776D01*
X80641939Y-28429863D01*
X80641938Y-28429862D01*
X80641935Y-28429858D01*
X80441372Y-28243764D01*
X80215310Y-28089637D01*
X80215306Y-28089635D01*
X80215303Y-28089633D01*
X80215302Y-28089632D01*
X79968802Y-27970926D01*
X79968804Y-27970926D01*
X79707352Y-27890278D01*
X79707346Y-27890276D01*
X79436809Y-27849500D01*
X79436802Y-27849500D01*
X79163198Y-27849500D01*
X79163190Y-27849500D01*
X78892653Y-27890276D01*
X78892647Y-27890278D01*
X78631196Y-27970926D01*
X78384698Y-28089632D01*
X78384697Y-28089633D01*
X78384691Y-28089636D01*
X78384691Y-28089637D01*
X78358146Y-28107734D01*
X78158627Y-28243764D01*
X77958064Y-28429858D01*
X77787472Y-28643776D01*
X77650669Y-28880723D01*
X77550712Y-29135410D01*
X77550706Y-29135429D01*
X77489827Y-29402159D01*
X77489827Y-29402160D01*
X77469381Y-29674996D01*
X77469381Y-29675003D01*
X74530619Y-29675003D01*
X74530619Y-29675000D01*
X74510172Y-29402160D01*
X74449290Y-29135416D01*
X74349331Y-28880724D01*
X74212528Y-28643776D01*
X74041939Y-28429863D01*
X74041938Y-28429862D01*
X74041935Y-28429858D01*
X73841372Y-28243764D01*
X73841371Y-28243764D01*
X73615310Y-28089637D01*
X73615306Y-28089635D01*
X73615303Y-28089633D01*
X73615302Y-28089632D01*
X73368802Y-27970926D01*
X73368804Y-27970926D01*
X73107352Y-27890278D01*
X73107346Y-27890276D01*
X72836809Y-27849500D01*
X72836802Y-27849500D01*
X72563198Y-27849500D01*
X72563190Y-27849500D01*
X72292653Y-27890276D01*
X72292647Y-27890278D01*
X72031196Y-27970926D01*
X71784698Y-28089632D01*
X71784697Y-28089633D01*
X71784691Y-28089636D01*
X71784691Y-28089637D01*
X71758146Y-28107734D01*
X71558627Y-28243764D01*
X71358064Y-28429858D01*
X71187472Y-28643776D01*
X71050669Y-28880723D01*
X70950712Y-29135410D01*
X70950706Y-29135429D01*
X70889827Y-29402159D01*
X70889827Y-29402160D01*
X70869381Y-29674996D01*
X70869381Y-29675003D01*
X50200000Y-29675003D01*
X50200000Y-28600000D01*
X46924000Y-28600000D01*
X46856961Y-28580315D01*
X46811206Y-28527511D01*
X46800000Y-28476000D01*
X46800000Y-28425001D01*
X50569318Y-28425001D01*
X50589955Y-28581760D01*
X50589956Y-28581762D01*
X50650464Y-28727841D01*
X50746718Y-28853282D01*
X50872159Y-28949536D01*
X51018238Y-29010044D01*
X51096619Y-29020363D01*
X51174999Y-29030682D01*
X51175000Y-29030682D01*
X51175001Y-29030682D01*
X51227254Y-29023802D01*
X51331762Y-29010044D01*
X51477841Y-28949536D01*
X51603282Y-28853282D01*
X51699536Y-28727841D01*
X51760044Y-28581762D01*
X51780042Y-28429863D01*
X51780682Y-28425001D01*
X51780682Y-28424998D01*
X51760044Y-28268239D01*
X51760044Y-28268238D01*
X51699536Y-28122159D01*
X51603282Y-27996718D01*
X51477841Y-27900464D01*
X51445565Y-27887095D01*
X51331762Y-27839956D01*
X51331760Y-27839955D01*
X51175001Y-27819318D01*
X51174999Y-27819318D01*
X51018239Y-27839955D01*
X51018237Y-27839956D01*
X50872160Y-27900463D01*
X50746718Y-27996718D01*
X50650463Y-28122160D01*
X50589956Y-28268237D01*
X50589955Y-28268239D01*
X50569318Y-28424998D01*
X50569318Y-28425001D01*
X46800000Y-28425001D01*
X46800000Y-27225001D01*
X48144318Y-27225001D01*
X48164955Y-27381760D01*
X48164956Y-27381762D01*
X48188260Y-27438024D01*
X48225464Y-27527841D01*
X48321718Y-27653282D01*
X48447159Y-27749536D01*
X48593238Y-27810044D01*
X48663681Y-27819318D01*
X48749999Y-27830682D01*
X48750000Y-27830682D01*
X48750001Y-27830682D01*
X48802254Y-27823802D01*
X48906762Y-27810044D01*
X49052841Y-27749536D01*
X49178282Y-27653282D01*
X49274536Y-27527841D01*
X49335044Y-27381762D01*
X49355682Y-27225000D01*
X49352964Y-27204358D01*
X49335044Y-27068239D01*
X49335044Y-27068238D01*
X49299572Y-26982602D01*
X61584931Y-26982602D01*
X61602298Y-27092258D01*
X61652704Y-27191185D01*
X61652709Y-27191192D01*
X61731207Y-27269690D01*
X61731210Y-27269692D01*
X61731213Y-27269695D01*
X61816018Y-27312905D01*
X61830141Y-27320101D01*
X61939798Y-27337469D01*
X61939800Y-27337469D01*
X61939802Y-27337469D01*
X62049458Y-27320101D01*
X62049459Y-27320100D01*
X62049461Y-27320100D01*
X62148387Y-27269695D01*
X62226895Y-27191187D01*
X62276056Y-27094702D01*
X64072431Y-27094702D01*
X64089798Y-27204358D01*
X64140204Y-27303285D01*
X64140209Y-27303292D01*
X64218707Y-27381790D01*
X64218710Y-27381792D01*
X64218713Y-27381795D01*
X64235482Y-27390339D01*
X64317641Y-27432201D01*
X64427298Y-27449569D01*
X64427300Y-27449569D01*
X64427302Y-27449569D01*
X64536958Y-27432201D01*
X64536959Y-27432200D01*
X64536961Y-27432200D01*
X64635887Y-27381795D01*
X64714395Y-27303287D01*
X64764800Y-27204361D01*
X64764800Y-27204359D01*
X64764801Y-27204358D01*
X64782169Y-27094702D01*
X64782169Y-27094697D01*
X64764801Y-26985041D01*
X64750422Y-26956821D01*
X64714395Y-26886113D01*
X64714392Y-26886110D01*
X64714390Y-26886107D01*
X64635892Y-26807609D01*
X64635888Y-26807606D01*
X64635887Y-26807605D01*
X64614520Y-26796718D01*
X64536958Y-26757198D01*
X64427302Y-26739831D01*
X64427298Y-26739831D01*
X64317641Y-26757198D01*
X64218714Y-26807604D01*
X64218707Y-26807609D01*
X64140209Y-26886107D01*
X64140204Y-26886114D01*
X64089798Y-26985041D01*
X64072431Y-27094697D01*
X64072431Y-27094702D01*
X62276056Y-27094702D01*
X62277300Y-27092261D01*
X62277300Y-27092259D01*
X62277301Y-27092258D01*
X62294669Y-26982602D01*
X62294669Y-26982597D01*
X62277301Y-26872941D01*
X62244010Y-26807604D01*
X62226895Y-26774013D01*
X62226892Y-26774010D01*
X62226890Y-26774007D01*
X62148392Y-26695509D01*
X62148388Y-26695506D01*
X62148387Y-26695505D01*
X62144543Y-26693546D01*
X62049458Y-26645098D01*
X61939802Y-26627731D01*
X61939798Y-26627731D01*
X61830141Y-26645098D01*
X61731214Y-26695504D01*
X61731207Y-26695509D01*
X61652709Y-26774007D01*
X61652704Y-26774014D01*
X61602298Y-26872941D01*
X61584931Y-26982597D01*
X61584931Y-26982602D01*
X49299572Y-26982602D01*
X49274536Y-26922159D01*
X49178282Y-26796718D01*
X49052841Y-26700464D01*
X48906762Y-26639956D01*
X48906760Y-26639955D01*
X48750001Y-26619318D01*
X48749999Y-26619318D01*
X48593239Y-26639955D01*
X48593237Y-26639956D01*
X48447160Y-26700463D01*
X48321718Y-26796718D01*
X48225463Y-26922160D01*
X48164956Y-27068237D01*
X48164955Y-27068239D01*
X48144318Y-27224998D01*
X48144318Y-27225001D01*
X46800000Y-27225001D01*
X46800000Y-25975002D01*
X50850131Y-25975002D01*
X50867498Y-26084658D01*
X50917904Y-26183585D01*
X50917909Y-26183592D01*
X50996407Y-26262090D01*
X50996410Y-26262092D01*
X50996413Y-26262095D01*
X51084721Y-26307090D01*
X51095341Y-26312501D01*
X51204998Y-26329869D01*
X51205000Y-26329869D01*
X51205002Y-26329869D01*
X51314658Y-26312501D01*
X51314659Y-26312500D01*
X51314661Y-26312500D01*
X51413587Y-26262095D01*
X51492095Y-26183587D01*
X51542500Y-26084661D01*
X51542500Y-26084659D01*
X51542501Y-26084658D01*
X51552742Y-26020002D01*
X57375831Y-26020002D01*
X57393198Y-26129658D01*
X57443604Y-26228585D01*
X57443609Y-26228592D01*
X57522107Y-26307090D01*
X57522110Y-26307092D01*
X57522113Y-26307095D01*
X57566810Y-26329869D01*
X57621041Y-26357501D01*
X57730698Y-26374869D01*
X57730700Y-26374869D01*
X57730702Y-26374869D01*
X57840358Y-26357501D01*
X57840359Y-26357500D01*
X57840361Y-26357500D01*
X57939287Y-26307095D01*
X58017795Y-26228587D01*
X58068200Y-26129661D01*
X58068200Y-26129659D01*
X58068201Y-26129658D01*
X58085569Y-26020002D01*
X58545131Y-26020002D01*
X58562498Y-26129658D01*
X58612904Y-26228585D01*
X58612909Y-26228592D01*
X58691407Y-26307090D01*
X58691410Y-26307092D01*
X58691413Y-26307095D01*
X58736110Y-26329869D01*
X58790341Y-26357501D01*
X58899998Y-26374869D01*
X58900000Y-26374869D01*
X58900002Y-26374869D01*
X59009658Y-26357501D01*
X59009659Y-26357500D01*
X59009661Y-26357500D01*
X59108587Y-26307095D01*
X59187095Y-26228587D01*
X59237500Y-26129661D01*
X59237500Y-26129659D01*
X59237501Y-26129658D01*
X59254869Y-26020002D01*
X59545131Y-26020002D01*
X59562498Y-26129658D01*
X59612904Y-26228585D01*
X59612909Y-26228592D01*
X59691407Y-26307090D01*
X59691410Y-26307092D01*
X59691413Y-26307095D01*
X59736110Y-26329869D01*
X59790341Y-26357501D01*
X59899998Y-26374869D01*
X59900000Y-26374869D01*
X59900002Y-26374869D01*
X60009658Y-26357501D01*
X60009659Y-26357500D01*
X60009661Y-26357500D01*
X60108587Y-26307095D01*
X60187095Y-26228587D01*
X60237500Y-26129661D01*
X60237500Y-26129659D01*
X60237501Y-26129658D01*
X60254869Y-26020002D01*
X60645131Y-26020002D01*
X60662498Y-26129658D01*
X60712904Y-26228585D01*
X60712909Y-26228592D01*
X60791407Y-26307090D01*
X60791410Y-26307092D01*
X60791413Y-26307095D01*
X60836110Y-26329869D01*
X60890341Y-26357501D01*
X60999998Y-26374869D01*
X61000000Y-26374869D01*
X61000002Y-26374869D01*
X61109658Y-26357501D01*
X61109659Y-26357500D01*
X61109661Y-26357500D01*
X61208587Y-26307095D01*
X61287095Y-26228587D01*
X61337500Y-26129661D01*
X61337500Y-26129659D01*
X61337501Y-26129658D01*
X61347221Y-26068288D01*
X61369289Y-26021735D01*
X61368891Y-26020863D01*
X61570509Y-26020863D01*
X61592167Y-26068288D01*
X61602298Y-26132258D01*
X61652704Y-26231185D01*
X61652709Y-26231192D01*
X61731207Y-26309690D01*
X61731210Y-26309692D01*
X61731213Y-26309695D01*
X61825036Y-26357500D01*
X61830141Y-26360101D01*
X61939798Y-26377469D01*
X61939800Y-26377469D01*
X61939802Y-26377469D01*
X61955390Y-26375000D01*
X74894785Y-26375000D01*
X74913602Y-26578082D01*
X74969417Y-26774247D01*
X74969422Y-26774260D01*
X75060327Y-26956821D01*
X75183237Y-27119581D01*
X75333958Y-27256980D01*
X75333960Y-27256982D01*
X75433141Y-27318392D01*
X75507363Y-27364348D01*
X75697544Y-27438024D01*
X75898024Y-27475500D01*
X75898026Y-27475500D01*
X76101974Y-27475500D01*
X76101976Y-27475500D01*
X76302456Y-27438024D01*
X76492637Y-27364348D01*
X76666041Y-27256981D01*
X76816764Y-27119579D01*
X76939673Y-26956821D01*
X77030582Y-26774250D01*
X77086397Y-26578083D01*
X77105215Y-26375000D01*
X77103834Y-26360101D01*
X77086397Y-26171917D01*
X77061569Y-26084658D01*
X77030582Y-25975750D01*
X77030207Y-25974997D01*
X76975604Y-25865339D01*
X76939673Y-25793179D01*
X76822110Y-25637500D01*
X76816762Y-25630418D01*
X76666041Y-25493019D01*
X76666039Y-25493017D01*
X76492642Y-25385655D01*
X76492635Y-25385651D01*
X76397546Y-25348814D01*
X76302456Y-25311976D01*
X76101976Y-25274500D01*
X75898024Y-25274500D01*
X75697544Y-25311976D01*
X75697541Y-25311976D01*
X75697541Y-25311977D01*
X75507364Y-25385651D01*
X75507357Y-25385655D01*
X75333960Y-25493017D01*
X75333958Y-25493019D01*
X75183237Y-25630418D01*
X75060327Y-25793178D01*
X74969422Y-25975739D01*
X74969417Y-25975752D01*
X74913602Y-26171917D01*
X74894785Y-26374999D01*
X74894785Y-26375000D01*
X61955390Y-26375000D01*
X62049458Y-26360101D01*
X62049459Y-26360100D01*
X62049461Y-26360100D01*
X62148387Y-26309695D01*
X62226895Y-26231187D01*
X62277300Y-26132261D01*
X62277300Y-26132259D01*
X62277301Y-26132258D01*
X62294669Y-26022602D01*
X62294669Y-26022597D01*
X62277301Y-25912941D01*
X62253048Y-25865341D01*
X62226895Y-25814013D01*
X62226892Y-25814010D01*
X62226890Y-25814007D01*
X62148392Y-25735509D01*
X62148388Y-25735506D01*
X62148387Y-25735505D01*
X62143282Y-25732904D01*
X62049458Y-25685098D01*
X61939802Y-25667731D01*
X61939798Y-25667731D01*
X61830141Y-25685098D01*
X61731214Y-25735504D01*
X61731207Y-25735509D01*
X61652709Y-25814007D01*
X61652704Y-25814014D01*
X61602298Y-25912941D01*
X61592578Y-25974312D01*
X61570509Y-26020863D01*
X61368891Y-26020863D01*
X61347632Y-25974314D01*
X61337500Y-25910339D01*
X61287095Y-25811413D01*
X61287092Y-25811410D01*
X61287090Y-25811407D01*
X61208592Y-25732909D01*
X61208588Y-25732906D01*
X61208587Y-25732905D01*
X61204743Y-25730946D01*
X61109658Y-25682498D01*
X61000002Y-25665131D01*
X60999998Y-25665131D01*
X60890341Y-25682498D01*
X60791414Y-25732904D01*
X60791407Y-25732909D01*
X60712909Y-25811407D01*
X60712904Y-25811414D01*
X60662498Y-25910341D01*
X60645131Y-26019997D01*
X60645131Y-26020002D01*
X60254869Y-26020002D01*
X60254869Y-26019997D01*
X60237501Y-25910341D01*
X60237500Y-25910339D01*
X60187095Y-25811413D01*
X60187092Y-25811410D01*
X60187090Y-25811407D01*
X60108592Y-25732909D01*
X60108588Y-25732906D01*
X60108587Y-25732905D01*
X60104743Y-25730946D01*
X60009658Y-25682498D01*
X59900002Y-25665131D01*
X59899998Y-25665131D01*
X59790341Y-25682498D01*
X59691414Y-25732904D01*
X59691407Y-25732909D01*
X59612909Y-25811407D01*
X59612904Y-25811414D01*
X59562498Y-25910341D01*
X59545131Y-26019997D01*
X59545131Y-26020002D01*
X59254869Y-26020002D01*
X59254869Y-26019997D01*
X59237501Y-25910341D01*
X59237500Y-25910339D01*
X59187095Y-25811413D01*
X59187092Y-25811410D01*
X59187090Y-25811407D01*
X59108592Y-25732909D01*
X59108588Y-25732906D01*
X59108587Y-25732905D01*
X59104743Y-25730946D01*
X59009658Y-25682498D01*
X58900002Y-25665131D01*
X58899998Y-25665131D01*
X58790341Y-25682498D01*
X58691414Y-25732904D01*
X58691407Y-25732909D01*
X58612909Y-25811407D01*
X58612904Y-25811414D01*
X58562498Y-25910341D01*
X58545131Y-26019997D01*
X58545131Y-26020002D01*
X58085569Y-26020002D01*
X58085569Y-26019997D01*
X58068201Y-25910341D01*
X58068200Y-25910339D01*
X58017795Y-25811413D01*
X58017792Y-25811410D01*
X58017790Y-25811407D01*
X57939292Y-25732909D01*
X57939288Y-25732906D01*
X57939287Y-25732905D01*
X57935443Y-25730946D01*
X57840358Y-25682498D01*
X57730702Y-25665131D01*
X57730698Y-25665131D01*
X57621041Y-25682498D01*
X57522114Y-25732904D01*
X57522107Y-25732909D01*
X57443609Y-25811407D01*
X57443604Y-25811414D01*
X57393198Y-25910341D01*
X57375831Y-26019997D01*
X57375831Y-26020002D01*
X51552742Y-26020002D01*
X51559869Y-25975002D01*
X51559869Y-25974997D01*
X51542501Y-25865341D01*
X51542500Y-25865339D01*
X51492095Y-25766413D01*
X51492092Y-25766410D01*
X51492090Y-25766407D01*
X51413592Y-25687909D01*
X51413588Y-25687906D01*
X51413587Y-25687905D01*
X51373993Y-25667731D01*
X51314658Y-25637498D01*
X51205002Y-25620131D01*
X51204998Y-25620131D01*
X51095341Y-25637498D01*
X50996414Y-25687904D01*
X50996407Y-25687909D01*
X50917909Y-25766407D01*
X50917904Y-25766414D01*
X50867498Y-25865341D01*
X50850131Y-25974997D01*
X50850131Y-25975002D01*
X46800000Y-25975002D01*
X46800000Y-23995002D01*
X49870131Y-23995002D01*
X49887498Y-24104658D01*
X49937904Y-24203585D01*
X49937909Y-24203592D01*
X50016407Y-24282090D01*
X50016410Y-24282092D01*
X50016413Y-24282095D01*
X50086952Y-24318036D01*
X50115341Y-24332501D01*
X50224998Y-24349869D01*
X50225000Y-24349869D01*
X50225002Y-24349869D01*
X50334658Y-24332501D01*
X50334659Y-24332500D01*
X50334661Y-24332500D01*
X50433587Y-24282095D01*
X50512095Y-24203587D01*
X50562500Y-24104661D01*
X50562500Y-24104659D01*
X50562501Y-24104658D01*
X50575118Y-24025001D01*
X51419318Y-24025001D01*
X51439955Y-24181760D01*
X51439956Y-24181762D01*
X51497274Y-24320141D01*
X51500464Y-24327841D01*
X51596718Y-24453282D01*
X51722159Y-24549536D01*
X51868238Y-24610044D01*
X51946619Y-24620363D01*
X52024999Y-24630682D01*
X52025000Y-24630682D01*
X52025001Y-24630682D01*
X52077253Y-24623802D01*
X52181762Y-24610044D01*
X52327841Y-24549536D01*
X52453282Y-24453282D01*
X52549536Y-24327841D01*
X52610044Y-24181762D01*
X52630682Y-24025000D01*
X52626732Y-23995000D01*
X52610044Y-23868239D01*
X52610044Y-23868238D01*
X52549536Y-23722159D01*
X52453282Y-23596718D01*
X52327841Y-23500464D01*
X52181762Y-23439956D01*
X52181760Y-23439955D01*
X52025001Y-23419318D01*
X52024999Y-23419318D01*
X51868239Y-23439955D01*
X51868237Y-23439956D01*
X51722160Y-23500463D01*
X51596718Y-23596718D01*
X51500463Y-23722160D01*
X51439956Y-23868237D01*
X51439955Y-23868239D01*
X51419318Y-24024998D01*
X51419318Y-24025001D01*
X50575118Y-24025001D01*
X50579869Y-23995002D01*
X50579869Y-23994997D01*
X50562501Y-23885341D01*
X50562500Y-23885339D01*
X50512095Y-23786413D01*
X50512092Y-23786410D01*
X50512090Y-23786407D01*
X50433592Y-23707909D01*
X50433588Y-23707906D01*
X50433587Y-23707905D01*
X50418524Y-23700230D01*
X50334658Y-23657498D01*
X50271357Y-23647473D01*
X50225864Y-23625907D01*
X50178642Y-23647473D01*
X50115341Y-23657498D01*
X50016414Y-23707904D01*
X50016407Y-23707909D01*
X49937909Y-23786407D01*
X49937904Y-23786414D01*
X49887498Y-23885341D01*
X49870131Y-23994997D01*
X49870131Y-23995002D01*
X46800000Y-23995002D01*
X46800000Y-23055002D01*
X49870131Y-23055002D01*
X49887498Y-23164658D01*
X49937904Y-23263585D01*
X49937909Y-23263592D01*
X50016407Y-23342090D01*
X50016410Y-23342092D01*
X50016413Y-23342095D01*
X50061795Y-23365218D01*
X50115341Y-23392501D01*
X50178642Y-23402527D01*
X50224134Y-23424092D01*
X50271357Y-23402527D01*
X50334658Y-23392501D01*
X50334659Y-23392500D01*
X50334661Y-23392500D01*
X50433587Y-23342095D01*
X50512095Y-23263587D01*
X50562500Y-23164661D01*
X50562500Y-23164659D01*
X50562501Y-23164658D01*
X50571950Y-23105002D01*
X53220131Y-23105002D01*
X53237498Y-23214658D01*
X53287904Y-23313585D01*
X53287909Y-23313592D01*
X53366407Y-23392090D01*
X53366410Y-23392092D01*
X53366413Y-23392095D01*
X53429211Y-23424092D01*
X53465341Y-23442501D01*
X53574998Y-23459869D01*
X53575000Y-23459869D01*
X53575002Y-23459869D01*
X53684658Y-23442501D01*
X53684659Y-23442500D01*
X53684661Y-23442500D01*
X53783587Y-23392095D01*
X53862095Y-23313587D01*
X53912500Y-23214661D01*
X53912500Y-23214659D01*
X53912501Y-23214658D01*
X53929869Y-23105002D01*
X53929869Y-23104997D01*
X53912501Y-22995341D01*
X53879683Y-22930932D01*
X53862095Y-22896413D01*
X53862092Y-22896410D01*
X53862090Y-22896407D01*
X53783592Y-22817909D01*
X53783588Y-22817906D01*
X53783587Y-22817905D01*
X53752684Y-22802159D01*
X53684658Y-22767498D01*
X53575002Y-22750131D01*
X53574998Y-22750131D01*
X53465341Y-22767498D01*
X53366414Y-22817904D01*
X53366407Y-22817909D01*
X53287909Y-22896407D01*
X53287904Y-22896414D01*
X53237498Y-22995341D01*
X53220131Y-23104997D01*
X53220131Y-23105002D01*
X50571950Y-23105002D01*
X50579869Y-23055002D01*
X50579869Y-23054997D01*
X50562501Y-22945341D01*
X50555159Y-22930932D01*
X50512095Y-22846413D01*
X50512092Y-22846410D01*
X50512090Y-22846407D01*
X50433592Y-22767909D01*
X50433588Y-22767906D01*
X50433587Y-22767905D01*
X50429743Y-22765946D01*
X50349380Y-22724999D01*
X64844417Y-22724999D01*
X64864699Y-22930932D01*
X64869070Y-22945341D01*
X64924768Y-23128954D01*
X65022315Y-23311450D01*
X65052179Y-23347840D01*
X65153589Y-23471410D01*
X65250209Y-23550702D01*
X65313550Y-23602685D01*
X65496046Y-23700232D01*
X65694066Y-23760300D01*
X65694065Y-23760300D01*
X65712529Y-23762118D01*
X65900000Y-23780583D01*
X66105934Y-23760300D01*
X66303954Y-23700232D01*
X66486450Y-23602685D01*
X66496116Y-23594752D01*
X67389500Y-23594752D01*
X67401131Y-23653229D01*
X67401132Y-23653230D01*
X67445447Y-23719552D01*
X67511769Y-23763867D01*
X67511770Y-23763868D01*
X67570247Y-23775499D01*
X67570250Y-23775500D01*
X67570252Y-23775500D01*
X69309750Y-23775500D01*
X69309751Y-23775499D01*
X69324568Y-23772552D01*
X69368229Y-23763868D01*
X69368229Y-23763867D01*
X69368231Y-23763867D01*
X69434552Y-23719552D01*
X69478867Y-23653231D01*
X69478867Y-23653229D01*
X69478868Y-23653229D01*
X69490499Y-23594752D01*
X69490500Y-23594750D01*
X69490500Y-23075003D01*
X70869381Y-23075003D01*
X70889826Y-23347828D01*
X70889827Y-23347840D01*
X70950706Y-23614570D01*
X70950708Y-23614579D01*
X70950710Y-23614584D01*
X71050669Y-23869276D01*
X71187472Y-24106224D01*
X71265116Y-24203587D01*
X71358064Y-24320141D01*
X71443251Y-24399182D01*
X71558628Y-24506236D01*
X71784691Y-24660363D01*
X71784696Y-24660365D01*
X71784697Y-24660366D01*
X71784698Y-24660367D01*
X71915618Y-24723414D01*
X72031196Y-24779073D01*
X72031197Y-24779073D01*
X72031200Y-24779075D01*
X72292649Y-24859722D01*
X72292650Y-24859722D01*
X72292653Y-24859723D01*
X72563190Y-24900499D01*
X72563195Y-24900499D01*
X72563198Y-24900500D01*
X72563199Y-24900500D01*
X72836801Y-24900500D01*
X72836802Y-24900500D01*
X72836809Y-24900499D01*
X73107346Y-24859723D01*
X73107347Y-24859722D01*
X73107351Y-24859722D01*
X73368800Y-24779075D01*
X73615310Y-24660363D01*
X73841372Y-24506236D01*
X74041939Y-24320137D01*
X74212528Y-24106224D01*
X74349331Y-23869276D01*
X74449290Y-23614584D01*
X74510172Y-23347840D01*
X74510174Y-23347828D01*
X74530619Y-23075003D01*
X77469381Y-23075003D01*
X77489826Y-23347828D01*
X77489827Y-23347840D01*
X77550706Y-23614570D01*
X77550708Y-23614579D01*
X77550710Y-23614584D01*
X77650669Y-23869276D01*
X77787472Y-24106224D01*
X77865116Y-24203587D01*
X77958064Y-24320141D01*
X78043251Y-24399182D01*
X78158628Y-24506236D01*
X78384691Y-24660363D01*
X78384696Y-24660365D01*
X78384697Y-24660366D01*
X78384698Y-24660367D01*
X78515618Y-24723414D01*
X78631196Y-24779073D01*
X78631197Y-24779073D01*
X78631200Y-24779075D01*
X78892649Y-24859722D01*
X78892650Y-24859722D01*
X78892653Y-24859723D01*
X79163190Y-24900499D01*
X79163195Y-24900499D01*
X79163198Y-24900500D01*
X79163199Y-24900500D01*
X79436801Y-24900500D01*
X79436802Y-24900500D01*
X79436809Y-24900499D01*
X79707346Y-24859723D01*
X79707347Y-24859722D01*
X79707351Y-24859722D01*
X79968800Y-24779075D01*
X80215310Y-24660363D01*
X80441372Y-24506236D01*
X80641939Y-24320137D01*
X80812528Y-24106224D01*
X80949331Y-23869276D01*
X81049290Y-23614584D01*
X81110172Y-23347840D01*
X81110174Y-23347828D01*
X81130619Y-23075003D01*
X81130619Y-23074996D01*
X81110172Y-22802160D01*
X81110172Y-22802159D01*
X81049293Y-22535429D01*
X81049292Y-22535428D01*
X81049290Y-22535416D01*
X80949331Y-22280724D01*
X80812528Y-22043776D01*
X80641939Y-21829863D01*
X80641938Y-21829862D01*
X80641935Y-21829858D01*
X80441372Y-21643764D01*
X80441371Y-21643764D01*
X80215310Y-21489637D01*
X80215306Y-21489635D01*
X80215303Y-21489633D01*
X80215302Y-21489632D01*
X79968802Y-21370926D01*
X79968804Y-21370926D01*
X79707352Y-21290278D01*
X79707346Y-21290276D01*
X79436809Y-21249500D01*
X79436802Y-21249500D01*
X79163198Y-21249500D01*
X79163190Y-21249500D01*
X78892653Y-21290276D01*
X78892647Y-21290278D01*
X78631196Y-21370926D01*
X78384698Y-21489632D01*
X78384697Y-21489633D01*
X78158627Y-21643764D01*
X77958064Y-21829858D01*
X77787472Y-22043776D01*
X77650669Y-22280723D01*
X77550712Y-22535410D01*
X77550706Y-22535429D01*
X77489827Y-22802159D01*
X77489827Y-22802160D01*
X77469381Y-23074996D01*
X77469381Y-23075003D01*
X74530619Y-23075003D01*
X74530619Y-23074996D01*
X74510172Y-22802160D01*
X74510172Y-22802159D01*
X74449293Y-22535429D01*
X74449292Y-22535428D01*
X74449290Y-22535416D01*
X74349331Y-22280724D01*
X74212528Y-22043776D01*
X74041939Y-21829863D01*
X74041938Y-21829862D01*
X74041935Y-21829858D01*
X73841372Y-21643764D01*
X73841371Y-21643764D01*
X73615310Y-21489637D01*
X73615306Y-21489635D01*
X73615303Y-21489633D01*
X73615302Y-21489632D01*
X73368802Y-21370926D01*
X73368804Y-21370926D01*
X73107352Y-21290278D01*
X73107346Y-21290276D01*
X72836809Y-21249500D01*
X72836802Y-21249500D01*
X72563198Y-21249500D01*
X72563190Y-21249500D01*
X72292653Y-21290276D01*
X72292647Y-21290278D01*
X72031196Y-21370926D01*
X71784698Y-21489632D01*
X71784697Y-21489633D01*
X71558627Y-21643764D01*
X71358064Y-21829858D01*
X71187472Y-22043776D01*
X71050669Y-22280723D01*
X70950712Y-22535410D01*
X70950706Y-22535429D01*
X70889827Y-22802159D01*
X70889827Y-22802160D01*
X70869381Y-23074996D01*
X70869381Y-23075003D01*
X69490500Y-23075003D01*
X69490500Y-21855249D01*
X69490499Y-21855247D01*
X69478868Y-21796770D01*
X69478867Y-21796769D01*
X69434552Y-21730447D01*
X69368230Y-21686132D01*
X69368229Y-21686131D01*
X69309752Y-21674500D01*
X69309748Y-21674500D01*
X67570252Y-21674500D01*
X67570247Y-21674500D01*
X67511770Y-21686131D01*
X67511769Y-21686132D01*
X67445447Y-21730447D01*
X67401132Y-21796769D01*
X67401131Y-21796770D01*
X67389500Y-21855247D01*
X67389500Y-23594752D01*
X66496116Y-23594752D01*
X66646410Y-23471410D01*
X66777685Y-23311450D01*
X66875232Y-23128954D01*
X66935300Y-22930934D01*
X66955583Y-22725000D01*
X66935300Y-22519066D01*
X66875232Y-22321046D01*
X66777685Y-22138550D01*
X66725702Y-22075209D01*
X66646410Y-21978589D01*
X66496121Y-21855252D01*
X66486450Y-21847315D01*
X66303954Y-21749768D01*
X66105934Y-21689700D01*
X66105932Y-21689699D01*
X66105934Y-21689699D01*
X65900000Y-21669417D01*
X65694067Y-21689699D01*
X65496043Y-21749769D01*
X65408114Y-21796769D01*
X65313550Y-21847315D01*
X65313548Y-21847316D01*
X65313547Y-21847317D01*
X65153589Y-21978589D01*
X65022317Y-22138547D01*
X64924769Y-22321043D01*
X64864699Y-22519067D01*
X64844417Y-22724999D01*
X50349380Y-22724999D01*
X50334658Y-22717498D01*
X50225002Y-22700131D01*
X50224998Y-22700131D01*
X50115341Y-22717498D01*
X50016414Y-22767904D01*
X50016407Y-22767909D01*
X49937909Y-22846407D01*
X49937904Y-22846414D01*
X49887498Y-22945341D01*
X49870131Y-23054997D01*
X49870131Y-23055002D01*
X46800000Y-23055002D01*
X46800000Y-20124500D01*
X46819685Y-20057461D01*
X46872489Y-20011706D01*
X46924000Y-20000500D01*
X83375500Y-20000500D01*
X83442539Y-20020185D01*
G37*
%TD.AperFunction*%
%TD*%
%TA.AperFunction,Conductor*%
%TO.N,+3V3*%
G36*
X46596632Y-20003868D02*
G01*
X46600000Y-20012000D01*
X46600000Y-20085425D01*
X46599883Y-20087062D01*
X46594500Y-20124503D01*
X46594500Y-28476000D01*
X46599197Y-28519684D01*
X46599737Y-28522164D01*
X46600000Y-28524611D01*
X46600000Y-28800000D01*
X46884926Y-28800000D01*
X46886562Y-28800116D01*
X46924000Y-28805500D01*
X49788500Y-28805500D01*
X49796632Y-28808868D01*
X49800000Y-28817000D01*
X49800000Y-31888500D01*
X49796632Y-31896632D01*
X49788500Y-31900000D01*
X44970000Y-31900000D01*
X44970000Y-33100000D01*
X44970001Y-33100000D01*
X45169999Y-33100000D01*
X45170000Y-33100000D01*
X45170000Y-32700002D01*
X48465131Y-32700002D01*
X48482498Y-32809654D01*
X48482499Y-32809657D01*
X48482500Y-32809661D01*
X48532905Y-32908587D01*
X48611413Y-32987095D01*
X48710339Y-33037500D01*
X48710344Y-33037500D01*
X48710345Y-33037501D01*
X48819997Y-33054869D01*
X48820000Y-33054869D01*
X48820003Y-33054869D01*
X48909237Y-33040734D01*
X48929661Y-33037500D01*
X49028587Y-32987095D01*
X49107095Y-32908587D01*
X49157500Y-32809661D01*
X49174617Y-32701591D01*
X49174869Y-32700002D01*
X49174869Y-32699997D01*
X49157501Y-32590345D01*
X49157500Y-32590342D01*
X49157500Y-32590339D01*
X49107095Y-32491413D01*
X49028587Y-32412905D01*
X48929661Y-32362500D01*
X48929658Y-32362499D01*
X48929657Y-32362499D01*
X48929654Y-32362498D01*
X48820003Y-32345131D01*
X48819997Y-32345131D01*
X48710345Y-32362498D01*
X48710342Y-32362499D01*
X48710340Y-32362499D01*
X48710339Y-32362500D01*
X48666508Y-32384833D01*
X48611412Y-32412905D01*
X48532905Y-32491412D01*
X48527082Y-32502841D01*
X48482500Y-32590339D01*
X48482499Y-32590340D01*
X48482499Y-32590342D01*
X48482498Y-32590345D01*
X48465131Y-32699997D01*
X48465131Y-32700002D01*
X45170000Y-32700002D01*
X45170000Y-32111500D01*
X45173368Y-32103368D01*
X45181500Y-32100000D01*
X49358500Y-32100000D01*
X49366632Y-32103368D01*
X49370000Y-32111500D01*
X49370000Y-33300000D01*
X49558500Y-33300000D01*
X49566632Y-33303368D01*
X49570000Y-33311500D01*
X49570000Y-36688500D01*
X49566632Y-36696632D01*
X49558500Y-36700000D01*
X44381500Y-36700000D01*
X44373368Y-36696632D01*
X44370000Y-36688500D01*
X44370000Y-35600002D01*
X44575131Y-35600002D01*
X44592498Y-35709654D01*
X44592499Y-35709657D01*
X44592500Y-35709661D01*
X44642905Y-35808587D01*
X44721413Y-35887095D01*
X44820339Y-35937500D01*
X44820344Y-35937500D01*
X44820345Y-35937501D01*
X44929997Y-35954869D01*
X44930000Y-35954869D01*
X44930003Y-35954869D01*
X45019237Y-35940734D01*
X45039661Y-35937500D01*
X45138587Y-35887095D01*
X45217095Y-35808587D01*
X45267500Y-35709661D01*
X45284869Y-35600000D01*
X45282977Y-35588057D01*
X45267501Y-35490345D01*
X45267500Y-35490342D01*
X45267500Y-35490339D01*
X45226567Y-35410002D01*
X47865131Y-35410002D01*
X47882498Y-35519654D01*
X47882499Y-35519657D01*
X47882500Y-35519661D01*
X47932905Y-35618587D01*
X48011413Y-35697095D01*
X48110339Y-35747500D01*
X48110344Y-35747500D01*
X48110345Y-35747501D01*
X48219997Y-35764869D01*
X48220000Y-35764869D01*
X48220002Y-35764869D01*
X48263987Y-35757901D01*
X48304403Y-35751500D01*
X48312961Y-35753554D01*
X48317560Y-35761059D01*
X48317560Y-35764657D01*
X48315131Y-35779997D01*
X48315131Y-35780002D01*
X48332498Y-35889654D01*
X48332499Y-35889657D01*
X48332500Y-35889661D01*
X48382905Y-35988587D01*
X48461413Y-36067095D01*
X48560339Y-36117500D01*
X48560344Y-36117500D01*
X48560345Y-36117501D01*
X48669997Y-36134869D01*
X48670000Y-36134869D01*
X48670002Y-36134869D01*
X48721339Y-36126736D01*
X48752779Y-36121757D01*
X48761337Y-36123811D01*
X48765936Y-36131316D01*
X48765936Y-36134914D01*
X48765131Y-36139997D01*
X48765131Y-36140002D01*
X48782498Y-36249654D01*
X48782499Y-36249657D01*
X48782500Y-36249661D01*
X48832905Y-36348587D01*
X48911413Y-36427095D01*
X49010339Y-36477500D01*
X49010344Y-36477500D01*
X49010345Y-36477501D01*
X49119997Y-36494869D01*
X49120000Y-36494869D01*
X49120003Y-36494869D01*
X49213896Y-36479997D01*
X49229661Y-36477500D01*
X49328587Y-36427095D01*
X49407095Y-36348587D01*
X49457500Y-36249661D01*
X49474869Y-36140000D01*
X49474063Y-36134914D01*
X49457501Y-36030345D01*
X49457500Y-36030342D01*
X49457500Y-36030339D01*
X49407095Y-35931413D01*
X49328587Y-35852905D01*
X49229661Y-35802500D01*
X49229658Y-35802499D01*
X49229657Y-35802499D01*
X49229654Y-35802498D01*
X49120003Y-35785131D01*
X49119997Y-35785131D01*
X49037220Y-35798241D01*
X49028661Y-35796187D01*
X49024063Y-35788682D01*
X49024063Y-35785087D01*
X49024869Y-35780000D01*
X49023176Y-35769314D01*
X49007501Y-35670345D01*
X49007500Y-35670342D01*
X49007500Y-35670339D01*
X48957095Y-35571413D01*
X48878587Y-35492905D01*
X48779661Y-35442500D01*
X48779658Y-35442499D01*
X48779657Y-35442499D01*
X48779654Y-35442498D01*
X48670003Y-35425131D01*
X48669997Y-35425131D01*
X48585595Y-35438498D01*
X48577036Y-35436444D01*
X48572438Y-35428939D01*
X48572438Y-35425345D01*
X48574869Y-35410000D01*
X48570057Y-35379622D01*
X48557501Y-35300345D01*
X48557500Y-35300342D01*
X48557500Y-35300339D01*
X48507095Y-35201413D01*
X48428587Y-35122905D01*
X48329661Y-35072500D01*
X48329658Y-35072499D01*
X48329657Y-35072499D01*
X48329654Y-35072498D01*
X48220003Y-35055131D01*
X48219997Y-35055131D01*
X48110345Y-35072498D01*
X48110342Y-35072499D01*
X48110340Y-35072499D01*
X48110339Y-35072500D01*
X48059969Y-35098164D01*
X48011412Y-35122905D01*
X47932905Y-35201412D01*
X47924821Y-35217279D01*
X47882500Y-35300339D01*
X47882499Y-35300340D01*
X47882499Y-35300342D01*
X47882498Y-35300345D01*
X47865131Y-35409997D01*
X47865131Y-35410002D01*
X45226567Y-35410002D01*
X45217095Y-35391413D01*
X45138587Y-35312905D01*
X45039661Y-35262500D01*
X45039658Y-35262499D01*
X45039657Y-35262499D01*
X45039654Y-35262498D01*
X44930003Y-35245131D01*
X44929997Y-35245131D01*
X44820345Y-35262498D01*
X44820342Y-35262499D01*
X44820340Y-35262499D01*
X44820339Y-35262500D01*
X44775464Y-35285365D01*
X44721412Y-35312905D01*
X44642905Y-35391412D01*
X44633433Y-35410002D01*
X44592500Y-35490339D01*
X44592499Y-35490340D01*
X44592499Y-35490342D01*
X44592498Y-35490345D01*
X44575131Y-35599997D01*
X44575131Y-35600002D01*
X44370000Y-35600002D01*
X44370000Y-34711500D01*
X44373368Y-34703368D01*
X44381500Y-34700000D01*
X44569999Y-34700000D01*
X44570000Y-34700000D01*
X44570000Y-34500000D01*
X44569999Y-34500000D01*
X44239399Y-34500000D01*
X44231267Y-34496632D01*
X44227899Y-34488500D01*
X44228041Y-34486701D01*
X44241774Y-34400002D01*
X44241774Y-34399997D01*
X44224406Y-34290345D01*
X44224405Y-34290342D01*
X44224405Y-34290339D01*
X44174000Y-34191413D01*
X44095492Y-34112905D01*
X43996566Y-34062500D01*
X43996563Y-34062499D01*
X43996562Y-34062499D01*
X43996559Y-34062498D01*
X43886908Y-34045131D01*
X43886902Y-34045131D01*
X43777250Y-34062498D01*
X43777247Y-34062499D01*
X43777245Y-34062499D01*
X43777244Y-34062500D01*
X43730936Y-34086095D01*
X43678317Y-34112905D01*
X43599810Y-34191412D01*
X43584525Y-34221412D01*
X43549405Y-34290339D01*
X43549404Y-34290340D01*
X43549404Y-34290342D01*
X43549403Y-34290345D01*
X43532036Y-34399997D01*
X43532036Y-34400002D01*
X43549403Y-34509654D01*
X43549404Y-34509657D01*
X43549405Y-34509661D01*
X43599810Y-34608587D01*
X43678318Y-34687095D01*
X43680405Y-34688158D01*
X43686121Y-34694851D01*
X43685431Y-34703626D01*
X43683316Y-34706537D01*
X43619502Y-34770352D01*
X43600321Y-34807998D01*
X43569097Y-34869279D01*
X43569096Y-34869280D01*
X43569096Y-34869282D01*
X43569095Y-34869285D01*
X43551728Y-34978937D01*
X43551728Y-34978942D01*
X43569095Y-35088594D01*
X43569096Y-35088597D01*
X43569097Y-35088601D01*
X43619502Y-35187526D01*
X43619502Y-35187527D01*
X43649254Y-35217279D01*
X43652622Y-35225411D01*
X43649254Y-35233543D01*
X43612984Y-35269812D01*
X43605062Y-35285361D01*
X43562579Y-35368739D01*
X43562578Y-35368740D01*
X43562578Y-35368742D01*
X43562577Y-35368745D01*
X43545210Y-35478397D01*
X43545210Y-35478402D01*
X43562577Y-35588054D01*
X43562578Y-35588057D01*
X43562579Y-35588061D01*
X43604503Y-35670342D01*
X43612984Y-35686987D01*
X43645954Y-35719957D01*
X43649322Y-35728089D01*
X43645954Y-35736221D01*
X43612861Y-35769314D01*
X43592851Y-35808587D01*
X43562456Y-35868241D01*
X43562455Y-35868242D01*
X43562455Y-35868244D01*
X43562454Y-35868247D01*
X43545087Y-35977899D01*
X43545087Y-35977904D01*
X43562454Y-36087556D01*
X43562455Y-36087559D01*
X43562456Y-36087563D01*
X43612861Y-36186489D01*
X43691369Y-36264997D01*
X43790295Y-36315402D01*
X43790300Y-36315402D01*
X43790301Y-36315403D01*
X43899953Y-36332771D01*
X43899956Y-36332771D01*
X43899959Y-36332771D01*
X43989193Y-36318636D01*
X44009617Y-36315402D01*
X44108543Y-36264997D01*
X44150368Y-36223172D01*
X44158500Y-36219804D01*
X44166632Y-36223172D01*
X44170000Y-36231304D01*
X44170000Y-36900000D01*
X44788500Y-36900000D01*
X44796632Y-36903368D01*
X44800000Y-36911500D01*
X44800000Y-37084925D01*
X44799883Y-37086562D01*
X44794500Y-37124003D01*
X44794500Y-37983000D01*
X44791132Y-37991132D01*
X44783000Y-37994500D01*
X43279971Y-37994500D01*
X43271839Y-37991132D01*
X43268471Y-37983000D01*
X43271839Y-37974868D01*
X43292071Y-37954636D01*
X43331595Y-37915112D01*
X43382000Y-37816186D01*
X43390370Y-37763340D01*
X43399369Y-37706527D01*
X43399369Y-37706522D01*
X43382001Y-37596870D01*
X43382000Y-37596867D01*
X43382000Y-37596864D01*
X43331595Y-37497938D01*
X43253087Y-37419430D01*
X43154161Y-37369025D01*
X43154158Y-37369024D01*
X43154157Y-37369024D01*
X43154154Y-37369023D01*
X43044503Y-37351656D01*
X43044497Y-37351656D01*
X42934845Y-37369023D01*
X42934842Y-37369024D01*
X42934840Y-37369024D01*
X42934839Y-37369025D01*
X42884469Y-37394689D01*
X42835912Y-37419430D01*
X42757405Y-37497937D01*
X42737321Y-37537355D01*
X42707000Y-37596864D01*
X42706999Y-37596865D01*
X42706999Y-37596867D01*
X42706998Y-37596870D01*
X42689631Y-37706522D01*
X42689631Y-37706527D01*
X42706998Y-37816179D01*
X42706999Y-37816182D01*
X42707000Y-37816186D01*
X42745745Y-37892227D01*
X42757405Y-37915112D01*
X42817161Y-37974868D01*
X42820529Y-37983000D01*
X42817161Y-37991132D01*
X42809029Y-37994500D01*
X42723999Y-37994500D01*
X42680313Y-37999197D01*
X42677834Y-37999737D01*
X42675388Y-38000000D01*
X42400000Y-38000000D01*
X42400000Y-38000001D01*
X42400000Y-38284925D01*
X42399883Y-38286562D01*
X42395125Y-38319657D01*
X42394500Y-38324003D01*
X42394500Y-39729015D01*
X42399953Y-39771404D01*
X42400000Y-39772138D01*
X42400000Y-40831909D01*
X42399883Y-40833546D01*
X42394500Y-40870987D01*
X42394500Y-41029015D01*
X42399953Y-41071404D01*
X42400000Y-41072138D01*
X42400000Y-42131908D01*
X42399883Y-42133545D01*
X42394500Y-42170986D01*
X42394500Y-42196172D01*
X42391132Y-42204304D01*
X42388507Y-42206268D01*
X40200000Y-43400000D01*
X40200000Y-43634535D01*
X40199883Y-43636172D01*
X40195815Y-43664470D01*
X40194500Y-43673613D01*
X40194500Y-44972804D01*
X40197265Y-45006395D01*
X40197265Y-45006394D01*
X40199845Y-45021963D01*
X40200000Y-45023843D01*
X40200000Y-45748125D01*
X40199883Y-45749762D01*
X40194500Y-45787203D01*
X40194500Y-51625500D01*
X40199197Y-51669184D01*
X40199737Y-51671664D01*
X40200000Y-51674111D01*
X40200000Y-51738000D01*
X40196632Y-51746132D01*
X40188500Y-51749500D01*
X20012000Y-51749500D01*
X20003868Y-51746132D01*
X20000500Y-51738000D01*
X20000500Y-48600000D01*
X21844357Y-48600000D01*
X21864884Y-48821533D01*
X21925771Y-49035529D01*
X22024942Y-49234690D01*
X22024944Y-49234693D01*
X22159011Y-49412227D01*
X22159014Y-49412230D01*
X22159019Y-49412236D01*
X22323438Y-49562124D01*
X22512599Y-49679247D01*
X22720060Y-49759618D01*
X22938754Y-49800499D01*
X22938755Y-49800500D01*
X22938757Y-49800500D01*
X23161245Y-49800500D01*
X23161245Y-49800499D01*
X23379940Y-49759618D01*
X23587401Y-49679247D01*
X23776562Y-49562124D01*
X23940981Y-49412236D01*
X23965430Y-49379861D01*
X24075055Y-49234693D01*
X24075057Y-49234690D01*
X24075056Y-49234690D01*
X24075058Y-49234689D01*
X24174229Y-49035528D01*
X24235115Y-48821536D01*
X24255643Y-48600000D01*
X28344357Y-48600000D01*
X28364884Y-48821533D01*
X28425771Y-49035529D01*
X28524942Y-49234690D01*
X28524944Y-49234693D01*
X28659011Y-49412227D01*
X28659014Y-49412230D01*
X28659019Y-49412236D01*
X28823438Y-49562124D01*
X29012599Y-49679247D01*
X29220060Y-49759618D01*
X29438754Y-49800499D01*
X29438755Y-49800500D01*
X29438757Y-49800500D01*
X29661245Y-49800500D01*
X29661245Y-49800499D01*
X29879940Y-49759618D01*
X30087401Y-49679247D01*
X30276562Y-49562124D01*
X30440981Y-49412236D01*
X30465430Y-49379861D01*
X30575055Y-49234693D01*
X30575057Y-49234690D01*
X30575056Y-49234690D01*
X30575058Y-49234689D01*
X30674229Y-49035528D01*
X30735115Y-48821536D01*
X30755643Y-48600000D01*
X30735115Y-48378464D01*
X30674229Y-48164472D01*
X30575058Y-47965311D01*
X30575057Y-47965310D01*
X30575057Y-47965309D01*
X30575055Y-47965306D01*
X30440988Y-47787772D01*
X30440984Y-47787769D01*
X30440981Y-47787764D01*
X30276562Y-47637876D01*
X30276561Y-47637875D01*
X30144663Y-47556208D01*
X30087401Y-47520753D01*
X30087396Y-47520751D01*
X30087390Y-47520748D01*
X29879942Y-47440382D01*
X29661245Y-47399500D01*
X29661243Y-47399500D01*
X29438757Y-47399500D01*
X29438754Y-47399500D01*
X29220058Y-47440382D01*
X29220057Y-47440382D01*
X29012609Y-47520748D01*
X29012597Y-47520754D01*
X28823438Y-47637875D01*
X28734676Y-47718793D01*
X28659019Y-47787764D01*
X28659017Y-47787766D01*
X28659011Y-47787772D01*
X28524944Y-47965306D01*
X28524942Y-47965309D01*
X28425771Y-48164470D01*
X28364884Y-48378466D01*
X28344357Y-48600000D01*
X24255643Y-48600000D01*
X24235115Y-48378464D01*
X24174229Y-48164472D01*
X24075058Y-47965311D01*
X24075057Y-47965310D01*
X24075057Y-47965309D01*
X24075055Y-47965306D01*
X23940988Y-47787772D01*
X23940984Y-47787769D01*
X23940981Y-47787764D01*
X23776562Y-47637876D01*
X23776561Y-47637875D01*
X23644663Y-47556208D01*
X23587401Y-47520753D01*
X23587396Y-47520751D01*
X23587390Y-47520748D01*
X23379942Y-47440382D01*
X23161245Y-47399500D01*
X23161243Y-47399500D01*
X22938757Y-47399500D01*
X22938754Y-47399500D01*
X22720058Y-47440382D01*
X22720057Y-47440382D01*
X22512609Y-47520748D01*
X22512597Y-47520754D01*
X22323438Y-47637875D01*
X22234676Y-47718793D01*
X22159019Y-47787764D01*
X22159017Y-47787766D01*
X22159011Y-47787772D01*
X22024944Y-47965306D01*
X22024942Y-47965309D01*
X21925771Y-48164470D01*
X21864884Y-48378466D01*
X21844357Y-48600000D01*
X20000500Y-48600000D01*
X20000500Y-44100000D01*
X21844357Y-44100000D01*
X21864884Y-44321533D01*
X21925771Y-44535529D01*
X22024942Y-44734690D01*
X22024944Y-44734693D01*
X22159011Y-44912227D01*
X22159014Y-44912230D01*
X22159019Y-44912236D01*
X22323438Y-45062124D01*
X22512599Y-45179247D01*
X22512607Y-45179250D01*
X22512609Y-45179251D01*
X22591560Y-45209837D01*
X22720060Y-45259618D01*
X22938754Y-45300499D01*
X22938755Y-45300500D01*
X22938757Y-45300500D01*
X23161245Y-45300500D01*
X23161245Y-45300499D01*
X23379940Y-45259618D01*
X23587401Y-45179247D01*
X23776562Y-45062124D01*
X23940981Y-44912236D01*
X24075058Y-44734689D01*
X24174229Y-44535528D01*
X24235115Y-44321536D01*
X24255643Y-44100000D01*
X28344357Y-44100000D01*
X28364884Y-44321533D01*
X28425771Y-44535529D01*
X28524942Y-44734690D01*
X28524944Y-44734693D01*
X28659011Y-44912227D01*
X28659014Y-44912230D01*
X28659019Y-44912236D01*
X28823438Y-45062124D01*
X29012599Y-45179247D01*
X29012607Y-45179250D01*
X29012609Y-45179251D01*
X29091560Y-45209837D01*
X29220060Y-45259618D01*
X29438754Y-45300499D01*
X29438755Y-45300500D01*
X29438757Y-45300500D01*
X29661245Y-45300500D01*
X29661245Y-45300499D01*
X29879940Y-45259618D01*
X30087401Y-45179247D01*
X30276562Y-45062124D01*
X30440981Y-44912236D01*
X30575058Y-44734689D01*
X30674229Y-44535528D01*
X30735115Y-44321536D01*
X30755643Y-44100000D01*
X30735115Y-43878464D01*
X30674229Y-43664472D01*
X30575058Y-43465311D01*
X30575057Y-43465310D01*
X30575057Y-43465309D01*
X30575055Y-43465306D01*
X30440988Y-43287772D01*
X30440984Y-43287769D01*
X30440981Y-43287764D01*
X30276562Y-43137876D01*
X30276561Y-43137875D01*
X30087651Y-43020908D01*
X30087401Y-43020753D01*
X30087396Y-43020751D01*
X30087390Y-43020748D01*
X29879942Y-42940382D01*
X29661245Y-42899500D01*
X29661243Y-42899500D01*
X29438757Y-42899500D01*
X29438754Y-42899500D01*
X29220058Y-42940382D01*
X29220057Y-42940382D01*
X29012609Y-43020748D01*
X29012597Y-43020754D01*
X28823438Y-43137875D01*
X28727114Y-43225686D01*
X28659019Y-43287764D01*
X28659017Y-43287766D01*
X28659011Y-43287772D01*
X28524944Y-43465306D01*
X28524942Y-43465309D01*
X28425771Y-43664470D01*
X28364884Y-43878466D01*
X28344357Y-44100000D01*
X24255643Y-44100000D01*
X24235115Y-43878464D01*
X24174229Y-43664472D01*
X24075058Y-43465311D01*
X24075057Y-43465310D01*
X24075057Y-43465309D01*
X24075055Y-43465306D01*
X23940988Y-43287772D01*
X23940984Y-43287769D01*
X23940981Y-43287764D01*
X23776562Y-43137876D01*
X23776561Y-43137875D01*
X23587651Y-43020908D01*
X23587401Y-43020753D01*
X23587396Y-43020751D01*
X23587390Y-43020748D01*
X23379942Y-42940382D01*
X23161245Y-42899500D01*
X23161243Y-42899500D01*
X22938757Y-42899500D01*
X22938754Y-42899500D01*
X22720058Y-42940382D01*
X22720057Y-42940382D01*
X22512609Y-43020748D01*
X22512597Y-43020754D01*
X22323438Y-43137875D01*
X22227114Y-43225686D01*
X22159019Y-43287764D01*
X22159017Y-43287766D01*
X22159011Y-43287772D01*
X22024944Y-43465306D01*
X22024942Y-43465309D01*
X21925771Y-43664470D01*
X21864884Y-43878466D01*
X21844357Y-44100000D01*
X20000500Y-44100000D01*
X20000500Y-41825000D01*
X28794318Y-41825000D01*
X28814956Y-41981762D01*
X28875464Y-42127841D01*
X28971718Y-42253282D01*
X29097159Y-42349536D01*
X29243238Y-42410044D01*
X29400000Y-42430682D01*
X29556762Y-42410044D01*
X29702841Y-42349536D01*
X29828282Y-42253282D01*
X29885530Y-42178675D01*
X36528986Y-42178675D01*
X36549624Y-42335437D01*
X36610132Y-42481516D01*
X36706386Y-42606957D01*
X36831827Y-42703211D01*
X36977906Y-42763719D01*
X37134668Y-42784357D01*
X37291430Y-42763719D01*
X37437509Y-42703211D01*
X37562950Y-42606957D01*
X37659204Y-42481516D01*
X37719712Y-42335437D01*
X37732276Y-42240000D01*
X39694318Y-42240000D01*
X39714956Y-42396762D01*
X39775464Y-42542841D01*
X39871718Y-42668282D01*
X39997159Y-42764536D01*
X40143238Y-42825044D01*
X40300000Y-42845682D01*
X40456762Y-42825044D01*
X40602841Y-42764536D01*
X40728282Y-42668282D01*
X40824536Y-42542841D01*
X40885044Y-42396762D01*
X40905682Y-42240000D01*
X40885044Y-42083238D01*
X40824536Y-41937159D01*
X40728282Y-41811718D01*
X40602841Y-41715464D01*
X40456762Y-41654956D01*
X40300000Y-41634318D01*
X40143238Y-41654956D01*
X39997159Y-41715464D01*
X39871718Y-41811718D01*
X39775464Y-41937159D01*
X39714956Y-42083238D01*
X39694318Y-42240000D01*
X37732276Y-42240000D01*
X37740350Y-42178675D01*
X37719712Y-42021913D01*
X37659204Y-41875834D01*
X37562950Y-41750393D01*
X37437509Y-41654139D01*
X37291430Y-41593631D01*
X37134668Y-41572993D01*
X36977906Y-41593631D01*
X36831827Y-41654139D01*
X36706386Y-41750393D01*
X36610132Y-41875834D01*
X36549624Y-42021913D01*
X36528986Y-42178675D01*
X29885530Y-42178675D01*
X29924536Y-42127841D01*
X29985044Y-41981762D01*
X30005682Y-41825000D01*
X29985044Y-41668238D01*
X29924536Y-41522159D01*
X29828282Y-41396718D01*
X29702841Y-41300464D01*
X29556762Y-41239956D01*
X29400000Y-41219318D01*
X29243238Y-41239956D01*
X29097159Y-41300464D01*
X28971718Y-41396718D01*
X28875464Y-41522159D01*
X28814956Y-41668238D01*
X28794318Y-41825000D01*
X20000500Y-41825000D01*
X20000500Y-40275056D01*
X21124500Y-40275056D01*
X21165210Y-40440225D01*
X21244266Y-40590852D01*
X21276496Y-40627232D01*
X21357066Y-40718178D01*
X21357068Y-40718180D01*
X21357071Y-40718183D01*
X21497070Y-40814818D01*
X21656128Y-40875140D01*
X21782628Y-40890500D01*
X21782629Y-40890500D01*
X22667371Y-40890500D01*
X22667372Y-40890500D01*
X22793872Y-40875140D01*
X22952930Y-40814818D01*
X23092929Y-40718183D01*
X23205734Y-40590852D01*
X23284790Y-40440225D01*
X23325500Y-40275056D01*
X25154500Y-40275056D01*
X25195210Y-40440225D01*
X25274266Y-40590852D01*
X25306496Y-40627232D01*
X25387066Y-40718178D01*
X25387068Y-40718180D01*
X25387071Y-40718183D01*
X25527070Y-40814818D01*
X25686128Y-40875140D01*
X25812628Y-40890500D01*
X25812629Y-40890500D01*
X26997371Y-40890500D01*
X26997372Y-40890500D01*
X27123872Y-40875140D01*
X27282930Y-40814818D01*
X27422929Y-40718183D01*
X27535734Y-40590852D01*
X27538804Y-40585002D01*
X38995131Y-40585002D01*
X39012498Y-40694654D01*
X39012499Y-40694657D01*
X39012500Y-40694661D01*
X39062905Y-40793587D01*
X39141413Y-40872095D01*
X39240339Y-40922500D01*
X39240344Y-40922500D01*
X39240345Y-40922501D01*
X39349997Y-40939869D01*
X39350000Y-40939869D01*
X39350003Y-40939869D01*
X39439237Y-40925734D01*
X39459661Y-40922500D01*
X39558587Y-40872095D01*
X39637095Y-40793587D01*
X39687500Y-40694661D01*
X39694789Y-40648639D01*
X39704869Y-40585002D01*
X39704869Y-40584997D01*
X39687501Y-40475345D01*
X39687500Y-40475342D01*
X39687500Y-40475339D01*
X39637095Y-40376413D01*
X39558587Y-40297905D01*
X39459661Y-40247500D01*
X39459658Y-40247499D01*
X39459657Y-40247499D01*
X39459654Y-40247498D01*
X39350003Y-40230131D01*
X39349997Y-40230131D01*
X39240345Y-40247498D01*
X39240342Y-40247499D01*
X39240340Y-40247499D01*
X39240339Y-40247500D01*
X39189969Y-40273164D01*
X39141412Y-40297905D01*
X39062905Y-40376412D01*
X39038164Y-40424969D01*
X39012500Y-40475339D01*
X39012499Y-40475340D01*
X39012499Y-40475342D01*
X39012498Y-40475345D01*
X38995131Y-40584997D01*
X38995131Y-40585002D01*
X27538804Y-40585002D01*
X27614790Y-40440225D01*
X27655500Y-40275056D01*
X27655500Y-40104944D01*
X27614790Y-39939775D01*
X27535734Y-39789148D01*
X27465315Y-39709661D01*
X27422933Y-39661821D01*
X27422931Y-39661819D01*
X27422929Y-39661817D01*
X27282930Y-39565182D01*
X27123872Y-39504860D01*
X27123870Y-39504859D01*
X27123869Y-39504859D01*
X26997374Y-39489500D01*
X26997372Y-39489500D01*
X25812628Y-39489500D01*
X25812625Y-39489500D01*
X25686130Y-39504859D01*
X25686128Y-39504860D01*
X25527070Y-39565182D01*
X25387073Y-39661815D01*
X25387066Y-39661821D01*
X25274268Y-39789145D01*
X25274265Y-39789149D01*
X25195211Y-39939773D01*
X25195210Y-39939775D01*
X25154500Y-40104944D01*
X25154500Y-40275056D01*
X23325500Y-40275056D01*
X23325500Y-40104944D01*
X23284790Y-39939775D01*
X23205734Y-39789148D01*
X23135315Y-39709661D01*
X23092933Y-39661821D01*
X23092931Y-39661819D01*
X23092929Y-39661817D01*
X22952930Y-39565182D01*
X22793872Y-39504860D01*
X22793870Y-39504859D01*
X22793869Y-39504859D01*
X22667374Y-39489500D01*
X22667372Y-39489500D01*
X21782628Y-39489500D01*
X21782625Y-39489500D01*
X21656130Y-39504859D01*
X21656128Y-39504860D01*
X21497070Y-39565182D01*
X21357073Y-39661815D01*
X21357066Y-39661821D01*
X21244268Y-39789145D01*
X21244265Y-39789149D01*
X21165211Y-39939773D01*
X21165210Y-39939775D01*
X21124500Y-40104944D01*
X21124500Y-40275056D01*
X20000500Y-40275056D01*
X20000500Y-38760000D01*
X25324534Y-38760000D01*
X25344313Y-38910237D01*
X25363891Y-38957501D01*
X25402302Y-39050233D01*
X25494549Y-39170451D01*
X25614767Y-39262698D01*
X25754762Y-39320686D01*
X25754761Y-39320686D01*
X25754764Y-39320687D01*
X25867280Y-39335500D01*
X25867284Y-39335500D01*
X25942716Y-39335500D01*
X25942720Y-39335500D01*
X26055236Y-39320687D01*
X26195233Y-39262698D01*
X26315451Y-39170451D01*
X26369509Y-39100002D01*
X26445131Y-39100002D01*
X26462498Y-39209654D01*
X26462499Y-39209657D01*
X26462500Y-39209661D01*
X26512905Y-39308587D01*
X26591413Y-39387095D01*
X26690339Y-39437500D01*
X26690344Y-39437500D01*
X26690345Y-39437501D01*
X26799997Y-39454869D01*
X26800000Y-39454869D01*
X26800003Y-39454869D01*
X26889237Y-39440734D01*
X26909661Y-39437500D01*
X27008587Y-39387095D01*
X27041868Y-39353812D01*
X27050000Y-39350445D01*
X27058131Y-39353812D01*
X27091413Y-39387095D01*
X27190339Y-39437500D01*
X27190344Y-39437500D01*
X27190345Y-39437501D01*
X27299997Y-39454869D01*
X27300000Y-39454869D01*
X27300003Y-39454869D01*
X27389237Y-39440734D01*
X27409661Y-39437500D01*
X27483259Y-39400000D01*
X27694318Y-39400000D01*
X27714956Y-39556762D01*
X27775464Y-39702841D01*
X27871718Y-39828282D01*
X27997159Y-39924536D01*
X28143238Y-39985044D01*
X28300000Y-40005682D01*
X28456762Y-39985044D01*
X28602841Y-39924536D01*
X28728282Y-39828282D01*
X28824536Y-39702841D01*
X28867133Y-39600002D01*
X35945131Y-39600002D01*
X35962498Y-39709654D01*
X35962499Y-39709657D01*
X35962500Y-39709661D01*
X36012905Y-39808587D01*
X36091413Y-39887095D01*
X36190339Y-39937500D01*
X36190344Y-39937500D01*
X36190345Y-39937501D01*
X36299997Y-39954869D01*
X36300000Y-39954869D01*
X36300003Y-39954869D01*
X36330728Y-39950002D01*
X38245131Y-39950002D01*
X38262498Y-40059654D01*
X38262499Y-40059657D01*
X38262500Y-40059661D01*
X38312905Y-40158587D01*
X38391413Y-40237095D01*
X38490339Y-40287500D01*
X38490344Y-40287500D01*
X38490345Y-40287501D01*
X38599997Y-40304869D01*
X38600000Y-40304869D01*
X38600003Y-40304869D01*
X38689237Y-40290734D01*
X38709661Y-40287500D01*
X38808587Y-40237095D01*
X38887095Y-40158587D01*
X38937500Y-40059661D01*
X38946632Y-40002006D01*
X38954869Y-39950002D01*
X38954869Y-39949997D01*
X38937501Y-39840345D01*
X38937500Y-39840342D01*
X38937500Y-39840339D01*
X38887095Y-39741413D01*
X38808587Y-39662905D01*
X38709661Y-39612500D01*
X38709658Y-39612499D01*
X38709657Y-39612499D01*
X38709654Y-39612498D01*
X38600003Y-39595131D01*
X38599997Y-39595131D01*
X38490345Y-39612498D01*
X38490342Y-39612499D01*
X38490340Y-39612499D01*
X38490339Y-39612500D01*
X38439969Y-39638164D01*
X38391412Y-39662905D01*
X38312905Y-39741412D01*
X38297624Y-39771404D01*
X38262500Y-39840339D01*
X38262499Y-39840340D01*
X38262499Y-39840342D01*
X38262498Y-39840345D01*
X38245131Y-39949997D01*
X38245131Y-39950002D01*
X36330728Y-39950002D01*
X36389237Y-39940734D01*
X36409661Y-39937500D01*
X36508587Y-39887095D01*
X36587095Y-39808587D01*
X36637500Y-39709661D01*
X36652889Y-39612500D01*
X36654869Y-39600002D01*
X36654869Y-39599997D01*
X36637501Y-39490345D01*
X36637500Y-39490342D01*
X36637500Y-39490339D01*
X36587095Y-39391413D01*
X36508587Y-39312905D01*
X36409661Y-39262500D01*
X36409658Y-39262499D01*
X36409657Y-39262499D01*
X36409654Y-39262498D01*
X36300003Y-39245131D01*
X36299997Y-39245131D01*
X36190345Y-39262498D01*
X36190342Y-39262499D01*
X36190340Y-39262499D01*
X36190339Y-39262500D01*
X36139969Y-39288164D01*
X36091412Y-39312905D01*
X36012905Y-39391412D01*
X35989423Y-39437500D01*
X35962500Y-39490339D01*
X35962499Y-39490340D01*
X35962499Y-39490342D01*
X35962498Y-39490345D01*
X35945131Y-39599997D01*
X35945131Y-39600002D01*
X28867133Y-39600002D01*
X28885044Y-39556762D01*
X28905682Y-39400000D01*
X28885044Y-39243238D01*
X28824536Y-39097159D01*
X28728282Y-38971718D01*
X28602841Y-38875464D01*
X28456762Y-38814956D01*
X28300000Y-38794318D01*
X28143238Y-38814956D01*
X27997159Y-38875464D01*
X27871718Y-38971718D01*
X27775464Y-39097159D01*
X27714956Y-39243238D01*
X27702810Y-39335500D01*
X27694318Y-39400000D01*
X27483259Y-39400000D01*
X27508587Y-39387095D01*
X27587095Y-39308587D01*
X27637500Y-39209661D01*
X27643711Y-39170450D01*
X27654869Y-39100002D01*
X27654869Y-39099997D01*
X27637501Y-38990345D01*
X27637500Y-38990342D01*
X27637500Y-38990339D01*
X27587095Y-38891413D01*
X27508587Y-38812905D01*
X27423229Y-38769413D01*
X30744542Y-38769413D01*
X30761909Y-38879065D01*
X30761910Y-38879068D01*
X30761911Y-38879072D01*
X30812316Y-38977998D01*
X30890824Y-39056506D01*
X30989750Y-39106911D01*
X30989755Y-39106911D01*
X30989756Y-39106912D01*
X31099408Y-39124280D01*
X31099411Y-39124280D01*
X31099414Y-39124280D01*
X31198490Y-39108587D01*
X31209072Y-39106911D01*
X31307998Y-39056506D01*
X31386506Y-38977998D01*
X31436911Y-38879072D01*
X31450335Y-38794318D01*
X31454280Y-38769413D01*
X31454280Y-38769408D01*
X31451206Y-38750002D01*
X31995131Y-38750002D01*
X32012498Y-38859654D01*
X32012499Y-38859657D01*
X32012500Y-38859661D01*
X32062905Y-38958587D01*
X32141413Y-39037095D01*
X32240339Y-39087500D01*
X32240344Y-39087500D01*
X32240345Y-39087501D01*
X32349997Y-39104869D01*
X32350000Y-39104869D01*
X32350003Y-39104869D01*
X32439237Y-39090734D01*
X32459661Y-39087500D01*
X32558587Y-39037095D01*
X32637095Y-38958587D01*
X32687500Y-38859661D01*
X32702889Y-38762500D01*
X32704869Y-38750002D01*
X32704869Y-38749997D01*
X32687501Y-38640345D01*
X32687500Y-38640342D01*
X32687500Y-38640339D01*
X32677138Y-38620002D01*
X35965131Y-38620002D01*
X35982498Y-38729654D01*
X35982499Y-38729657D01*
X35982500Y-38729661D01*
X36032905Y-38828587D01*
X36111413Y-38907095D01*
X36210339Y-38957500D01*
X36210344Y-38957500D01*
X36210345Y-38957501D01*
X36319997Y-38974869D01*
X36320000Y-38974869D01*
X36320003Y-38974869D01*
X36422798Y-38958587D01*
X36429661Y-38957500D01*
X36528587Y-38907095D01*
X36535680Y-38900002D01*
X39815131Y-38900002D01*
X39832498Y-39009654D01*
X39832499Y-39009657D01*
X39832500Y-39009661D01*
X39882905Y-39108587D01*
X39961413Y-39187095D01*
X40060339Y-39237500D01*
X40060344Y-39237500D01*
X40060345Y-39237501D01*
X40169997Y-39254869D01*
X40170000Y-39254869D01*
X40170003Y-39254869D01*
X40259237Y-39240734D01*
X40279661Y-39237500D01*
X40378587Y-39187095D01*
X40457095Y-39108587D01*
X40507500Y-39009661D01*
X40523248Y-38910236D01*
X40524869Y-38900002D01*
X40524869Y-38899997D01*
X40507501Y-38790345D01*
X40507500Y-38790342D01*
X40507500Y-38790339D01*
X40457095Y-38691413D01*
X40378587Y-38612905D01*
X40279661Y-38562500D01*
X40279658Y-38562499D01*
X40279657Y-38562499D01*
X40279654Y-38562498D01*
X40170003Y-38545131D01*
X40169997Y-38545131D01*
X40060345Y-38562498D01*
X40060342Y-38562499D01*
X40060340Y-38562499D01*
X40060339Y-38562500D01*
X40055690Y-38564869D01*
X39961412Y-38612905D01*
X39882905Y-38691412D01*
X39863420Y-38729654D01*
X39832500Y-38790339D01*
X39832499Y-38790340D01*
X39832499Y-38790342D01*
X39832498Y-38790345D01*
X39815131Y-38899997D01*
X39815131Y-38900002D01*
X36535680Y-38900002D01*
X36607095Y-38828587D01*
X36657500Y-38729661D01*
X36674869Y-38620000D01*
X36673745Y-38612905D01*
X36657501Y-38510345D01*
X36657500Y-38510342D01*
X36657500Y-38510339D01*
X36607095Y-38411413D01*
X36528587Y-38332905D01*
X36429661Y-38282500D01*
X36429658Y-38282499D01*
X36429657Y-38282499D01*
X36429654Y-38282498D01*
X36320003Y-38265131D01*
X36319997Y-38265131D01*
X36210345Y-38282498D01*
X36210342Y-38282499D01*
X36210340Y-38282499D01*
X36210339Y-38282500D01*
X36195820Y-38289898D01*
X36111412Y-38332905D01*
X36032905Y-38411412D01*
X36022462Y-38431909D01*
X35982500Y-38510339D01*
X35982499Y-38510340D01*
X35982499Y-38510342D01*
X35982498Y-38510345D01*
X35965131Y-38619997D01*
X35965131Y-38620002D01*
X32677138Y-38620002D01*
X32637095Y-38541413D01*
X32558587Y-38462905D01*
X32459661Y-38412500D01*
X32459658Y-38412499D01*
X32459657Y-38412499D01*
X32459654Y-38412498D01*
X32350003Y-38395131D01*
X32349997Y-38395131D01*
X32240345Y-38412498D01*
X32240342Y-38412499D01*
X32240340Y-38412499D01*
X32240339Y-38412500D01*
X32202243Y-38431911D01*
X32141412Y-38462905D01*
X32062905Y-38541412D01*
X32038164Y-38589969D01*
X32012500Y-38640339D01*
X32012499Y-38640340D01*
X32012499Y-38640342D01*
X32012498Y-38640345D01*
X31995131Y-38749997D01*
X31995131Y-38750002D01*
X31451206Y-38750002D01*
X31436912Y-38659756D01*
X31436911Y-38659753D01*
X31436911Y-38659750D01*
X31386506Y-38560824D01*
X31307998Y-38482316D01*
X31209072Y-38431911D01*
X31209069Y-38431910D01*
X31209068Y-38431910D01*
X31209065Y-38431909D01*
X31099414Y-38414542D01*
X31099408Y-38414542D01*
X30989756Y-38431909D01*
X30989753Y-38431910D01*
X30989751Y-38431910D01*
X30989750Y-38431911D01*
X30939380Y-38457575D01*
X30890823Y-38482316D01*
X30812316Y-38560823D01*
X30811462Y-38562500D01*
X30761911Y-38659750D01*
X30761910Y-38659751D01*
X30761910Y-38659753D01*
X30761909Y-38659756D01*
X30744542Y-38769408D01*
X30744542Y-38769413D01*
X27423229Y-38769413D01*
X27409661Y-38762500D01*
X27409658Y-38762499D01*
X27409657Y-38762499D01*
X27409654Y-38762498D01*
X27300003Y-38745131D01*
X27299997Y-38745131D01*
X27190345Y-38762498D01*
X27190342Y-38762499D01*
X27190340Y-38762499D01*
X27190339Y-38762500D01*
X27139969Y-38788164D01*
X27091412Y-38812905D01*
X27058132Y-38846186D01*
X27050000Y-38849554D01*
X27041868Y-38846186D01*
X27008587Y-38812905D01*
X27008586Y-38812904D01*
X26909661Y-38762500D01*
X26909658Y-38762499D01*
X26909657Y-38762499D01*
X26909654Y-38762498D01*
X26800003Y-38745131D01*
X26799997Y-38745131D01*
X26690345Y-38762498D01*
X26690342Y-38762499D01*
X26690340Y-38762499D01*
X26690339Y-38762500D01*
X26639969Y-38788164D01*
X26591412Y-38812905D01*
X26512905Y-38891412D01*
X26488164Y-38939969D01*
X26462500Y-38990339D01*
X26462499Y-38990340D01*
X26462499Y-38990342D01*
X26462498Y-38990345D01*
X26445131Y-39099997D01*
X26445131Y-39100002D01*
X26369509Y-39100002D01*
X26407698Y-39050233D01*
X26465687Y-38910236D01*
X26485466Y-38760000D01*
X26465687Y-38609764D01*
X26407698Y-38469767D01*
X26315451Y-38349549D01*
X26195233Y-38257302D01*
X26081041Y-38210002D01*
X31495131Y-38210002D01*
X31512498Y-38319654D01*
X31512499Y-38319657D01*
X31512500Y-38319661D01*
X31562905Y-38418587D01*
X31641413Y-38497095D01*
X31740339Y-38547500D01*
X31740344Y-38547500D01*
X31740345Y-38547501D01*
X31849997Y-38564869D01*
X31850000Y-38564869D01*
X31850003Y-38564869D01*
X31939237Y-38550734D01*
X31959661Y-38547500D01*
X32058587Y-38497095D01*
X32137095Y-38418587D01*
X32187500Y-38319661D01*
X32192537Y-38287861D01*
X32204869Y-38210002D01*
X32204869Y-38209997D01*
X32187501Y-38100345D01*
X32187500Y-38100342D01*
X32187500Y-38100339D01*
X32137095Y-38001413D01*
X32058587Y-37922905D01*
X31959661Y-37872500D01*
X31959658Y-37872499D01*
X31959657Y-37872499D01*
X31959654Y-37872498D01*
X31850003Y-37855131D01*
X31849997Y-37855131D01*
X31740345Y-37872498D01*
X31740342Y-37872499D01*
X31740340Y-37872499D01*
X31740339Y-37872500D01*
X31699827Y-37893142D01*
X31641412Y-37922905D01*
X31562905Y-38001412D01*
X31540510Y-38045365D01*
X31512500Y-38100339D01*
X31512499Y-38100340D01*
X31512499Y-38100342D01*
X31512498Y-38100345D01*
X31495131Y-38209997D01*
X31495131Y-38210002D01*
X26081041Y-38210002D01*
X26055236Y-38199313D01*
X26055238Y-38199313D01*
X25942721Y-38184500D01*
X25942720Y-38184500D01*
X25867280Y-38184500D01*
X25867278Y-38184500D01*
X25754762Y-38199313D01*
X25614767Y-38257302D01*
X25494549Y-38349549D01*
X25402302Y-38469767D01*
X25344313Y-38609762D01*
X25324534Y-38760000D01*
X20000500Y-38760000D01*
X20000500Y-37700002D01*
X33275131Y-37700002D01*
X33292498Y-37809654D01*
X33292499Y-37809657D01*
X33292500Y-37809661D01*
X33342905Y-37908587D01*
X33421413Y-37987095D01*
X33520339Y-38037500D01*
X33520344Y-38037500D01*
X33520345Y-38037501D01*
X33629997Y-38054869D01*
X33630000Y-38054869D01*
X33630003Y-38054869D01*
X33719237Y-38040734D01*
X33739661Y-38037500D01*
X33832882Y-37990002D01*
X37145131Y-37990002D01*
X37162498Y-38099654D01*
X37162499Y-38099657D01*
X37162500Y-38099661D01*
X37212905Y-38198587D01*
X37291413Y-38277095D01*
X37390339Y-38327500D01*
X37390344Y-38327500D01*
X37390345Y-38327501D01*
X37499997Y-38344869D01*
X37500000Y-38344869D01*
X37500003Y-38344869D01*
X37601491Y-38328794D01*
X37609661Y-38327500D01*
X37708587Y-38277095D01*
X37787095Y-38198587D01*
X37833818Y-38106885D01*
X37840508Y-38101173D01*
X37849283Y-38101863D01*
X37854999Y-38108556D01*
X37855420Y-38110310D01*
X37855760Y-38112457D01*
X37855761Y-38112460D01*
X37855762Y-38112464D01*
X37906167Y-38211390D01*
X37984675Y-38289898D01*
X38083601Y-38340303D01*
X38083606Y-38340303D01*
X38083607Y-38340304D01*
X38193259Y-38357672D01*
X38193262Y-38357672D01*
X38193265Y-38357672D01*
X38282499Y-38343537D01*
X38302923Y-38340303D01*
X38401849Y-38289898D01*
X38480357Y-38211390D01*
X38493929Y-38184751D01*
X38500622Y-38179036D01*
X38509397Y-38179726D01*
X38512308Y-38181841D01*
X38589487Y-38259020D01*
X38688413Y-38309425D01*
X38688418Y-38309425D01*
X38688419Y-38309426D01*
X38798071Y-38326794D01*
X38798074Y-38326794D01*
X38798077Y-38326794D01*
X38887311Y-38312659D01*
X38907735Y-38309425D01*
X39006661Y-38259020D01*
X39085169Y-38180512D01*
X39135574Y-38081586D01*
X39142557Y-38037500D01*
X39152943Y-37971927D01*
X39152943Y-37971922D01*
X39135575Y-37862270D01*
X39135574Y-37862267D01*
X39135574Y-37862264D01*
X39085169Y-37763338D01*
X39006661Y-37684830D01*
X38907735Y-37634425D01*
X38907732Y-37634424D01*
X38907731Y-37634424D01*
X38907728Y-37634423D01*
X38798077Y-37617056D01*
X38798071Y-37617056D01*
X38688419Y-37634423D01*
X38688416Y-37634424D01*
X38688414Y-37634424D01*
X38688413Y-37634425D01*
X38663704Y-37647015D01*
X38589486Y-37684830D01*
X38510976Y-37763340D01*
X38497405Y-37789975D01*
X38490712Y-37795691D01*
X38481938Y-37795000D01*
X38479027Y-37792886D01*
X38401849Y-37715708D01*
X38383820Y-37706522D01*
X38302923Y-37665303D01*
X38302920Y-37665302D01*
X38302919Y-37665302D01*
X38302916Y-37665301D01*
X38193265Y-37647934D01*
X38193259Y-37647934D01*
X38083607Y-37665301D01*
X38083604Y-37665302D01*
X38083602Y-37665302D01*
X38083601Y-37665303D01*
X38045277Y-37684830D01*
X37984674Y-37715708D01*
X37906167Y-37794215D01*
X37871492Y-37862270D01*
X37861831Y-37881232D01*
X37859446Y-37885912D01*
X37852753Y-37891628D01*
X37843978Y-37890938D01*
X37838262Y-37884245D01*
X37837841Y-37882495D01*
X37837500Y-37880339D01*
X37787095Y-37781413D01*
X37708587Y-37702905D01*
X37609661Y-37652500D01*
X37609658Y-37652499D01*
X37609657Y-37652499D01*
X37609654Y-37652498D01*
X37500003Y-37635131D01*
X37499997Y-37635131D01*
X37390345Y-37652498D01*
X37390342Y-37652499D01*
X37390340Y-37652499D01*
X37390339Y-37652500D01*
X37365214Y-37665302D01*
X37291412Y-37702905D01*
X37212905Y-37781412D01*
X37198514Y-37809657D01*
X37162500Y-37880339D01*
X37162499Y-37880340D01*
X37162499Y-37880342D01*
X37162498Y-37880345D01*
X37145131Y-37989997D01*
X37145131Y-37990002D01*
X33832882Y-37990002D01*
X33838587Y-37987095D01*
X33917095Y-37908587D01*
X33967500Y-37809661D01*
X33984869Y-37700000D01*
X33982466Y-37684830D01*
X33967501Y-37590345D01*
X33967500Y-37590342D01*
X33967500Y-37590339D01*
X33940506Y-37537360D01*
X41717027Y-37537360D01*
X41734394Y-37647012D01*
X41734395Y-37647015D01*
X41734396Y-37647019D01*
X41784801Y-37745945D01*
X41863309Y-37824453D01*
X41962235Y-37874858D01*
X41962240Y-37874858D01*
X41962241Y-37874859D01*
X42071893Y-37892227D01*
X42071896Y-37892227D01*
X42071899Y-37892227D01*
X42161133Y-37878092D01*
X42181557Y-37874858D01*
X42280483Y-37824453D01*
X42358991Y-37745945D01*
X42409396Y-37647019D01*
X42417339Y-37596870D01*
X42426765Y-37537360D01*
X42426765Y-37537355D01*
X42409397Y-37427703D01*
X42409396Y-37427700D01*
X42409396Y-37427697D01*
X42358991Y-37328771D01*
X42280483Y-37250263D01*
X42181557Y-37199858D01*
X42181554Y-37199857D01*
X42181553Y-37199857D01*
X42181550Y-37199856D01*
X42071899Y-37182489D01*
X42071893Y-37182489D01*
X41962241Y-37199856D01*
X41962238Y-37199857D01*
X41962236Y-37199857D01*
X41962235Y-37199858D01*
X41911865Y-37225522D01*
X41863308Y-37250263D01*
X41784801Y-37328770D01*
X41770370Y-37357094D01*
X41734396Y-37427697D01*
X41734395Y-37427698D01*
X41734395Y-37427700D01*
X41734394Y-37427703D01*
X41717027Y-37537355D01*
X41717027Y-37537360D01*
X33940506Y-37537360D01*
X33917095Y-37491413D01*
X33838587Y-37412905D01*
X33739661Y-37362500D01*
X33739658Y-37362499D01*
X33739657Y-37362499D01*
X33739654Y-37362498D01*
X33630003Y-37345131D01*
X33629997Y-37345131D01*
X33520345Y-37362498D01*
X33520342Y-37362499D01*
X33520340Y-37362499D01*
X33520339Y-37362500D01*
X33469969Y-37388164D01*
X33421412Y-37412905D01*
X33342905Y-37491412D01*
X33339580Y-37497938D01*
X33292500Y-37590339D01*
X33292499Y-37590340D01*
X33292499Y-37590342D01*
X33292498Y-37590345D01*
X33275131Y-37699997D01*
X33275131Y-37700002D01*
X20000500Y-37700002D01*
X20000500Y-37070002D01*
X32615131Y-37070002D01*
X32632498Y-37179654D01*
X32632499Y-37179657D01*
X32632500Y-37179661D01*
X32682905Y-37278587D01*
X32761413Y-37357095D01*
X32860339Y-37407500D01*
X32860344Y-37407500D01*
X32860345Y-37407501D01*
X32969997Y-37424869D01*
X32970000Y-37424869D01*
X32970003Y-37424869D01*
X33059237Y-37410734D01*
X33079661Y-37407500D01*
X33178587Y-37357095D01*
X33257095Y-37278587D01*
X33307500Y-37179661D01*
X33324869Y-37070000D01*
X33322472Y-37054869D01*
X33307501Y-36960345D01*
X33307500Y-36960342D01*
X33307500Y-36960339D01*
X33257095Y-36861413D01*
X33178587Y-36782905D01*
X33079661Y-36732500D01*
X33079658Y-36732499D01*
X33079657Y-36732499D01*
X33079654Y-36732498D01*
X32970003Y-36715131D01*
X32969997Y-36715131D01*
X32860345Y-36732498D01*
X32860342Y-36732499D01*
X32860340Y-36732499D01*
X32860339Y-36732500D01*
X32809969Y-36758164D01*
X32761412Y-36782905D01*
X32682905Y-36861412D01*
X32663244Y-36900000D01*
X32632500Y-36960339D01*
X32632499Y-36960340D01*
X32632499Y-36960342D01*
X32632498Y-36960345D01*
X32615131Y-37069997D01*
X32615131Y-37070002D01*
X20000500Y-37070002D01*
X20000500Y-36700000D01*
X42215131Y-36700000D01*
X42232498Y-36809654D01*
X42232499Y-36809657D01*
X42232500Y-36809661D01*
X42282905Y-36908587D01*
X42361413Y-36987095D01*
X42460339Y-37037500D01*
X42460344Y-37037500D01*
X42460345Y-37037501D01*
X42569997Y-37054869D01*
X42570000Y-37054869D01*
X42570003Y-37054869D01*
X42659237Y-37040734D01*
X42679661Y-37037500D01*
X42778587Y-36987095D01*
X42857095Y-36908587D01*
X42907500Y-36809661D01*
X42924869Y-36700000D01*
X42919383Y-36665365D01*
X42907501Y-36590345D01*
X42907500Y-36590342D01*
X42907500Y-36590339D01*
X42857095Y-36491413D01*
X42778587Y-36412905D01*
X42679661Y-36362500D01*
X42679658Y-36362499D01*
X42679657Y-36362499D01*
X42679654Y-36362498D01*
X42570003Y-36345131D01*
X42569997Y-36345131D01*
X42460345Y-36362498D01*
X42460342Y-36362499D01*
X42460340Y-36362499D01*
X42460339Y-36362500D01*
X42436523Y-36374635D01*
X42361412Y-36412905D01*
X42282905Y-36491412D01*
X42265608Y-36525361D01*
X42232500Y-36590339D01*
X42232499Y-36590340D01*
X42232499Y-36590342D01*
X42232498Y-36590345D01*
X42215131Y-36699997D01*
X42215131Y-36700000D01*
X20000500Y-36700000D01*
X20000500Y-34529413D01*
X30925720Y-34529413D01*
X30943087Y-34639065D01*
X30943088Y-34639068D01*
X30943089Y-34639072D01*
X30993494Y-34737998D01*
X31072002Y-34816506D01*
X31170928Y-34866911D01*
X31170933Y-34866911D01*
X31170934Y-34866912D01*
X31280586Y-34884280D01*
X31280589Y-34884280D01*
X31280592Y-34884280D01*
X31369826Y-34870145D01*
X31390250Y-34866911D01*
X31489176Y-34816506D01*
X31567684Y-34737998D01*
X31618089Y-34639072D01*
X31624371Y-34599413D01*
X32315720Y-34599413D01*
X32333087Y-34709065D01*
X32333088Y-34709068D01*
X32333089Y-34709072D01*
X32383494Y-34807998D01*
X32462002Y-34886506D01*
X32560928Y-34936911D01*
X32560933Y-34936911D01*
X32560934Y-34936912D01*
X32670586Y-34954280D01*
X32670589Y-34954280D01*
X32670592Y-34954280D01*
X32759826Y-34940145D01*
X32780250Y-34936911D01*
X32879176Y-34886506D01*
X32957684Y-34807998D01*
X33008089Y-34709072D01*
X33020795Y-34628850D01*
X33025458Y-34599413D01*
X33025458Y-34599408D01*
X33008090Y-34489756D01*
X33008089Y-34489753D01*
X33008089Y-34489750D01*
X32957684Y-34390824D01*
X32879176Y-34312316D01*
X32780250Y-34261911D01*
X32780247Y-34261910D01*
X32780246Y-34261910D01*
X32780243Y-34261909D01*
X32670592Y-34244542D01*
X32670586Y-34244542D01*
X32560934Y-34261909D01*
X32560931Y-34261910D01*
X32560929Y-34261910D01*
X32560928Y-34261911D01*
X32510558Y-34287575D01*
X32462001Y-34312316D01*
X32383494Y-34390823D01*
X32361052Y-34434869D01*
X32333089Y-34489750D01*
X32333088Y-34489751D01*
X32333088Y-34489753D01*
X32333087Y-34489756D01*
X32315720Y-34599408D01*
X32315720Y-34599413D01*
X31624371Y-34599413D01*
X31635458Y-34529411D01*
X31635279Y-34528282D01*
X31618090Y-34419756D01*
X31618089Y-34419753D01*
X31618089Y-34419750D01*
X31567684Y-34320824D01*
X31489176Y-34242316D01*
X31390250Y-34191911D01*
X31390247Y-34191910D01*
X31390246Y-34191910D01*
X31390243Y-34191909D01*
X31280592Y-34174542D01*
X31280586Y-34174542D01*
X31170934Y-34191909D01*
X31170931Y-34191910D01*
X31170929Y-34191910D01*
X31170928Y-34191911D01*
X31120558Y-34217575D01*
X31072001Y-34242316D01*
X30993494Y-34320823D01*
X30969918Y-34367094D01*
X30943089Y-34419750D01*
X30943088Y-34419751D01*
X30943088Y-34419753D01*
X30943087Y-34419756D01*
X30925720Y-34529408D01*
X30925720Y-34529413D01*
X20000500Y-34529413D01*
X20000500Y-34100000D01*
X37794318Y-34100000D01*
X37814956Y-34256762D01*
X37875464Y-34402841D01*
X37971718Y-34528282D01*
X38097159Y-34624536D01*
X38243238Y-34685044D01*
X38400000Y-34705682D01*
X38556762Y-34685044D01*
X38702841Y-34624536D01*
X38828282Y-34528282D01*
X38924536Y-34402841D01*
X38985044Y-34256762D01*
X39005682Y-34100000D01*
X39594318Y-34100000D01*
X39614956Y-34256762D01*
X39675464Y-34402841D01*
X39771718Y-34528282D01*
X39897159Y-34624536D01*
X40043238Y-34685044D01*
X40200000Y-34705682D01*
X40356762Y-34685044D01*
X40502841Y-34624536D01*
X40628282Y-34528282D01*
X40724536Y-34402841D01*
X40725712Y-34400002D01*
X41645131Y-34400002D01*
X41662498Y-34509654D01*
X41662499Y-34509657D01*
X41662500Y-34509661D01*
X41712905Y-34608587D01*
X41791413Y-34687095D01*
X41890339Y-34737500D01*
X41890344Y-34737500D01*
X41890345Y-34737501D01*
X41999997Y-34754869D01*
X42000000Y-34754869D01*
X42000003Y-34754869D01*
X42089237Y-34740734D01*
X42109661Y-34737500D01*
X42208587Y-34687095D01*
X42287095Y-34608587D01*
X42337500Y-34509661D01*
X42349346Y-34434869D01*
X42354869Y-34400002D01*
X42354869Y-34399997D01*
X42337501Y-34290345D01*
X42337500Y-34290342D01*
X42337500Y-34290339D01*
X42294129Y-34205220D01*
X42293440Y-34196446D01*
X42294130Y-34194779D01*
X42337500Y-34109661D01*
X42344595Y-34064869D01*
X42354869Y-34000002D01*
X42354869Y-33999997D01*
X42337501Y-33890345D01*
X42337500Y-33890342D01*
X42337500Y-33890339D01*
X42287095Y-33791413D01*
X42208587Y-33712905D01*
X42202890Y-33710002D01*
X45655131Y-33710002D01*
X45672498Y-33819654D01*
X45672499Y-33819657D01*
X45672500Y-33819661D01*
X45722905Y-33918587D01*
X45801413Y-33997095D01*
X45900339Y-34047500D01*
X45900344Y-34047500D01*
X45900345Y-34047501D01*
X46009997Y-34064869D01*
X46010000Y-34064869D01*
X46010003Y-34064869D01*
X46104660Y-34049876D01*
X46113218Y-34051930D01*
X46117817Y-34059435D01*
X46117818Y-34063032D01*
X46115355Y-34078590D01*
X46115131Y-34080002D01*
X46132498Y-34189654D01*
X46132499Y-34189657D01*
X46132500Y-34189661D01*
X46182905Y-34288587D01*
X46261413Y-34367095D01*
X46360339Y-34417500D01*
X46360344Y-34417500D01*
X46360345Y-34417501D01*
X46469997Y-34434869D01*
X46470000Y-34434869D01*
X46470002Y-34434869D01*
X46519881Y-34426967D01*
X46552196Y-34421849D01*
X46560754Y-34423903D01*
X46565353Y-34431408D01*
X46582498Y-34539654D01*
X46582499Y-34539657D01*
X46582500Y-34539661D01*
X46632905Y-34638587D01*
X46711413Y-34717095D01*
X46810339Y-34767500D01*
X46810344Y-34767500D01*
X46810345Y-34767501D01*
X46919997Y-34784869D01*
X46920000Y-34784869D01*
X46920003Y-34784869D01*
X47011655Y-34770352D01*
X47029661Y-34767500D01*
X47128587Y-34717095D01*
X47207095Y-34638587D01*
X47257500Y-34539661D01*
X47274869Y-34430000D01*
X47273903Y-34423903D01*
X47257501Y-34320345D01*
X47257500Y-34320342D01*
X47257500Y-34320339D01*
X47207095Y-34221413D01*
X47128587Y-34142905D01*
X47029661Y-34092500D01*
X47029658Y-34092499D01*
X47029657Y-34092499D01*
X47029654Y-34092498D01*
X46920003Y-34075131D01*
X46919997Y-34075131D01*
X46837803Y-34088149D01*
X46829244Y-34086095D01*
X46824646Y-34078590D01*
X46807501Y-33970345D01*
X46807500Y-33970342D01*
X46807500Y-33970339D01*
X46757095Y-33871413D01*
X46678587Y-33792905D01*
X46579661Y-33742500D01*
X46579658Y-33742499D01*
X46579657Y-33742499D01*
X46579654Y-33742498D01*
X46470003Y-33725131D01*
X46469997Y-33725131D01*
X46375338Y-33740123D01*
X46366779Y-33738069D01*
X46362181Y-33730564D01*
X46362181Y-33726970D01*
X46364869Y-33710000D01*
X46363159Y-33699206D01*
X46347501Y-33600345D01*
X46347500Y-33600342D01*
X46347500Y-33600339D01*
X46297095Y-33501413D01*
X46218587Y-33422905D01*
X46119661Y-33372500D01*
X46119658Y-33372499D01*
X46119657Y-33372499D01*
X46119654Y-33372498D01*
X46010003Y-33355131D01*
X46009997Y-33355131D01*
X45900345Y-33372498D01*
X45900342Y-33372499D01*
X45900340Y-33372499D01*
X45900339Y-33372500D01*
X45882250Y-33381717D01*
X45801412Y-33422905D01*
X45722905Y-33501412D01*
X45702894Y-33540687D01*
X45672500Y-33600339D01*
X45672499Y-33600340D01*
X45672499Y-33600342D01*
X45672498Y-33600345D01*
X45655131Y-33709997D01*
X45655131Y-33710002D01*
X42202890Y-33710002D01*
X42109661Y-33662500D01*
X42109658Y-33662499D01*
X42109657Y-33662499D01*
X42109654Y-33662498D01*
X42000003Y-33645131D01*
X41999997Y-33645131D01*
X41890345Y-33662498D01*
X41890342Y-33662499D01*
X41890340Y-33662499D01*
X41890339Y-33662500D01*
X41845042Y-33685580D01*
X41791412Y-33712905D01*
X41712905Y-33791412D01*
X41698514Y-33819657D01*
X41662500Y-33890339D01*
X41662499Y-33890340D01*
X41662499Y-33890342D01*
X41662498Y-33890345D01*
X41645131Y-33999997D01*
X41645131Y-34000002D01*
X41662498Y-34109654D01*
X41662499Y-34109657D01*
X41662500Y-34109661D01*
X41686643Y-34157045D01*
X41705868Y-34194779D01*
X41706558Y-34203554D01*
X41705868Y-34205221D01*
X41686968Y-34242316D01*
X41662500Y-34290339D01*
X41662499Y-34290340D01*
X41662499Y-34290342D01*
X41662498Y-34290345D01*
X41645131Y-34399997D01*
X41645131Y-34400002D01*
X40725712Y-34400002D01*
X40785044Y-34256762D01*
X40805682Y-34100000D01*
X40785044Y-33943238D01*
X40724536Y-33797159D01*
X40628282Y-33671718D01*
X40502841Y-33575464D01*
X40356762Y-33514956D01*
X40200000Y-33494318D01*
X40043238Y-33514956D01*
X39897159Y-33575464D01*
X39771718Y-33671718D01*
X39675464Y-33797159D01*
X39614956Y-33943238D01*
X39594318Y-34100000D01*
X39005682Y-34100000D01*
X38985044Y-33943238D01*
X38924536Y-33797159D01*
X38828282Y-33671718D01*
X38702841Y-33575464D01*
X38556762Y-33514956D01*
X38400000Y-33494318D01*
X38243238Y-33514956D01*
X38097159Y-33575464D01*
X37971718Y-33671718D01*
X37875464Y-33797159D01*
X37814956Y-33943238D01*
X37794318Y-34100000D01*
X20000500Y-34100000D01*
X20000500Y-32980000D01*
X25324534Y-32980000D01*
X25344313Y-33130237D01*
X25373307Y-33200234D01*
X25402302Y-33270233D01*
X25494549Y-33390451D01*
X25614767Y-33482698D01*
X25754762Y-33540686D01*
X25754761Y-33540686D01*
X25754764Y-33540687D01*
X25867280Y-33555500D01*
X25867284Y-33555500D01*
X25942716Y-33555500D01*
X25942720Y-33555500D01*
X26055236Y-33540687D01*
X26195233Y-33482698D01*
X26315451Y-33390451D01*
X26407698Y-33270233D01*
X26465687Y-33130236D01*
X26485466Y-32980000D01*
X26471963Y-32877440D01*
X26474241Y-32868942D01*
X26481864Y-32864541D01*
X26490366Y-32866819D01*
X26493611Y-32870721D01*
X26512905Y-32908587D01*
X26591413Y-32987095D01*
X26690339Y-33037500D01*
X26690344Y-33037500D01*
X26690345Y-33037501D01*
X26799997Y-33054869D01*
X26800000Y-33054869D01*
X26800003Y-33054869D01*
X26889237Y-33040734D01*
X26909661Y-33037500D01*
X27008587Y-32987095D01*
X27041868Y-32953812D01*
X27050000Y-32950445D01*
X27058131Y-32953812D01*
X27091413Y-32987095D01*
X27190339Y-33037500D01*
X27190344Y-33037500D01*
X27190345Y-33037501D01*
X27299997Y-33054869D01*
X27300000Y-33054869D01*
X27300003Y-33054869D01*
X27389237Y-33040734D01*
X27409661Y-33037500D01*
X27508587Y-32987095D01*
X27587095Y-32908587D01*
X27637500Y-32809661D01*
X27654617Y-32701591D01*
X27654869Y-32700002D01*
X27654869Y-32699997D01*
X27637501Y-32590345D01*
X27637500Y-32590342D01*
X27637500Y-32590339D01*
X27591470Y-32500000D01*
X27694318Y-32500000D01*
X27714956Y-32656762D01*
X27775464Y-32802841D01*
X27871718Y-32928282D01*
X27997159Y-33024536D01*
X28143238Y-33085044D01*
X28300000Y-33105682D01*
X28456762Y-33085044D01*
X28602841Y-33024536D01*
X28728282Y-32928282D01*
X28819041Y-32810002D01*
X32145131Y-32810002D01*
X32162498Y-32919654D01*
X32162499Y-32919657D01*
X32162500Y-32919661D01*
X32212905Y-33018587D01*
X32291413Y-33097095D01*
X32390339Y-33147500D01*
X32390344Y-33147500D01*
X32390345Y-33147501D01*
X32499997Y-33164869D01*
X32500000Y-33164869D01*
X32500003Y-33164869D01*
X32589237Y-33150734D01*
X32609661Y-33147500D01*
X32708587Y-33097095D01*
X32787095Y-33018587D01*
X32837500Y-32919661D01*
X32851739Y-32829762D01*
X32854869Y-32810002D01*
X32854869Y-32809997D01*
X32837501Y-32700345D01*
X32837500Y-32700342D01*
X32837500Y-32700339D01*
X32787095Y-32601413D01*
X32708587Y-32522905D01*
X32609661Y-32472500D01*
X32609658Y-32472499D01*
X32609657Y-32472499D01*
X32609654Y-32472498D01*
X32500003Y-32455131D01*
X32499997Y-32455131D01*
X32390345Y-32472498D01*
X32390342Y-32472499D01*
X32390340Y-32472499D01*
X32390339Y-32472500D01*
X32353222Y-32491412D01*
X32291412Y-32522905D01*
X32212905Y-32601412D01*
X32188164Y-32649969D01*
X32162500Y-32700339D01*
X32162499Y-32700340D01*
X32162499Y-32700342D01*
X32162498Y-32700345D01*
X32145131Y-32809997D01*
X32145131Y-32810002D01*
X28819041Y-32810002D01*
X28824536Y-32802841D01*
X28885044Y-32656762D01*
X28905682Y-32500000D01*
X28885044Y-32343238D01*
X28825713Y-32200000D01*
X37794318Y-32200000D01*
X37814956Y-32356762D01*
X37875464Y-32502841D01*
X37971718Y-32628282D01*
X38097159Y-32724536D01*
X38243238Y-32785044D01*
X38400000Y-32805682D01*
X38556762Y-32785044D01*
X38702841Y-32724536D01*
X38828282Y-32628282D01*
X38924536Y-32502841D01*
X38985044Y-32356762D01*
X39005682Y-32200000D01*
X38992517Y-32100000D01*
X39794318Y-32100000D01*
X39814956Y-32256762D01*
X39875464Y-32402841D01*
X39971718Y-32528282D01*
X40097159Y-32624536D01*
X40243238Y-32685044D01*
X40400000Y-32705682D01*
X40556762Y-32685044D01*
X40702841Y-32624536D01*
X40828282Y-32528282D01*
X40924536Y-32402841D01*
X40985044Y-32256762D01*
X41005682Y-32100000D01*
X40985044Y-31943238D01*
X40924536Y-31797159D01*
X40828282Y-31671718D01*
X40702841Y-31575464D01*
X40556762Y-31514956D01*
X40400000Y-31494318D01*
X40243238Y-31514956D01*
X40097159Y-31575464D01*
X39971718Y-31671718D01*
X39875464Y-31797159D01*
X39814956Y-31943238D01*
X39794318Y-32100000D01*
X38992517Y-32100000D01*
X38985044Y-32043238D01*
X38924536Y-31897159D01*
X38828282Y-31771718D01*
X38702841Y-31675464D01*
X38556762Y-31614956D01*
X38400000Y-31594318D01*
X38243238Y-31614956D01*
X38097159Y-31675464D01*
X37971718Y-31771718D01*
X37875464Y-31897159D01*
X37814956Y-32043238D01*
X37794318Y-32200000D01*
X28825713Y-32200000D01*
X28824536Y-32197159D01*
X28728282Y-32071718D01*
X28602841Y-31975464D01*
X28456762Y-31914956D01*
X28300000Y-31894318D01*
X28143238Y-31914956D01*
X27997159Y-31975464D01*
X27871718Y-32071718D01*
X27775464Y-32197159D01*
X27714956Y-32343238D01*
X27694318Y-32500000D01*
X27591470Y-32500000D01*
X27587095Y-32491413D01*
X27508587Y-32412905D01*
X27409661Y-32362500D01*
X27409658Y-32362499D01*
X27409657Y-32362499D01*
X27409654Y-32362498D01*
X27300003Y-32345131D01*
X27299997Y-32345131D01*
X27190345Y-32362498D01*
X27190342Y-32362499D01*
X27190340Y-32362499D01*
X27190339Y-32362500D01*
X27146508Y-32384833D01*
X27091412Y-32412905D01*
X27058132Y-32446185D01*
X27050000Y-32449553D01*
X27041868Y-32446185D01*
X27008587Y-32412905D01*
X26988833Y-32402840D01*
X26909661Y-32362500D01*
X26909658Y-32362499D01*
X26909657Y-32362499D01*
X26909654Y-32362498D01*
X26800003Y-32345131D01*
X26799997Y-32345131D01*
X26690345Y-32362498D01*
X26690342Y-32362499D01*
X26690340Y-32362499D01*
X26690339Y-32362500D01*
X26646508Y-32384833D01*
X26591412Y-32412905D01*
X26512905Y-32491412D01*
X26507082Y-32502841D01*
X26462500Y-32590339D01*
X26462499Y-32590340D01*
X26462499Y-32590342D01*
X26462498Y-32590345D01*
X26445131Y-32699997D01*
X26445131Y-32700002D01*
X26450481Y-32733785D01*
X26448427Y-32742344D01*
X26440922Y-32746942D01*
X26432363Y-32744888D01*
X26428500Y-32739987D01*
X26407698Y-32689767D01*
X26315451Y-32569549D01*
X26195233Y-32477302D01*
X26055236Y-32419313D01*
X26055238Y-32419313D01*
X25942721Y-32404500D01*
X25942720Y-32404500D01*
X25867280Y-32404500D01*
X25867278Y-32404500D01*
X25754762Y-32419313D01*
X25614767Y-32477302D01*
X25494549Y-32569549D01*
X25402302Y-32689767D01*
X25344313Y-32829762D01*
X25324534Y-32980000D01*
X20000500Y-32980000D01*
X20000500Y-31635056D01*
X21124500Y-31635056D01*
X21165210Y-31800225D01*
X21217577Y-31900000D01*
X21244265Y-31950850D01*
X21244268Y-31950854D01*
X21357066Y-32078178D01*
X21357068Y-32078180D01*
X21357071Y-32078183D01*
X21497070Y-32174818D01*
X21656128Y-32235140D01*
X21782628Y-32250500D01*
X21782629Y-32250500D01*
X22667371Y-32250500D01*
X22667372Y-32250500D01*
X22793872Y-32235140D01*
X22952930Y-32174818D01*
X23092929Y-32078183D01*
X23205734Y-31950852D01*
X23284790Y-31800225D01*
X23325500Y-31635056D01*
X25154500Y-31635056D01*
X25195210Y-31800225D01*
X25247577Y-31900000D01*
X25274265Y-31950850D01*
X25274268Y-31950854D01*
X25387066Y-32078178D01*
X25387068Y-32078180D01*
X25387071Y-32078183D01*
X25527070Y-32174818D01*
X25686128Y-32235140D01*
X25812628Y-32250500D01*
X25812629Y-32250500D01*
X26997371Y-32250500D01*
X26997372Y-32250500D01*
X27123872Y-32235140D01*
X27282930Y-32174818D01*
X27422929Y-32078183D01*
X27535734Y-31950852D01*
X27614790Y-31800225D01*
X27655500Y-31635056D01*
X27655500Y-31464944D01*
X27614790Y-31299775D01*
X27535734Y-31149148D01*
X27456756Y-31060000D01*
X27422933Y-31021821D01*
X27422931Y-31021819D01*
X27422929Y-31021817D01*
X27282930Y-30925182D01*
X27216535Y-30900002D01*
X32135131Y-30900002D01*
X32152498Y-31009654D01*
X32152499Y-31009657D01*
X32152500Y-31009661D01*
X32202905Y-31108587D01*
X32281413Y-31187095D01*
X32380339Y-31237500D01*
X32380344Y-31237500D01*
X32380345Y-31237501D01*
X32489997Y-31254869D01*
X32490000Y-31254869D01*
X32490003Y-31254869D01*
X32579237Y-31240734D01*
X32599661Y-31237500D01*
X32698587Y-31187095D01*
X32777095Y-31108587D01*
X32801850Y-31060002D01*
X43695131Y-31060002D01*
X43712498Y-31169654D01*
X43712499Y-31169657D01*
X43712500Y-31169661D01*
X43762905Y-31268587D01*
X43841413Y-31347095D01*
X43940339Y-31397500D01*
X43940344Y-31397500D01*
X43940345Y-31397501D01*
X44049997Y-31414869D01*
X44050000Y-31414869D01*
X44050003Y-31414869D01*
X44139237Y-31400734D01*
X44159661Y-31397500D01*
X44258587Y-31347095D01*
X44337095Y-31268587D01*
X44387500Y-31169661D01*
X44391938Y-31141637D01*
X44404869Y-31060002D01*
X44404869Y-31059997D01*
X44387501Y-30950345D01*
X44387500Y-30950342D01*
X44387500Y-30950339D01*
X44337095Y-30851413D01*
X44258587Y-30772905D01*
X44213637Y-30750002D01*
X44695131Y-30750002D01*
X44712498Y-30859654D01*
X44712499Y-30859657D01*
X44712500Y-30859661D01*
X44762905Y-30958587D01*
X44841413Y-31037095D01*
X44940339Y-31087500D01*
X44940344Y-31087500D01*
X44940345Y-31087501D01*
X45049997Y-31104869D01*
X45050000Y-31104869D01*
X45050003Y-31104869D01*
X45139237Y-31090734D01*
X45159661Y-31087500D01*
X45258587Y-31037095D01*
X45337095Y-30958587D01*
X45387500Y-30859661D01*
X45404869Y-30750002D01*
X45695131Y-30750002D01*
X45712498Y-30859654D01*
X45712499Y-30859657D01*
X45712500Y-30859661D01*
X45762905Y-30958587D01*
X45841413Y-31037095D01*
X45940339Y-31087500D01*
X45940344Y-31087500D01*
X45940345Y-31087501D01*
X46049997Y-31104869D01*
X46050000Y-31104869D01*
X46050003Y-31104869D01*
X46139237Y-31090734D01*
X46159661Y-31087500D01*
X46258587Y-31037095D01*
X46337095Y-30958587D01*
X46387500Y-30859661D01*
X46404869Y-30750000D01*
X46400513Y-30722500D01*
X46387501Y-30640345D01*
X46387500Y-30640342D01*
X46387500Y-30640339D01*
X46337095Y-30541413D01*
X46300684Y-30505002D01*
X47920131Y-30505002D01*
X47937498Y-30614654D01*
X47937499Y-30614657D01*
X47937500Y-30614661D01*
X47987905Y-30713587D01*
X48066413Y-30792095D01*
X48165339Y-30842500D01*
X48165344Y-30842500D01*
X48165345Y-30842501D01*
X48274997Y-30859869D01*
X48275000Y-30859869D01*
X48275003Y-30859869D01*
X48364237Y-30845734D01*
X48384661Y-30842500D01*
X48483587Y-30792095D01*
X48562095Y-30713587D01*
X48612500Y-30614661D01*
X48629869Y-30505000D01*
X48612500Y-30395339D01*
X48562095Y-30296413D01*
X48483587Y-30217905D01*
X48384661Y-30167500D01*
X48384658Y-30167499D01*
X48384657Y-30167499D01*
X48384654Y-30167498D01*
X48275003Y-30150131D01*
X48274997Y-30150131D01*
X48165345Y-30167498D01*
X48165342Y-30167499D01*
X48165340Y-30167499D01*
X48165339Y-30167500D01*
X48114969Y-30193164D01*
X48066412Y-30217905D01*
X47987905Y-30296412D01*
X47963164Y-30344969D01*
X47937500Y-30395339D01*
X47937499Y-30395340D01*
X47937499Y-30395342D01*
X47937498Y-30395345D01*
X47920131Y-30504997D01*
X47920131Y-30505002D01*
X46300684Y-30505002D01*
X46258587Y-30462905D01*
X46159661Y-30412500D01*
X46159658Y-30412499D01*
X46159657Y-30412499D01*
X46159654Y-30412498D01*
X46050003Y-30395131D01*
X46049997Y-30395131D01*
X45940345Y-30412498D01*
X45940342Y-30412499D01*
X45940340Y-30412499D01*
X45940339Y-30412500D01*
X45889969Y-30438164D01*
X45841412Y-30462905D01*
X45762905Y-30541412D01*
X45738164Y-30589969D01*
X45712500Y-30640339D01*
X45712499Y-30640340D01*
X45712499Y-30640342D01*
X45712498Y-30640345D01*
X45695131Y-30749997D01*
X45695131Y-30750002D01*
X45404869Y-30750002D01*
X45404869Y-30750000D01*
X45400513Y-30722500D01*
X45387501Y-30640345D01*
X45387500Y-30640342D01*
X45387500Y-30640339D01*
X45337095Y-30541413D01*
X45258587Y-30462905D01*
X45159661Y-30412500D01*
X45159658Y-30412499D01*
X45159657Y-30412499D01*
X45159654Y-30412498D01*
X45050003Y-30395131D01*
X45049997Y-30395131D01*
X44940345Y-30412498D01*
X44940342Y-30412499D01*
X44940340Y-30412499D01*
X44940339Y-30412500D01*
X44889969Y-30438164D01*
X44841412Y-30462905D01*
X44762905Y-30541412D01*
X44738164Y-30589969D01*
X44712500Y-30640339D01*
X44712499Y-30640340D01*
X44712499Y-30640342D01*
X44712498Y-30640345D01*
X44695131Y-30749997D01*
X44695131Y-30750002D01*
X44213637Y-30750002D01*
X44159661Y-30722500D01*
X44159658Y-30722499D01*
X44159657Y-30722499D01*
X44159654Y-30722498D01*
X44050003Y-30705131D01*
X44049997Y-30705131D01*
X43940345Y-30722498D01*
X43940342Y-30722499D01*
X43940340Y-30722499D01*
X43940339Y-30722500D01*
X43889969Y-30748164D01*
X43841412Y-30772905D01*
X43762905Y-30851412D01*
X43758706Y-30859654D01*
X43712500Y-30950339D01*
X43712499Y-30950340D01*
X43712499Y-30950342D01*
X43712498Y-30950345D01*
X43695131Y-31059997D01*
X43695131Y-31060002D01*
X32801850Y-31060002D01*
X32827500Y-31009661D01*
X32836895Y-30950345D01*
X32844869Y-30900002D01*
X32844869Y-30899997D01*
X32827501Y-30790345D01*
X32827500Y-30790342D01*
X32827500Y-30790339D01*
X32777095Y-30691413D01*
X32698587Y-30612905D01*
X32599661Y-30562500D01*
X32599658Y-30562499D01*
X32599657Y-30562499D01*
X32599654Y-30562498D01*
X32490003Y-30545131D01*
X32489997Y-30545131D01*
X32380345Y-30562498D01*
X32380342Y-30562499D01*
X32380340Y-30562499D01*
X32380339Y-30562500D01*
X32329969Y-30588164D01*
X32281412Y-30612905D01*
X32202905Y-30691412D01*
X32187066Y-30722499D01*
X32152500Y-30790339D01*
X32152499Y-30790340D01*
X32152499Y-30790342D01*
X32152498Y-30790345D01*
X32135131Y-30899997D01*
X32135131Y-30900002D01*
X27216535Y-30900002D01*
X27123872Y-30864860D01*
X27123870Y-30864859D01*
X27123869Y-30864859D01*
X26997374Y-30849500D01*
X26997372Y-30849500D01*
X25812628Y-30849500D01*
X25812625Y-30849500D01*
X25686130Y-30864859D01*
X25686128Y-30864860D01*
X25527070Y-30925182D01*
X25387073Y-31021815D01*
X25387066Y-31021821D01*
X25274268Y-31149145D01*
X25274265Y-31149149D01*
X25254272Y-31187243D01*
X25195210Y-31299775D01*
X25154500Y-31464944D01*
X25154500Y-31635056D01*
X23325500Y-31635056D01*
X23325500Y-31464944D01*
X23284790Y-31299775D01*
X23205734Y-31149148D01*
X23126756Y-31060000D01*
X23092933Y-31021821D01*
X23092931Y-31021819D01*
X23092929Y-31021817D01*
X22952930Y-30925182D01*
X22793872Y-30864860D01*
X22793870Y-30864859D01*
X22793869Y-30864859D01*
X22667374Y-30849500D01*
X22667372Y-30849500D01*
X21782628Y-30849500D01*
X21782625Y-30849500D01*
X21656130Y-30864859D01*
X21656128Y-30864860D01*
X21497070Y-30925182D01*
X21357073Y-31021815D01*
X21357066Y-31021821D01*
X21244268Y-31149145D01*
X21244265Y-31149149D01*
X21224272Y-31187243D01*
X21165210Y-31299775D01*
X21124500Y-31464944D01*
X21124500Y-31635056D01*
X20000500Y-31635056D01*
X20000500Y-29775000D01*
X28594318Y-29775000D01*
X28614956Y-29931762D01*
X28675464Y-30077841D01*
X28771718Y-30203282D01*
X28897159Y-30299536D01*
X29043238Y-30360044D01*
X29200000Y-30380682D01*
X29356762Y-30360044D01*
X29502841Y-30299536D01*
X29628282Y-30203282D01*
X29724536Y-30077841D01*
X29785044Y-29931762D01*
X29789225Y-29900002D01*
X32135131Y-29900002D01*
X32152498Y-30009654D01*
X32152499Y-30009657D01*
X32152500Y-30009661D01*
X32202905Y-30108587D01*
X32281413Y-30187095D01*
X32380339Y-30237500D01*
X32380344Y-30237500D01*
X32380345Y-30237501D01*
X32489997Y-30254869D01*
X32490000Y-30254869D01*
X32490003Y-30254869D01*
X32579237Y-30240734D01*
X32599661Y-30237500D01*
X32698587Y-30187095D01*
X32777095Y-30108587D01*
X32827500Y-30009661D01*
X32839838Y-29931762D01*
X32844869Y-29900002D01*
X32844869Y-29899997D01*
X32827501Y-29790345D01*
X32827500Y-29790342D01*
X32827500Y-29790339D01*
X32777095Y-29691413D01*
X32698587Y-29612905D01*
X32599661Y-29562500D01*
X32599658Y-29562499D01*
X32599657Y-29562499D01*
X32599654Y-29562498D01*
X32490003Y-29545131D01*
X32489997Y-29545131D01*
X32380345Y-29562498D01*
X32380342Y-29562499D01*
X32380340Y-29562499D01*
X32380339Y-29562500D01*
X32329969Y-29588164D01*
X32281412Y-29612905D01*
X32202905Y-29691412D01*
X32178164Y-29739969D01*
X32152500Y-29790339D01*
X32152499Y-29790340D01*
X32152499Y-29790342D01*
X32152498Y-29790345D01*
X32135131Y-29899997D01*
X32135131Y-29900002D01*
X29789225Y-29900002D01*
X29805682Y-29775000D01*
X29785044Y-29618238D01*
X29724536Y-29472159D01*
X29628282Y-29346718D01*
X29502841Y-29250464D01*
X29429299Y-29220002D01*
X34215131Y-29220002D01*
X34232498Y-29329654D01*
X34232499Y-29329657D01*
X34232500Y-29329661D01*
X34282905Y-29428587D01*
X34361413Y-29507095D01*
X34460339Y-29557500D01*
X34460344Y-29557500D01*
X34460345Y-29557501D01*
X34569997Y-29574869D01*
X34570000Y-29574869D01*
X34570003Y-29574869D01*
X34659237Y-29560734D01*
X34679661Y-29557500D01*
X34778587Y-29507095D01*
X34857095Y-29428587D01*
X34907500Y-29329661D01*
X34924869Y-29220000D01*
X34921094Y-29196167D01*
X34907501Y-29110345D01*
X34907500Y-29110342D01*
X34907500Y-29110339D01*
X34857095Y-29011413D01*
X34778587Y-28932905D01*
X34679661Y-28882500D01*
X34679658Y-28882499D01*
X34679657Y-28882499D01*
X34679654Y-28882498D01*
X34570003Y-28865131D01*
X34569997Y-28865131D01*
X34460345Y-28882498D01*
X34460342Y-28882499D01*
X34460340Y-28882499D01*
X34460339Y-28882500D01*
X34409969Y-28908164D01*
X34361412Y-28932905D01*
X34282905Y-29011412D01*
X34258164Y-29059969D01*
X34232500Y-29110339D01*
X34232499Y-29110340D01*
X34232499Y-29110342D01*
X34232498Y-29110345D01*
X34215131Y-29219997D01*
X34215131Y-29220002D01*
X29429299Y-29220002D01*
X29356762Y-29189956D01*
X29200000Y-29169318D01*
X29043238Y-29189956D01*
X28897159Y-29250464D01*
X28771718Y-29346718D01*
X28675464Y-29472159D01*
X28614956Y-29618238D01*
X28594318Y-29775000D01*
X20000500Y-29775000D01*
X20000500Y-28100000D01*
X26894318Y-28100000D01*
X26914956Y-28256762D01*
X26975464Y-28402841D01*
X27071718Y-28528282D01*
X27197159Y-28624536D01*
X27343238Y-28685044D01*
X27500000Y-28705682D01*
X27656762Y-28685044D01*
X27802841Y-28624536D01*
X27928282Y-28528282D01*
X28024536Y-28402841D01*
X28085044Y-28256762D01*
X28105682Y-28100000D01*
X29494318Y-28100000D01*
X29514956Y-28256762D01*
X29575464Y-28402841D01*
X29671718Y-28528282D01*
X29797159Y-28624536D01*
X29943238Y-28685044D01*
X30100000Y-28705682D01*
X30256762Y-28685044D01*
X30402841Y-28624536D01*
X30528282Y-28528282D01*
X30624536Y-28402841D01*
X30685044Y-28256762D01*
X30696466Y-28170002D01*
X34175131Y-28170002D01*
X34192498Y-28279654D01*
X34192499Y-28279657D01*
X34192500Y-28279661D01*
X34242905Y-28378587D01*
X34321413Y-28457095D01*
X34420339Y-28507500D01*
X34420344Y-28507500D01*
X34420345Y-28507501D01*
X34529997Y-28524869D01*
X34530000Y-28524869D01*
X34530003Y-28524869D01*
X34619237Y-28510734D01*
X34639661Y-28507500D01*
X34738587Y-28457095D01*
X34817095Y-28378587D01*
X34867500Y-28279661D01*
X34884869Y-28170000D01*
X34880637Y-28143282D01*
X34867501Y-28060345D01*
X34867500Y-28060342D01*
X34867500Y-28060339D01*
X34817095Y-27961413D01*
X34738587Y-27882905D01*
X34639661Y-27832500D01*
X34639658Y-27832499D01*
X34639657Y-27832499D01*
X34639654Y-27832498D01*
X34530003Y-27815131D01*
X34529997Y-27815131D01*
X34420345Y-27832498D01*
X34420342Y-27832499D01*
X34420340Y-27832499D01*
X34420339Y-27832500D01*
X34376437Y-27854869D01*
X34321412Y-27882905D01*
X34242905Y-27961412D01*
X34218164Y-28009969D01*
X34192500Y-28060339D01*
X34192499Y-28060340D01*
X34192499Y-28060342D01*
X34192498Y-28060345D01*
X34175131Y-28169997D01*
X34175131Y-28170002D01*
X30696466Y-28170002D01*
X30705682Y-28100000D01*
X30685044Y-27943238D01*
X30624536Y-27797159D01*
X30528282Y-27671718D01*
X30402841Y-27575464D01*
X30256762Y-27514956D01*
X30100000Y-27494318D01*
X29943238Y-27514956D01*
X29797159Y-27575464D01*
X29671718Y-27671718D01*
X29575464Y-27797159D01*
X29514956Y-27943238D01*
X29494318Y-28100000D01*
X28105682Y-28100000D01*
X28085044Y-27943238D01*
X28024536Y-27797159D01*
X27928282Y-27671718D01*
X27802841Y-27575464D01*
X27656762Y-27514956D01*
X27500000Y-27494318D01*
X27343238Y-27514956D01*
X27197159Y-27575464D01*
X27071718Y-27671718D01*
X26975464Y-27797159D01*
X26914956Y-27943238D01*
X26894318Y-28100000D01*
X20000500Y-28100000D01*
X20000500Y-27240002D01*
X36125131Y-27240002D01*
X36142498Y-27349654D01*
X36142499Y-27349657D01*
X36142500Y-27349661D01*
X36192905Y-27448587D01*
X36271413Y-27527095D01*
X36370339Y-27577500D01*
X36370344Y-27577500D01*
X36370345Y-27577501D01*
X36479997Y-27594869D01*
X36480000Y-27594869D01*
X36480003Y-27594869D01*
X36569237Y-27580734D01*
X36589661Y-27577500D01*
X36688587Y-27527095D01*
X36715680Y-27500002D01*
X39845131Y-27500002D01*
X39862498Y-27609654D01*
X39862499Y-27609657D01*
X39862500Y-27609661D01*
X39912905Y-27708587D01*
X39991413Y-27787095D01*
X40090339Y-27837500D01*
X40090344Y-27837500D01*
X40090345Y-27837501D01*
X40199997Y-27854869D01*
X40200000Y-27854869D01*
X40200003Y-27854869D01*
X40289237Y-27840734D01*
X40309661Y-27837500D01*
X40408587Y-27787095D01*
X40487095Y-27708587D01*
X40537500Y-27609661D01*
X40542916Y-27575464D01*
X40554869Y-27500002D01*
X40554869Y-27499997D01*
X40552890Y-27487500D01*
X44569318Y-27487500D01*
X44589956Y-27644262D01*
X44650464Y-27790341D01*
X44746718Y-27915782D01*
X44872159Y-28012036D01*
X45018238Y-28072544D01*
X45175000Y-28093182D01*
X45331762Y-28072544D01*
X45477841Y-28012036D01*
X45603282Y-27915782D01*
X45699536Y-27790341D01*
X45760044Y-27644262D01*
X45780682Y-27487500D01*
X45760044Y-27330738D01*
X45699536Y-27184659D01*
X45603282Y-27059218D01*
X45477841Y-26962964D01*
X45331762Y-26902456D01*
X45175000Y-26881818D01*
X45174999Y-26881818D01*
X45064967Y-26896304D01*
X45018238Y-26902456D01*
X44872159Y-26962964D01*
X44746718Y-27059218D01*
X44650464Y-27184659D01*
X44589956Y-27330738D01*
X44569318Y-27487500D01*
X40552890Y-27487500D01*
X40537501Y-27390345D01*
X40537500Y-27390342D01*
X40537500Y-27390339D01*
X40487095Y-27291413D01*
X40408587Y-27212905D01*
X40309661Y-27162500D01*
X40309658Y-27162499D01*
X40309657Y-27162499D01*
X40309654Y-27162498D01*
X40200003Y-27145131D01*
X40199997Y-27145131D01*
X40090345Y-27162498D01*
X40090342Y-27162499D01*
X40090340Y-27162499D01*
X40090339Y-27162500D01*
X40046849Y-27184659D01*
X39991412Y-27212905D01*
X39912905Y-27291412D01*
X39892868Y-27330738D01*
X39862500Y-27390339D01*
X39862499Y-27390340D01*
X39862499Y-27390342D01*
X39862498Y-27390345D01*
X39845131Y-27499997D01*
X39845131Y-27500002D01*
X36715680Y-27500002D01*
X36767095Y-27448587D01*
X36817500Y-27349661D01*
X36826726Y-27291412D01*
X36834869Y-27240002D01*
X36834869Y-27239997D01*
X36817501Y-27130345D01*
X36817500Y-27130342D01*
X36817500Y-27130339D01*
X36767095Y-27031413D01*
X36688587Y-26952905D01*
X36589661Y-26902500D01*
X36589658Y-26902499D01*
X36589657Y-26902499D01*
X36589654Y-26902498D01*
X36480003Y-26885131D01*
X36479997Y-26885131D01*
X36370345Y-26902498D01*
X36370342Y-26902499D01*
X36370340Y-26902499D01*
X36370339Y-26902500D01*
X36319969Y-26928164D01*
X36271412Y-26952905D01*
X36192905Y-27031412D01*
X36168164Y-27079969D01*
X36142500Y-27130339D01*
X36142499Y-27130340D01*
X36142499Y-27130342D01*
X36142498Y-27130345D01*
X36125131Y-27239997D01*
X36125131Y-27240002D01*
X20000500Y-27240002D01*
X20000500Y-26450002D01*
X22985131Y-26450002D01*
X23002498Y-26559654D01*
X23002499Y-26559657D01*
X23002500Y-26559661D01*
X23052905Y-26658587D01*
X23131413Y-26737095D01*
X23230339Y-26787500D01*
X23230344Y-26787500D01*
X23230345Y-26787501D01*
X23339997Y-26804869D01*
X23340000Y-26804869D01*
X23340003Y-26804869D01*
X23429237Y-26790734D01*
X23449661Y-26787500D01*
X23548587Y-26737095D01*
X23627095Y-26658587D01*
X23677500Y-26559661D01*
X23694869Y-26450000D01*
X23692889Y-26437501D01*
X23677501Y-26340345D01*
X23677500Y-26340342D01*
X23677500Y-26340339D01*
X23627095Y-26241413D01*
X23548587Y-26162905D01*
X23449661Y-26112500D01*
X23449658Y-26112499D01*
X23449657Y-26112499D01*
X23449654Y-26112498D01*
X23370757Y-26100002D01*
X37355131Y-26100002D01*
X37372498Y-26209654D01*
X37372499Y-26209657D01*
X37372500Y-26209661D01*
X37422905Y-26308587D01*
X37501413Y-26387095D01*
X37600339Y-26437500D01*
X37600344Y-26437500D01*
X37600345Y-26437501D01*
X37709997Y-26454869D01*
X37710000Y-26454869D01*
X37710003Y-26454869D01*
X37799237Y-26440734D01*
X37819661Y-26437500D01*
X37918587Y-26387095D01*
X37997095Y-26308587D01*
X38047500Y-26209661D01*
X38062889Y-26112500D01*
X38064869Y-26100002D01*
X39315131Y-26100002D01*
X39332498Y-26209654D01*
X39332499Y-26209657D01*
X39332500Y-26209661D01*
X39382905Y-26308587D01*
X39461413Y-26387095D01*
X39560339Y-26437500D01*
X39560344Y-26437500D01*
X39560345Y-26437501D01*
X39669997Y-26454869D01*
X39670000Y-26454869D01*
X39670003Y-26454869D01*
X39759237Y-26440734D01*
X39779661Y-26437500D01*
X39878587Y-26387095D01*
X39957095Y-26308587D01*
X40007500Y-26209661D01*
X40022889Y-26112500D01*
X40024869Y-26100002D01*
X40024869Y-26099997D01*
X40007501Y-25990345D01*
X40007500Y-25990342D01*
X40007500Y-25990339D01*
X39957095Y-25891413D01*
X39878587Y-25812905D01*
X39779661Y-25762500D01*
X39779658Y-25762499D01*
X39779657Y-25762499D01*
X39779654Y-25762498D01*
X39670003Y-25745131D01*
X39669997Y-25745131D01*
X39560345Y-25762498D01*
X39560342Y-25762499D01*
X39560340Y-25762499D01*
X39560339Y-25762500D01*
X39512070Y-25787094D01*
X39461412Y-25812905D01*
X39382905Y-25891412D01*
X39361357Y-25933704D01*
X39332500Y-25990339D01*
X39332499Y-25990340D01*
X39332499Y-25990342D01*
X39332498Y-25990345D01*
X39315131Y-26099997D01*
X39315131Y-26100002D01*
X38064869Y-26100002D01*
X38064869Y-26099997D01*
X38047501Y-25990345D01*
X38047500Y-25990342D01*
X38047500Y-25990339D01*
X37997095Y-25891413D01*
X37918587Y-25812905D01*
X37819661Y-25762500D01*
X37819658Y-25762499D01*
X37819657Y-25762499D01*
X37819654Y-25762498D01*
X37710003Y-25745131D01*
X37709997Y-25745131D01*
X37600345Y-25762498D01*
X37600342Y-25762499D01*
X37600340Y-25762499D01*
X37600339Y-25762500D01*
X37552070Y-25787094D01*
X37501412Y-25812905D01*
X37422905Y-25891412D01*
X37401357Y-25933704D01*
X37372500Y-25990339D01*
X37372499Y-25990340D01*
X37372499Y-25990342D01*
X37372498Y-25990345D01*
X37355131Y-26099997D01*
X37355131Y-26100002D01*
X23370757Y-26100002D01*
X23340003Y-26095131D01*
X23339997Y-26095131D01*
X23230345Y-26112498D01*
X23230342Y-26112499D01*
X23230340Y-26112499D01*
X23230339Y-26112500D01*
X23179969Y-26138164D01*
X23131412Y-26162905D01*
X23052905Y-26241412D01*
X23028164Y-26289969D01*
X23002500Y-26340339D01*
X23002499Y-26340340D01*
X23002499Y-26340342D01*
X23002498Y-26340345D01*
X22985131Y-26449997D01*
X22985131Y-26450002D01*
X20000500Y-26450002D01*
X20000500Y-25400002D01*
X22985131Y-25400002D01*
X23002498Y-25509654D01*
X23002499Y-25509657D01*
X23002500Y-25509661D01*
X23052905Y-25608587D01*
X23131413Y-25687095D01*
X23230339Y-25737500D01*
X23230344Y-25737500D01*
X23230345Y-25737501D01*
X23339997Y-25754869D01*
X23340000Y-25754869D01*
X23340003Y-25754869D01*
X23429237Y-25740734D01*
X23449661Y-25737500D01*
X23548587Y-25687095D01*
X23627095Y-25608587D01*
X23677500Y-25509661D01*
X23679030Y-25500002D01*
X30175131Y-25500002D01*
X30192498Y-25609654D01*
X30192499Y-25609657D01*
X30192500Y-25609661D01*
X30242905Y-25708587D01*
X30321413Y-25787095D01*
X30420339Y-25837500D01*
X30420344Y-25837500D01*
X30420345Y-25837501D01*
X30529997Y-25854869D01*
X30530000Y-25854869D01*
X30530003Y-25854869D01*
X30619237Y-25840734D01*
X30639661Y-25837500D01*
X30738587Y-25787095D01*
X30817095Y-25708587D01*
X30867500Y-25609661D01*
X30873719Y-25570395D01*
X30884869Y-25500002D01*
X31175131Y-25500002D01*
X31192498Y-25609654D01*
X31192499Y-25609657D01*
X31192500Y-25609661D01*
X31242905Y-25708587D01*
X31321413Y-25787095D01*
X31420339Y-25837500D01*
X31420344Y-25837500D01*
X31420345Y-25837501D01*
X31529997Y-25854869D01*
X31530000Y-25854869D01*
X31530003Y-25854869D01*
X31619237Y-25840734D01*
X31639661Y-25837500D01*
X31738587Y-25787095D01*
X31817095Y-25708587D01*
X31867500Y-25609661D01*
X31873719Y-25570395D01*
X31884869Y-25500002D01*
X31884869Y-25499997D01*
X31867501Y-25390345D01*
X31867500Y-25390342D01*
X31867500Y-25390339D01*
X31817095Y-25291413D01*
X31738587Y-25212905D01*
X31639661Y-25162500D01*
X31639658Y-25162499D01*
X31639657Y-25162499D01*
X31639654Y-25162498D01*
X31530003Y-25145131D01*
X31529997Y-25145131D01*
X31420345Y-25162498D01*
X31420342Y-25162499D01*
X31420340Y-25162499D01*
X31420339Y-25162500D01*
X31369969Y-25188164D01*
X31321412Y-25212905D01*
X31242905Y-25291412D01*
X31218164Y-25339969D01*
X31192500Y-25390339D01*
X31192499Y-25390340D01*
X31192499Y-25390342D01*
X31192498Y-25390345D01*
X31175131Y-25499997D01*
X31175131Y-25500002D01*
X30884869Y-25500002D01*
X30884869Y-25499997D01*
X30867501Y-25390345D01*
X30867500Y-25390342D01*
X30867500Y-25390339D01*
X30817095Y-25291413D01*
X30738587Y-25212905D01*
X30639661Y-25162500D01*
X30639658Y-25162499D01*
X30639657Y-25162499D01*
X30639654Y-25162498D01*
X30530003Y-25145131D01*
X30529997Y-25145131D01*
X30420345Y-25162498D01*
X30420342Y-25162499D01*
X30420340Y-25162499D01*
X30420339Y-25162500D01*
X30369969Y-25188164D01*
X30321412Y-25212905D01*
X30242905Y-25291412D01*
X30218164Y-25339969D01*
X30192500Y-25390339D01*
X30192499Y-25390340D01*
X30192499Y-25390342D01*
X30192498Y-25390345D01*
X30175131Y-25499997D01*
X30175131Y-25500002D01*
X23679030Y-25500002D01*
X23694869Y-25400000D01*
X23693339Y-25390342D01*
X23677501Y-25290345D01*
X23677500Y-25290342D01*
X23677500Y-25290339D01*
X23627095Y-25191413D01*
X23548587Y-25112905D01*
X23449661Y-25062500D01*
X23449658Y-25062499D01*
X23449657Y-25062499D01*
X23449654Y-25062498D01*
X23340003Y-25045131D01*
X23339997Y-25045131D01*
X23230345Y-25062498D01*
X23230342Y-25062499D01*
X23230340Y-25062499D01*
X23230339Y-25062500D01*
X23179969Y-25088164D01*
X23131412Y-25112905D01*
X23052905Y-25191412D01*
X23041954Y-25212905D01*
X23002500Y-25290339D01*
X23002499Y-25290340D01*
X23002499Y-25290342D01*
X23002498Y-25290345D01*
X22985131Y-25399997D01*
X22985131Y-25400002D01*
X20000500Y-25400002D01*
X20000500Y-24350002D01*
X22985131Y-24350002D01*
X23002498Y-24459654D01*
X23002499Y-24459657D01*
X23002500Y-24459661D01*
X23052905Y-24558587D01*
X23131413Y-24637095D01*
X23230339Y-24687500D01*
X23230344Y-24687500D01*
X23230345Y-24687501D01*
X23339997Y-24704869D01*
X23340000Y-24704869D01*
X23340003Y-24704869D01*
X23429237Y-24690734D01*
X23449661Y-24687500D01*
X23548587Y-24637095D01*
X23627095Y-24558587D01*
X23677500Y-24459661D01*
X23690348Y-24378543D01*
X23694869Y-24350002D01*
X23694869Y-24349997D01*
X23677501Y-24240345D01*
X23677500Y-24240342D01*
X23677500Y-24240339D01*
X23656946Y-24200000D01*
X26344318Y-24200000D01*
X26364956Y-24356762D01*
X26425464Y-24502841D01*
X26521718Y-24628282D01*
X26647159Y-24724536D01*
X26793238Y-24785044D01*
X26950000Y-24805682D01*
X27106762Y-24785044D01*
X27252841Y-24724536D01*
X27378282Y-24628282D01*
X27474536Y-24502841D01*
X27535044Y-24356762D01*
X27554365Y-24210002D01*
X33845131Y-24210002D01*
X33862498Y-24319654D01*
X33862499Y-24319657D01*
X33862500Y-24319661D01*
X33912905Y-24418587D01*
X33991413Y-24497095D01*
X34090339Y-24547500D01*
X34090344Y-24547500D01*
X34090345Y-24547501D01*
X34199997Y-24564869D01*
X34200000Y-24564869D01*
X34200003Y-24564869D01*
X34289237Y-24550734D01*
X34309661Y-24547500D01*
X34334190Y-24535002D01*
X39440131Y-24535002D01*
X39457498Y-24644654D01*
X39457499Y-24644657D01*
X39457500Y-24644661D01*
X39507905Y-24743587D01*
X39586413Y-24822095D01*
X39685339Y-24872500D01*
X39685344Y-24872500D01*
X39685345Y-24872501D01*
X39794997Y-24889869D01*
X39795000Y-24889869D01*
X39795003Y-24889869D01*
X39884237Y-24875734D01*
X39904661Y-24872500D01*
X40003587Y-24822095D01*
X40082095Y-24743587D01*
X40132500Y-24644661D01*
X40149869Y-24535000D01*
X40144775Y-24502841D01*
X40132501Y-24425345D01*
X40132500Y-24425342D01*
X40132500Y-24425339D01*
X40082095Y-24326413D01*
X40003587Y-24247905D01*
X39904661Y-24197500D01*
X39904658Y-24197499D01*
X39904657Y-24197499D01*
X39904654Y-24197498D01*
X39795003Y-24180131D01*
X39794997Y-24180131D01*
X39685345Y-24197498D01*
X39685342Y-24197499D01*
X39685340Y-24197499D01*
X39685339Y-24197500D01*
X39637685Y-24221781D01*
X39586412Y-24247905D01*
X39507905Y-24326412D01*
X39485681Y-24370031D01*
X39457500Y-24425339D01*
X39457499Y-24425340D01*
X39457499Y-24425342D01*
X39457498Y-24425345D01*
X39440131Y-24534997D01*
X39440131Y-24535002D01*
X34334190Y-24535002D01*
X34408587Y-24497095D01*
X34487095Y-24418587D01*
X34537500Y-24319661D01*
X34554869Y-24210000D01*
X34553285Y-24200000D01*
X34537501Y-24100345D01*
X34537500Y-24100342D01*
X34537500Y-24100339D01*
X34499113Y-24025000D01*
X41219318Y-24025000D01*
X41239956Y-24181762D01*
X41300464Y-24327841D01*
X41396718Y-24453282D01*
X41522159Y-24549536D01*
X41668238Y-24610044D01*
X41825000Y-24630682D01*
X41981762Y-24610044D01*
X42127841Y-24549536D01*
X42253282Y-24453282D01*
X42349536Y-24327841D01*
X42410044Y-24181762D01*
X42430682Y-24025000D01*
X42410044Y-23868238D01*
X42379086Y-23793500D01*
X43900818Y-23793500D01*
X43921456Y-23950262D01*
X43981964Y-24096341D01*
X44078218Y-24221782D01*
X44203659Y-24318036D01*
X44349738Y-24378544D01*
X44506500Y-24399182D01*
X44663262Y-24378544D01*
X44809341Y-24318036D01*
X44934782Y-24221782D01*
X45031036Y-24096341D01*
X45091544Y-23950262D01*
X45112182Y-23793500D01*
X45091544Y-23636738D01*
X45031036Y-23490659D01*
X44934782Y-23365218D01*
X44809341Y-23268964D01*
X44696987Y-23222425D01*
X44690763Y-23216201D01*
X44690763Y-23207399D01*
X44691141Y-23206579D01*
X44696161Y-23196727D01*
X44712500Y-23164661D01*
X44714765Y-23150365D01*
X44729869Y-23055002D01*
X44729869Y-23054997D01*
X44712501Y-22945345D01*
X44712500Y-22945342D01*
X44712500Y-22945339D01*
X44662095Y-22846413D01*
X44583587Y-22767905D01*
X44484661Y-22717500D01*
X44484658Y-22717499D01*
X44484657Y-22717499D01*
X44484654Y-22717498D01*
X44375003Y-22700131D01*
X44374997Y-22700131D01*
X44265345Y-22717498D01*
X44265342Y-22717499D01*
X44265340Y-22717499D01*
X44265339Y-22717500D01*
X44214969Y-22743164D01*
X44166412Y-22767905D01*
X44087905Y-22846412D01*
X44065366Y-22890649D01*
X44037500Y-22945339D01*
X44037499Y-22945340D01*
X44037499Y-22945342D01*
X44037498Y-22945345D01*
X44020131Y-23054997D01*
X44020131Y-23055002D01*
X44037498Y-23164654D01*
X44037499Y-23164657D01*
X44037500Y-23164661D01*
X44078242Y-23244622D01*
X44087905Y-23263587D01*
X44131931Y-23307613D01*
X44135299Y-23315745D01*
X44131931Y-23323877D01*
X44130800Y-23324868D01*
X44078221Y-23365214D01*
X44078218Y-23365217D01*
X43981964Y-23490658D01*
X43981964Y-23490659D01*
X43921456Y-23636738D01*
X43900818Y-23793500D01*
X42379086Y-23793500D01*
X42349536Y-23722159D01*
X42253282Y-23596718D01*
X42127841Y-23500464D01*
X41981762Y-23439956D01*
X41825000Y-23419318D01*
X41824999Y-23419318D01*
X41736334Y-23430991D01*
X41668238Y-23439956D01*
X41522159Y-23500464D01*
X41396718Y-23596718D01*
X41300464Y-23722159D01*
X41239956Y-23868238D01*
X41219318Y-24025000D01*
X34499113Y-24025000D01*
X34487095Y-24001413D01*
X34408587Y-23922905D01*
X34309661Y-23872500D01*
X34309658Y-23872499D01*
X34309657Y-23872499D01*
X34309654Y-23872498D01*
X34200003Y-23855131D01*
X34199997Y-23855131D01*
X34090345Y-23872498D01*
X34090342Y-23872499D01*
X34090340Y-23872499D01*
X34090339Y-23872500D01*
X34041943Y-23897159D01*
X33991412Y-23922905D01*
X33912905Y-24001412D01*
X33891594Y-24043238D01*
X33862500Y-24100339D01*
X33862499Y-24100340D01*
X33862499Y-24100342D01*
X33862498Y-24100345D01*
X33845131Y-24209997D01*
X33845131Y-24210002D01*
X27554365Y-24210002D01*
X27555682Y-24200000D01*
X27535044Y-24043238D01*
X27474536Y-23897159D01*
X27378282Y-23771718D01*
X27252841Y-23675464D01*
X27106762Y-23614956D01*
X26950000Y-23594318D01*
X26949999Y-23594318D01*
X26793237Y-23614955D01*
X26793238Y-23614956D01*
X26647159Y-23675464D01*
X26521718Y-23771718D01*
X26425464Y-23897159D01*
X26364956Y-24043238D01*
X26344318Y-24200000D01*
X23656946Y-24200000D01*
X23627095Y-24141413D01*
X23548587Y-24062905D01*
X23449661Y-24012500D01*
X23449658Y-24012499D01*
X23449657Y-24012499D01*
X23449654Y-24012498D01*
X23340003Y-23995131D01*
X23339997Y-23995131D01*
X23230345Y-24012498D01*
X23230342Y-24012499D01*
X23230340Y-24012499D01*
X23230339Y-24012500D01*
X23179969Y-24038164D01*
X23131412Y-24062905D01*
X23052905Y-24141412D01*
X23052704Y-24141807D01*
X23002500Y-24240339D01*
X23002499Y-24240340D01*
X23002499Y-24240342D01*
X23002498Y-24240345D01*
X22985131Y-24349997D01*
X22985131Y-24350002D01*
X20000500Y-24350002D01*
X20000500Y-23055002D01*
X43020131Y-23055002D01*
X43037498Y-23164654D01*
X43037499Y-23164657D01*
X43037500Y-23164661D01*
X43087905Y-23263587D01*
X43166413Y-23342095D01*
X43265339Y-23392500D01*
X43265344Y-23392500D01*
X43265345Y-23392501D01*
X43374997Y-23409869D01*
X43375000Y-23409869D01*
X43375003Y-23409869D01*
X43464237Y-23395734D01*
X43484661Y-23392500D01*
X43583587Y-23342095D01*
X43662095Y-23263587D01*
X43712500Y-23164661D01*
X43729869Y-23055000D01*
X43729066Y-23049931D01*
X43712501Y-22945345D01*
X43712500Y-22945342D01*
X43712500Y-22945339D01*
X43662095Y-22846413D01*
X43583587Y-22767905D01*
X43484661Y-22717500D01*
X43484658Y-22717499D01*
X43484657Y-22717499D01*
X43484654Y-22717498D01*
X43375003Y-22700131D01*
X43374997Y-22700131D01*
X43265345Y-22717498D01*
X43265342Y-22717499D01*
X43265340Y-22717499D01*
X43265339Y-22717500D01*
X43214969Y-22743164D01*
X43166412Y-22767905D01*
X43087905Y-22846412D01*
X43065366Y-22890649D01*
X43037500Y-22945339D01*
X43037499Y-22945340D01*
X43037499Y-22945342D01*
X43037498Y-22945345D01*
X43020131Y-23054997D01*
X43020131Y-23055002D01*
X20000500Y-23055002D01*
X20000500Y-20012000D01*
X20003868Y-20003868D01*
X20012000Y-20000500D01*
X46588500Y-20000500D01*
X46596632Y-20003868D01*
G37*
%TD.AperFunction*%
%TD*%
M02*
