%TF.GenerationSoftware,KiCad,Pcbnew,7.0.7*%
%TF.CreationDate,2024-02-10T10:35:29-08:00*%
%TF.ProjectId,Bandit_Dev_Platform,42616e64-6974-45f4-9465-765f506c6174,rev?*%
%TF.SameCoordinates,Original*%
%TF.FileFunction,Copper,L3,Inr*%
%TF.FilePolarity,Positive*%
%FSLAX46Y46*%
G04 Gerber Fmt 4.6, Leading zero omitted, Abs format (unit mm)*
G04 Created by KiCad (PCBNEW 7.0.7) date 2024-02-10 10:35:29*
%MOMM*%
%LPD*%
G01*
G04 APERTURE LIST*
%TA.AperFunction,ComponentPad*%
%ADD10C,2.000000*%
%TD*%
%TA.AperFunction,ComponentPad*%
%ADD11O,2.100000X1.000000*%
%TD*%
%TA.AperFunction,ComponentPad*%
%ADD12O,1.800000X1.000000*%
%TD*%
%TA.AperFunction,ComponentPad*%
%ADD13C,1.800000*%
%TD*%
%TA.AperFunction,ComponentPad*%
%ADD14C,3.250000*%
%TD*%
%TA.AperFunction,ComponentPad*%
%ADD15R,1.700000X1.700000*%
%TD*%
%TA.AperFunction,ComponentPad*%
%ADD16O,1.700000X1.700000*%
%TD*%
%TA.AperFunction,ViaPad*%
%ADD17C,0.800000*%
%TD*%
%TA.AperFunction,ViaPad*%
%ADD18C,0.300000*%
%TD*%
%TA.AperFunction,Conductor*%
%ADD19C,0.500000*%
%TD*%
%TA.AperFunction,Conductor*%
%ADD20C,1.500000*%
%TD*%
G04 APERTURE END LIST*
D10*
%TO.N,Net-(SW1-A)*%
%TO.C,SW1*%
X27600000Y-44200000D03*
%TO.N,GND*%
X23100000Y-44200000D03*
%TD*%
D11*
%TO.N,GND*%
%TO.C,P1*%
X26405000Y-31550000D03*
D12*
X22225000Y-31550000D03*
D11*
X26405000Y-40190000D03*
D12*
X22225000Y-40190000D03*
%TD*%
D13*
%TO.N,/WGN_OUT_PORT*%
%TO.C,J6*%
X76000000Y-26375000D03*
D14*
%TO.N,GND*%
X72700000Y-23075000D03*
X72700000Y-29675000D03*
X79300000Y-23075000D03*
X79300000Y-29675000D03*
%TD*%
D15*
%TO.N,/WGN_OUT_PORT*%
%TO.C,J12*%
X68440000Y-22725000D03*
D16*
%TO.N,/WGN_OUT*%
X65900000Y-22725000D03*
%TD*%
D13*
%TO.N,Net-(J5-In)*%
%TO.C,J5*%
X76000000Y-45375000D03*
D14*
%TO.N,GND*%
X72700000Y-42075000D03*
X72700000Y-48675000D03*
X79300000Y-42075000D03*
X79300000Y-48675000D03*
%TD*%
D17*
%TO.N,+3V3*%
X21800000Y-38200000D03*
X21300000Y-37500000D03*
X20800000Y-36800000D03*
X21600000Y-33500000D03*
X21100000Y-34200000D03*
X20800000Y-35000000D03*
X20700000Y-35900000D03*
X21900000Y-35900000D03*
X22500000Y-35300000D03*
X23200000Y-35800000D03*
X24100000Y-37300000D03*
X24099312Y-34400688D03*
D18*
X40200000Y-28400000D03*
X39200000Y-28460000D03*
%TO.N,GND*%
X39200000Y-27500000D03*
X52100000Y-42090000D03*
%TO.N,VDDA*%
X50180000Y-41400000D03*
X50180000Y-40400000D03*
%TO.N,GND*%
X51910000Y-36600000D03*
X68610000Y-39300000D03*
X68580000Y-43300000D03*
%TO.N,VDDA*%
X67620000Y-43300000D03*
%TO.N,+3V3*%
X36480000Y-28200000D03*
X33460000Y-32810000D03*
X34570000Y-30180000D03*
X45050000Y-31710000D03*
X37260000Y-39600000D03*
X30450000Y-26490000D03*
X46050000Y-31710000D03*
D17*
X33642500Y-26890000D03*
X35400000Y-23350000D03*
D18*
X30420589Y-38090589D03*
D17*
X30862500Y-23700000D03*
D18*
X37280000Y-38620000D03*
X31450000Y-26490000D03*
X40367500Y-35800000D03*
D17*
X28850000Y-24200000D03*
D18*
X28800000Y-26200000D03*
D17*
%TO.N,GND*%
X52025000Y-24025000D03*
D18*
X77600000Y-33730000D03*
X41770000Y-45380000D03*
X23340000Y-26450000D03*
X48220000Y-35410000D03*
D17*
X28300000Y-39400000D03*
D18*
X27300000Y-39100000D03*
X77600000Y-38000000D03*
X53575000Y-23105000D03*
X61939800Y-26022600D03*
X61000000Y-26020000D03*
D17*
X29400000Y-41825000D03*
X51175000Y-28425000D03*
D18*
X31850000Y-38210000D03*
X47310000Y-40480000D03*
X46470000Y-34080000D03*
X32350000Y-38750000D03*
X32500000Y-32810000D03*
D17*
X28300000Y-32500000D03*
X59390200Y-42622500D03*
D18*
X42000000Y-34400000D03*
D17*
X27500000Y-28100000D03*
D18*
X61557100Y-36454600D03*
D17*
X40400000Y-32100000D03*
D18*
X46920000Y-34430000D03*
D17*
X38400000Y-34100000D03*
D18*
X59390200Y-48602500D03*
X30530000Y-25500000D03*
X34530000Y-28170000D03*
X40770000Y-45380000D03*
D17*
X48750000Y-27225000D03*
D18*
X58290200Y-48602500D03*
X50225000Y-23055000D03*
D17*
X40200000Y-34100000D03*
D18*
X31530000Y-25500000D03*
X62190200Y-38142500D03*
D17*
X29200000Y-29775000D03*
D18*
X27300000Y-32700000D03*
D17*
X45175000Y-27487500D03*
D18*
X62390200Y-48602500D03*
X31099411Y-38769411D03*
X48820000Y-32700000D03*
X48310000Y-39610000D03*
D17*
X37134668Y-42178675D03*
D18*
X44050000Y-31060000D03*
X57730700Y-26020000D03*
X60630000Y-36454600D03*
X46050000Y-30750000D03*
X44375000Y-23055000D03*
X58763100Y-36480000D03*
X51205000Y-25975000D03*
D17*
X40400000Y-42400000D03*
D18*
X60390200Y-48602500D03*
D17*
X43170000Y-41600000D03*
D18*
X49120000Y-36140000D03*
X23340000Y-25400000D03*
X59490200Y-38242500D03*
X26800000Y-32700000D03*
X58900000Y-26020000D03*
D17*
X30100000Y-28100000D03*
D18*
X34570000Y-29220000D03*
D17*
X60390200Y-42622500D03*
D18*
X36480000Y-27240000D03*
X23340000Y-24350000D03*
X32970000Y-37070000D03*
X47310000Y-41370000D03*
D17*
X58900000Y-32000000D03*
X38400000Y-32200000D03*
X71700000Y-33500000D03*
D18*
X32490000Y-30900000D03*
D17*
X41825000Y-24025000D03*
D18*
X32670589Y-34599411D03*
D17*
X26950000Y-24200000D03*
X44506500Y-23793500D03*
D18*
X50225000Y-23995000D03*
X33630000Y-37700000D03*
X32490000Y-29900000D03*
X61450200Y-48602500D03*
D17*
X59900000Y-32000000D03*
X43170000Y-40300000D03*
D18*
X36300000Y-39600000D03*
X31280589Y-34529411D03*
X66500000Y-36620000D03*
X65500000Y-36420000D03*
D17*
X72500000Y-33100000D03*
D18*
X48275000Y-30505000D03*
X61190200Y-38142500D03*
X40200000Y-27500000D03*
X45050000Y-30750000D03*
X36320000Y-38620000D03*
X44930000Y-35600000D03*
X26800000Y-39100000D03*
X59900000Y-26020000D03*
X43375000Y-23055000D03*
X46010000Y-33710000D03*
X48670000Y-35780000D03*
X48310000Y-42190000D03*
X42000000Y-34000000D03*
%TO.N,VDDA*%
X50245000Y-25975000D03*
X41770000Y-44420000D03*
X78700000Y-38000000D03*
X67700000Y-37780000D03*
D17*
X52025000Y-22125000D03*
D18*
X58900000Y-26980000D03*
X59900000Y-26980000D03*
X66500000Y-37600000D03*
X53575000Y-22145000D03*
X49000000Y-25675000D03*
X78700000Y-33730000D03*
X50225000Y-24955000D03*
X60390200Y-47642500D03*
X69000000Y-37780000D03*
X59390200Y-47642500D03*
X40770000Y-44420000D03*
X50225000Y-22095000D03*
%TO.N,Net-(U10A-+)*%
X64427300Y-27094700D03*
X61939800Y-26982600D03*
%TO.N,Net-(C39-Pad2)*%
X54000600Y-31680900D03*
X55194400Y-36480000D03*
%TO.N,Net-(C40-Pad2)*%
X55690200Y-38242500D03*
X54490200Y-42697500D03*
%TO.N,Net-(U9B-+)*%
X62390200Y-47642500D03*
X64990200Y-47632500D03*
%TO.N,/LED_B*%
X39795000Y-24535000D03*
X43906597Y-34978940D03*
%TO.N,/LED_G*%
X39670000Y-26100000D03*
X43900079Y-35478400D03*
%TO.N,/LED_R*%
X43899956Y-35977902D03*
X37710000Y-26100000D03*
%TO.N,/USER_LED*%
X34200000Y-24210000D03*
X43886905Y-34400000D03*
%TO.N,/ADC_SDI*%
X40170000Y-38900000D03*
X38798074Y-37971925D03*
%TO.N,/ADC_CSN*%
X37500000Y-37990000D03*
X38600000Y-39950000D03*
%TO.N,/ADC_SCK*%
X39350000Y-40585000D03*
X38193262Y-38002803D03*
%TO.N,/~{PGA_CS}*%
X68325000Y-33970000D03*
X43044500Y-37706525D03*
%TO.N,/PGA_SCK*%
X68325000Y-36510000D03*
X42071896Y-37537358D03*
%TO.N,/PGA_SI*%
X42570000Y-36700000D03*
X68325000Y-35240000D03*
%TD*%
D19*
%TO.N,GND*%
X49950000Y-28650000D02*
X50075000Y-28775000D01*
X49950000Y-29800000D02*
X50050000Y-29800000D01*
X46700000Y-20900000D02*
X46700000Y-28650000D01*
X50050000Y-29800000D02*
X50050000Y-30450000D01*
X46700000Y-28650000D02*
X49950000Y-28650000D01*
X49950000Y-28650000D02*
X49950000Y-29800000D01*
X50050000Y-30450000D02*
X50600000Y-31000000D01*
D20*
X50600000Y-31000000D02*
X50700000Y-31100000D01*
X49300000Y-31000000D02*
X50600000Y-31000000D01*
%TD*%
%TA.AperFunction,Conductor*%
%TO.N,GND*%
G36*
X83442539Y-20020185D02*
G01*
X83488294Y-20072989D01*
X83499500Y-20124500D01*
X83499500Y-51625500D01*
X83479815Y-51692539D01*
X83427011Y-51738294D01*
X83375500Y-51749500D01*
X40524000Y-51749500D01*
X40456961Y-51729815D01*
X40411206Y-51677011D01*
X40400000Y-51625500D01*
X40400000Y-48675000D01*
X70570035Y-48675000D01*
X70589873Y-48965024D01*
X70649020Y-49249660D01*
X70649021Y-49249663D01*
X70746371Y-49523578D01*
X70880114Y-49781691D01*
X71028929Y-49992515D01*
X71660554Y-49360891D01*
X71721877Y-49327406D01*
X71791568Y-49332390D01*
X71847502Y-49374261D01*
X71849242Y-49376644D01*
X71864893Y-49398623D01*
X71864900Y-49398631D01*
X72011041Y-49537975D01*
X72045977Y-49598483D01*
X72042652Y-49668274D01*
X72013153Y-49715399D01*
X71384428Y-50344123D01*
X71471694Y-50415119D01*
X71720073Y-50566161D01*
X71986714Y-50681981D01*
X72266639Y-50760413D01*
X72266646Y-50760414D01*
X72554645Y-50800000D01*
X72845355Y-50800000D01*
X73133353Y-50760414D01*
X73133360Y-50760413D01*
X73413285Y-50681981D01*
X73679926Y-50566161D01*
X73928305Y-50415119D01*
X74015570Y-50344123D01*
X73384234Y-49712787D01*
X73350749Y-49651464D01*
X73355733Y-49581772D01*
X73395263Y-49527636D01*
X73462540Y-49474729D01*
X73556722Y-49366036D01*
X73615497Y-49328264D01*
X73685367Y-49328264D01*
X73738114Y-49359560D01*
X74371069Y-49992516D01*
X74371070Y-49992515D01*
X74519878Y-49781703D01*
X74519882Y-49781697D01*
X74653628Y-49523578D01*
X74750978Y-49249663D01*
X74750979Y-49249660D01*
X74810126Y-48965024D01*
X74829964Y-48675000D01*
X77170035Y-48675000D01*
X77189873Y-48965024D01*
X77249020Y-49249660D01*
X77249021Y-49249663D01*
X77346371Y-49523578D01*
X77480114Y-49781691D01*
X77628929Y-49992515D01*
X78260554Y-49360891D01*
X78321877Y-49327406D01*
X78391568Y-49332390D01*
X78447502Y-49374261D01*
X78449242Y-49376644D01*
X78464893Y-49398623D01*
X78464900Y-49398631D01*
X78611041Y-49537975D01*
X78645977Y-49598483D01*
X78642652Y-49668274D01*
X78613153Y-49715399D01*
X77984428Y-50344123D01*
X78071694Y-50415119D01*
X78320073Y-50566161D01*
X78586714Y-50681981D01*
X78866639Y-50760413D01*
X78866646Y-50760414D01*
X79154645Y-50800000D01*
X79445355Y-50800000D01*
X79733353Y-50760414D01*
X79733360Y-50760413D01*
X80013285Y-50681981D01*
X80279926Y-50566161D01*
X80528305Y-50415119D01*
X80615570Y-50344123D01*
X79984234Y-49712787D01*
X79950749Y-49651464D01*
X79955733Y-49581772D01*
X79995263Y-49527636D01*
X80062540Y-49474729D01*
X80156722Y-49366036D01*
X80215497Y-49328264D01*
X80285367Y-49328264D01*
X80338114Y-49359560D01*
X80971070Y-49992516D01*
X80971070Y-49992515D01*
X81119878Y-49781703D01*
X81119882Y-49781697D01*
X81253628Y-49523578D01*
X81350978Y-49249663D01*
X81350979Y-49249660D01*
X81410126Y-48965024D01*
X81429964Y-48675000D01*
X81410126Y-48384975D01*
X81350979Y-48100339D01*
X81350978Y-48100336D01*
X81253628Y-47826421D01*
X81119882Y-47568302D01*
X81119878Y-47568296D01*
X80971069Y-47357482D01*
X80339444Y-47989107D01*
X80278121Y-48022592D01*
X80208429Y-48017608D01*
X80152496Y-47975736D01*
X80150755Y-47973352D01*
X80135108Y-47951378D01*
X80135104Y-47951374D01*
X80112263Y-47929595D01*
X79988954Y-47812021D01*
X79954021Y-47751515D01*
X79957346Y-47681724D01*
X79986845Y-47634599D01*
X80615570Y-47005875D01*
X80528315Y-46934887D01*
X80528304Y-46934880D01*
X80279926Y-46783838D01*
X80013285Y-46668018D01*
X79733360Y-46589586D01*
X79733353Y-46589585D01*
X79445355Y-46550000D01*
X79154645Y-46550000D01*
X78866646Y-46589585D01*
X78866639Y-46589586D01*
X78586714Y-46668018D01*
X78320073Y-46783838D01*
X78071693Y-46934881D01*
X78071682Y-46934889D01*
X77984428Y-47005875D01*
X78615765Y-47637212D01*
X78649250Y-47698535D01*
X78644266Y-47768227D01*
X78604737Y-47822363D01*
X78537458Y-47875272D01*
X78537453Y-47875277D01*
X78443278Y-47983960D01*
X78384500Y-48021734D01*
X78314630Y-48021734D01*
X78261885Y-47990438D01*
X77628930Y-47357483D01*
X77480114Y-47568308D01*
X77346371Y-47826421D01*
X77249021Y-48100336D01*
X77249020Y-48100339D01*
X77189873Y-48384975D01*
X77170035Y-48675000D01*
X74829964Y-48675000D01*
X74810126Y-48384975D01*
X74750979Y-48100339D01*
X74750978Y-48100336D01*
X74653628Y-47826421D01*
X74519882Y-47568302D01*
X74519878Y-47568296D01*
X74371069Y-47357482D01*
X73739444Y-47989107D01*
X73678121Y-48022592D01*
X73608429Y-48017608D01*
X73552496Y-47975736D01*
X73550755Y-47973352D01*
X73535108Y-47951378D01*
X73535104Y-47951374D01*
X73512263Y-47929595D01*
X73388954Y-47812021D01*
X73354021Y-47751515D01*
X73357346Y-47681724D01*
X73386845Y-47634599D01*
X74015570Y-47005875D01*
X73928315Y-46934887D01*
X73928304Y-46934880D01*
X73679926Y-46783838D01*
X73413285Y-46668018D01*
X73133360Y-46589586D01*
X73133353Y-46589585D01*
X72845355Y-46550000D01*
X72554645Y-46550000D01*
X72266646Y-46589585D01*
X72266639Y-46589586D01*
X71986714Y-46668018D01*
X71720073Y-46783838D01*
X71471693Y-46934881D01*
X71471682Y-46934889D01*
X71384428Y-47005875D01*
X72015765Y-47637212D01*
X72049250Y-47698535D01*
X72044266Y-47768227D01*
X72004737Y-47822363D01*
X71937458Y-47875272D01*
X71937453Y-47875277D01*
X71843278Y-47983960D01*
X71784500Y-48021734D01*
X71714630Y-48021734D01*
X71661885Y-47990438D01*
X71028930Y-47357483D01*
X70880114Y-47568308D01*
X70746371Y-47826421D01*
X70649021Y-48100336D01*
X70649020Y-48100339D01*
X70589873Y-48384975D01*
X70570035Y-48675000D01*
X40400000Y-48675000D01*
X40400000Y-47642502D01*
X59035331Y-47642502D01*
X59052698Y-47752158D01*
X59103104Y-47851085D01*
X59103109Y-47851092D01*
X59181607Y-47929590D01*
X59181610Y-47929592D01*
X59181613Y-47929595D01*
X59272170Y-47975736D01*
X59280541Y-47980001D01*
X59390198Y-47997369D01*
X59390200Y-47997369D01*
X59390202Y-47997369D01*
X59499858Y-47980001D01*
X59499859Y-47980000D01*
X59499861Y-47980000D01*
X59598787Y-47929595D01*
X59677295Y-47851087D01*
X59727700Y-47752161D01*
X59727700Y-47752159D01*
X59727701Y-47752158D01*
X59745069Y-47642502D01*
X60035331Y-47642502D01*
X60052698Y-47752158D01*
X60103104Y-47851085D01*
X60103109Y-47851092D01*
X60181607Y-47929590D01*
X60181610Y-47929592D01*
X60181613Y-47929595D01*
X60272170Y-47975736D01*
X60280541Y-47980001D01*
X60390198Y-47997369D01*
X60390200Y-47997369D01*
X60390202Y-47997369D01*
X60499858Y-47980001D01*
X60499859Y-47980000D01*
X60499861Y-47980000D01*
X60598787Y-47929595D01*
X60677295Y-47851087D01*
X60727700Y-47752161D01*
X60727700Y-47752159D01*
X60727701Y-47752158D01*
X60745069Y-47642502D01*
X62035331Y-47642502D01*
X62052698Y-47752158D01*
X62103104Y-47851085D01*
X62103109Y-47851092D01*
X62181607Y-47929590D01*
X62181610Y-47929592D01*
X62181613Y-47929595D01*
X62272170Y-47975736D01*
X62280541Y-47980001D01*
X62390198Y-47997369D01*
X62390200Y-47997369D01*
X62390202Y-47997369D01*
X62499858Y-47980001D01*
X62499859Y-47980000D01*
X62499861Y-47980000D01*
X62598787Y-47929595D01*
X62677295Y-47851087D01*
X62727700Y-47752161D01*
X62727700Y-47752159D01*
X62727701Y-47752158D01*
X62745069Y-47642502D01*
X62745069Y-47642497D01*
X62743486Y-47632502D01*
X64635331Y-47632502D01*
X64652698Y-47742158D01*
X64703104Y-47841085D01*
X64703109Y-47841092D01*
X64781607Y-47919590D01*
X64781610Y-47919592D01*
X64781613Y-47919595D01*
X64843991Y-47951378D01*
X64880541Y-47970001D01*
X64990198Y-47987369D01*
X64990200Y-47987369D01*
X64990202Y-47987369D01*
X65099858Y-47970001D01*
X65099859Y-47970000D01*
X65099861Y-47970000D01*
X65198787Y-47919595D01*
X65277295Y-47841087D01*
X65327700Y-47742161D01*
X65327700Y-47742159D01*
X65327701Y-47742158D01*
X65345069Y-47632502D01*
X65345069Y-47632497D01*
X65327701Y-47522841D01*
X65327700Y-47522839D01*
X65277295Y-47423913D01*
X65277292Y-47423910D01*
X65277290Y-47423907D01*
X65198792Y-47345409D01*
X65198788Y-47345406D01*
X65198787Y-47345405D01*
X65194943Y-47343446D01*
X65099858Y-47294998D01*
X64990202Y-47277631D01*
X64990198Y-47277631D01*
X64880541Y-47294998D01*
X64781614Y-47345404D01*
X64781607Y-47345409D01*
X64703109Y-47423907D01*
X64703104Y-47423914D01*
X64652698Y-47522841D01*
X64635331Y-47632497D01*
X64635331Y-47632502D01*
X62743486Y-47632502D01*
X62727701Y-47532841D01*
X62722605Y-47522839D01*
X62677295Y-47433913D01*
X62677292Y-47433910D01*
X62677290Y-47433907D01*
X62598792Y-47355409D01*
X62598788Y-47355406D01*
X62598787Y-47355405D01*
X62579159Y-47345404D01*
X62499858Y-47304998D01*
X62390202Y-47287631D01*
X62390198Y-47287631D01*
X62280541Y-47304998D01*
X62181614Y-47355404D01*
X62181607Y-47355409D01*
X62103109Y-47433907D01*
X62103104Y-47433914D01*
X62052698Y-47532841D01*
X62035331Y-47642497D01*
X62035331Y-47642502D01*
X60745069Y-47642502D01*
X60745069Y-47642497D01*
X60727701Y-47532841D01*
X60722605Y-47522839D01*
X60677295Y-47433913D01*
X60677292Y-47433910D01*
X60677290Y-47433907D01*
X60598792Y-47355409D01*
X60598788Y-47355406D01*
X60598787Y-47355405D01*
X60579159Y-47345404D01*
X60499858Y-47304998D01*
X60390202Y-47287631D01*
X60390198Y-47287631D01*
X60280541Y-47304998D01*
X60181614Y-47355404D01*
X60181607Y-47355409D01*
X60103109Y-47433907D01*
X60103104Y-47433914D01*
X60052698Y-47532841D01*
X60035331Y-47642497D01*
X60035331Y-47642502D01*
X59745069Y-47642502D01*
X59745069Y-47642497D01*
X59727701Y-47532841D01*
X59722605Y-47522839D01*
X59677295Y-47433913D01*
X59677292Y-47433910D01*
X59677290Y-47433907D01*
X59598792Y-47355409D01*
X59598788Y-47355406D01*
X59598787Y-47355405D01*
X59579159Y-47345404D01*
X59499858Y-47304998D01*
X59390202Y-47287631D01*
X59390198Y-47287631D01*
X59280541Y-47304998D01*
X59181614Y-47355404D01*
X59181607Y-47355409D01*
X59103109Y-47433907D01*
X59103104Y-47433914D01*
X59052698Y-47532841D01*
X59035331Y-47642497D01*
X59035331Y-47642502D01*
X40400000Y-47642502D01*
X40400000Y-45375000D01*
X74894785Y-45375000D01*
X74913602Y-45578082D01*
X74969417Y-45774247D01*
X74969422Y-45774260D01*
X75060327Y-45956821D01*
X75183237Y-46119581D01*
X75333958Y-46256980D01*
X75333960Y-46256982D01*
X75433141Y-46318392D01*
X75507363Y-46364348D01*
X75697544Y-46438024D01*
X75898024Y-46475500D01*
X75898026Y-46475500D01*
X76101974Y-46475500D01*
X76101976Y-46475500D01*
X76302456Y-46438024D01*
X76492637Y-46364348D01*
X76666041Y-46256981D01*
X76816764Y-46119579D01*
X76939673Y-45956821D01*
X77030582Y-45774250D01*
X77086397Y-45578083D01*
X77105215Y-45375000D01*
X77086397Y-45171917D01*
X77030582Y-44975750D01*
X76939673Y-44793179D01*
X76816764Y-44630421D01*
X76816762Y-44630418D01*
X76666041Y-44493019D01*
X76666039Y-44493017D01*
X76492642Y-44385655D01*
X76492635Y-44385651D01*
X76397546Y-44348814D01*
X76302456Y-44311976D01*
X76101976Y-44274500D01*
X75898024Y-44274500D01*
X75697544Y-44311976D01*
X75697541Y-44311976D01*
X75697541Y-44311977D01*
X75507364Y-44385651D01*
X75507357Y-44385655D01*
X75333960Y-44493017D01*
X75333958Y-44493019D01*
X75183237Y-44630418D01*
X75060327Y-44793178D01*
X74969422Y-44975739D01*
X74969417Y-44975752D01*
X74913602Y-45171917D01*
X74894785Y-45374999D01*
X74894785Y-45375000D01*
X40400000Y-45375000D01*
X40400000Y-44827200D01*
X40419685Y-44760161D01*
X40472489Y-44714406D01*
X40541647Y-44704462D01*
X40580290Y-44716713D01*
X40660339Y-44757500D01*
X40660341Y-44757500D01*
X40660343Y-44757501D01*
X40769998Y-44774869D01*
X40770000Y-44774869D01*
X40770002Y-44774869D01*
X40879658Y-44757501D01*
X40879659Y-44757500D01*
X40879661Y-44757500D01*
X40978587Y-44707095D01*
X41057095Y-44628587D01*
X41107500Y-44529661D01*
X41107500Y-44529659D01*
X41107501Y-44529658D01*
X41124869Y-44420002D01*
X41415131Y-44420002D01*
X41432498Y-44529658D01*
X41482904Y-44628585D01*
X41482909Y-44628592D01*
X41561407Y-44707090D01*
X41561410Y-44707092D01*
X41561413Y-44707095D01*
X41660339Y-44757500D01*
X41660341Y-44757501D01*
X41769998Y-44774869D01*
X41770000Y-44774869D01*
X41770002Y-44774869D01*
X41879658Y-44757501D01*
X41879659Y-44757500D01*
X41879661Y-44757500D01*
X41978587Y-44707095D01*
X42057095Y-44628587D01*
X42107500Y-44529661D01*
X42107500Y-44529659D01*
X42107501Y-44529658D01*
X42124869Y-44420002D01*
X42124869Y-44419997D01*
X42107501Y-44310341D01*
X42089239Y-44274500D01*
X42057095Y-44211413D01*
X42057092Y-44211410D01*
X42057090Y-44211407D01*
X41978592Y-44132909D01*
X41978588Y-44132906D01*
X41978587Y-44132905D01*
X41933443Y-44109903D01*
X41879658Y-44082498D01*
X41770002Y-44065131D01*
X41769998Y-44065131D01*
X41660341Y-44082498D01*
X41561414Y-44132904D01*
X41561407Y-44132909D01*
X41482909Y-44211407D01*
X41482904Y-44211414D01*
X41432498Y-44310341D01*
X41415131Y-44419997D01*
X41415131Y-44420002D01*
X41124869Y-44420002D01*
X41124869Y-44419997D01*
X41107501Y-44310341D01*
X41089239Y-44274500D01*
X41057095Y-44211413D01*
X41057092Y-44211410D01*
X41057090Y-44211407D01*
X40978592Y-44132909D01*
X40978588Y-44132906D01*
X40978587Y-44132905D01*
X40933443Y-44109903D01*
X40879658Y-44082498D01*
X40770002Y-44065131D01*
X40769998Y-44065131D01*
X40660341Y-44082498D01*
X40580294Y-44123284D01*
X40511624Y-44136180D01*
X40446884Y-44109903D01*
X40406628Y-44052796D01*
X40400000Y-44012799D01*
X40400000Y-43673610D01*
X40419685Y-43606571D01*
X40464620Y-43564752D01*
X40949995Y-43300002D01*
X67265131Y-43300002D01*
X67282498Y-43409658D01*
X67332904Y-43508585D01*
X67332909Y-43508592D01*
X67411407Y-43587090D01*
X67411410Y-43587092D01*
X67411413Y-43587095D01*
X67510339Y-43637500D01*
X67510341Y-43637501D01*
X67619998Y-43654869D01*
X67620000Y-43654869D01*
X67620002Y-43654869D01*
X67729658Y-43637501D01*
X67729659Y-43637500D01*
X67729661Y-43637500D01*
X67828587Y-43587095D01*
X67907095Y-43508587D01*
X67957500Y-43409661D01*
X67957500Y-43409659D01*
X67957501Y-43409658D01*
X67974869Y-43300002D01*
X67974869Y-43299997D01*
X67957501Y-43190341D01*
X67919316Y-43115399D01*
X67907095Y-43091413D01*
X67907092Y-43091410D01*
X67907090Y-43091407D01*
X67828592Y-43012909D01*
X67828588Y-43012906D01*
X67828587Y-43012905D01*
X67800282Y-42998483D01*
X67729658Y-42962498D01*
X67620002Y-42945131D01*
X67619998Y-42945131D01*
X67510341Y-42962498D01*
X67411414Y-43012904D01*
X67411407Y-43012909D01*
X67332909Y-43091407D01*
X67332904Y-43091414D01*
X67282498Y-43190341D01*
X67265131Y-43299997D01*
X67265131Y-43300002D01*
X40949995Y-43300002D01*
X42054579Y-42697502D01*
X54135331Y-42697502D01*
X54152698Y-42807158D01*
X54203104Y-42906085D01*
X54203109Y-42906092D01*
X54281607Y-42984590D01*
X54281610Y-42984592D01*
X54281613Y-42984595D01*
X54320854Y-43004589D01*
X54380541Y-43035001D01*
X54490198Y-43052369D01*
X54490200Y-43052369D01*
X54490202Y-43052369D01*
X54599858Y-43035001D01*
X54599859Y-43035000D01*
X54599861Y-43035000D01*
X54698787Y-42984595D01*
X54777295Y-42906087D01*
X54827700Y-42807161D01*
X54827700Y-42807159D01*
X54827701Y-42807158D01*
X54845069Y-42697502D01*
X54845069Y-42697497D01*
X54827701Y-42587841D01*
X54827700Y-42587839D01*
X54777295Y-42488913D01*
X54777292Y-42488910D01*
X54777290Y-42488907D01*
X54698792Y-42410409D01*
X54698788Y-42410406D01*
X54698787Y-42410405D01*
X54678366Y-42400000D01*
X54599858Y-42359998D01*
X54490202Y-42342631D01*
X54490198Y-42342631D01*
X54380541Y-42359998D01*
X54281614Y-42410404D01*
X54281607Y-42410409D01*
X54203109Y-42488907D01*
X54203104Y-42488914D01*
X54152698Y-42587841D01*
X54135331Y-42697497D01*
X54135331Y-42697502D01*
X42054579Y-42697502D01*
X42600000Y-42400000D01*
X42600000Y-42074999D01*
X70570035Y-42074999D01*
X70589873Y-42365024D01*
X70649020Y-42649660D01*
X70649021Y-42649663D01*
X70746371Y-42923578D01*
X70880114Y-43181691D01*
X71028929Y-43392515D01*
X71660554Y-42760891D01*
X71721877Y-42727406D01*
X71791568Y-42732390D01*
X71847502Y-42774261D01*
X71849242Y-42776644D01*
X71864893Y-42798623D01*
X71864900Y-42798631D01*
X72011041Y-42937975D01*
X72045977Y-42998483D01*
X72042652Y-43068274D01*
X72013153Y-43115399D01*
X71384428Y-43744123D01*
X71471694Y-43815119D01*
X71720073Y-43966161D01*
X71986714Y-44081981D01*
X72266639Y-44160413D01*
X72266646Y-44160414D01*
X72554645Y-44200000D01*
X72845355Y-44200000D01*
X73133353Y-44160414D01*
X73133360Y-44160413D01*
X73413285Y-44081981D01*
X73679926Y-43966161D01*
X73928305Y-43815119D01*
X74015570Y-43744123D01*
X73384234Y-43112787D01*
X73350749Y-43051464D01*
X73355733Y-42981772D01*
X73395263Y-42927636D01*
X73462540Y-42874729D01*
X73556722Y-42766036D01*
X73615497Y-42728264D01*
X73685367Y-42728264D01*
X73738114Y-42759560D01*
X74371069Y-43392516D01*
X74371070Y-43392515D01*
X74519878Y-43181703D01*
X74519882Y-43181697D01*
X74653628Y-42923578D01*
X74750978Y-42649663D01*
X74750979Y-42649660D01*
X74810126Y-42365024D01*
X74829964Y-42075000D01*
X77170035Y-42075000D01*
X77189873Y-42365024D01*
X77249020Y-42649660D01*
X77249021Y-42649663D01*
X77346371Y-42923578D01*
X77480114Y-43181691D01*
X77628929Y-43392515D01*
X78260554Y-42760891D01*
X78321877Y-42727406D01*
X78391568Y-42732390D01*
X78447502Y-42774261D01*
X78449242Y-42776644D01*
X78464893Y-42798623D01*
X78464900Y-42798631D01*
X78611041Y-42937975D01*
X78645977Y-42998483D01*
X78642652Y-43068274D01*
X78613153Y-43115399D01*
X77984428Y-43744123D01*
X78071694Y-43815119D01*
X78320073Y-43966161D01*
X78586714Y-44081981D01*
X78866639Y-44160413D01*
X78866646Y-44160414D01*
X79154645Y-44200000D01*
X79445355Y-44200000D01*
X79733353Y-44160414D01*
X79733360Y-44160413D01*
X80013285Y-44081981D01*
X80279926Y-43966161D01*
X80528305Y-43815119D01*
X80615570Y-43744123D01*
X79984234Y-43112787D01*
X79950749Y-43051464D01*
X79955733Y-42981772D01*
X79995263Y-42927636D01*
X80062540Y-42874729D01*
X80156722Y-42766036D01*
X80215497Y-42728264D01*
X80285367Y-42728264D01*
X80338114Y-42759560D01*
X80971070Y-43392516D01*
X80971070Y-43392515D01*
X81119878Y-43181703D01*
X81119882Y-43181697D01*
X81253628Y-42923578D01*
X81350978Y-42649663D01*
X81350979Y-42649660D01*
X81410126Y-42365024D01*
X81429964Y-42074999D01*
X81410126Y-41784975D01*
X81350979Y-41500339D01*
X81350978Y-41500336D01*
X81253628Y-41226421D01*
X81119882Y-40968302D01*
X81119878Y-40968296D01*
X80971069Y-40757482D01*
X80339444Y-41389107D01*
X80278121Y-41422592D01*
X80208429Y-41417608D01*
X80152496Y-41375736D01*
X80150755Y-41373352D01*
X80135108Y-41351378D01*
X80135104Y-41351374D01*
X80071092Y-41290339D01*
X79988954Y-41212021D01*
X79954021Y-41151515D01*
X79957346Y-41081724D01*
X79986845Y-41034599D01*
X80615570Y-40405875D01*
X80528315Y-40334887D01*
X80528304Y-40334880D01*
X80279926Y-40183838D01*
X80013285Y-40068018D01*
X79733360Y-39989586D01*
X79733353Y-39989585D01*
X79445355Y-39950000D01*
X79154645Y-39950000D01*
X78866646Y-39989585D01*
X78866639Y-39989586D01*
X78586714Y-40068018D01*
X78320073Y-40183838D01*
X78071693Y-40334881D01*
X78071682Y-40334889D01*
X77984428Y-40405875D01*
X78615765Y-41037212D01*
X78649250Y-41098535D01*
X78644266Y-41168227D01*
X78604737Y-41222363D01*
X78537458Y-41275272D01*
X78537453Y-41275277D01*
X78443278Y-41383960D01*
X78384500Y-41421734D01*
X78314630Y-41421734D01*
X78261885Y-41390438D01*
X77628930Y-40757483D01*
X77480114Y-40968308D01*
X77346371Y-41226421D01*
X77249021Y-41500336D01*
X77249020Y-41500339D01*
X77189873Y-41784975D01*
X77170035Y-42075000D01*
X74829964Y-42075000D01*
X74810126Y-41784975D01*
X74750979Y-41500339D01*
X74750978Y-41500336D01*
X74653628Y-41226421D01*
X74519882Y-40968302D01*
X74519878Y-40968296D01*
X74371069Y-40757482D01*
X73739444Y-41389107D01*
X73678121Y-41422592D01*
X73608429Y-41417608D01*
X73552496Y-41375736D01*
X73550755Y-41373352D01*
X73535108Y-41351378D01*
X73535104Y-41351374D01*
X73471092Y-41290339D01*
X73388954Y-41212021D01*
X73354021Y-41151515D01*
X73357346Y-41081724D01*
X73386845Y-41034599D01*
X74015570Y-40405875D01*
X73928315Y-40334887D01*
X73928304Y-40334880D01*
X73679926Y-40183838D01*
X73413285Y-40068018D01*
X73133360Y-39989586D01*
X73133353Y-39989585D01*
X72845355Y-39950000D01*
X72554645Y-39950000D01*
X72266646Y-39989585D01*
X72266639Y-39989586D01*
X71986714Y-40068018D01*
X71720073Y-40183838D01*
X71471693Y-40334881D01*
X71471682Y-40334889D01*
X71384428Y-40405875D01*
X72015765Y-41037212D01*
X72049250Y-41098535D01*
X72044266Y-41168227D01*
X72004737Y-41222363D01*
X71937458Y-41275272D01*
X71937453Y-41275277D01*
X71843278Y-41383960D01*
X71784500Y-41421734D01*
X71714630Y-41421734D01*
X71661885Y-41390438D01*
X71028930Y-40757483D01*
X70880114Y-40968308D01*
X70746371Y-41226421D01*
X70649021Y-41500336D01*
X70649020Y-41500339D01*
X70589873Y-41784975D01*
X70570035Y-42074999D01*
X42600000Y-42074999D01*
X42600000Y-41400002D01*
X49825131Y-41400002D01*
X49842498Y-41509658D01*
X49892904Y-41608585D01*
X49892909Y-41608592D01*
X49971407Y-41687090D01*
X49971410Y-41687092D01*
X49971413Y-41687095D01*
X50023411Y-41713589D01*
X50070341Y-41737501D01*
X50179998Y-41754869D01*
X50180000Y-41754869D01*
X50180002Y-41754869D01*
X50289658Y-41737501D01*
X50289659Y-41737500D01*
X50289661Y-41737500D01*
X50388587Y-41687095D01*
X50467095Y-41608587D01*
X50517500Y-41509661D01*
X50517500Y-41509659D01*
X50517501Y-41509658D01*
X50534869Y-41400002D01*
X50534869Y-41399997D01*
X50517501Y-41290341D01*
X50517500Y-41290339D01*
X50467095Y-41191413D01*
X50467092Y-41191410D01*
X50467090Y-41191407D01*
X50388592Y-41112909D01*
X50388588Y-41112906D01*
X50388587Y-41112905D01*
X50360384Y-41098535D01*
X50289658Y-41062498D01*
X50180002Y-41045131D01*
X50179998Y-41045131D01*
X50070341Y-41062498D01*
X49971414Y-41112904D01*
X49971407Y-41112909D01*
X49892909Y-41191407D01*
X49892904Y-41191414D01*
X49842498Y-41290341D01*
X49825131Y-41399997D01*
X49825131Y-41400002D01*
X42600000Y-41400002D01*
X42600000Y-40400002D01*
X49825131Y-40400002D01*
X49842498Y-40509658D01*
X49892904Y-40608585D01*
X49892909Y-40608592D01*
X49971407Y-40687090D01*
X49971410Y-40687092D01*
X49971413Y-40687095D01*
X50070339Y-40737500D01*
X50070341Y-40737501D01*
X50179998Y-40754869D01*
X50180000Y-40754869D01*
X50180002Y-40754869D01*
X50289658Y-40737501D01*
X50289659Y-40737500D01*
X50289661Y-40737500D01*
X50388587Y-40687095D01*
X50467095Y-40608587D01*
X50517500Y-40509661D01*
X50517500Y-40509659D01*
X50517501Y-40509658D01*
X50534869Y-40400002D01*
X50534869Y-40399997D01*
X50517501Y-40290341D01*
X50517500Y-40290339D01*
X50467095Y-40191413D01*
X50467092Y-40191410D01*
X50467090Y-40191407D01*
X50388592Y-40112909D01*
X50388588Y-40112906D01*
X50388587Y-40112905D01*
X50384743Y-40110946D01*
X50289658Y-40062498D01*
X50180002Y-40045131D01*
X50179998Y-40045131D01*
X50070341Y-40062498D01*
X49971414Y-40112904D01*
X49971407Y-40112909D01*
X49892909Y-40191407D01*
X49892904Y-40191414D01*
X49842498Y-40290341D01*
X49825131Y-40399997D01*
X49825131Y-40400002D01*
X42600000Y-40400002D01*
X42600000Y-38324000D01*
X42619685Y-38256961D01*
X42636372Y-38242502D01*
X55335331Y-38242502D01*
X55352698Y-38352158D01*
X55403104Y-38451085D01*
X55403109Y-38451092D01*
X55481607Y-38529590D01*
X55481610Y-38529592D01*
X55481613Y-38529595D01*
X55546193Y-38562500D01*
X55580541Y-38580001D01*
X55690198Y-38597369D01*
X55690200Y-38597369D01*
X55690202Y-38597369D01*
X55799858Y-38580001D01*
X55799859Y-38580000D01*
X55799861Y-38580000D01*
X55898787Y-38529595D01*
X55977295Y-38451087D01*
X56027700Y-38352161D01*
X56027700Y-38352159D01*
X56027701Y-38352158D01*
X56045069Y-38242502D01*
X56045069Y-38242497D01*
X56027701Y-38132841D01*
X55982447Y-38044025D01*
X55977295Y-38033913D01*
X55977292Y-38033910D01*
X55977290Y-38033907D01*
X55898792Y-37955409D01*
X55898788Y-37955406D01*
X55898787Y-37955405D01*
X55894943Y-37953446D01*
X55799858Y-37904998D01*
X55690202Y-37887631D01*
X55690198Y-37887631D01*
X55580541Y-37904998D01*
X55481614Y-37955404D01*
X55481607Y-37955409D01*
X55403109Y-38033907D01*
X55403104Y-38033914D01*
X55352698Y-38132841D01*
X55335331Y-38242497D01*
X55335331Y-38242502D01*
X42636372Y-38242502D01*
X42672489Y-38211206D01*
X42724000Y-38200000D01*
X45000000Y-38200000D01*
X45000000Y-37600002D01*
X66145131Y-37600002D01*
X66162498Y-37709658D01*
X66212904Y-37808585D01*
X66212909Y-37808592D01*
X66291407Y-37887090D01*
X66291410Y-37887092D01*
X66291413Y-37887095D01*
X66326550Y-37904998D01*
X66390341Y-37937501D01*
X66499998Y-37954869D01*
X66500000Y-37954869D01*
X66500002Y-37954869D01*
X66609658Y-37937501D01*
X66609659Y-37937500D01*
X66609661Y-37937500D01*
X66708587Y-37887095D01*
X66787095Y-37808587D01*
X66801660Y-37780002D01*
X67345131Y-37780002D01*
X67362498Y-37889658D01*
X67412904Y-37988585D01*
X67412909Y-37988592D01*
X67491407Y-38067090D01*
X67491410Y-38067092D01*
X67491413Y-38067095D01*
X67574948Y-38109658D01*
X67590341Y-38117501D01*
X67699998Y-38134869D01*
X67700000Y-38134869D01*
X67700002Y-38134869D01*
X67809658Y-38117501D01*
X67809659Y-38117500D01*
X67809661Y-38117500D01*
X67908587Y-38067095D01*
X67987095Y-37988587D01*
X68037500Y-37889661D01*
X68037500Y-37889659D01*
X68037501Y-37889658D01*
X68054869Y-37780002D01*
X68645131Y-37780002D01*
X68662498Y-37889658D01*
X68712904Y-37988585D01*
X68712909Y-37988592D01*
X68791407Y-38067090D01*
X68791410Y-38067092D01*
X68791413Y-38067095D01*
X68874948Y-38109658D01*
X68890341Y-38117501D01*
X68999998Y-38134869D01*
X69000000Y-38134869D01*
X69000002Y-38134869D01*
X69109658Y-38117501D01*
X69109659Y-38117500D01*
X69109661Y-38117500D01*
X69208587Y-38067095D01*
X69275680Y-38000002D01*
X78345131Y-38000002D01*
X78362498Y-38109658D01*
X78412904Y-38208585D01*
X78412909Y-38208592D01*
X78491407Y-38287090D01*
X78491410Y-38287092D01*
X78491413Y-38287095D01*
X78563844Y-38324000D01*
X78590341Y-38337501D01*
X78699998Y-38354869D01*
X78700000Y-38354869D01*
X78700002Y-38354869D01*
X78809658Y-38337501D01*
X78809659Y-38337500D01*
X78809661Y-38337500D01*
X78908587Y-38287095D01*
X78987095Y-38208587D01*
X79037500Y-38109661D01*
X79037500Y-38109659D01*
X79037501Y-38109658D01*
X79054869Y-38000002D01*
X79054869Y-37999997D01*
X79037501Y-37890341D01*
X79029612Y-37874858D01*
X78987095Y-37791413D01*
X78987092Y-37791410D01*
X78987090Y-37791407D01*
X78908592Y-37712909D01*
X78908588Y-37712906D01*
X78908587Y-37712905D01*
X78902214Y-37709658D01*
X78809658Y-37662498D01*
X78700002Y-37645131D01*
X78699998Y-37645131D01*
X78590341Y-37662498D01*
X78491414Y-37712904D01*
X78491407Y-37712909D01*
X78412909Y-37791407D01*
X78412904Y-37791414D01*
X78362498Y-37890341D01*
X78345131Y-37999997D01*
X78345131Y-38000002D01*
X69275680Y-38000002D01*
X69287095Y-37988587D01*
X69337500Y-37889661D01*
X69337500Y-37889659D01*
X69337501Y-37889658D01*
X69354869Y-37780002D01*
X69354869Y-37779997D01*
X69337501Y-37670341D01*
X69324656Y-37645131D01*
X69287095Y-37571413D01*
X69287092Y-37571410D01*
X69287090Y-37571407D01*
X69208592Y-37492909D01*
X69208588Y-37492906D01*
X69208587Y-37492905D01*
X69203551Y-37490339D01*
X69109658Y-37442498D01*
X69000002Y-37425131D01*
X68999998Y-37425131D01*
X68890341Y-37442498D01*
X68791414Y-37492904D01*
X68791407Y-37492909D01*
X68712909Y-37571407D01*
X68712904Y-37571414D01*
X68662498Y-37670341D01*
X68645131Y-37779997D01*
X68645131Y-37780002D01*
X68054869Y-37780002D01*
X68054869Y-37779997D01*
X68037501Y-37670341D01*
X68024656Y-37645131D01*
X67987095Y-37571413D01*
X67987092Y-37571410D01*
X67987090Y-37571407D01*
X67908592Y-37492909D01*
X67908588Y-37492906D01*
X67908587Y-37492905D01*
X67903551Y-37490339D01*
X67809658Y-37442498D01*
X67700002Y-37425131D01*
X67699998Y-37425131D01*
X67590341Y-37442498D01*
X67491414Y-37492904D01*
X67491407Y-37492909D01*
X67412909Y-37571407D01*
X67412904Y-37571414D01*
X67362498Y-37670341D01*
X67345131Y-37779997D01*
X67345131Y-37780002D01*
X66801660Y-37780002D01*
X66837500Y-37709661D01*
X66837500Y-37709659D01*
X66837501Y-37709658D01*
X66854869Y-37600002D01*
X66854869Y-37599997D01*
X66837501Y-37490341D01*
X66813124Y-37442498D01*
X66787095Y-37391413D01*
X66787092Y-37391410D01*
X66787090Y-37391407D01*
X66708592Y-37312909D01*
X66708588Y-37312906D01*
X66708587Y-37312905D01*
X66704743Y-37310946D01*
X66609658Y-37262498D01*
X66500002Y-37245131D01*
X66499998Y-37245131D01*
X66390341Y-37262498D01*
X66291414Y-37312904D01*
X66291407Y-37312909D01*
X66212909Y-37391407D01*
X66212904Y-37391414D01*
X66162498Y-37490341D01*
X66145131Y-37599997D01*
X66145131Y-37600002D01*
X45000000Y-37600002D01*
X45000000Y-37124000D01*
X45019685Y-37056961D01*
X45072489Y-37011206D01*
X45124000Y-37000000D01*
X50200000Y-37000000D01*
X50200000Y-36480002D01*
X54839531Y-36480002D01*
X54856898Y-36589658D01*
X54907304Y-36688585D01*
X54907309Y-36688592D01*
X54985807Y-36767090D01*
X54985810Y-36767092D01*
X54985813Y-36767095D01*
X55044682Y-36797090D01*
X55084741Y-36817501D01*
X55194398Y-36834869D01*
X55194400Y-36834869D01*
X55194402Y-36834869D01*
X55304058Y-36817501D01*
X55304059Y-36817500D01*
X55304061Y-36817500D01*
X55402987Y-36767095D01*
X55481495Y-36688587D01*
X55531900Y-36589661D01*
X55531900Y-36589659D01*
X55531901Y-36589658D01*
X55544517Y-36510002D01*
X67970131Y-36510002D01*
X67987498Y-36619658D01*
X68037904Y-36718585D01*
X68037909Y-36718592D01*
X68116407Y-36797090D01*
X68116410Y-36797092D01*
X68116413Y-36797095D01*
X68190549Y-36834869D01*
X68215341Y-36847501D01*
X68324998Y-36864869D01*
X68325000Y-36864869D01*
X68325002Y-36864869D01*
X68434658Y-36847501D01*
X68434659Y-36847500D01*
X68434661Y-36847500D01*
X68533587Y-36797095D01*
X68612095Y-36718587D01*
X68662500Y-36619661D01*
X68662500Y-36619659D01*
X68662501Y-36619658D01*
X68679869Y-36510002D01*
X68679869Y-36509997D01*
X68662501Y-36400341D01*
X68634370Y-36345131D01*
X68612095Y-36301413D01*
X68612092Y-36301410D01*
X68612090Y-36301407D01*
X68533592Y-36222909D01*
X68533588Y-36222906D01*
X68533587Y-36222905D01*
X68495581Y-36203540D01*
X68434658Y-36172498D01*
X68325002Y-36155131D01*
X68324998Y-36155131D01*
X68215341Y-36172498D01*
X68116414Y-36222904D01*
X68116407Y-36222909D01*
X68037909Y-36301407D01*
X68037904Y-36301414D01*
X67987498Y-36400341D01*
X67970131Y-36509997D01*
X67970131Y-36510002D01*
X55544517Y-36510002D01*
X55549269Y-36480002D01*
X55549269Y-36479997D01*
X55531901Y-36370341D01*
X55496781Y-36301414D01*
X55481495Y-36271413D01*
X55481492Y-36271410D01*
X55481490Y-36271407D01*
X55402992Y-36192909D01*
X55402988Y-36192906D01*
X55402987Y-36192905D01*
X55362936Y-36172498D01*
X55304058Y-36142498D01*
X55194402Y-36125131D01*
X55194398Y-36125131D01*
X55084741Y-36142498D01*
X54985814Y-36192904D01*
X54985807Y-36192909D01*
X54907309Y-36271407D01*
X54907304Y-36271414D01*
X54856898Y-36370341D01*
X54839531Y-36479997D01*
X54839531Y-36480002D01*
X50200000Y-36480002D01*
X50200000Y-35240002D01*
X67970131Y-35240002D01*
X67987498Y-35349658D01*
X68037904Y-35448585D01*
X68037909Y-35448592D01*
X68116407Y-35527090D01*
X68116410Y-35527092D01*
X68116413Y-35527095D01*
X68215339Y-35577500D01*
X68215341Y-35577501D01*
X68324998Y-35594869D01*
X68325000Y-35594869D01*
X68325002Y-35594869D01*
X68434658Y-35577501D01*
X68434659Y-35577500D01*
X68434661Y-35577500D01*
X68533587Y-35527095D01*
X68612095Y-35448587D01*
X68662500Y-35349661D01*
X68662500Y-35349659D01*
X68662501Y-35349658D01*
X68679869Y-35240002D01*
X68679869Y-35239997D01*
X68662501Y-35130341D01*
X68662500Y-35130339D01*
X68612095Y-35031413D01*
X68612092Y-35031410D01*
X68612090Y-35031407D01*
X68533592Y-34952909D01*
X68533588Y-34952906D01*
X68533587Y-34952905D01*
X68529743Y-34950946D01*
X68434658Y-34902498D01*
X68325002Y-34885131D01*
X68324998Y-34885131D01*
X68215341Y-34902498D01*
X68116414Y-34952904D01*
X68116407Y-34952909D01*
X68037909Y-35031407D01*
X68037904Y-35031414D01*
X67987498Y-35130341D01*
X67970131Y-35239997D01*
X67970131Y-35240002D01*
X50200000Y-35240002D01*
X50200000Y-33970002D01*
X67970131Y-33970002D01*
X67987498Y-34079658D01*
X68037904Y-34178585D01*
X68037909Y-34178592D01*
X68116407Y-34257090D01*
X68116410Y-34257092D01*
X68116413Y-34257095D01*
X68215339Y-34307500D01*
X68215341Y-34307501D01*
X68324998Y-34324869D01*
X68325000Y-34324869D01*
X68325002Y-34324869D01*
X68434658Y-34307501D01*
X68434659Y-34307500D01*
X68434661Y-34307500D01*
X68533587Y-34257095D01*
X68612095Y-34178587D01*
X68662500Y-34079661D01*
X68662500Y-34079659D01*
X68662501Y-34079658D01*
X68679869Y-33970002D01*
X68679869Y-33969997D01*
X68662501Y-33860341D01*
X68651964Y-33839661D01*
X68612095Y-33761413D01*
X68612092Y-33761410D01*
X68612090Y-33761407D01*
X68580685Y-33730002D01*
X78345131Y-33730002D01*
X78362498Y-33839658D01*
X78412904Y-33938585D01*
X78412909Y-33938592D01*
X78491407Y-34017090D01*
X78491410Y-34017092D01*
X78491413Y-34017095D01*
X78580526Y-34062500D01*
X78590341Y-34067501D01*
X78699998Y-34084869D01*
X78700000Y-34084869D01*
X78700002Y-34084869D01*
X78809658Y-34067501D01*
X78809659Y-34067500D01*
X78809661Y-34067500D01*
X78908587Y-34017095D01*
X78987095Y-33938587D01*
X79037500Y-33839661D01*
X79037500Y-33839659D01*
X79037501Y-33839658D01*
X79054869Y-33730002D01*
X79054869Y-33729997D01*
X79037501Y-33620341D01*
X79034846Y-33615131D01*
X78987095Y-33521413D01*
X78987092Y-33521410D01*
X78987090Y-33521407D01*
X78908592Y-33442909D01*
X78908588Y-33442906D01*
X78908587Y-33442905D01*
X78904743Y-33440946D01*
X78809658Y-33392498D01*
X78700002Y-33375131D01*
X78699998Y-33375131D01*
X78590341Y-33392498D01*
X78491414Y-33442904D01*
X78491407Y-33442909D01*
X78412909Y-33521407D01*
X78412904Y-33521414D01*
X78362498Y-33620341D01*
X78345131Y-33729997D01*
X78345131Y-33730002D01*
X68580685Y-33730002D01*
X68533592Y-33682909D01*
X68533588Y-33682906D01*
X68533587Y-33682905D01*
X68529743Y-33680946D01*
X68434658Y-33632498D01*
X68325002Y-33615131D01*
X68324998Y-33615131D01*
X68215341Y-33632498D01*
X68116414Y-33682904D01*
X68116407Y-33682909D01*
X68037909Y-33761407D01*
X68037904Y-33761414D01*
X67987498Y-33860341D01*
X67970131Y-33969997D01*
X67970131Y-33970002D01*
X50200000Y-33970002D01*
X50200000Y-31680902D01*
X53645731Y-31680902D01*
X53663098Y-31790558D01*
X53713504Y-31889485D01*
X53713509Y-31889492D01*
X53792007Y-31967990D01*
X53792010Y-31967992D01*
X53792013Y-31967995D01*
X53890939Y-32018400D01*
X53890941Y-32018401D01*
X54000598Y-32035769D01*
X54000600Y-32035769D01*
X54000602Y-32035769D01*
X54110258Y-32018401D01*
X54110259Y-32018400D01*
X54110261Y-32018400D01*
X54209187Y-31967995D01*
X54287695Y-31889487D01*
X54338100Y-31790561D01*
X54338100Y-31790559D01*
X54338101Y-31790558D01*
X54355469Y-31680902D01*
X54355469Y-31680897D01*
X54338101Y-31571241D01*
X54302522Y-31501413D01*
X54287695Y-31472313D01*
X54287692Y-31472310D01*
X54287690Y-31472307D01*
X54209192Y-31393809D01*
X54209188Y-31393806D01*
X54209187Y-31393805D01*
X54205343Y-31391846D01*
X54110258Y-31343398D01*
X54000602Y-31326031D01*
X54000598Y-31326031D01*
X53890941Y-31343398D01*
X53792014Y-31393804D01*
X53792007Y-31393809D01*
X53713509Y-31472307D01*
X53713504Y-31472314D01*
X53663098Y-31571241D01*
X53645731Y-31680897D01*
X53645731Y-31680902D01*
X50200000Y-31680902D01*
X50200000Y-29675000D01*
X70570035Y-29675000D01*
X70589873Y-29965024D01*
X70649020Y-30249660D01*
X70649021Y-30249663D01*
X70746371Y-30523578D01*
X70880114Y-30781691D01*
X71028929Y-30992515D01*
X71660554Y-30360891D01*
X71721877Y-30327406D01*
X71791568Y-30332390D01*
X71847502Y-30374261D01*
X71849242Y-30376644D01*
X71864893Y-30398623D01*
X71864900Y-30398631D01*
X72011041Y-30537975D01*
X72045977Y-30598483D01*
X72042652Y-30668274D01*
X72013153Y-30715399D01*
X71384428Y-31344123D01*
X71471694Y-31415119D01*
X71720073Y-31566161D01*
X71986714Y-31681981D01*
X72266639Y-31760413D01*
X72266646Y-31760414D01*
X72554645Y-31800000D01*
X72845355Y-31800000D01*
X73133353Y-31760414D01*
X73133360Y-31760413D01*
X73413285Y-31681981D01*
X73679926Y-31566161D01*
X73928305Y-31415119D01*
X74015570Y-31344123D01*
X73384234Y-30712787D01*
X73350749Y-30651464D01*
X73355733Y-30581772D01*
X73395263Y-30527636D01*
X73462540Y-30474729D01*
X73556722Y-30366036D01*
X73615497Y-30328264D01*
X73685367Y-30328264D01*
X73738114Y-30359560D01*
X74371069Y-30992515D01*
X74371070Y-30992515D01*
X74519878Y-30781703D01*
X74519882Y-30781697D01*
X74653628Y-30523578D01*
X74750978Y-30249663D01*
X74750979Y-30249660D01*
X74810126Y-29965024D01*
X74829964Y-29674999D01*
X77170035Y-29674999D01*
X77189873Y-29965024D01*
X77249020Y-30249660D01*
X77249021Y-30249663D01*
X77346371Y-30523578D01*
X77480114Y-30781691D01*
X77628929Y-30992515D01*
X78260554Y-30360891D01*
X78321877Y-30327406D01*
X78391568Y-30332390D01*
X78447502Y-30374261D01*
X78449242Y-30376644D01*
X78464893Y-30398623D01*
X78464900Y-30398631D01*
X78611041Y-30537975D01*
X78645977Y-30598483D01*
X78642652Y-30668274D01*
X78613153Y-30715399D01*
X77984428Y-31344123D01*
X78071694Y-31415119D01*
X78320073Y-31566161D01*
X78586714Y-31681981D01*
X78866639Y-31760413D01*
X78866646Y-31760414D01*
X79154645Y-31800000D01*
X79445355Y-31800000D01*
X79733353Y-31760414D01*
X79733360Y-31760413D01*
X80013285Y-31681981D01*
X80279926Y-31566161D01*
X80528305Y-31415119D01*
X80615570Y-31344123D01*
X79984234Y-30712787D01*
X79950749Y-30651464D01*
X79955733Y-30581772D01*
X79995263Y-30527636D01*
X80062540Y-30474729D01*
X80156722Y-30366036D01*
X80215497Y-30328264D01*
X80285367Y-30328264D01*
X80338114Y-30359560D01*
X80971070Y-30992516D01*
X80971070Y-30992515D01*
X81119878Y-30781703D01*
X81119882Y-30781697D01*
X81253628Y-30523578D01*
X81350978Y-30249663D01*
X81350979Y-30249660D01*
X81410126Y-29965024D01*
X81429964Y-29675000D01*
X81410126Y-29384975D01*
X81350979Y-29100339D01*
X81350978Y-29100336D01*
X81253628Y-28826421D01*
X81119882Y-28568302D01*
X81119878Y-28568296D01*
X80971069Y-28357482D01*
X80339444Y-28989107D01*
X80278121Y-29022592D01*
X80208429Y-29017608D01*
X80152496Y-28975736D01*
X80150755Y-28973352D01*
X80135108Y-28951378D01*
X80135104Y-28951374D01*
X80119900Y-28936877D01*
X79988954Y-28812021D01*
X79954021Y-28751515D01*
X79957346Y-28681724D01*
X79986845Y-28634599D01*
X80615570Y-28005875D01*
X80528315Y-27934887D01*
X80528304Y-27934880D01*
X80279926Y-27783838D01*
X80013285Y-27668018D01*
X79733360Y-27589586D01*
X79733353Y-27589585D01*
X79445355Y-27550000D01*
X79154645Y-27550000D01*
X78866646Y-27589585D01*
X78866639Y-27589586D01*
X78586714Y-27668018D01*
X78320073Y-27783838D01*
X78071693Y-27934881D01*
X78071682Y-27934889D01*
X77984428Y-28005875D01*
X78615765Y-28637212D01*
X78649250Y-28698535D01*
X78644266Y-28768227D01*
X78604737Y-28822363D01*
X78537458Y-28875272D01*
X78537453Y-28875277D01*
X78443278Y-28983960D01*
X78384500Y-29021734D01*
X78314630Y-29021734D01*
X78261885Y-28990438D01*
X77628930Y-28357483D01*
X77480114Y-28568308D01*
X77346371Y-28826421D01*
X77249021Y-29100336D01*
X77249020Y-29100339D01*
X77189873Y-29384975D01*
X77170035Y-29674999D01*
X74829964Y-29674999D01*
X74810126Y-29384975D01*
X74750979Y-29100339D01*
X74750978Y-29100336D01*
X74653628Y-28826421D01*
X74519882Y-28568302D01*
X74519878Y-28568296D01*
X74371069Y-28357482D01*
X73739444Y-28989107D01*
X73678121Y-29022592D01*
X73608429Y-29017608D01*
X73552496Y-28975736D01*
X73550755Y-28973352D01*
X73535108Y-28951378D01*
X73535104Y-28951374D01*
X73519900Y-28936877D01*
X73388954Y-28812021D01*
X73354021Y-28751515D01*
X73357346Y-28681724D01*
X73386845Y-28634599D01*
X74015570Y-28005875D01*
X73928315Y-27934887D01*
X73928304Y-27934880D01*
X73679926Y-27783838D01*
X73413285Y-27668018D01*
X73133360Y-27589586D01*
X73133353Y-27589585D01*
X72845355Y-27550000D01*
X72554645Y-27550000D01*
X72266646Y-27589585D01*
X72266639Y-27589586D01*
X71986714Y-27668018D01*
X71720073Y-27783838D01*
X71471693Y-27934881D01*
X71471682Y-27934889D01*
X71384428Y-28005875D01*
X72015765Y-28637212D01*
X72049250Y-28698535D01*
X72044266Y-28768227D01*
X72004737Y-28822363D01*
X71937458Y-28875272D01*
X71937453Y-28875277D01*
X71843278Y-28983960D01*
X71784500Y-29021734D01*
X71714630Y-29021734D01*
X71661885Y-28990438D01*
X71028930Y-28357483D01*
X70880114Y-28568308D01*
X70746371Y-28826421D01*
X70649021Y-29100336D01*
X70649020Y-29100339D01*
X70589873Y-29384975D01*
X70570035Y-29675000D01*
X50200000Y-29675000D01*
X50200000Y-28600000D01*
X46924000Y-28600000D01*
X46856961Y-28580315D01*
X46811206Y-28527511D01*
X46800000Y-28476000D01*
X46800000Y-26980002D01*
X58545131Y-26980002D01*
X58562498Y-27089658D01*
X58612904Y-27188585D01*
X58612909Y-27188592D01*
X58691407Y-27267090D01*
X58691410Y-27267092D01*
X58691413Y-27267095D01*
X58762454Y-27303292D01*
X58790341Y-27317501D01*
X58899998Y-27334869D01*
X58900000Y-27334869D01*
X58900002Y-27334869D01*
X59009658Y-27317501D01*
X59009659Y-27317500D01*
X59009661Y-27317500D01*
X59108587Y-27267095D01*
X59187095Y-27188587D01*
X59237500Y-27089661D01*
X59237500Y-27089659D01*
X59237501Y-27089658D01*
X59254869Y-26980002D01*
X59545131Y-26980002D01*
X59562498Y-27089658D01*
X59612904Y-27188585D01*
X59612909Y-27188592D01*
X59691407Y-27267090D01*
X59691410Y-27267092D01*
X59691413Y-27267095D01*
X59762454Y-27303292D01*
X59790341Y-27317501D01*
X59899998Y-27334869D01*
X59900000Y-27334869D01*
X59900002Y-27334869D01*
X60009658Y-27317501D01*
X60009659Y-27317500D01*
X60009661Y-27317500D01*
X60108587Y-27267095D01*
X60187095Y-27188587D01*
X60237500Y-27089661D01*
X60237500Y-27089659D01*
X60237501Y-27089658D01*
X60254457Y-26982602D01*
X61584931Y-26982602D01*
X61602298Y-27092258D01*
X61652704Y-27191185D01*
X61652709Y-27191192D01*
X61731207Y-27269690D01*
X61731210Y-27269692D01*
X61731213Y-27269695D01*
X61825036Y-27317500D01*
X61830141Y-27320101D01*
X61939798Y-27337469D01*
X61939800Y-27337469D01*
X61939802Y-27337469D01*
X62049458Y-27320101D01*
X62049459Y-27320100D01*
X62049461Y-27320100D01*
X62148387Y-27269695D01*
X62226895Y-27191187D01*
X62276056Y-27094702D01*
X64072431Y-27094702D01*
X64089798Y-27204358D01*
X64140204Y-27303285D01*
X64140209Y-27303292D01*
X64218707Y-27381790D01*
X64218710Y-27381792D01*
X64218713Y-27381795D01*
X64317639Y-27432200D01*
X64317641Y-27432201D01*
X64427298Y-27449569D01*
X64427300Y-27449569D01*
X64427302Y-27449569D01*
X64536958Y-27432201D01*
X64536959Y-27432200D01*
X64536961Y-27432200D01*
X64635887Y-27381795D01*
X64714395Y-27303287D01*
X64764800Y-27204361D01*
X64764800Y-27204359D01*
X64764801Y-27204358D01*
X64782169Y-27094702D01*
X64782169Y-27094697D01*
X64764801Y-26985041D01*
X64763556Y-26982597D01*
X64714395Y-26886113D01*
X64714392Y-26886110D01*
X64714390Y-26886107D01*
X64635892Y-26807609D01*
X64635888Y-26807606D01*
X64635887Y-26807605D01*
X64632043Y-26805646D01*
X64536958Y-26757198D01*
X64427302Y-26739831D01*
X64427298Y-26739831D01*
X64317641Y-26757198D01*
X64218714Y-26807604D01*
X64218707Y-26807609D01*
X64140209Y-26886107D01*
X64140204Y-26886114D01*
X64089798Y-26985041D01*
X64072431Y-27094697D01*
X64072431Y-27094702D01*
X62276056Y-27094702D01*
X62277300Y-27092261D01*
X62277300Y-27092259D01*
X62277301Y-27092258D01*
X62294669Y-26982602D01*
X62294669Y-26982597D01*
X62277301Y-26872941D01*
X62244010Y-26807604D01*
X62226895Y-26774013D01*
X62226892Y-26774010D01*
X62226890Y-26774007D01*
X62148392Y-26695509D01*
X62148388Y-26695506D01*
X62148387Y-26695505D01*
X62143282Y-26692904D01*
X62049458Y-26645098D01*
X61939802Y-26627731D01*
X61939798Y-26627731D01*
X61830141Y-26645098D01*
X61731214Y-26695504D01*
X61731207Y-26695509D01*
X61652709Y-26774007D01*
X61652704Y-26774014D01*
X61602298Y-26872941D01*
X61584931Y-26982597D01*
X61584931Y-26982602D01*
X60254457Y-26982602D01*
X60254869Y-26980002D01*
X60254869Y-26979997D01*
X60237501Y-26870341D01*
X60237500Y-26870339D01*
X60187095Y-26771413D01*
X60187092Y-26771410D01*
X60187090Y-26771407D01*
X60108592Y-26692909D01*
X60108588Y-26692906D01*
X60108587Y-26692905D01*
X60104743Y-26690946D01*
X60009658Y-26642498D01*
X59900002Y-26625131D01*
X59899998Y-26625131D01*
X59790341Y-26642498D01*
X59691414Y-26692904D01*
X59691407Y-26692909D01*
X59612909Y-26771407D01*
X59612904Y-26771414D01*
X59562498Y-26870341D01*
X59545131Y-26979997D01*
X59545131Y-26980002D01*
X59254869Y-26980002D01*
X59254869Y-26979997D01*
X59237501Y-26870341D01*
X59237500Y-26870339D01*
X59187095Y-26771413D01*
X59187092Y-26771410D01*
X59187090Y-26771407D01*
X59108592Y-26692909D01*
X59108588Y-26692906D01*
X59108587Y-26692905D01*
X59104743Y-26690946D01*
X59009658Y-26642498D01*
X58900002Y-26625131D01*
X58899998Y-26625131D01*
X58790341Y-26642498D01*
X58691414Y-26692904D01*
X58691407Y-26692909D01*
X58612909Y-26771407D01*
X58612904Y-26771414D01*
X58562498Y-26870341D01*
X58545131Y-26979997D01*
X58545131Y-26980002D01*
X46800000Y-26980002D01*
X46800000Y-26375000D01*
X74894785Y-26375000D01*
X74913602Y-26578082D01*
X74969417Y-26774247D01*
X74969422Y-26774260D01*
X75060327Y-26956821D01*
X75183237Y-27119581D01*
X75333958Y-27256980D01*
X75333960Y-27256982D01*
X75408743Y-27303285D01*
X75507363Y-27364348D01*
X75697544Y-27438024D01*
X75898024Y-27475500D01*
X75898026Y-27475500D01*
X76101974Y-27475500D01*
X76101976Y-27475500D01*
X76302456Y-27438024D01*
X76492637Y-27364348D01*
X76666041Y-27256981D01*
X76816764Y-27119579D01*
X76939673Y-26956821D01*
X77030582Y-26774250D01*
X77086397Y-26578083D01*
X77105215Y-26375000D01*
X77086397Y-26171917D01*
X77030582Y-25975750D01*
X77030207Y-25974997D01*
X76975604Y-25865339D01*
X76939673Y-25793179D01*
X76850430Y-25675002D01*
X76816762Y-25630418D01*
X76666041Y-25493019D01*
X76666039Y-25493017D01*
X76492642Y-25385655D01*
X76492635Y-25385651D01*
X76368336Y-25337498D01*
X76302456Y-25311976D01*
X76101976Y-25274500D01*
X75898024Y-25274500D01*
X75697544Y-25311976D01*
X75697541Y-25311976D01*
X75697541Y-25311977D01*
X75507364Y-25385651D01*
X75507357Y-25385655D01*
X75333960Y-25493017D01*
X75333958Y-25493019D01*
X75183237Y-25630418D01*
X75060327Y-25793178D01*
X74969422Y-25975739D01*
X74969417Y-25975752D01*
X74913602Y-26171917D01*
X74894785Y-26374999D01*
X74894785Y-26375000D01*
X46800000Y-26375000D01*
X46800000Y-25675002D01*
X48645131Y-25675002D01*
X48662498Y-25784658D01*
X48712904Y-25883585D01*
X48712909Y-25883592D01*
X48791407Y-25962090D01*
X48791410Y-25962092D01*
X48791413Y-25962095D01*
X48818213Y-25975750D01*
X48890341Y-26012501D01*
X48999998Y-26029869D01*
X49000000Y-26029869D01*
X49000002Y-26029869D01*
X49109658Y-26012501D01*
X49109659Y-26012500D01*
X49109661Y-26012500D01*
X49183255Y-25975002D01*
X49890131Y-25975002D01*
X49907498Y-26084658D01*
X49957904Y-26183585D01*
X49957909Y-26183592D01*
X50036407Y-26262090D01*
X50036410Y-26262092D01*
X50036413Y-26262095D01*
X50135339Y-26312500D01*
X50135341Y-26312501D01*
X50244998Y-26329869D01*
X50245000Y-26329869D01*
X50245002Y-26329869D01*
X50354658Y-26312501D01*
X50354659Y-26312500D01*
X50354661Y-26312500D01*
X50453587Y-26262095D01*
X50532095Y-26183587D01*
X50582500Y-26084661D01*
X50582500Y-26084659D01*
X50582501Y-26084658D01*
X50599869Y-25975002D01*
X50599869Y-25974997D01*
X50582501Y-25865341D01*
X50582500Y-25865339D01*
X50532095Y-25766413D01*
X50532092Y-25766410D01*
X50532090Y-25766407D01*
X50453592Y-25687909D01*
X50453588Y-25687906D01*
X50453587Y-25687905D01*
X50428263Y-25675002D01*
X50354658Y-25637498D01*
X50245002Y-25620131D01*
X50244998Y-25620131D01*
X50135341Y-25637498D01*
X50036414Y-25687904D01*
X50036407Y-25687909D01*
X49957909Y-25766407D01*
X49957904Y-25766414D01*
X49907498Y-25865341D01*
X49890131Y-25974997D01*
X49890131Y-25975002D01*
X49183255Y-25975002D01*
X49208587Y-25962095D01*
X49287095Y-25883587D01*
X49337500Y-25784661D01*
X49337500Y-25784659D01*
X49337501Y-25784658D01*
X49354869Y-25675002D01*
X49354869Y-25674997D01*
X49337501Y-25565341D01*
X49300650Y-25493017D01*
X49287095Y-25466413D01*
X49287092Y-25466410D01*
X49287090Y-25466407D01*
X49208592Y-25387909D01*
X49208588Y-25387906D01*
X49208587Y-25387905D01*
X49204163Y-25385651D01*
X49109658Y-25337498D01*
X49000002Y-25320131D01*
X48999998Y-25320131D01*
X48890341Y-25337498D01*
X48791414Y-25387904D01*
X48791407Y-25387909D01*
X48712909Y-25466407D01*
X48712904Y-25466414D01*
X48662498Y-25565341D01*
X48645131Y-25674997D01*
X48645131Y-25675002D01*
X46800000Y-25675002D01*
X46800000Y-24955002D01*
X49870131Y-24955002D01*
X49887498Y-25064658D01*
X49937904Y-25163585D01*
X49937909Y-25163592D01*
X50016407Y-25242090D01*
X50016410Y-25242092D01*
X50016413Y-25242095D01*
X50080012Y-25274500D01*
X50115341Y-25292501D01*
X50224998Y-25309869D01*
X50225000Y-25309869D01*
X50225002Y-25309869D01*
X50334658Y-25292501D01*
X50334659Y-25292500D01*
X50334661Y-25292500D01*
X50433587Y-25242095D01*
X50512095Y-25163587D01*
X50562500Y-25064661D01*
X50562500Y-25064659D01*
X50562501Y-25064658D01*
X50579869Y-24955002D01*
X50579869Y-24954997D01*
X50562501Y-24845341D01*
X50547102Y-24815119D01*
X50512095Y-24746413D01*
X50512092Y-24746410D01*
X50512090Y-24746407D01*
X50433592Y-24667909D01*
X50433588Y-24667906D01*
X50433587Y-24667905D01*
X50429743Y-24665946D01*
X50334658Y-24617498D01*
X50225002Y-24600131D01*
X50224998Y-24600131D01*
X50115341Y-24617498D01*
X50016414Y-24667904D01*
X50016407Y-24667909D01*
X49937909Y-24746407D01*
X49937904Y-24746414D01*
X49887498Y-24845341D01*
X49870131Y-24954997D01*
X49870131Y-24955002D01*
X46800000Y-24955002D01*
X46800000Y-22095002D01*
X49870131Y-22095002D01*
X49887498Y-22204658D01*
X49937904Y-22303585D01*
X49937909Y-22303592D01*
X50016407Y-22382090D01*
X50016410Y-22382092D01*
X50016413Y-22382095D01*
X50106191Y-22427839D01*
X50115341Y-22432501D01*
X50224998Y-22449869D01*
X50225000Y-22449869D01*
X50225002Y-22449869D01*
X50334658Y-22432501D01*
X50334659Y-22432500D01*
X50334661Y-22432500D01*
X50433587Y-22382095D01*
X50512095Y-22303587D01*
X50562500Y-22204661D01*
X50562500Y-22204659D01*
X50562501Y-22204658D01*
X50575118Y-22125001D01*
X51419318Y-22125001D01*
X51439955Y-22281760D01*
X51439956Y-22281762D01*
X51500464Y-22427841D01*
X51596718Y-22553282D01*
X51722159Y-22649536D01*
X51868238Y-22710044D01*
X51946619Y-22720363D01*
X52024999Y-22730682D01*
X52025000Y-22730682D01*
X52025001Y-22730682D01*
X52068162Y-22724999D01*
X64844417Y-22724999D01*
X64864699Y-22930932D01*
X64864700Y-22930934D01*
X64924768Y-23128954D01*
X65022315Y-23311450D01*
X65022317Y-23311452D01*
X65153589Y-23471410D01*
X65229899Y-23534035D01*
X65313550Y-23602685D01*
X65496046Y-23700232D01*
X65694066Y-23760300D01*
X65694065Y-23760300D01*
X65700066Y-23760891D01*
X65900000Y-23780583D01*
X66105934Y-23760300D01*
X66303954Y-23700232D01*
X66486450Y-23602685D01*
X66496116Y-23594752D01*
X67389500Y-23594752D01*
X67401131Y-23653229D01*
X67401132Y-23653230D01*
X67445447Y-23719552D01*
X67511769Y-23763867D01*
X67511770Y-23763868D01*
X67570247Y-23775499D01*
X67570250Y-23775500D01*
X67570252Y-23775500D01*
X69309750Y-23775500D01*
X69309751Y-23775499D01*
X69324568Y-23772552D01*
X69368229Y-23763868D01*
X69368229Y-23763867D01*
X69368231Y-23763867D01*
X69434552Y-23719552D01*
X69478867Y-23653231D01*
X69478867Y-23653229D01*
X69478868Y-23653229D01*
X69490499Y-23594752D01*
X69490500Y-23594750D01*
X69490500Y-23075000D01*
X70570035Y-23075000D01*
X70589873Y-23365024D01*
X70649020Y-23649660D01*
X70649021Y-23649663D01*
X70746371Y-23923578D01*
X70880114Y-24181691D01*
X71028929Y-24392515D01*
X71660554Y-23760891D01*
X71721877Y-23727406D01*
X71791568Y-23732390D01*
X71847502Y-23774261D01*
X71849242Y-23776644D01*
X71864893Y-23798623D01*
X71864900Y-23798631D01*
X72011041Y-23937975D01*
X72045977Y-23998483D01*
X72042652Y-24068274D01*
X72013153Y-24115399D01*
X71384428Y-24744123D01*
X71471694Y-24815119D01*
X71720073Y-24966161D01*
X71986714Y-25081981D01*
X72266639Y-25160413D01*
X72266646Y-25160414D01*
X72554645Y-25200000D01*
X72845355Y-25200000D01*
X73133353Y-25160414D01*
X73133360Y-25160413D01*
X73413285Y-25081981D01*
X73679926Y-24966161D01*
X73928305Y-24815119D01*
X74015570Y-24744123D01*
X73384234Y-24112787D01*
X73350749Y-24051464D01*
X73355733Y-23981772D01*
X73395263Y-23927636D01*
X73462540Y-23874729D01*
X73556722Y-23766036D01*
X73615497Y-23728264D01*
X73685367Y-23728264D01*
X73738114Y-23759560D01*
X74371069Y-24392516D01*
X74371070Y-24392515D01*
X74519878Y-24181703D01*
X74519882Y-24181697D01*
X74653628Y-23923578D01*
X74750978Y-23649663D01*
X74750979Y-23649660D01*
X74810126Y-23365024D01*
X74829964Y-23075000D01*
X77170035Y-23075000D01*
X77189873Y-23365024D01*
X77249020Y-23649660D01*
X77249021Y-23649663D01*
X77346371Y-23923578D01*
X77480114Y-24181691D01*
X77628929Y-24392515D01*
X78260554Y-23760891D01*
X78321877Y-23727406D01*
X78391568Y-23732390D01*
X78447502Y-23774261D01*
X78449242Y-23776644D01*
X78464893Y-23798623D01*
X78464900Y-23798631D01*
X78611041Y-23937975D01*
X78645977Y-23998483D01*
X78642652Y-24068274D01*
X78613153Y-24115399D01*
X77984428Y-24744123D01*
X78071694Y-24815119D01*
X78320073Y-24966161D01*
X78586714Y-25081981D01*
X78866639Y-25160413D01*
X78866646Y-25160414D01*
X79154645Y-25200000D01*
X79445355Y-25200000D01*
X79733353Y-25160414D01*
X79733360Y-25160413D01*
X80013285Y-25081981D01*
X80279926Y-24966161D01*
X80528305Y-24815119D01*
X80615570Y-24744123D01*
X79984234Y-24112787D01*
X79950749Y-24051464D01*
X79955733Y-23981772D01*
X79995263Y-23927636D01*
X80062540Y-23874729D01*
X80156722Y-23766036D01*
X80215497Y-23728264D01*
X80285367Y-23728264D01*
X80338114Y-23759560D01*
X80971070Y-24392516D01*
X80971070Y-24392515D01*
X81119878Y-24181703D01*
X81119882Y-24181697D01*
X81253628Y-23923578D01*
X81350978Y-23649663D01*
X81350979Y-23649660D01*
X81410126Y-23365024D01*
X81429964Y-23075000D01*
X81410126Y-22784975D01*
X81350979Y-22500339D01*
X81350978Y-22500336D01*
X81253628Y-22226421D01*
X81119882Y-21968302D01*
X81119878Y-21968296D01*
X80971069Y-21757482D01*
X80339444Y-22389107D01*
X80278121Y-22422592D01*
X80208429Y-22417608D01*
X80152496Y-22375736D01*
X80150755Y-22373352D01*
X80135108Y-22351378D01*
X80135104Y-22351374D01*
X80103294Y-22321043D01*
X79988954Y-22212021D01*
X79954021Y-22151515D01*
X79957346Y-22081724D01*
X79986845Y-22034599D01*
X80615570Y-21405875D01*
X80528315Y-21334887D01*
X80528304Y-21334880D01*
X80279926Y-21183838D01*
X80013285Y-21068018D01*
X79733360Y-20989586D01*
X79733353Y-20989585D01*
X79445355Y-20950000D01*
X79154645Y-20950000D01*
X78866646Y-20989585D01*
X78866639Y-20989586D01*
X78586714Y-21068018D01*
X78320073Y-21183838D01*
X78071693Y-21334881D01*
X78071682Y-21334889D01*
X77984428Y-21405875D01*
X78615765Y-22037212D01*
X78649250Y-22098535D01*
X78644266Y-22168227D01*
X78604737Y-22222363D01*
X78537458Y-22275272D01*
X78537453Y-22275277D01*
X78443278Y-22383960D01*
X78384500Y-22421734D01*
X78314630Y-22421734D01*
X78261885Y-22390438D01*
X77628930Y-21757483D01*
X77480114Y-21968308D01*
X77346371Y-22226421D01*
X77249021Y-22500336D01*
X77249020Y-22500339D01*
X77189873Y-22784975D01*
X77170035Y-23075000D01*
X74829964Y-23075000D01*
X74810126Y-22784975D01*
X74750979Y-22500339D01*
X74750978Y-22500336D01*
X74653628Y-22226421D01*
X74519882Y-21968302D01*
X74519878Y-21968296D01*
X74371069Y-21757482D01*
X73739444Y-22389107D01*
X73678121Y-22422592D01*
X73608429Y-22417608D01*
X73552496Y-22375736D01*
X73550755Y-22373352D01*
X73535108Y-22351378D01*
X73535104Y-22351374D01*
X73503294Y-22321043D01*
X73388954Y-22212021D01*
X73354021Y-22151515D01*
X73357346Y-22081724D01*
X73386845Y-22034599D01*
X74015570Y-21405875D01*
X73928315Y-21334887D01*
X73928304Y-21334880D01*
X73679926Y-21183838D01*
X73413285Y-21068018D01*
X73133360Y-20989586D01*
X73133353Y-20989585D01*
X72845355Y-20950000D01*
X72554645Y-20950000D01*
X72266646Y-20989585D01*
X72266639Y-20989586D01*
X71986714Y-21068018D01*
X71720073Y-21183838D01*
X71471693Y-21334881D01*
X71471682Y-21334889D01*
X71384428Y-21405875D01*
X72015765Y-22037212D01*
X72049250Y-22098535D01*
X72044266Y-22168227D01*
X72004737Y-22222363D01*
X71937458Y-22275272D01*
X71937453Y-22275277D01*
X71843278Y-22383960D01*
X71784500Y-22421734D01*
X71714630Y-22421734D01*
X71661885Y-22390438D01*
X71028930Y-21757483D01*
X70880114Y-21968308D01*
X70746371Y-22226421D01*
X70649021Y-22500336D01*
X70649020Y-22500339D01*
X70589873Y-22784975D01*
X70570035Y-23075000D01*
X69490500Y-23075000D01*
X69490500Y-21855249D01*
X69490499Y-21855247D01*
X69478868Y-21796770D01*
X69478867Y-21796769D01*
X69434552Y-21730447D01*
X69368230Y-21686132D01*
X69368229Y-21686131D01*
X69309752Y-21674500D01*
X69309748Y-21674500D01*
X67570252Y-21674500D01*
X67570247Y-21674500D01*
X67511770Y-21686131D01*
X67511769Y-21686132D01*
X67445447Y-21730447D01*
X67401132Y-21796769D01*
X67401131Y-21796770D01*
X67389500Y-21855247D01*
X67389500Y-23594752D01*
X66496116Y-23594752D01*
X66646410Y-23471410D01*
X66777685Y-23311450D01*
X66875232Y-23128954D01*
X66935300Y-22930934D01*
X66955583Y-22725000D01*
X66935300Y-22519066D01*
X66875232Y-22321046D01*
X66777685Y-22138550D01*
X66692984Y-22035341D01*
X66646410Y-21978589D01*
X66496121Y-21855252D01*
X66486450Y-21847315D01*
X66303954Y-21749768D01*
X66105934Y-21689700D01*
X66105932Y-21689699D01*
X66105934Y-21689699D01*
X65900000Y-21669417D01*
X65694067Y-21689699D01*
X65496043Y-21749769D01*
X65408114Y-21796769D01*
X65313550Y-21847315D01*
X65313548Y-21847316D01*
X65313547Y-21847317D01*
X65153589Y-21978589D01*
X65033435Y-22125000D01*
X65022315Y-22138550D01*
X65018648Y-22145411D01*
X64924769Y-22321043D01*
X64864699Y-22519067D01*
X64844417Y-22724999D01*
X52068162Y-22724999D01*
X52077253Y-22723802D01*
X52181762Y-22710044D01*
X52327841Y-22649536D01*
X52453282Y-22553282D01*
X52549536Y-22427841D01*
X52610044Y-22281762D01*
X52628049Y-22145002D01*
X53220131Y-22145002D01*
X53237498Y-22254658D01*
X53287904Y-22353585D01*
X53287909Y-22353592D01*
X53366407Y-22432090D01*
X53366410Y-22432092D01*
X53366413Y-22432095D01*
X53401297Y-22449869D01*
X53465341Y-22482501D01*
X53574998Y-22499869D01*
X53575000Y-22499869D01*
X53575002Y-22499869D01*
X53684658Y-22482501D01*
X53684659Y-22482500D01*
X53684661Y-22482500D01*
X53783587Y-22432095D01*
X53862095Y-22353587D01*
X53912500Y-22254661D01*
X53912500Y-22254659D01*
X53912501Y-22254658D01*
X53929869Y-22145002D01*
X53929869Y-22144997D01*
X53912501Y-22035341D01*
X53912123Y-22034599D01*
X53862095Y-21936413D01*
X53862092Y-21936410D01*
X53862090Y-21936407D01*
X53783592Y-21857909D01*
X53783588Y-21857906D01*
X53783587Y-21857905D01*
X53762803Y-21847315D01*
X53684658Y-21807498D01*
X53575002Y-21790131D01*
X53574998Y-21790131D01*
X53465341Y-21807498D01*
X53366414Y-21857904D01*
X53366407Y-21857909D01*
X53287909Y-21936407D01*
X53287904Y-21936414D01*
X53237498Y-22035341D01*
X53220131Y-22144997D01*
X53220131Y-22145002D01*
X52628049Y-22145002D01*
X52630682Y-22125000D01*
X52626732Y-22095000D01*
X52610044Y-21968239D01*
X52610044Y-21968238D01*
X52549536Y-21822159D01*
X52453282Y-21696718D01*
X52327841Y-21600464D01*
X52181762Y-21539956D01*
X52181760Y-21539955D01*
X52025001Y-21519318D01*
X52024999Y-21519318D01*
X51868239Y-21539955D01*
X51868237Y-21539956D01*
X51722160Y-21600463D01*
X51596718Y-21696718D01*
X51500463Y-21822160D01*
X51439956Y-21968237D01*
X51439955Y-21968239D01*
X51419318Y-22124998D01*
X51419318Y-22125001D01*
X50575118Y-22125001D01*
X50579869Y-22095002D01*
X50579869Y-22094997D01*
X50562501Y-21985341D01*
X50553786Y-21968237D01*
X50512095Y-21886413D01*
X50512092Y-21886410D01*
X50512090Y-21886407D01*
X50433592Y-21807909D01*
X50433588Y-21807906D01*
X50433587Y-21807905D01*
X50411731Y-21796769D01*
X50334658Y-21757498D01*
X50225002Y-21740131D01*
X50224998Y-21740131D01*
X50115341Y-21757498D01*
X50016414Y-21807904D01*
X50016407Y-21807909D01*
X49937909Y-21886407D01*
X49937904Y-21886414D01*
X49887498Y-21985341D01*
X49870131Y-22094997D01*
X49870131Y-22095002D01*
X46800000Y-22095002D01*
X46800000Y-20124500D01*
X46819685Y-20057461D01*
X46872489Y-20011706D01*
X46924000Y-20000500D01*
X83375500Y-20000500D01*
X83442539Y-20020185D01*
G37*
%TD.AperFunction*%
%TD*%
%TA.AperFunction,Conductor*%
%TO.N,GND*%
G36*
X46596632Y-20003868D02*
G01*
X46600000Y-20012000D01*
X46600000Y-28800000D01*
X49788500Y-28800000D01*
X49796632Y-28803368D01*
X49800000Y-28811500D01*
X49800000Y-31888500D01*
X49796632Y-31896632D01*
X49788500Y-31900000D01*
X46365332Y-31900000D01*
X46357200Y-31896632D01*
X46353832Y-31888500D01*
X46355085Y-31883279D01*
X46357662Y-31878219D01*
X46387500Y-31819661D01*
X46404869Y-31710000D01*
X46387500Y-31600339D01*
X46337095Y-31501413D01*
X46258587Y-31422905D01*
X46159661Y-31372500D01*
X46159658Y-31372499D01*
X46159657Y-31372499D01*
X46159654Y-31372498D01*
X46050003Y-31355131D01*
X46049997Y-31355131D01*
X45940345Y-31372498D01*
X45940342Y-31372499D01*
X45940340Y-31372499D01*
X45940339Y-31372500D01*
X45889969Y-31398164D01*
X45841412Y-31422905D01*
X45762905Y-31501412D01*
X45738164Y-31549969D01*
X45712500Y-31600339D01*
X45712499Y-31600340D01*
X45712499Y-31600342D01*
X45712498Y-31600345D01*
X45695131Y-31709997D01*
X45695131Y-31710002D01*
X45712498Y-31819654D01*
X45712499Y-31819657D01*
X45712500Y-31819661D01*
X45740214Y-31874053D01*
X45744915Y-31883279D01*
X45745605Y-31892054D01*
X45739889Y-31898747D01*
X45734668Y-31900000D01*
X45365332Y-31900000D01*
X45357200Y-31896632D01*
X45353832Y-31888500D01*
X45355085Y-31883279D01*
X45357662Y-31878219D01*
X45387500Y-31819661D01*
X45404869Y-31710000D01*
X45387500Y-31600339D01*
X45337095Y-31501413D01*
X45258587Y-31422905D01*
X45159661Y-31372500D01*
X45159658Y-31372499D01*
X45159657Y-31372499D01*
X45159654Y-31372498D01*
X45050003Y-31355131D01*
X45049997Y-31355131D01*
X44940345Y-31372498D01*
X44940342Y-31372499D01*
X44940340Y-31372499D01*
X44940339Y-31372500D01*
X44889969Y-31398164D01*
X44841412Y-31422905D01*
X44762905Y-31501412D01*
X44738164Y-31549969D01*
X44712500Y-31600339D01*
X44712499Y-31600340D01*
X44712499Y-31600342D01*
X44712498Y-31600345D01*
X44695131Y-31709997D01*
X44695131Y-31710002D01*
X44712498Y-31819654D01*
X44712499Y-31819657D01*
X44712500Y-31819661D01*
X44762905Y-31918587D01*
X44841413Y-31997095D01*
X44940339Y-32047500D01*
X44960301Y-32050661D01*
X44967803Y-32055258D01*
X44970000Y-32062017D01*
X44970000Y-33100000D01*
X44970001Y-33100000D01*
X45169999Y-33100000D01*
X45170000Y-33100000D01*
X45170000Y-32111500D01*
X45173368Y-32103368D01*
X45181500Y-32100000D01*
X49358500Y-32100000D01*
X49366632Y-32103368D01*
X49370000Y-32111500D01*
X49370000Y-33300000D01*
X49558500Y-33300000D01*
X49566632Y-33303368D01*
X49570000Y-33311500D01*
X49570000Y-36688500D01*
X49566632Y-36696632D01*
X49558500Y-36700000D01*
X44381500Y-36700000D01*
X44373368Y-36696632D01*
X44370000Y-36688500D01*
X44370000Y-34711500D01*
X44373368Y-34703368D01*
X44381500Y-34700000D01*
X44569999Y-34700000D01*
X44570000Y-34700000D01*
X44570000Y-34500000D01*
X44569999Y-34500000D01*
X44239399Y-34500000D01*
X44231267Y-34496632D01*
X44227899Y-34488500D01*
X44228041Y-34486701D01*
X44241774Y-34400002D01*
X44241774Y-34399997D01*
X44224406Y-34290345D01*
X44224405Y-34290342D01*
X44224405Y-34290339D01*
X44174000Y-34191413D01*
X44095492Y-34112905D01*
X43996566Y-34062500D01*
X43996563Y-34062499D01*
X43996562Y-34062499D01*
X43996559Y-34062498D01*
X43886908Y-34045131D01*
X43886902Y-34045131D01*
X43777250Y-34062498D01*
X43777247Y-34062499D01*
X43777245Y-34062499D01*
X43777244Y-34062500D01*
X43733001Y-34085043D01*
X43678317Y-34112905D01*
X43599810Y-34191412D01*
X43575069Y-34239969D01*
X43549405Y-34290339D01*
X43549404Y-34290340D01*
X43549404Y-34290342D01*
X43549403Y-34290345D01*
X43532036Y-34399997D01*
X43532036Y-34400002D01*
X43549403Y-34509654D01*
X43549404Y-34509657D01*
X43549405Y-34509661D01*
X43599810Y-34608587D01*
X43678318Y-34687095D01*
X43680405Y-34688158D01*
X43686121Y-34694851D01*
X43685431Y-34703626D01*
X43683316Y-34706537D01*
X43619502Y-34770352D01*
X43594761Y-34818909D01*
X43569097Y-34869279D01*
X43569096Y-34869280D01*
X43569096Y-34869282D01*
X43569095Y-34869285D01*
X43551728Y-34978937D01*
X43551728Y-34978942D01*
X43569095Y-35088594D01*
X43569096Y-35088597D01*
X43569097Y-35088601D01*
X43596936Y-35143238D01*
X43619502Y-35187527D01*
X43649254Y-35217279D01*
X43652622Y-35225411D01*
X43649254Y-35233543D01*
X43612984Y-35269812D01*
X43600161Y-35294979D01*
X43562579Y-35368739D01*
X43562578Y-35368740D01*
X43562578Y-35368742D01*
X43562577Y-35368745D01*
X43545210Y-35478397D01*
X43545210Y-35478402D01*
X43562577Y-35588054D01*
X43562578Y-35588057D01*
X43562579Y-35588061D01*
X43590693Y-35643238D01*
X43612984Y-35686987D01*
X43645954Y-35719957D01*
X43649322Y-35728089D01*
X43645954Y-35736221D01*
X43612861Y-35769314D01*
X43608507Y-35777860D01*
X43562456Y-35868241D01*
X43562455Y-35868242D01*
X43562455Y-35868244D01*
X43562454Y-35868247D01*
X43545087Y-35977899D01*
X43545087Y-35977904D01*
X43562454Y-36087556D01*
X43562455Y-36087559D01*
X43562456Y-36087563D01*
X43612861Y-36186489D01*
X43691369Y-36264997D01*
X43790295Y-36315402D01*
X43790300Y-36315402D01*
X43790301Y-36315403D01*
X43899953Y-36332771D01*
X43899956Y-36332771D01*
X43899959Y-36332771D01*
X43989193Y-36318636D01*
X44009617Y-36315402D01*
X44108543Y-36264997D01*
X44150368Y-36223172D01*
X44158500Y-36219804D01*
X44166632Y-36223172D01*
X44170000Y-36231304D01*
X44170000Y-36900000D01*
X44170001Y-36900000D01*
X44788500Y-36900000D01*
X44796632Y-36903368D01*
X44800000Y-36911500D01*
X44800000Y-37988500D01*
X44796632Y-37996632D01*
X44788500Y-38000000D01*
X43274471Y-38000000D01*
X43266339Y-37996632D01*
X43262971Y-37988500D01*
X43266339Y-37980368D01*
X43274785Y-37971922D01*
X43331595Y-37915112D01*
X43382000Y-37816186D01*
X43390370Y-37763340D01*
X43399369Y-37706527D01*
X43399369Y-37706522D01*
X43382001Y-37596870D01*
X43382000Y-37596867D01*
X43382000Y-37596864D01*
X43331595Y-37497938D01*
X43253087Y-37419430D01*
X43154161Y-37369025D01*
X43154158Y-37369024D01*
X43154157Y-37369024D01*
X43154154Y-37369023D01*
X43044503Y-37351656D01*
X43044497Y-37351656D01*
X42934845Y-37369023D01*
X42934842Y-37369024D01*
X42934840Y-37369024D01*
X42934839Y-37369025D01*
X42903402Y-37385043D01*
X42835912Y-37419430D01*
X42757405Y-37497937D01*
X42756354Y-37500000D01*
X42707000Y-37596864D01*
X42706999Y-37596865D01*
X42706999Y-37596867D01*
X42706998Y-37596870D01*
X42689631Y-37706522D01*
X42689631Y-37706527D01*
X42706998Y-37816179D01*
X42706999Y-37816182D01*
X42707000Y-37816186D01*
X42745745Y-37892227D01*
X42757405Y-37915112D01*
X42822661Y-37980368D01*
X42826029Y-37988500D01*
X42822661Y-37996632D01*
X42814529Y-38000000D01*
X42400000Y-38000000D01*
X42400000Y-38000001D01*
X42400000Y-42193172D01*
X42396632Y-42201304D01*
X42394007Y-42203268D01*
X40200000Y-43400000D01*
X40200000Y-51738000D01*
X40196632Y-51746132D01*
X40188500Y-51749500D01*
X20012000Y-51749500D01*
X20003868Y-51746132D01*
X20000500Y-51738000D01*
X20000500Y-44199999D01*
X26394357Y-44199999D01*
X26414884Y-44421533D01*
X26475771Y-44635529D01*
X26574942Y-44834690D01*
X26574944Y-44834693D01*
X26709011Y-45012227D01*
X26709014Y-45012230D01*
X26709019Y-45012236D01*
X26873438Y-45162124D01*
X27062599Y-45279247D01*
X27270060Y-45359618D01*
X27488754Y-45400499D01*
X27488755Y-45400500D01*
X27488757Y-45400500D01*
X27711245Y-45400500D01*
X27711245Y-45400499D01*
X27929940Y-45359618D01*
X28137401Y-45279247D01*
X28326562Y-45162124D01*
X28490981Y-45012236D01*
X28625058Y-44834689D01*
X28724229Y-44635528D01*
X28785115Y-44421536D01*
X28805643Y-44200000D01*
X28785115Y-43978464D01*
X28724229Y-43764472D01*
X28625058Y-43565311D01*
X28625057Y-43565310D01*
X28625057Y-43565309D01*
X28625055Y-43565306D01*
X28490988Y-43387772D01*
X28490984Y-43387769D01*
X28490981Y-43387764D01*
X28326562Y-43237876D01*
X28326561Y-43237875D01*
X28231981Y-43179314D01*
X28137401Y-43120753D01*
X28137396Y-43120751D01*
X28137390Y-43120748D01*
X27929942Y-43040382D01*
X27711245Y-42999500D01*
X27711243Y-42999500D01*
X27488757Y-42999500D01*
X27488754Y-42999500D01*
X27270058Y-43040382D01*
X27270057Y-43040382D01*
X27062609Y-43120748D01*
X27062597Y-43120754D01*
X26873438Y-43237875D01*
X26777114Y-43325686D01*
X26709019Y-43387764D01*
X26709017Y-43387766D01*
X26709011Y-43387772D01*
X26574944Y-43565306D01*
X26574942Y-43565309D01*
X26475771Y-43764470D01*
X26414884Y-43978466D01*
X26394357Y-44199999D01*
X20000500Y-44199999D01*
X20000500Y-40585002D01*
X38995131Y-40585002D01*
X39012498Y-40694654D01*
X39012499Y-40694657D01*
X39012500Y-40694661D01*
X39062905Y-40793587D01*
X39141413Y-40872095D01*
X39240339Y-40922500D01*
X39240344Y-40922500D01*
X39240345Y-40922501D01*
X39349997Y-40939869D01*
X39350000Y-40939869D01*
X39350003Y-40939869D01*
X39439237Y-40925734D01*
X39459661Y-40922500D01*
X39558587Y-40872095D01*
X39637095Y-40793587D01*
X39687500Y-40694661D01*
X39704869Y-40585000D01*
X39687500Y-40475339D01*
X39637095Y-40376413D01*
X39558587Y-40297905D01*
X39459661Y-40247500D01*
X39459658Y-40247499D01*
X39459657Y-40247499D01*
X39459654Y-40247498D01*
X39350003Y-40230131D01*
X39349997Y-40230131D01*
X39240345Y-40247498D01*
X39240342Y-40247499D01*
X39240340Y-40247499D01*
X39240339Y-40247500D01*
X39189969Y-40273164D01*
X39141412Y-40297905D01*
X39062905Y-40376412D01*
X39050887Y-40400000D01*
X39012500Y-40475339D01*
X39012499Y-40475340D01*
X39012499Y-40475342D01*
X39012498Y-40475345D01*
X38995131Y-40584997D01*
X38995131Y-40585002D01*
X20000500Y-40585002D01*
X20000500Y-39600002D01*
X36905131Y-39600002D01*
X36922498Y-39709654D01*
X36922499Y-39709657D01*
X36922500Y-39709661D01*
X36972905Y-39808587D01*
X37051413Y-39887095D01*
X37150339Y-39937500D01*
X37150344Y-39937500D01*
X37150345Y-39937501D01*
X37259997Y-39954869D01*
X37260000Y-39954869D01*
X37260003Y-39954869D01*
X37290728Y-39950002D01*
X38245131Y-39950002D01*
X38262498Y-40059654D01*
X38262499Y-40059657D01*
X38262500Y-40059661D01*
X38312905Y-40158587D01*
X38391413Y-40237095D01*
X38490339Y-40287500D01*
X38490344Y-40287500D01*
X38490345Y-40287501D01*
X38599997Y-40304869D01*
X38600000Y-40304869D01*
X38600003Y-40304869D01*
X38691737Y-40290339D01*
X38709661Y-40287500D01*
X38808587Y-40237095D01*
X38887095Y-40158587D01*
X38937500Y-40059661D01*
X38954869Y-39950000D01*
X38952889Y-39937501D01*
X38937501Y-39840345D01*
X38937500Y-39840342D01*
X38937500Y-39840339D01*
X38887095Y-39741413D01*
X38808587Y-39662905D01*
X38709661Y-39612500D01*
X38709658Y-39612499D01*
X38709657Y-39612499D01*
X38709654Y-39612498D01*
X38600003Y-39595131D01*
X38599997Y-39595131D01*
X38490345Y-39612498D01*
X38490342Y-39612499D01*
X38490340Y-39612499D01*
X38490339Y-39612500D01*
X38439969Y-39638164D01*
X38391412Y-39662905D01*
X38312905Y-39741412D01*
X38288164Y-39789969D01*
X38262500Y-39840339D01*
X38262499Y-39840340D01*
X38262499Y-39840342D01*
X38262498Y-39840345D01*
X38245131Y-39949997D01*
X38245131Y-39950002D01*
X37290728Y-39950002D01*
X37349237Y-39940734D01*
X37369661Y-39937500D01*
X37468587Y-39887095D01*
X37547095Y-39808587D01*
X37597500Y-39709661D01*
X37612889Y-39612500D01*
X37614869Y-39600002D01*
X37614869Y-39599997D01*
X37597501Y-39490345D01*
X37597500Y-39490342D01*
X37597500Y-39490339D01*
X37547095Y-39391413D01*
X37468587Y-39312905D01*
X37369661Y-39262500D01*
X37369658Y-39262499D01*
X37369657Y-39262499D01*
X37369654Y-39262498D01*
X37260003Y-39245131D01*
X37259997Y-39245131D01*
X37150345Y-39262498D01*
X37150342Y-39262499D01*
X37150340Y-39262499D01*
X37150339Y-39262500D01*
X37099969Y-39288164D01*
X37051412Y-39312905D01*
X36972905Y-39391412D01*
X36948164Y-39439969D01*
X36922500Y-39490339D01*
X36922499Y-39490340D01*
X36922499Y-39490342D01*
X36922498Y-39490345D01*
X36905131Y-39599997D01*
X36905131Y-39600002D01*
X20000500Y-39600002D01*
X20000500Y-35900000D01*
X20094318Y-35900000D01*
X20114956Y-36056762D01*
X20175464Y-36202841D01*
X20271718Y-36328282D01*
X20346513Y-36385674D01*
X20350914Y-36393296D01*
X20348636Y-36401798D01*
X20331190Y-36424535D01*
X20275464Y-36497159D01*
X20214956Y-36643238D01*
X20194318Y-36800000D01*
X20214956Y-36956762D01*
X20275464Y-37102841D01*
X20371718Y-37228282D01*
X20497159Y-37324536D01*
X20643238Y-37385044D01*
X20696923Y-37392111D01*
X20704543Y-37396511D01*
X20706822Y-37405013D01*
X20694589Y-37497938D01*
X20694318Y-37500000D01*
X20714956Y-37656762D01*
X20775464Y-37802841D01*
X20871718Y-37928282D01*
X20997159Y-38024536D01*
X21143238Y-38085044D01*
X21196923Y-38092111D01*
X21204543Y-38096511D01*
X21206822Y-38105013D01*
X21196325Y-38184752D01*
X21194318Y-38200000D01*
X21214956Y-38356762D01*
X21275464Y-38502841D01*
X21371718Y-38628282D01*
X21497159Y-38724536D01*
X21643238Y-38785044D01*
X21800000Y-38805682D01*
X21956762Y-38785044D01*
X22017223Y-38760000D01*
X25324534Y-38760000D01*
X25344313Y-38910237D01*
X25363891Y-38957501D01*
X25402302Y-39050233D01*
X25494549Y-39170451D01*
X25614767Y-39262698D01*
X25754762Y-39320686D01*
X25754761Y-39320686D01*
X25754764Y-39320687D01*
X25867280Y-39335500D01*
X25867284Y-39335500D01*
X25942716Y-39335500D01*
X25942720Y-39335500D01*
X26055236Y-39320687D01*
X26195233Y-39262698D01*
X26315451Y-39170451D01*
X26407698Y-39050233D01*
X26465687Y-38910236D01*
X26485466Y-38760000D01*
X26467035Y-38620002D01*
X36925131Y-38620002D01*
X36942498Y-38729654D01*
X36942499Y-38729657D01*
X36942500Y-38729661D01*
X36992905Y-38828587D01*
X37071413Y-38907095D01*
X37170339Y-38957500D01*
X37170344Y-38957500D01*
X37170345Y-38957501D01*
X37279997Y-38974869D01*
X37280000Y-38974869D01*
X37280003Y-38974869D01*
X37369237Y-38960734D01*
X37389661Y-38957500D01*
X37488587Y-38907095D01*
X37495680Y-38900002D01*
X39815131Y-38900002D01*
X39832498Y-39009654D01*
X39832499Y-39009657D01*
X39832500Y-39009661D01*
X39882905Y-39108587D01*
X39961413Y-39187095D01*
X40060339Y-39237500D01*
X40060344Y-39237500D01*
X40060345Y-39237501D01*
X40169997Y-39254869D01*
X40170000Y-39254869D01*
X40170003Y-39254869D01*
X40259237Y-39240734D01*
X40279661Y-39237500D01*
X40378587Y-39187095D01*
X40457095Y-39108587D01*
X40507500Y-39009661D01*
X40523248Y-38910236D01*
X40524869Y-38900002D01*
X40524869Y-38899997D01*
X40507501Y-38790345D01*
X40507500Y-38790342D01*
X40507500Y-38790339D01*
X40457095Y-38691413D01*
X40378587Y-38612905D01*
X40279661Y-38562500D01*
X40279658Y-38562499D01*
X40279657Y-38562499D01*
X40279654Y-38562498D01*
X40170003Y-38545131D01*
X40169997Y-38545131D01*
X40060345Y-38562498D01*
X40060342Y-38562499D01*
X40060340Y-38562499D01*
X40060339Y-38562500D01*
X40009969Y-38588164D01*
X39961412Y-38612905D01*
X39882905Y-38691412D01*
X39866028Y-38724536D01*
X39832500Y-38790339D01*
X39832499Y-38790340D01*
X39832499Y-38790342D01*
X39832498Y-38790345D01*
X39815131Y-38899997D01*
X39815131Y-38900002D01*
X37495680Y-38900002D01*
X37567095Y-38828587D01*
X37617500Y-38729661D01*
X37623558Y-38691412D01*
X37634869Y-38620002D01*
X37634869Y-38619997D01*
X37617501Y-38510345D01*
X37617500Y-38510342D01*
X37617500Y-38510339D01*
X37567095Y-38411413D01*
X37516434Y-38360752D01*
X37513066Y-38352620D01*
X37516434Y-38344488D01*
X37522765Y-38341262D01*
X37609661Y-38327500D01*
X37708587Y-38277095D01*
X37787095Y-38198587D01*
X37833818Y-38106885D01*
X37840508Y-38101173D01*
X37849283Y-38101863D01*
X37854999Y-38108556D01*
X37855420Y-38110310D01*
X37855760Y-38112457D01*
X37855761Y-38112460D01*
X37855762Y-38112464D01*
X37906167Y-38211390D01*
X37984675Y-38289898D01*
X38083601Y-38340303D01*
X38083606Y-38340303D01*
X38083607Y-38340304D01*
X38193259Y-38357672D01*
X38193262Y-38357672D01*
X38193265Y-38357672D01*
X38296868Y-38341262D01*
X38302923Y-38340303D01*
X38401849Y-38289898D01*
X38480357Y-38211390D01*
X38493929Y-38184751D01*
X38500622Y-38179036D01*
X38509397Y-38179726D01*
X38512308Y-38181841D01*
X38589487Y-38259020D01*
X38688413Y-38309425D01*
X38688418Y-38309425D01*
X38688419Y-38309426D01*
X38798071Y-38326794D01*
X38798074Y-38326794D01*
X38798077Y-38326794D01*
X38887311Y-38312659D01*
X38907735Y-38309425D01*
X39006661Y-38259020D01*
X39085169Y-38180512D01*
X39135574Y-38081586D01*
X39152943Y-37971925D01*
X39146030Y-37928282D01*
X39135575Y-37862270D01*
X39135574Y-37862267D01*
X39135574Y-37862264D01*
X39085169Y-37763338D01*
X39006661Y-37684830D01*
X38907735Y-37634425D01*
X38907732Y-37634424D01*
X38907731Y-37634424D01*
X38907728Y-37634423D01*
X38798077Y-37617056D01*
X38798071Y-37617056D01*
X38688419Y-37634423D01*
X38688416Y-37634424D01*
X38688414Y-37634424D01*
X38688413Y-37634425D01*
X38663704Y-37647015D01*
X38589486Y-37684830D01*
X38510976Y-37763340D01*
X38497405Y-37789975D01*
X38490712Y-37795691D01*
X38481938Y-37795000D01*
X38479027Y-37792886D01*
X38401849Y-37715708D01*
X38383820Y-37706522D01*
X38302923Y-37665303D01*
X38302920Y-37665302D01*
X38302919Y-37665302D01*
X38302916Y-37665301D01*
X38193265Y-37647934D01*
X38193259Y-37647934D01*
X38083607Y-37665301D01*
X38083604Y-37665302D01*
X38083602Y-37665302D01*
X38083601Y-37665303D01*
X38063659Y-37675464D01*
X37984674Y-37715708D01*
X37906167Y-37794215D01*
X37871492Y-37862270D01*
X37862285Y-37880341D01*
X37859446Y-37885912D01*
X37852753Y-37891628D01*
X37843978Y-37890938D01*
X37838262Y-37884245D01*
X37837841Y-37882495D01*
X37837500Y-37880339D01*
X37787095Y-37781413D01*
X37708587Y-37702905D01*
X37609661Y-37652500D01*
X37609658Y-37652499D01*
X37609657Y-37652499D01*
X37609654Y-37652498D01*
X37500003Y-37635131D01*
X37499997Y-37635131D01*
X37390345Y-37652498D01*
X37390342Y-37652499D01*
X37390340Y-37652499D01*
X37390339Y-37652500D01*
X37365214Y-37665302D01*
X37291412Y-37702905D01*
X37212905Y-37781412D01*
X37205982Y-37795000D01*
X37162500Y-37880339D01*
X37162499Y-37880340D01*
X37162499Y-37880342D01*
X37162498Y-37880345D01*
X37145131Y-37989997D01*
X37145131Y-37990002D01*
X37162498Y-38099654D01*
X37162499Y-38099657D01*
X37162500Y-38099661D01*
X37205856Y-38184752D01*
X37212905Y-38198587D01*
X37263564Y-38249246D01*
X37266932Y-38257378D01*
X37263564Y-38265510D01*
X37257231Y-38268736D01*
X37170345Y-38282498D01*
X37170342Y-38282499D01*
X37170340Y-38282499D01*
X37170339Y-38282500D01*
X37119969Y-38308164D01*
X37071412Y-38332905D01*
X36992905Y-38411412D01*
X36975558Y-38445458D01*
X36942500Y-38510339D01*
X36942499Y-38510340D01*
X36942499Y-38510342D01*
X36942498Y-38510345D01*
X36925131Y-38619997D01*
X36925131Y-38620002D01*
X26467035Y-38620002D01*
X26465687Y-38609764D01*
X26407698Y-38469767D01*
X26315451Y-38349549D01*
X26195233Y-38257302D01*
X26055236Y-38199313D01*
X26055238Y-38199313D01*
X25942721Y-38184500D01*
X25942720Y-38184500D01*
X25867280Y-38184500D01*
X25867278Y-38184500D01*
X25754762Y-38199313D01*
X25614767Y-38257302D01*
X25494549Y-38349549D01*
X25402302Y-38469767D01*
X25344313Y-38609762D01*
X25324534Y-38760000D01*
X22017223Y-38760000D01*
X22102841Y-38724536D01*
X22228282Y-38628282D01*
X22324536Y-38502841D01*
X22385044Y-38356762D01*
X22405682Y-38200000D01*
X22391278Y-38090591D01*
X30065720Y-38090591D01*
X30083087Y-38200243D01*
X30083088Y-38200246D01*
X30083089Y-38200250D01*
X30133494Y-38299176D01*
X30212002Y-38377684D01*
X30310928Y-38428089D01*
X30310933Y-38428089D01*
X30310934Y-38428090D01*
X30420586Y-38445458D01*
X30420589Y-38445458D01*
X30420592Y-38445458D01*
X30509826Y-38431323D01*
X30530250Y-38428089D01*
X30629176Y-38377684D01*
X30707684Y-38299176D01*
X30758089Y-38200250D01*
X30771994Y-38112460D01*
X30775458Y-38090591D01*
X30775458Y-38090586D01*
X30758090Y-37980934D01*
X30758089Y-37980931D01*
X30758089Y-37980928D01*
X30707684Y-37882002D01*
X30629176Y-37803494D01*
X30530250Y-37753089D01*
X30530247Y-37753088D01*
X30530246Y-37753088D01*
X30530243Y-37753087D01*
X30420592Y-37735720D01*
X30420586Y-37735720D01*
X30310934Y-37753087D01*
X30310931Y-37753088D01*
X30310929Y-37753088D01*
X30310928Y-37753089D01*
X30260558Y-37778753D01*
X30212001Y-37803494D01*
X30133494Y-37882001D01*
X30116624Y-37915112D01*
X30083089Y-37980928D01*
X30083088Y-37980929D01*
X30083088Y-37980931D01*
X30083087Y-37980934D01*
X30065720Y-38090586D01*
X30065720Y-38090591D01*
X22391278Y-38090591D01*
X22385044Y-38043238D01*
X22324536Y-37897159D01*
X22228282Y-37771718D01*
X22102841Y-37675464D01*
X21956762Y-37614956D01*
X21929247Y-37611333D01*
X21903077Y-37607888D01*
X21895454Y-37603487D01*
X21893176Y-37594985D01*
X21905682Y-37500000D01*
X21885044Y-37343238D01*
X21867134Y-37300000D01*
X23494318Y-37300000D01*
X23514956Y-37456762D01*
X23575464Y-37602841D01*
X23671718Y-37728282D01*
X23797159Y-37824536D01*
X23943238Y-37885044D01*
X24100000Y-37905682D01*
X24256762Y-37885044D01*
X24402841Y-37824536D01*
X24528282Y-37728282D01*
X24624536Y-37602841D01*
X24651659Y-37537360D01*
X41717027Y-37537360D01*
X41734394Y-37647012D01*
X41734395Y-37647015D01*
X41734396Y-37647019D01*
X41784801Y-37745945D01*
X41863309Y-37824453D01*
X41962235Y-37874858D01*
X41962240Y-37874858D01*
X41962241Y-37874859D01*
X42071893Y-37892227D01*
X42071896Y-37892227D01*
X42071899Y-37892227D01*
X42161133Y-37878092D01*
X42181557Y-37874858D01*
X42280483Y-37824453D01*
X42358991Y-37745945D01*
X42409396Y-37647019D01*
X42417339Y-37596870D01*
X42426765Y-37537360D01*
X42426765Y-37537355D01*
X42409397Y-37427703D01*
X42409396Y-37427700D01*
X42409396Y-37427697D01*
X42358991Y-37328771D01*
X42280483Y-37250263D01*
X42181557Y-37199858D01*
X42181554Y-37199857D01*
X42181553Y-37199857D01*
X42181550Y-37199856D01*
X42071899Y-37182489D01*
X42071893Y-37182489D01*
X41962241Y-37199856D01*
X41962238Y-37199857D01*
X41962236Y-37199857D01*
X41962235Y-37199858D01*
X41911865Y-37225522D01*
X41863308Y-37250263D01*
X41784801Y-37328770D01*
X41764292Y-37369023D01*
X41734396Y-37427697D01*
X41734395Y-37427698D01*
X41734395Y-37427700D01*
X41734394Y-37427703D01*
X41717027Y-37537355D01*
X41717027Y-37537360D01*
X24651659Y-37537360D01*
X24685044Y-37456762D01*
X24705682Y-37300000D01*
X24685044Y-37143238D01*
X24624536Y-36997159D01*
X24528282Y-36871718D01*
X24402841Y-36775464D01*
X24256762Y-36714956D01*
X24143159Y-36700000D01*
X42215131Y-36700000D01*
X42232498Y-36809654D01*
X42232499Y-36809657D01*
X42232500Y-36809661D01*
X42282905Y-36908587D01*
X42361413Y-36987095D01*
X42460339Y-37037500D01*
X42460344Y-37037500D01*
X42460345Y-37037501D01*
X42569997Y-37054869D01*
X42570000Y-37054869D01*
X42570003Y-37054869D01*
X42659237Y-37040734D01*
X42679661Y-37037500D01*
X42778587Y-36987095D01*
X42857095Y-36908587D01*
X42907500Y-36809661D01*
X42924869Y-36700000D01*
X42907500Y-36590339D01*
X42857095Y-36491413D01*
X42778587Y-36412905D01*
X42679661Y-36362500D01*
X42679658Y-36362499D01*
X42679657Y-36362499D01*
X42679654Y-36362498D01*
X42570003Y-36345131D01*
X42569997Y-36345131D01*
X42460345Y-36362498D01*
X42460342Y-36362499D01*
X42460340Y-36362499D01*
X42460339Y-36362500D01*
X42442248Y-36371718D01*
X42361412Y-36412905D01*
X42282905Y-36491412D01*
X42258164Y-36539969D01*
X42232500Y-36590339D01*
X42232499Y-36590340D01*
X42232499Y-36590342D01*
X42232498Y-36590345D01*
X42215131Y-36699997D01*
X42215131Y-36700000D01*
X24143159Y-36700000D01*
X24100000Y-36694318D01*
X23943238Y-36714956D01*
X23797159Y-36775464D01*
X23671718Y-36871718D01*
X23575464Y-36997159D01*
X23514956Y-37143238D01*
X23494318Y-37300000D01*
X21867134Y-37300000D01*
X21824536Y-37197159D01*
X21728282Y-37071718D01*
X21602841Y-36975464D01*
X21456762Y-36914956D01*
X21429247Y-36911333D01*
X21403077Y-36907888D01*
X21395454Y-36903487D01*
X21393176Y-36894985D01*
X21405682Y-36800000D01*
X21385044Y-36643238D01*
X21324536Y-36497159D01*
X21228282Y-36371718D01*
X21154891Y-36315403D01*
X21153486Y-36314325D01*
X21149085Y-36306702D01*
X21151363Y-36298200D01*
X21224536Y-36202841D01*
X21285044Y-36056762D01*
X21288598Y-36029760D01*
X21292999Y-36022139D01*
X21301501Y-36019861D01*
X21309124Y-36024262D01*
X21311401Y-36029759D01*
X21314956Y-36056762D01*
X21375464Y-36202841D01*
X21471718Y-36328282D01*
X21597159Y-36424536D01*
X21743238Y-36485044D01*
X21900000Y-36505682D01*
X22056762Y-36485044D01*
X22202841Y-36424536D01*
X22328282Y-36328282D01*
X22424536Y-36202841D01*
X22485044Y-36056762D01*
X22503868Y-35913768D01*
X22508269Y-35906146D01*
X22513768Y-35903868D01*
X22594985Y-35893176D01*
X22603487Y-35895454D01*
X22607888Y-35903077D01*
X22614956Y-35956762D01*
X22675464Y-36102841D01*
X22771718Y-36228282D01*
X22897159Y-36324536D01*
X23043238Y-36385044D01*
X23200000Y-36405682D01*
X23356762Y-36385044D01*
X23502841Y-36324536D01*
X23628282Y-36228282D01*
X23724536Y-36102841D01*
X23785044Y-35956762D01*
X23805682Y-35800002D01*
X40012631Y-35800002D01*
X40029998Y-35909654D01*
X40029999Y-35909657D01*
X40030000Y-35909661D01*
X40080405Y-36008587D01*
X40158913Y-36087095D01*
X40257839Y-36137500D01*
X40257844Y-36137500D01*
X40257845Y-36137501D01*
X40367497Y-36154869D01*
X40367500Y-36154869D01*
X40367503Y-36154869D01*
X40456737Y-36140734D01*
X40477161Y-36137500D01*
X40576087Y-36087095D01*
X40654595Y-36008587D01*
X40705000Y-35909661D01*
X40709438Y-35881637D01*
X40722369Y-35800002D01*
X40722369Y-35799997D01*
X40705001Y-35690345D01*
X40705000Y-35690342D01*
X40705000Y-35690339D01*
X40654595Y-35591413D01*
X40576087Y-35512905D01*
X40477161Y-35462500D01*
X40477158Y-35462499D01*
X40477157Y-35462499D01*
X40477154Y-35462498D01*
X40367503Y-35445131D01*
X40367497Y-35445131D01*
X40257845Y-35462498D01*
X40257842Y-35462499D01*
X40257840Y-35462499D01*
X40257839Y-35462500D01*
X40212359Y-35485673D01*
X40158912Y-35512905D01*
X40080405Y-35591412D01*
X40077477Y-35597159D01*
X40030000Y-35690339D01*
X40029999Y-35690340D01*
X40029999Y-35690342D01*
X40029998Y-35690345D01*
X40012631Y-35799997D01*
X40012631Y-35800002D01*
X23805682Y-35800002D01*
X23805682Y-35800000D01*
X23785044Y-35643238D01*
X23724536Y-35497159D01*
X23628282Y-35371718D01*
X23502841Y-35275464D01*
X23356762Y-35214956D01*
X23200000Y-35194318D01*
X23199999Y-35194318D01*
X23105013Y-35206822D01*
X23096511Y-35204543D01*
X23092111Y-35196923D01*
X23085044Y-35143238D01*
X23024536Y-34997159D01*
X22928282Y-34871718D01*
X22802841Y-34775464D01*
X22656762Y-34714956D01*
X22500000Y-34694318D01*
X22343238Y-34714956D01*
X22197159Y-34775464D01*
X22071718Y-34871718D01*
X21975464Y-34997159D01*
X21914956Y-35143238D01*
X21896130Y-35286229D01*
X21891729Y-35293852D01*
X21886229Y-35296130D01*
X21743238Y-35314956D01*
X21597159Y-35375464D01*
X21471718Y-35471718D01*
X21375464Y-35597159D01*
X21314956Y-35743238D01*
X21311402Y-35770237D01*
X21307001Y-35777860D01*
X21298499Y-35780138D01*
X21290876Y-35775737D01*
X21288598Y-35770237D01*
X21288477Y-35769315D01*
X21285044Y-35743238D01*
X21224536Y-35597159D01*
X21179447Y-35538398D01*
X21151363Y-35501798D01*
X21149085Y-35493296D01*
X21153484Y-35485674D01*
X21228282Y-35428282D01*
X21324536Y-35302841D01*
X21385044Y-35156762D01*
X21405682Y-35000000D01*
X21385044Y-34843238D01*
X21350083Y-34758835D01*
X21350083Y-34750034D01*
X21356307Y-34743810D01*
X21402841Y-34724536D01*
X21528282Y-34628282D01*
X21624536Y-34502841D01*
X21666849Y-34400688D01*
X23493630Y-34400688D01*
X23514268Y-34557450D01*
X23574776Y-34703529D01*
X23671030Y-34828970D01*
X23796471Y-34925224D01*
X23942550Y-34985732D01*
X24099312Y-35006370D01*
X24256074Y-34985732D01*
X24402153Y-34925224D01*
X24527594Y-34828970D01*
X24623848Y-34703529D01*
X24684356Y-34557450D01*
X24704994Y-34400688D01*
X24684356Y-34243926D01*
X24623848Y-34097847D01*
X24527594Y-33972406D01*
X24402153Y-33876152D01*
X24256074Y-33815644D01*
X24099312Y-33795006D01*
X23942550Y-33815644D01*
X23796471Y-33876152D01*
X23671030Y-33972406D01*
X23574776Y-34097847D01*
X23514268Y-34243926D01*
X23493721Y-34400000D01*
X23493630Y-34400688D01*
X21666849Y-34400688D01*
X21685044Y-34356762D01*
X21705682Y-34200000D01*
X21693176Y-34105012D01*
X21695454Y-34096511D01*
X21703074Y-34092111D01*
X21756762Y-34085044D01*
X21902841Y-34024536D01*
X22028282Y-33928282D01*
X22124536Y-33802841D01*
X22185044Y-33656762D01*
X22205682Y-33500000D01*
X22185044Y-33343238D01*
X22124536Y-33197159D01*
X22028282Y-33071718D01*
X21908752Y-32980000D01*
X25324534Y-32980000D01*
X25344313Y-33130237D01*
X25372034Y-33197159D01*
X25402302Y-33270233D01*
X25494549Y-33390451D01*
X25614767Y-33482698D01*
X25754762Y-33540686D01*
X25754761Y-33540686D01*
X25754764Y-33540687D01*
X25867280Y-33555500D01*
X25867284Y-33555500D01*
X25942716Y-33555500D01*
X25942720Y-33555500D01*
X26055236Y-33540687D01*
X26195233Y-33482698D01*
X26315451Y-33390451D01*
X26407698Y-33270233D01*
X26465687Y-33130236D01*
X26485466Y-32980000D01*
X26465687Y-32829764D01*
X26457501Y-32810002D01*
X33105131Y-32810002D01*
X33122498Y-32919654D01*
X33122499Y-32919657D01*
X33122500Y-32919661D01*
X33172905Y-33018587D01*
X33251413Y-33097095D01*
X33350339Y-33147500D01*
X33350344Y-33147500D01*
X33350345Y-33147501D01*
X33459997Y-33164869D01*
X33460000Y-33164869D01*
X33460003Y-33164869D01*
X33549237Y-33150734D01*
X33569661Y-33147500D01*
X33668587Y-33097095D01*
X33747095Y-33018587D01*
X33797500Y-32919661D01*
X33814869Y-32810000D01*
X33797500Y-32700339D01*
X33747095Y-32601413D01*
X33668587Y-32522905D01*
X33569661Y-32472500D01*
X33569658Y-32472499D01*
X33569657Y-32472499D01*
X33569654Y-32472498D01*
X33460003Y-32455131D01*
X33459997Y-32455131D01*
X33350345Y-32472498D01*
X33350342Y-32472499D01*
X33350340Y-32472499D01*
X33350339Y-32472500D01*
X33299969Y-32498164D01*
X33251412Y-32522905D01*
X33172905Y-32601412D01*
X33148164Y-32649969D01*
X33122500Y-32700339D01*
X33122499Y-32700340D01*
X33122499Y-32700342D01*
X33122498Y-32700345D01*
X33105131Y-32809997D01*
X33105131Y-32810002D01*
X26457501Y-32810002D01*
X26407698Y-32689767D01*
X26315451Y-32569549D01*
X26195233Y-32477302D01*
X26055236Y-32419313D01*
X26055238Y-32419313D01*
X25942721Y-32404500D01*
X25942720Y-32404500D01*
X25867280Y-32404500D01*
X25867278Y-32404500D01*
X25754762Y-32419313D01*
X25614767Y-32477302D01*
X25494549Y-32569549D01*
X25402302Y-32689767D01*
X25344313Y-32829762D01*
X25324534Y-32980000D01*
X21908752Y-32980000D01*
X21902841Y-32975464D01*
X21756762Y-32914956D01*
X21600000Y-32894318D01*
X21443238Y-32914956D01*
X21297159Y-32975464D01*
X21171718Y-33071718D01*
X21075464Y-33197159D01*
X21014956Y-33343238D01*
X20994318Y-33500000D01*
X21006822Y-33594985D01*
X21004543Y-33603487D01*
X20996921Y-33607888D01*
X20943236Y-33614956D01*
X20797159Y-33675464D01*
X20671718Y-33771718D01*
X20575464Y-33897159D01*
X20514956Y-34043238D01*
X20507943Y-34096511D01*
X20494318Y-34200000D01*
X20514956Y-34356762D01*
X20533151Y-34400688D01*
X20549916Y-34441163D01*
X20549916Y-34449965D01*
X20543692Y-34456189D01*
X20497159Y-34475464D01*
X20371718Y-34571718D01*
X20275464Y-34697159D01*
X20214956Y-34843238D01*
X20196197Y-34985731D01*
X20194318Y-35000000D01*
X20214956Y-35156762D01*
X20275464Y-35302841D01*
X20331190Y-35375464D01*
X20348636Y-35398200D01*
X20350914Y-35406702D01*
X20346513Y-35414325D01*
X20328324Y-35428282D01*
X20271718Y-35471718D01*
X20175464Y-35597159D01*
X20114956Y-35743238D01*
X20094318Y-35900000D01*
X20000500Y-35900000D01*
X20000500Y-30180002D01*
X34215131Y-30180002D01*
X34232498Y-30289654D01*
X34232499Y-30289657D01*
X34232500Y-30289661D01*
X34282905Y-30388587D01*
X34361413Y-30467095D01*
X34460339Y-30517500D01*
X34460344Y-30517500D01*
X34460345Y-30517501D01*
X34569997Y-30534869D01*
X34570000Y-30534869D01*
X34570003Y-30534869D01*
X34659237Y-30520734D01*
X34679661Y-30517500D01*
X34778587Y-30467095D01*
X34857095Y-30388587D01*
X34907500Y-30289661D01*
X34924869Y-30180000D01*
X34907500Y-30070339D01*
X34857095Y-29971413D01*
X34778587Y-29892905D01*
X34679661Y-29842500D01*
X34679658Y-29842499D01*
X34679657Y-29842499D01*
X34679654Y-29842498D01*
X34570003Y-29825131D01*
X34569997Y-29825131D01*
X34460345Y-29842498D01*
X34460342Y-29842499D01*
X34460340Y-29842499D01*
X34460339Y-29842500D01*
X34409969Y-29868164D01*
X34361412Y-29892905D01*
X34282905Y-29971412D01*
X34258164Y-30019969D01*
X34232500Y-30070339D01*
X34232499Y-30070340D01*
X34232499Y-30070342D01*
X34232498Y-30070345D01*
X34215131Y-30179997D01*
X34215131Y-30180002D01*
X20000500Y-30180002D01*
X20000500Y-28200002D01*
X36125131Y-28200002D01*
X36142498Y-28309654D01*
X36142499Y-28309657D01*
X36142500Y-28309661D01*
X36192905Y-28408587D01*
X36271413Y-28487095D01*
X36370339Y-28537500D01*
X36370344Y-28537500D01*
X36370345Y-28537501D01*
X36479997Y-28554869D01*
X36480000Y-28554869D01*
X36480003Y-28554869D01*
X36569237Y-28540734D01*
X36589661Y-28537500D01*
X36688587Y-28487095D01*
X36715680Y-28460002D01*
X38845131Y-28460002D01*
X38862498Y-28569654D01*
X38862499Y-28569657D01*
X38862500Y-28569661D01*
X38912905Y-28668587D01*
X38991413Y-28747095D01*
X39090339Y-28797500D01*
X39090344Y-28797500D01*
X39090345Y-28797501D01*
X39199997Y-28814869D01*
X39200000Y-28814869D01*
X39200003Y-28814869D01*
X39293877Y-28800000D01*
X39309661Y-28797500D01*
X39408587Y-28747095D01*
X39487095Y-28668587D01*
X39537500Y-28569661D01*
X39547004Y-28509657D01*
X39554869Y-28460002D01*
X39554869Y-28459997D01*
X39545366Y-28400002D01*
X39845131Y-28400002D01*
X39862498Y-28509654D01*
X39862499Y-28509657D01*
X39862500Y-28509661D01*
X39912905Y-28608587D01*
X39991413Y-28687095D01*
X40090339Y-28737500D01*
X40090344Y-28737500D01*
X40090345Y-28737501D01*
X40199997Y-28754869D01*
X40200000Y-28754869D01*
X40200003Y-28754869D01*
X40289237Y-28740734D01*
X40309661Y-28737500D01*
X40408587Y-28687095D01*
X40487095Y-28608587D01*
X40537500Y-28509661D01*
X40554869Y-28400000D01*
X40547004Y-28350345D01*
X40537501Y-28290345D01*
X40537500Y-28290342D01*
X40537500Y-28290339D01*
X40487095Y-28191413D01*
X40408587Y-28112905D01*
X40309661Y-28062500D01*
X40309658Y-28062499D01*
X40309657Y-28062499D01*
X40309654Y-28062498D01*
X40200003Y-28045131D01*
X40199997Y-28045131D01*
X40090345Y-28062498D01*
X40090342Y-28062499D01*
X40090340Y-28062499D01*
X40090339Y-28062500D01*
X40039969Y-28088164D01*
X39991412Y-28112905D01*
X39912905Y-28191412D01*
X39888164Y-28239969D01*
X39862500Y-28290339D01*
X39862499Y-28290340D01*
X39862499Y-28290342D01*
X39862498Y-28290345D01*
X39845131Y-28399997D01*
X39845131Y-28400002D01*
X39545366Y-28400002D01*
X39537501Y-28350345D01*
X39537500Y-28350342D01*
X39537500Y-28350339D01*
X39487095Y-28251413D01*
X39408587Y-28172905D01*
X39309661Y-28122500D01*
X39309658Y-28122499D01*
X39309657Y-28122499D01*
X39309654Y-28122498D01*
X39200003Y-28105131D01*
X39199997Y-28105131D01*
X39090345Y-28122498D01*
X39090342Y-28122499D01*
X39090340Y-28122499D01*
X39090339Y-28122500D01*
X39039969Y-28148164D01*
X38991412Y-28172905D01*
X38912905Y-28251412D01*
X38893071Y-28290339D01*
X38862500Y-28350339D01*
X38862499Y-28350340D01*
X38862499Y-28350342D01*
X38862498Y-28350345D01*
X38845131Y-28459997D01*
X38845131Y-28460002D01*
X36715680Y-28460002D01*
X36767095Y-28408587D01*
X36817500Y-28309661D01*
X36834869Y-28200000D01*
X36830577Y-28172905D01*
X36817501Y-28090345D01*
X36817500Y-28090342D01*
X36817500Y-28090339D01*
X36767095Y-27991413D01*
X36688587Y-27912905D01*
X36589661Y-27862500D01*
X36589658Y-27862499D01*
X36589657Y-27862499D01*
X36589654Y-27862498D01*
X36480003Y-27845131D01*
X36479997Y-27845131D01*
X36370345Y-27862498D01*
X36370342Y-27862499D01*
X36370340Y-27862499D01*
X36370339Y-27862500D01*
X36319969Y-27888164D01*
X36271412Y-27912905D01*
X36192905Y-27991412D01*
X36168164Y-28039969D01*
X36142500Y-28090339D01*
X36142499Y-28090340D01*
X36142499Y-28090342D01*
X36142498Y-28090345D01*
X36125131Y-28199997D01*
X36125131Y-28200002D01*
X20000500Y-28200002D01*
X20000500Y-26890000D01*
X33036818Y-26890000D01*
X33057456Y-27046762D01*
X33117964Y-27192841D01*
X33214218Y-27318282D01*
X33339659Y-27414536D01*
X33485738Y-27475044D01*
X33642500Y-27495682D01*
X33799262Y-27475044D01*
X33945341Y-27414536D01*
X34070782Y-27318282D01*
X34167036Y-27192841D01*
X34227544Y-27046762D01*
X34248182Y-26890000D01*
X34227544Y-26733238D01*
X34167036Y-26587159D01*
X34070782Y-26461718D01*
X33945341Y-26365464D01*
X33799262Y-26304956D01*
X33642500Y-26284318D01*
X33485738Y-26304956D01*
X33339659Y-26365464D01*
X33214218Y-26461718D01*
X33117964Y-26587159D01*
X33057456Y-26733238D01*
X33036818Y-26890000D01*
X20000500Y-26890000D01*
X20000500Y-26200002D01*
X28445131Y-26200002D01*
X28462498Y-26309654D01*
X28462499Y-26309657D01*
X28462500Y-26309661D01*
X28512905Y-26408587D01*
X28591413Y-26487095D01*
X28690339Y-26537500D01*
X28690344Y-26537500D01*
X28690345Y-26537501D01*
X28799997Y-26554869D01*
X28800000Y-26554869D01*
X28800003Y-26554869D01*
X28889237Y-26540734D01*
X28909661Y-26537500D01*
X29002882Y-26490002D01*
X30095131Y-26490002D01*
X30112498Y-26599654D01*
X30112499Y-26599657D01*
X30112500Y-26599661D01*
X30162905Y-26698587D01*
X30241413Y-26777095D01*
X30340339Y-26827500D01*
X30340344Y-26827500D01*
X30340345Y-26827501D01*
X30449997Y-26844869D01*
X30450000Y-26844869D01*
X30450003Y-26844869D01*
X30539237Y-26830734D01*
X30559661Y-26827500D01*
X30658587Y-26777095D01*
X30737095Y-26698587D01*
X30787500Y-26599661D01*
X30794595Y-26554869D01*
X30804869Y-26490002D01*
X31095131Y-26490002D01*
X31112498Y-26599654D01*
X31112499Y-26599657D01*
X31112500Y-26599661D01*
X31162905Y-26698587D01*
X31241413Y-26777095D01*
X31340339Y-26827500D01*
X31340344Y-26827500D01*
X31340345Y-26827501D01*
X31449997Y-26844869D01*
X31450000Y-26844869D01*
X31450003Y-26844869D01*
X31539237Y-26830734D01*
X31559661Y-26827500D01*
X31658587Y-26777095D01*
X31737095Y-26698587D01*
X31787500Y-26599661D01*
X31794595Y-26554869D01*
X31804869Y-26490002D01*
X31804869Y-26489997D01*
X31787501Y-26380345D01*
X31787500Y-26380342D01*
X31787500Y-26380339D01*
X31737095Y-26281413D01*
X31658587Y-26202905D01*
X31559661Y-26152500D01*
X31559658Y-26152499D01*
X31559657Y-26152499D01*
X31559654Y-26152498D01*
X31450003Y-26135131D01*
X31449997Y-26135131D01*
X31340345Y-26152498D01*
X31340342Y-26152499D01*
X31340340Y-26152499D01*
X31340339Y-26152500D01*
X31289969Y-26178164D01*
X31241412Y-26202905D01*
X31162905Y-26281412D01*
X31148514Y-26309657D01*
X31112500Y-26380339D01*
X31112499Y-26380340D01*
X31112499Y-26380342D01*
X31112498Y-26380345D01*
X31095131Y-26489997D01*
X31095131Y-26490002D01*
X30804869Y-26490002D01*
X30804869Y-26489997D01*
X30787501Y-26380345D01*
X30787500Y-26380342D01*
X30787500Y-26380339D01*
X30737095Y-26281413D01*
X30658587Y-26202905D01*
X30559661Y-26152500D01*
X30559658Y-26152499D01*
X30559657Y-26152499D01*
X30559654Y-26152498D01*
X30450003Y-26135131D01*
X30449997Y-26135131D01*
X30340345Y-26152498D01*
X30340342Y-26152499D01*
X30340340Y-26152499D01*
X30340339Y-26152500D01*
X30289969Y-26178164D01*
X30241412Y-26202905D01*
X30162905Y-26281412D01*
X30148514Y-26309657D01*
X30112500Y-26380339D01*
X30112499Y-26380340D01*
X30112499Y-26380342D01*
X30112498Y-26380345D01*
X30095131Y-26489997D01*
X30095131Y-26490002D01*
X29002882Y-26490002D01*
X29008587Y-26487095D01*
X29087095Y-26408587D01*
X29137500Y-26309661D01*
X29153339Y-26209661D01*
X29154869Y-26200002D01*
X29154869Y-26199997D01*
X29139031Y-26100002D01*
X37355131Y-26100002D01*
X37372498Y-26209654D01*
X37372499Y-26209657D01*
X37372500Y-26209661D01*
X37422905Y-26308587D01*
X37501413Y-26387095D01*
X37600339Y-26437500D01*
X37600344Y-26437500D01*
X37600345Y-26437501D01*
X37709997Y-26454869D01*
X37710000Y-26454869D01*
X37710003Y-26454869D01*
X37799237Y-26440734D01*
X37819661Y-26437500D01*
X37918587Y-26387095D01*
X37997095Y-26308587D01*
X38047500Y-26209661D01*
X38064869Y-26100002D01*
X39315131Y-26100002D01*
X39332498Y-26209654D01*
X39332499Y-26209657D01*
X39332500Y-26209661D01*
X39382905Y-26308587D01*
X39461413Y-26387095D01*
X39560339Y-26437500D01*
X39560344Y-26437500D01*
X39560345Y-26437501D01*
X39669997Y-26454869D01*
X39670000Y-26454869D01*
X39670003Y-26454869D01*
X39759237Y-26440734D01*
X39779661Y-26437500D01*
X39878587Y-26387095D01*
X39957095Y-26308587D01*
X40007500Y-26209661D01*
X40024869Y-26100000D01*
X40023339Y-26090342D01*
X40007501Y-25990345D01*
X40007500Y-25990342D01*
X40007500Y-25990339D01*
X39957095Y-25891413D01*
X39878587Y-25812905D01*
X39779661Y-25762500D01*
X39779658Y-25762499D01*
X39779657Y-25762499D01*
X39779654Y-25762498D01*
X39670003Y-25745131D01*
X39669997Y-25745131D01*
X39560345Y-25762498D01*
X39560342Y-25762499D01*
X39560340Y-25762499D01*
X39560339Y-25762500D01*
X39516845Y-25784661D01*
X39461412Y-25812905D01*
X39382905Y-25891412D01*
X39371954Y-25912905D01*
X39332500Y-25990339D01*
X39332499Y-25990340D01*
X39332499Y-25990342D01*
X39332498Y-25990345D01*
X39315131Y-26099997D01*
X39315131Y-26100002D01*
X38064869Y-26100002D01*
X38064869Y-26100000D01*
X38063339Y-26090342D01*
X38047501Y-25990345D01*
X38047500Y-25990342D01*
X38047500Y-25990339D01*
X37997095Y-25891413D01*
X37918587Y-25812905D01*
X37819661Y-25762500D01*
X37819658Y-25762499D01*
X37819657Y-25762499D01*
X37819654Y-25762498D01*
X37710003Y-25745131D01*
X37709997Y-25745131D01*
X37600345Y-25762498D01*
X37600342Y-25762499D01*
X37600340Y-25762499D01*
X37600339Y-25762500D01*
X37556845Y-25784661D01*
X37501412Y-25812905D01*
X37422905Y-25891412D01*
X37411954Y-25912905D01*
X37372500Y-25990339D01*
X37372499Y-25990340D01*
X37372499Y-25990342D01*
X37372498Y-25990345D01*
X37355131Y-26099997D01*
X37355131Y-26100002D01*
X29139031Y-26100002D01*
X29137501Y-26090345D01*
X29137500Y-26090342D01*
X29137500Y-26090339D01*
X29087095Y-25991413D01*
X29008587Y-25912905D01*
X28909661Y-25862500D01*
X28909658Y-25862499D01*
X28909657Y-25862499D01*
X28909654Y-25862498D01*
X28800003Y-25845131D01*
X28799997Y-25845131D01*
X28690345Y-25862498D01*
X28690342Y-25862499D01*
X28690340Y-25862499D01*
X28690339Y-25862500D01*
X28648953Y-25883587D01*
X28591412Y-25912905D01*
X28512905Y-25991412D01*
X28493311Y-26029869D01*
X28462500Y-26090339D01*
X28462499Y-26090340D01*
X28462499Y-26090342D01*
X28462498Y-26090345D01*
X28445131Y-26199997D01*
X28445131Y-26200002D01*
X20000500Y-26200002D01*
X20000500Y-24200000D01*
X28244318Y-24200000D01*
X28264956Y-24356762D01*
X28325464Y-24502841D01*
X28421718Y-24628282D01*
X28547159Y-24724536D01*
X28693238Y-24785044D01*
X28850000Y-24805682D01*
X29006762Y-24785044D01*
X29152841Y-24724536D01*
X29278282Y-24628282D01*
X29374536Y-24502841D01*
X29435044Y-24356762D01*
X29455682Y-24200000D01*
X29435044Y-24043238D01*
X29374536Y-23897159D01*
X29278282Y-23771718D01*
X29184817Y-23700000D01*
X30256818Y-23700000D01*
X30277456Y-23856762D01*
X30337964Y-24002841D01*
X30434218Y-24128282D01*
X30559659Y-24224536D01*
X30705738Y-24285044D01*
X30862500Y-24305682D01*
X31019262Y-24285044D01*
X31165341Y-24224536D01*
X31184282Y-24210002D01*
X33845131Y-24210002D01*
X33862498Y-24319654D01*
X33862499Y-24319657D01*
X33862500Y-24319661D01*
X33912905Y-24418587D01*
X33991413Y-24497095D01*
X34090339Y-24547500D01*
X34090344Y-24547500D01*
X34090345Y-24547501D01*
X34199997Y-24564869D01*
X34200000Y-24564869D01*
X34200003Y-24564869D01*
X34289237Y-24550734D01*
X34309661Y-24547500D01*
X34334190Y-24535002D01*
X39440131Y-24535002D01*
X39457498Y-24644654D01*
X39457499Y-24644657D01*
X39457500Y-24644661D01*
X39507905Y-24743587D01*
X39586413Y-24822095D01*
X39685339Y-24872500D01*
X39685344Y-24872500D01*
X39685345Y-24872501D01*
X39794997Y-24889869D01*
X39795000Y-24889869D01*
X39795003Y-24889869D01*
X39884237Y-24875734D01*
X39904661Y-24872500D01*
X40003587Y-24822095D01*
X40082095Y-24743587D01*
X40132500Y-24644661D01*
X40149869Y-24535000D01*
X40144775Y-24502841D01*
X40132501Y-24425345D01*
X40132500Y-24425342D01*
X40132500Y-24425339D01*
X40082095Y-24326413D01*
X40003587Y-24247905D01*
X39904661Y-24197500D01*
X39904658Y-24197499D01*
X39904657Y-24197499D01*
X39904654Y-24197498D01*
X39795003Y-24180131D01*
X39794997Y-24180131D01*
X39685345Y-24197498D01*
X39685342Y-24197499D01*
X39685340Y-24197499D01*
X39685339Y-24197500D01*
X39634969Y-24223164D01*
X39586412Y-24247905D01*
X39507905Y-24326412D01*
X39483164Y-24374969D01*
X39457500Y-24425339D01*
X39457499Y-24425340D01*
X39457499Y-24425342D01*
X39457498Y-24425345D01*
X39440131Y-24534997D01*
X39440131Y-24535002D01*
X34334190Y-24535002D01*
X34408587Y-24497095D01*
X34487095Y-24418587D01*
X34537500Y-24319661D01*
X34554869Y-24210000D01*
X34553285Y-24200000D01*
X34537501Y-24100345D01*
X34537500Y-24100342D01*
X34537500Y-24100339D01*
X34487095Y-24001413D01*
X34408587Y-23922905D01*
X34309661Y-23872500D01*
X34309658Y-23872499D01*
X34309657Y-23872499D01*
X34309654Y-23872498D01*
X34200003Y-23855131D01*
X34199997Y-23855131D01*
X34090345Y-23872498D01*
X34090342Y-23872499D01*
X34090340Y-23872499D01*
X34090339Y-23872500D01*
X34041943Y-23897159D01*
X33991412Y-23922905D01*
X33912905Y-24001412D01*
X33912177Y-24002841D01*
X33862500Y-24100339D01*
X33862499Y-24100340D01*
X33862499Y-24100342D01*
X33862498Y-24100345D01*
X33845131Y-24209997D01*
X33845131Y-24210002D01*
X31184282Y-24210002D01*
X31290782Y-24128282D01*
X31387036Y-24002841D01*
X31447544Y-23856762D01*
X31468182Y-23700000D01*
X31447544Y-23543238D01*
X31387036Y-23397159D01*
X31350850Y-23350000D01*
X34794318Y-23350000D01*
X34814956Y-23506762D01*
X34875464Y-23652841D01*
X34971718Y-23778282D01*
X35097159Y-23874536D01*
X35243238Y-23935044D01*
X35400000Y-23955682D01*
X35556762Y-23935044D01*
X35702841Y-23874536D01*
X35828282Y-23778282D01*
X35924536Y-23652841D01*
X35985044Y-23506762D01*
X36005682Y-23350000D01*
X35985044Y-23193238D01*
X35924536Y-23047159D01*
X35828282Y-22921718D01*
X35702841Y-22825464D01*
X35556762Y-22764956D01*
X35400000Y-22744318D01*
X35399999Y-22744318D01*
X35243238Y-22764955D01*
X35243238Y-22764956D01*
X35097159Y-22825464D01*
X34971718Y-22921718D01*
X34875464Y-23047159D01*
X34814956Y-23193238D01*
X34794318Y-23350000D01*
X31350850Y-23350000D01*
X31290782Y-23271718D01*
X31165341Y-23175464D01*
X31019262Y-23114956D01*
X30862500Y-23094318D01*
X30705738Y-23114956D01*
X30559659Y-23175464D01*
X30434218Y-23271718D01*
X30337964Y-23397159D01*
X30277456Y-23543238D01*
X30256818Y-23700000D01*
X29184817Y-23700000D01*
X29152841Y-23675464D01*
X29006762Y-23614956D01*
X28850000Y-23594318D01*
X28849999Y-23594318D01*
X28693238Y-23614955D01*
X28693238Y-23614956D01*
X28547159Y-23675464D01*
X28421718Y-23771718D01*
X28325464Y-23897159D01*
X28264956Y-24043238D01*
X28244318Y-24200000D01*
X20000500Y-24200000D01*
X20000500Y-20012000D01*
X20003868Y-20003868D01*
X20012000Y-20000500D01*
X46588500Y-20000500D01*
X46596632Y-20003868D01*
G37*
%TD.AperFunction*%
%TD*%
M02*
