%TF.GenerationSoftware,KiCad,Pcbnew,7.0.7*%
%TF.CreationDate,2024-02-05T21:16:27-08:00*%
%TF.ProjectId,Bandit_Dev_Platform,42616e64-6974-45f4-9465-765f506c6174,rev?*%
%TF.SameCoordinates,Original*%
%TF.FileFunction,Paste,Top*%
%TF.FilePolarity,Positive*%
%FSLAX46Y46*%
G04 Gerber Fmt 4.6, Leading zero omitted, Abs format (unit mm)*
G04 Created by KiCad (PCBNEW 7.0.7) date 2024-02-05 21:16:27*
%MOMM*%
%LPD*%
G01*
G04 APERTURE LIST*
G04 Aperture macros list*
%AMRoundRect*
0 Rectangle with rounded corners*
0 $1 Rounding radius*
0 $2 $3 $4 $5 $6 $7 $8 $9 X,Y pos of 4 corners*
0 Add a 4 corners polygon primitive as box body*
4,1,4,$2,$3,$4,$5,$6,$7,$8,$9,$2,$3,0*
0 Add four circle primitives for the rounded corners*
1,1,$1+$1,$2,$3*
1,1,$1+$1,$4,$5*
1,1,$1+$1,$6,$7*
1,1,$1+$1,$8,$9*
0 Add four rect primitives between the rounded corners*
20,1,$1+$1,$2,$3,$4,$5,0*
20,1,$1+$1,$4,$5,$6,$7,0*
20,1,$1+$1,$6,$7,$8,$9,0*
20,1,$1+$1,$8,$9,$2,$3,0*%
G04 Aperture macros list end*
%ADD10C,0.010000*%
%ADD11RoundRect,0.135000X0.135000X0.185000X-0.135000X0.185000X-0.135000X-0.185000X0.135000X-0.185000X0*%
%ADD12RoundRect,0.140000X-0.170000X0.140000X-0.170000X-0.140000X0.170000X-0.140000X0.170000X0.140000X0*%
%ADD13RoundRect,0.140000X0.170000X-0.140000X0.170000X0.140000X-0.170000X0.140000X-0.170000X-0.140000X0*%
%ADD14RoundRect,0.135000X-0.185000X0.135000X-0.185000X-0.135000X0.185000X-0.135000X0.185000X0.135000X0*%
%ADD15RoundRect,0.200000X-0.200000X-0.275000X0.200000X-0.275000X0.200000X0.275000X-0.200000X0.275000X0*%
%ADD16R,1.150000X0.600000*%
%ADD17R,1.150000X0.300000*%
%ADD18O,2.100000X1.000000*%
%ADD19O,1.800000X1.000000*%
%ADD20RoundRect,0.140000X0.140000X0.170000X-0.140000X0.170000X-0.140000X-0.170000X0.140000X-0.170000X0*%
%ADD21RoundRect,0.200000X-0.275000X0.200000X-0.275000X-0.200000X0.275000X-0.200000X0.275000X0.200000X0*%
%ADD22RoundRect,0.218750X0.218750X0.256250X-0.218750X0.256250X-0.218750X-0.256250X0.218750X-0.256250X0*%
%ADD23RoundRect,0.135000X0.185000X-0.135000X0.185000X0.135000X-0.185000X0.135000X-0.185000X-0.135000X0*%
%ADD24RoundRect,0.200000X0.200000X0.275000X-0.200000X0.275000X-0.200000X-0.275000X0.200000X-0.275000X0*%
%ADD25RoundRect,0.150000X0.825000X0.150000X-0.825000X0.150000X-0.825000X-0.150000X0.825000X-0.150000X0*%
%ADD26RoundRect,0.200000X0.275000X-0.200000X0.275000X0.200000X-0.275000X0.200000X-0.275000X-0.200000X0*%
%ADD27RoundRect,0.140000X-0.021213X0.219203X-0.219203X0.021213X0.021213X-0.219203X0.219203X-0.021213X0*%
%ADD28RoundRect,0.100000X0.637500X0.100000X-0.637500X0.100000X-0.637500X-0.100000X0.637500X-0.100000X0*%
%ADD29R,1.000000X0.800000*%
%ADD30RoundRect,0.243750X0.243750X0.456250X-0.243750X0.456250X-0.243750X-0.456250X0.243750X-0.456250X0*%
%ADD31RoundRect,0.250000X0.250000X0.475000X-0.250000X0.475000X-0.250000X-0.475000X0.250000X-0.475000X0*%
%ADD32RoundRect,0.135000X-0.135000X-0.185000X0.135000X-0.185000X0.135000X0.185000X-0.135000X0.185000X0*%
%ADD33RoundRect,0.140000X-0.140000X-0.170000X0.140000X-0.170000X0.140000X0.170000X-0.140000X0.170000X0*%
%ADD34RoundRect,0.150000X-0.512500X-0.150000X0.512500X-0.150000X0.512500X0.150000X-0.512500X0.150000X0*%
%ADD35RoundRect,0.135000X-0.035355X0.226274X-0.226274X0.035355X0.035355X-0.226274X0.226274X-0.035355X0*%
%ADD36RoundRect,0.140000X-0.219203X-0.021213X-0.021213X-0.219203X0.219203X0.021213X0.021213X0.219203X0*%
%ADD37RoundRect,0.150000X-0.150000X0.825000X-0.150000X-0.825000X0.150000X-0.825000X0.150000X0.825000X0*%
%ADD38RoundRect,0.250000X0.450000X-0.262500X0.450000X0.262500X-0.450000X0.262500X-0.450000X-0.262500X0*%
%ADD39R,1.400000X1.200000*%
%ADD40RoundRect,0.150000X0.150000X-0.825000X0.150000X0.825000X-0.150000X0.825000X-0.150000X-0.825000X0*%
%ADD41RoundRect,0.250000X-0.475000X0.250000X-0.475000X-0.250000X0.475000X-0.250000X0.475000X0.250000X0*%
%ADD42RoundRect,0.150000X0.512500X0.150000X-0.512500X0.150000X-0.512500X-0.150000X0.512500X-0.150000X0*%
%ADD43RoundRect,0.135000X0.035355X-0.226274X0.226274X-0.035355X-0.035355X0.226274X-0.226274X0.035355X0*%
%ADD44RoundRect,0.249999X0.395001X-0.395001X0.395001X0.395001X-0.395001X0.395001X-0.395001X-0.395001X0*%
%ADD45RoundRect,0.050000X0.050000X-0.387500X0.050000X0.387500X-0.050000X0.387500X-0.050000X-0.387500X0*%
%ADD46RoundRect,0.050000X0.387500X-0.050000X0.387500X0.050000X-0.387500X0.050000X-0.387500X-0.050000X0*%
%ADD47RoundRect,0.150000X0.150000X-0.512500X0.150000X0.512500X-0.150000X0.512500X-0.150000X-0.512500X0*%
%ADD48RoundRect,0.250000X0.475000X-0.250000X0.475000X0.250000X-0.475000X0.250000X-0.475000X-0.250000X0*%
G04 APERTURE END LIST*
%TO.C,U5*%
D10*
X33450660Y-39480560D02*
X33309238Y-39621981D01*
X32920330Y-39233072D01*
X33061751Y-39091651D01*
X33450660Y-39480560D01*
G36*
X33450660Y-39480560D02*
G01*
X33309238Y-39621981D01*
X32920330Y-39233072D01*
X33061751Y-39091651D01*
X33450660Y-39480560D01*
G37*
X33804213Y-39127006D02*
X33662792Y-39268428D01*
X33273883Y-38879519D01*
X33415304Y-38738097D01*
X33804213Y-39127006D01*
G36*
X33804213Y-39127006D02*
G01*
X33662792Y-39268428D01*
X33273883Y-38879519D01*
X33415304Y-38738097D01*
X33804213Y-39127006D01*
G37*
X34157767Y-38773453D02*
X34016345Y-38914874D01*
X33627436Y-38525965D01*
X33768858Y-38384544D01*
X34157767Y-38773453D01*
G36*
X34157767Y-38773453D02*
G01*
X34016345Y-38914874D01*
X33627436Y-38525965D01*
X33768858Y-38384544D01*
X34157767Y-38773453D01*
G37*
X34511320Y-38419899D02*
X34369899Y-38561321D01*
X33980990Y-38172412D01*
X34122411Y-38030991D01*
X34511320Y-38419899D01*
G36*
X34511320Y-38419899D02*
G01*
X34369899Y-38561321D01*
X33980990Y-38172412D01*
X34122411Y-38030991D01*
X34511320Y-38419899D01*
G37*
X32743553Y-37995635D02*
X32390000Y-38349189D01*
X32248578Y-38207767D01*
X32602132Y-37854214D01*
X32743553Y-37995635D01*
G36*
X32743553Y-37995635D02*
G01*
X32390000Y-38349189D01*
X32248578Y-38207767D01*
X32602132Y-37854214D01*
X32743553Y-37995635D01*
G37*
X33238528Y-37500661D02*
X32884974Y-37854214D01*
X32743553Y-37712793D01*
X33097106Y-37359239D01*
X33238528Y-37500661D01*
G36*
X33238528Y-37500661D02*
G01*
X32884974Y-37854214D01*
X32743553Y-37712793D01*
X33097106Y-37359239D01*
X33238528Y-37500661D01*
G37*
X31506116Y-37536016D02*
X31364695Y-37677437D01*
X30975786Y-37288529D01*
X31117207Y-37147107D01*
X31506116Y-37536016D01*
G36*
X31506116Y-37536016D02*
G01*
X31364695Y-37677437D01*
X30975786Y-37288529D01*
X31117207Y-37147107D01*
X31506116Y-37536016D01*
G37*
X31859670Y-37182463D02*
X31718248Y-37323884D01*
X31329339Y-36934975D01*
X31470761Y-36793554D01*
X31859670Y-37182463D01*
G36*
X31859670Y-37182463D02*
G01*
X31718248Y-37323884D01*
X31329339Y-36934975D01*
X31470761Y-36793554D01*
X31859670Y-37182463D01*
G37*
X32213223Y-36828909D02*
X32071802Y-36970331D01*
X31682893Y-36581422D01*
X31824314Y-36440000D01*
X32213223Y-36828909D01*
G36*
X32213223Y-36828909D02*
G01*
X32071802Y-36970331D01*
X31682893Y-36581422D01*
X31824314Y-36440000D01*
X32213223Y-36828909D01*
G37*
X32566776Y-36475356D02*
X32425355Y-36616777D01*
X32036446Y-36227868D01*
X32177868Y-36086447D01*
X32566776Y-36475356D01*
G36*
X32566776Y-36475356D02*
G01*
X32425355Y-36616777D01*
X32036446Y-36227868D01*
X32177868Y-36086447D01*
X32566776Y-36475356D01*
G37*
%TD*%
D11*
%TO.C,R22*%
X49270000Y-37650000D03*
X48250000Y-37650000D03*
%TD*%
D12*
%TO.C,C3*%
X44375000Y-22095000D03*
X44375000Y-23055000D03*
%TD*%
%TO.C,C21*%
X47310000Y-39520000D03*
X47310000Y-40480000D03*
%TD*%
D13*
%TO.C,C59*%
X55127100Y-26960000D03*
X55127100Y-26000000D03*
%TD*%
D12*
%TO.C,C23*%
X47310000Y-37620000D03*
X47310000Y-38580000D03*
%TD*%
%TO.C,C8*%
X50225000Y-22095000D03*
X50225000Y-23055000D03*
%TD*%
D14*
%TO.C,R32*%
X64990200Y-46612500D03*
X64990200Y-47632500D03*
%TD*%
D15*
%TO.C,R8*%
X47350000Y-25675000D03*
X49000000Y-25675000D03*
%TD*%
D14*
%TO.C,R24*%
X48310000Y-42190000D03*
X48310000Y-43210000D03*
%TD*%
D16*
%TO.C,P1*%
X26980000Y-32670000D03*
X26980000Y-33470000D03*
D17*
X26980000Y-34620000D03*
X26980000Y-35620000D03*
X26980000Y-36120000D03*
X26980000Y-37120000D03*
D16*
X26980000Y-38270000D03*
X26980000Y-39070000D03*
X26980000Y-39070000D03*
X26980000Y-38270000D03*
D17*
X26980000Y-37620000D03*
X26980000Y-36620000D03*
X26980000Y-35120000D03*
X26980000Y-34120000D03*
D16*
X26980000Y-33470000D03*
X26980000Y-32670000D03*
D18*
X26405000Y-31550000D03*
D19*
X22225000Y-31550000D03*
D18*
X26405000Y-40190000D03*
D19*
X22225000Y-40190000D03*
%TD*%
D20*
%TO.C,C11*%
X35490000Y-28170000D03*
X34530000Y-28170000D03*
%TD*%
D13*
%TO.C,C30*%
X65500000Y-37380000D03*
X65500000Y-36420000D03*
%TD*%
D21*
%TO.C,R33*%
X65290200Y-41697500D03*
X65290200Y-43347500D03*
%TD*%
D22*
%TO.C,FB1*%
X35217500Y-26890000D03*
X33642500Y-26890000D03*
%TD*%
D13*
%TO.C,C14*%
X50225000Y-24955000D03*
X50225000Y-23995000D03*
%TD*%
D12*
%TO.C,C2*%
X43375000Y-22095000D03*
X43375000Y-23055000D03*
%TD*%
D23*
%TO.C,R21*%
X48310000Y-39610000D03*
X48310000Y-38590000D03*
%TD*%
D12*
%TO.C,C60*%
X55690200Y-47642500D03*
X55690200Y-48602500D03*
%TD*%
D24*
%TO.C,R9*%
X48750000Y-27225000D03*
X47100000Y-27225000D03*
%TD*%
D25*
%TO.C,U7*%
X73275000Y-37780000D03*
X73275000Y-36510000D03*
X73275000Y-35240000D03*
X73275000Y-33970000D03*
X68325000Y-33970000D03*
X68325000Y-35240000D03*
X68325000Y-36510000D03*
X68325000Y-37780000D03*
%TD*%
D20*
%TO.C,C7*%
X48820000Y-32700000D03*
X47860000Y-32700000D03*
%TD*%
D13*
%TO.C,C16*%
X62390200Y-48602500D03*
X62390200Y-47642500D03*
%TD*%
D12*
%TO.C,C26*%
X40770000Y-44420000D03*
X40770000Y-45380000D03*
%TD*%
D26*
%TO.C,R30*%
X56990200Y-49547500D03*
X56990200Y-47897500D03*
%TD*%
D13*
%TO.C,C37*%
X36480000Y-28200000D03*
X36480000Y-27240000D03*
%TD*%
D20*
%TO.C,C6*%
X24300000Y-25400000D03*
X23340000Y-25400000D03*
%TD*%
D11*
%TO.C,R23*%
X49270000Y-44150000D03*
X48250000Y-44150000D03*
%TD*%
D12*
%TO.C,C32*%
X48275000Y-29545000D03*
X48275000Y-30505000D03*
%TD*%
D27*
%TO.C,C34*%
X31959411Y-33850589D03*
X31280589Y-34529411D03*
%TD*%
D28*
%TO.C,U1*%
X44652500Y-43185000D03*
X44652500Y-42535000D03*
X44652500Y-41885000D03*
X44652500Y-41235000D03*
X44652500Y-40585000D03*
X44652500Y-39935000D03*
X44652500Y-39285000D03*
X44652500Y-38635000D03*
X38927500Y-38635000D03*
X38927500Y-39285000D03*
X38927500Y-39935000D03*
X38927500Y-40585000D03*
X38927500Y-41235000D03*
X38927500Y-41885000D03*
X38927500Y-42535000D03*
X38927500Y-43185000D03*
%TD*%
D12*
%TO.C,C47*%
X64990200Y-44742500D03*
X64990200Y-45702500D03*
%TD*%
D23*
%TO.C,R39*%
X64427300Y-28114700D03*
X64427300Y-27094700D03*
%TD*%
D11*
%TO.C,R34*%
X64200200Y-38522500D03*
X63180200Y-38522500D03*
%TD*%
D12*
%TO.C,C38*%
X61000000Y-26020000D03*
X61000000Y-26980000D03*
%TD*%
D29*
%TO.C,D2*%
X36770000Y-23525000D03*
X38270000Y-23525000D03*
X38270000Y-24625000D03*
X36770000Y-24625000D03*
%TD*%
D12*
%TO.C,C50*%
X62190200Y-38142500D03*
X62190200Y-39102500D03*
%TD*%
D13*
%TO.C,C68*%
X30530000Y-26460000D03*
X30530000Y-25500000D03*
%TD*%
D20*
%TO.C,C29*%
X37260000Y-39600000D03*
X36300000Y-39600000D03*
%TD*%
D30*
%TO.C,D1*%
X32737500Y-23700000D03*
X30862500Y-23700000D03*
%TD*%
D20*
%TO.C,C63*%
X33450000Y-29900000D03*
X32490000Y-29900000D03*
%TD*%
D13*
%TO.C,C74*%
X40200000Y-28460000D03*
X40200000Y-27500000D03*
%TD*%
%TO.C,C51*%
X58763100Y-36480000D03*
X58763100Y-35520000D03*
%TD*%
%TO.C,C24*%
X47310000Y-44180000D03*
X47310000Y-43220000D03*
%TD*%
D21*
%TO.C,R37*%
X56427100Y-25075000D03*
X56427100Y-26725000D03*
%TD*%
D14*
%TO.C,R1*%
X39795000Y-23515000D03*
X39795000Y-24535000D03*
%TD*%
D31*
%TO.C,C73*%
X69150000Y-26375000D03*
X67250000Y-26375000D03*
%TD*%
D13*
%TO.C,C20*%
X61557100Y-36454600D03*
X61557100Y-35494600D03*
%TD*%
D32*
%TO.C,R2*%
X38650000Y-26100000D03*
X39670000Y-26100000D03*
%TD*%
D33*
%TO.C,C13*%
X50245000Y-25975000D03*
X51205000Y-25975000D03*
%TD*%
D13*
%TO.C,C35*%
X37500000Y-28200000D03*
X37500000Y-27240000D03*
%TD*%
%TO.C,C41*%
X60630000Y-36454600D03*
X60630000Y-35494600D03*
%TD*%
D23*
%TO.C,R35*%
X57823300Y-36535400D03*
X57823300Y-35515400D03*
%TD*%
D34*
%TO.C,U4*%
X45850000Y-22125000D03*
X45850000Y-23075000D03*
X45850000Y-24025000D03*
X48125000Y-24025000D03*
X48125000Y-22125000D03*
%TD*%
D13*
%TO.C,C66*%
X46050000Y-31710000D03*
X46050000Y-30750000D03*
%TD*%
D12*
%TO.C,C10*%
X44930000Y-34640000D03*
X44930000Y-35600000D03*
%TD*%
D27*
%TO.C,C33*%
X33349411Y-33920589D03*
X32670589Y-34599411D03*
%TD*%
D20*
%TO.C,C4*%
X24300000Y-26450000D03*
X23340000Y-26450000D03*
%TD*%
D13*
%TO.C,C65*%
X45050000Y-31710000D03*
X45050000Y-30750000D03*
%TD*%
D35*
%TO.C,R12*%
X32760624Y-41739376D03*
X32039376Y-42460624D03*
%TD*%
D13*
%TO.C,C44*%
X58290200Y-48602500D03*
X58290200Y-47642500D03*
%TD*%
D12*
%TO.C,C53*%
X57730700Y-26020000D03*
X57730700Y-26980000D03*
%TD*%
D23*
%TO.C,R15*%
X77600000Y-34750000D03*
X77600000Y-33730000D03*
%TD*%
D26*
%TO.C,R29*%
X54490200Y-44347500D03*
X54490200Y-42697500D03*
%TD*%
D12*
%TO.C,C9*%
X53575000Y-22145000D03*
X53575000Y-23105000D03*
%TD*%
D13*
%TO.C,C58*%
X59900000Y-26980000D03*
X59900000Y-26020000D03*
%TD*%
D26*
%TO.C,R40*%
X64744800Y-32925000D03*
X64744800Y-31275000D03*
%TD*%
%TO.C,R38*%
X63182700Y-26825000D03*
X63182700Y-25175000D03*
%TD*%
D13*
%TO.C,C54*%
X54200000Y-26960000D03*
X54200000Y-26000000D03*
%TD*%
D32*
%TO.C,R3*%
X36690000Y-26100000D03*
X37710000Y-26100000D03*
%TD*%
D36*
%TO.C,C1*%
X30420589Y-38090589D03*
X31099411Y-38769411D03*
%TD*%
D37*
%TO.C,U10*%
X63170000Y-28800000D03*
X61900000Y-28800000D03*
X60630000Y-28800000D03*
X59360000Y-28800000D03*
X58090000Y-28800000D03*
X56820000Y-28800000D03*
X55550000Y-28800000D03*
X55550000Y-33750000D03*
X56820000Y-33750000D03*
X58090000Y-33750000D03*
X59360000Y-33750000D03*
X60630000Y-33750000D03*
X61900000Y-33750000D03*
X63170000Y-33750000D03*
%TD*%
D14*
%TO.C,R28*%
X58490200Y-38212500D03*
X58490200Y-39232500D03*
%TD*%
D13*
%TO.C,C43*%
X56700200Y-39202500D03*
X56700200Y-38242500D03*
%TD*%
%TO.C,C40*%
X55690200Y-39202500D03*
X55690200Y-38242500D03*
%TD*%
D11*
%TO.C,R27*%
X47270000Y-29525000D03*
X46250000Y-29525000D03*
%TD*%
D14*
%TO.C,R6*%
X34200000Y-23190000D03*
X34200000Y-24210000D03*
%TD*%
D20*
%TO.C,C28*%
X37280000Y-38620000D03*
X36320000Y-38620000D03*
%TD*%
D23*
%TO.C,R25*%
X78700000Y-38000000D03*
X78700000Y-36980000D03*
%TD*%
D20*
%TO.C,C62*%
X33450000Y-30900000D03*
X32490000Y-30900000D03*
%TD*%
D38*
%TO.C,R7*%
X45175000Y-27487500D03*
X45175000Y-25662500D03*
%TD*%
D21*
%TO.C,R11*%
X29400000Y-40175000D03*
X29400000Y-41825000D03*
%TD*%
D12*
%TO.C,C48*%
X60390200Y-47642500D03*
X60390200Y-48602500D03*
%TD*%
D39*
%TO.C,Y1*%
X48670000Y-34080000D03*
X46470000Y-34080000D03*
X46470000Y-35780000D03*
X48670000Y-35780000D03*
%TD*%
D31*
%TO.C,C69*%
X28850000Y-24200000D03*
X26950000Y-24200000D03*
%TD*%
D13*
%TO.C,C22*%
X47310000Y-42330000D03*
X47310000Y-41370000D03*
%TD*%
D40*
%TO.C,U9*%
X56080200Y-45897500D03*
X57350200Y-45897500D03*
X58620200Y-45897500D03*
X59890200Y-45897500D03*
X61160200Y-45897500D03*
X62430200Y-45897500D03*
X63700200Y-45897500D03*
X63700200Y-40947500D03*
X62430200Y-40947500D03*
X61160200Y-40947500D03*
X59890200Y-40947500D03*
X58620200Y-40947500D03*
X57350200Y-40947500D03*
X56080200Y-40947500D03*
%TD*%
D41*
%TO.C,C72*%
X76000000Y-32850000D03*
X76000000Y-34750000D03*
%TD*%
D42*
%TO.C,U11*%
X28800000Y-28100000D03*
X28800000Y-26200000D03*
X26525000Y-27150000D03*
%TD*%
D20*
%TO.C,C36*%
X33460000Y-32810000D03*
X32500000Y-32810000D03*
%TD*%
D13*
%TO.C,C67*%
X31530000Y-26460000D03*
X31530000Y-25500000D03*
%TD*%
D43*
%TO.C,R4*%
X30039376Y-32710624D03*
X30760624Y-31989376D03*
%TD*%
D12*
%TO.C,C52*%
X56200000Y-35534900D03*
X56200000Y-36494900D03*
%TD*%
D13*
%TO.C,C64*%
X44050000Y-32020000D03*
X44050000Y-31060000D03*
%TD*%
D32*
%TO.C,R14*%
X45880000Y-32690000D03*
X46900000Y-32690000D03*
%TD*%
D12*
%TO.C,C42*%
X59490200Y-38242500D03*
X59490200Y-39202500D03*
%TD*%
D13*
%TO.C,C56*%
X64401900Y-29926200D03*
X64401900Y-28966200D03*
%TD*%
D14*
%TO.C,R13*%
X78700000Y-33730000D03*
X78700000Y-34750000D03*
%TD*%
D11*
%TO.C,R41*%
X63610000Y-36000000D03*
X62590000Y-36000000D03*
%TD*%
D44*
%TO.C,U2*%
X38567500Y-33970000D03*
X40167500Y-33970000D03*
X38567500Y-32370000D03*
X40167500Y-32370000D03*
D45*
X36767500Y-36607500D03*
X37167500Y-36607500D03*
X37567500Y-36607500D03*
X37967500Y-36607500D03*
X38367500Y-36607500D03*
X38767500Y-36607500D03*
X39167500Y-36607500D03*
X39567500Y-36607500D03*
X39967500Y-36607500D03*
X40367500Y-36607500D03*
X40767500Y-36607500D03*
X41167500Y-36607500D03*
X41567500Y-36607500D03*
X41967500Y-36607500D03*
D46*
X42805000Y-35770000D03*
X42805000Y-35370000D03*
X42805000Y-34970000D03*
X42805000Y-34570000D03*
X42805000Y-34170000D03*
X42805000Y-33770000D03*
X42805000Y-33370000D03*
X42805000Y-32970000D03*
X42805000Y-32570000D03*
X42805000Y-32170000D03*
X42805000Y-31770000D03*
X42805000Y-31370000D03*
X42805000Y-30970000D03*
X42805000Y-30570000D03*
D45*
X41967500Y-29732500D03*
X41567500Y-29732500D03*
X41167500Y-29732500D03*
X40767500Y-29732500D03*
X40367500Y-29732500D03*
X39967500Y-29732500D03*
X39567500Y-29732500D03*
X39167500Y-29732500D03*
X38767500Y-29732500D03*
X38367500Y-29732500D03*
X37967500Y-29732500D03*
X37567500Y-29732500D03*
X37167500Y-29732500D03*
X36767500Y-29732500D03*
D46*
X35930000Y-30570000D03*
X35930000Y-30970000D03*
X35930000Y-31370000D03*
X35930000Y-31770000D03*
X35930000Y-32170000D03*
X35930000Y-32570000D03*
X35930000Y-32970000D03*
X35930000Y-33370000D03*
X35930000Y-33770000D03*
X35930000Y-34170000D03*
X35930000Y-34570000D03*
X35930000Y-34970000D03*
X35930000Y-35370000D03*
X35930000Y-35770000D03*
%TD*%
D41*
%TO.C,C71*%
X52025000Y-22125000D03*
X52025000Y-24025000D03*
%TD*%
D13*
%TO.C,C57*%
X58900000Y-26980000D03*
X58900000Y-26020000D03*
%TD*%
%TO.C,C46*%
X61450200Y-48602500D03*
X61450200Y-47642500D03*
%TD*%
D12*
%TO.C,C27*%
X41770000Y-44420000D03*
X41770000Y-45380000D03*
%TD*%
%TO.C,C45*%
X54690200Y-47642500D03*
X54690200Y-48602500D03*
%TD*%
%TO.C,C39*%
X55194400Y-35520000D03*
X55194400Y-36480000D03*
%TD*%
D13*
%TO.C,C31*%
X66500000Y-37580000D03*
X66500000Y-36620000D03*
%TD*%
D47*
%TO.C,U6*%
X50225000Y-29762500D03*
X51175000Y-29762500D03*
X52125000Y-29762500D03*
X52125000Y-27487500D03*
X50225000Y-27487500D03*
%TD*%
D41*
%TO.C,C70*%
X41825000Y-22125000D03*
X41825000Y-24025000D03*
%TD*%
D13*
%TO.C,C61*%
X34570000Y-30180000D03*
X34570000Y-29220000D03*
%TD*%
D14*
%TO.C,R26*%
X77600000Y-36980000D03*
X77600000Y-38000000D03*
%TD*%
D43*
%TO.C,R5*%
X30589376Y-33610624D03*
X31310624Y-32889376D03*
%TD*%
D48*
%TO.C,C25*%
X76000000Y-38880000D03*
X76000000Y-36980000D03*
%TD*%
D12*
%TO.C,C19*%
X61190200Y-38142500D03*
X61190200Y-39102500D03*
%TD*%
D21*
%TO.C,R36*%
X54000600Y-30030900D03*
X54000600Y-31680900D03*
%TD*%
%TO.C,R31*%
X63690200Y-47822500D03*
X63690200Y-49472500D03*
%TD*%
D20*
%TO.C,C5*%
X24300000Y-24350000D03*
X23340000Y-24350000D03*
%TD*%
D12*
%TO.C,C49*%
X59390200Y-47642500D03*
X59390200Y-48602500D03*
%TD*%
D26*
%TO.C,R10*%
X29200000Y-31425000D03*
X29200000Y-29775000D03*
%TD*%
D12*
%TO.C,C55*%
X61939800Y-26022600D03*
X61939800Y-26982600D03*
%TD*%
M02*
