%TF.GenerationSoftware,KiCad,Pcbnew,7.0.7*%
%TF.CreationDate,2024-02-05T21:16:27-08:00*%
%TF.ProjectId,Bandit_Dev_Platform,42616e64-6974-45f4-9465-765f506c6174,rev?*%
%TF.SameCoordinates,Original*%
%TF.FileFunction,Copper,L4,Bot*%
%TF.FilePolarity,Positive*%
%FSLAX46Y46*%
G04 Gerber Fmt 4.6, Leading zero omitted, Abs format (unit mm)*
G04 Created by KiCad (PCBNEW 7.0.7) date 2024-02-05 21:16:27*
%MOMM*%
%LPD*%
G01*
G04 APERTURE LIST*
%TA.AperFunction,ComponentPad*%
%ADD10O,2.100000X1.000000*%
%TD*%
%TA.AperFunction,ComponentPad*%
%ADD11O,1.800000X1.000000*%
%TD*%
%TA.AperFunction,ComponentPad*%
%ADD12C,1.800000*%
%TD*%
%TA.AperFunction,ComponentPad*%
%ADD13C,3.250000*%
%TD*%
%TA.AperFunction,ComponentPad*%
%ADD14R,1.700000X1.700000*%
%TD*%
%TA.AperFunction,ComponentPad*%
%ADD15O,1.700000X1.700000*%
%TD*%
%TA.AperFunction,ComponentPad*%
%ADD16C,2.000000*%
%TD*%
%TA.AperFunction,ViaPad*%
%ADD17C,0.300000*%
%TD*%
%TA.AperFunction,ViaPad*%
%ADD18C,0.800000*%
%TD*%
%TA.AperFunction,Conductor*%
%ADD19C,0.500000*%
%TD*%
%TA.AperFunction,Conductor*%
%ADD20C,0.250000*%
%TD*%
%TA.AperFunction,Conductor*%
%ADD21C,0.200000*%
%TD*%
G04 APERTURE END LIST*
D10*
%TO.P,P1,S1,SHIELD*%
%TO.N,GND*%
X26405000Y-31550000D03*
D11*
X22225000Y-31550000D03*
D10*
X26405000Y-40190000D03*
D11*
X22225000Y-40190000D03*
%TD*%
D12*
%TO.P,J6,1,In*%
%TO.N,/WGN_OUT_PORT*%
X76000000Y-26375000D03*
D13*
%TO.P,J6,2,Ext*%
%TO.N,GND*%
X72700000Y-23075000D03*
X72700000Y-29675000D03*
X79300000Y-23075000D03*
X79300000Y-29675000D03*
%TD*%
D14*
%TO.P,J12,1,Pin_1*%
%TO.N,/WGN_OUT_PORT*%
X68440000Y-22725000D03*
D15*
%TO.P,J12,2,Pin_2*%
%TO.N,/WGN_OUT*%
X65900000Y-22725000D03*
%TD*%
D12*
%TO.P,J5,1,In*%
%TO.N,Net-(J2-In)*%
X76000000Y-45375000D03*
D13*
%TO.P,J5,2,Ext*%
%TO.N,GND*%
X72700000Y-42075000D03*
X72700000Y-48675000D03*
X79300000Y-42075000D03*
X79300000Y-48675000D03*
%TD*%
D16*
%TO.P,SW1,1,A*%
%TO.N,Net-(SW1-A)*%
X23050000Y-44100000D03*
X29550000Y-44100000D03*
%TO.P,SW1,2,B*%
%TO.N,GND*%
X23050000Y-48600000D03*
X29550000Y-48600000D03*
%TD*%
D17*
%TO.N,VDDA*%
X53575000Y-22145000D03*
X50225000Y-22095000D03*
%TO.N,+3V3*%
X42335523Y-27600000D03*
X43400000Y-27600000D03*
X36480000Y-28200000D03*
X33460000Y-32810000D03*
X34570000Y-30180000D03*
X40367500Y-30600000D03*
X45050000Y-31710000D03*
X37260000Y-39600000D03*
X30450000Y-26490000D03*
X46050000Y-31710000D03*
D18*
X33642500Y-26890000D03*
X35400000Y-23350000D03*
D17*
X30420589Y-38090589D03*
D18*
X30862500Y-23700000D03*
D17*
X37280000Y-38620000D03*
X31450000Y-26490000D03*
X40367500Y-35800000D03*
D18*
X28850000Y-24200000D03*
D17*
X28800000Y-26200000D03*
D18*
%TO.N,GND*%
X52025000Y-24025000D03*
D17*
X77600000Y-33730000D03*
X41770000Y-45380000D03*
X23340000Y-26450000D03*
X48220000Y-35410000D03*
D18*
X28300000Y-39400000D03*
D17*
X27300000Y-39100000D03*
X77600000Y-38000000D03*
X53575000Y-23105000D03*
X61939800Y-26022600D03*
X61000000Y-26020000D03*
D18*
X29400000Y-41825000D03*
X51175000Y-28425000D03*
D17*
X31850000Y-38210000D03*
X47310000Y-40480000D03*
X46470000Y-34080000D03*
X32350000Y-38750000D03*
X32500000Y-32810000D03*
D18*
X28300000Y-32500000D03*
X59390200Y-42622500D03*
D17*
X42000000Y-34400000D03*
D18*
X27500000Y-28100000D03*
D17*
X61557100Y-36454600D03*
D18*
X40400000Y-32100000D03*
D17*
X46920000Y-34430000D03*
D18*
X38400000Y-34100000D03*
D17*
X59390200Y-48602500D03*
X30530000Y-25500000D03*
X34530000Y-28170000D03*
X40770000Y-45380000D03*
D18*
X48750000Y-27225000D03*
D17*
X58290200Y-48602500D03*
X50225000Y-23055000D03*
D18*
X40200000Y-34100000D03*
D17*
X31530000Y-25500000D03*
X62190200Y-38142500D03*
D18*
X29200000Y-29775000D03*
D17*
X27300000Y-32700000D03*
D18*
X45175000Y-27487500D03*
D17*
X62390200Y-48602500D03*
X31099411Y-38769411D03*
X48820000Y-32700000D03*
X48310000Y-39610000D03*
D18*
X37134668Y-42178675D03*
D17*
X44050000Y-31060000D03*
X57730700Y-26020000D03*
X60630000Y-36454600D03*
X46050000Y-30750000D03*
X44375000Y-23055000D03*
X58763100Y-36480000D03*
X51205000Y-25975000D03*
D18*
X40300000Y-42240000D03*
D17*
X60390200Y-48602500D03*
D18*
X43170000Y-41600000D03*
D17*
X49120000Y-36140000D03*
X23340000Y-25400000D03*
X59490200Y-38242500D03*
X26800000Y-32700000D03*
X58900000Y-26020000D03*
D18*
X30100000Y-28100000D03*
D17*
X34570000Y-29220000D03*
D18*
X60390200Y-42622500D03*
D17*
X36480000Y-27240000D03*
X23340000Y-24350000D03*
X32970000Y-37070000D03*
X47310000Y-41370000D03*
D18*
X58900000Y-32000000D03*
X38400000Y-32200000D03*
X71700000Y-33500000D03*
D17*
X32490000Y-30900000D03*
D18*
X41825000Y-24025000D03*
D17*
X32670589Y-34599411D03*
D18*
X26950000Y-24200000D03*
X44506500Y-23793500D03*
D17*
X50225000Y-23995000D03*
X33630000Y-37700000D03*
X32490000Y-29900000D03*
X61450200Y-48602500D03*
D18*
X59900000Y-32000000D03*
X43170000Y-40300000D03*
D17*
X36300000Y-39600000D03*
X31280589Y-34529411D03*
X66500000Y-36620000D03*
X65500000Y-36420000D03*
D18*
X72500000Y-33100000D03*
D17*
X48275000Y-30505000D03*
X61190200Y-38142500D03*
X40200000Y-27500000D03*
X45050000Y-30750000D03*
X36320000Y-38620000D03*
X44930000Y-35600000D03*
X26800000Y-39100000D03*
X59900000Y-26020000D03*
X43375000Y-23055000D03*
X46010000Y-33710000D03*
X48670000Y-35780000D03*
X48310000Y-42190000D03*
X42000000Y-34000000D03*
%TO.N,VDDA*%
X50245000Y-25975000D03*
X41770000Y-44420000D03*
X78700000Y-38000000D03*
X67700000Y-37780000D03*
D18*
X52025000Y-22125000D03*
D17*
X58900000Y-26980000D03*
X59900000Y-26980000D03*
X66500000Y-37600000D03*
X49000000Y-25675000D03*
X78700000Y-33730000D03*
X50225000Y-24955000D03*
X60390200Y-47642500D03*
X69000000Y-37780000D03*
X59390200Y-47642500D03*
X40770000Y-44420000D03*
%TO.N,Net-(U10A-+)*%
X64427300Y-27094700D03*
X61939800Y-26982600D03*
%TO.N,Net-(C39-Pad2)*%
X54000600Y-31680900D03*
X55194400Y-36480000D03*
%TO.N,Net-(C40-Pad2)*%
X55690200Y-38242500D03*
X54490200Y-42697500D03*
%TO.N,Net-(U9B-+)*%
X62390200Y-47642500D03*
X64990200Y-47632500D03*
%TO.N,/LED_B*%
X39795000Y-24535000D03*
X43906597Y-34978940D03*
%TO.N,/LED_G*%
X39670000Y-26100000D03*
X43900079Y-35478400D03*
%TO.N,/LED_R*%
X43899956Y-35977902D03*
X37710000Y-26100000D03*
%TO.N,/USER_LED*%
X34200000Y-24210000D03*
X43886905Y-34400000D03*
%TO.N,/ADC_SDI*%
X40170000Y-38900000D03*
X38798074Y-37971925D03*
%TO.N,/ADC_CSN*%
X37500000Y-37990000D03*
X38600000Y-39950000D03*
%TO.N,/ADC_SCK*%
X39350000Y-40585000D03*
X38193262Y-38002803D03*
%TO.N,/~{PGA_CS}*%
X68325000Y-33970000D03*
X43044500Y-37706525D03*
%TO.N,/PGA_SCK*%
X68325000Y-36510000D03*
X42071896Y-37537358D03*
%TO.N,/PGA_SI*%
X42570000Y-36700000D03*
X68325000Y-35240000D03*
%TD*%
D19*
%TO.N,Net-(U10A-+)*%
X62051900Y-27094700D02*
X64427300Y-27094700D01*
X61939800Y-26982600D02*
X62051900Y-27094700D01*
%TO.N,Net-(C39-Pad2)*%
X55194400Y-36480000D02*
X55194400Y-32874700D01*
X55194400Y-32874700D02*
X54000600Y-31680900D01*
%TO.N,Net-(C40-Pad2)*%
X55690200Y-41497500D02*
X54490200Y-42697500D01*
X55690200Y-38242500D02*
X55690200Y-41497500D01*
%TO.N,Net-(U9B-+)*%
X62400200Y-47632500D02*
X62390200Y-47642500D01*
X64990200Y-47632500D02*
X62400200Y-47632500D01*
D20*
%TO.N,/LED_B*%
X41250000Y-27986396D02*
X41250000Y-25950000D01*
X42400000Y-29136396D02*
X41250000Y-27986396D01*
X41250000Y-25950000D02*
X39835000Y-24535000D01*
D21*
X43829448Y-34978940D02*
X42400000Y-33549492D01*
X42400000Y-33549492D02*
X42400000Y-33400000D01*
D20*
X39835000Y-24535000D02*
X39795000Y-24535000D01*
D21*
X43906597Y-34978940D02*
X43829448Y-34978940D01*
D20*
X42400000Y-33400000D02*
X42400000Y-29136396D01*
D21*
%TO.N,/LED_G*%
X42378400Y-35478400D02*
X41500000Y-34600000D01*
X41500000Y-34600000D02*
X41500000Y-33400000D01*
D20*
X41950000Y-29322792D02*
X41950000Y-32950000D01*
X39670000Y-26100000D02*
X40800000Y-27230000D01*
X40800000Y-27230000D02*
X40800000Y-28172792D01*
X41950000Y-32950000D02*
X41500000Y-33400000D01*
X40800000Y-28172792D02*
X41950000Y-29322792D01*
D21*
X43900079Y-35478400D02*
X42378400Y-35478400D01*
%TO.N,/LED_R*%
X41031802Y-34931802D02*
X41031802Y-33231802D01*
X43899956Y-35977902D02*
X42077902Y-35977902D01*
X42077902Y-35977902D02*
X41300000Y-35200000D01*
D20*
X41031802Y-33231802D02*
X41500000Y-32763604D01*
X38090812Y-26100000D02*
X37710000Y-26100000D01*
X41500000Y-32763604D02*
X41500000Y-29509188D01*
X41500000Y-29509188D02*
X38090812Y-26100000D01*
D21*
X41300000Y-35200000D02*
X41031802Y-34931802D01*
D20*
%TO.N,/USER_LED*%
X41700000Y-27800000D02*
X41700000Y-25200000D01*
X41700000Y-25200000D02*
X40000000Y-23500000D01*
X36390000Y-24210000D02*
X34200000Y-24210000D01*
X37100000Y-23500000D02*
X36390000Y-24210000D01*
X40000000Y-23500000D02*
X37100000Y-23500000D01*
X42900000Y-33413095D02*
X42900000Y-29000000D01*
D21*
X43886905Y-34400000D02*
X42900000Y-33413095D01*
D20*
X42900000Y-29000000D02*
X41700000Y-27800000D01*
D21*
%TO.N,/ADC_SDI*%
X40170000Y-38600000D02*
X39541925Y-37971925D01*
X40170000Y-38900000D02*
X40170000Y-38600000D01*
X39541925Y-37971925D02*
X38798074Y-37971925D01*
%TO.N,/ADC_CSN*%
X37500000Y-37990000D02*
X38600000Y-39090000D01*
X37500000Y-37990000D02*
X37510000Y-38010000D01*
X38600000Y-39090000D02*
X38600000Y-39950000D01*
%TO.N,/ADC_SCK*%
X38193262Y-38003510D02*
X39350000Y-39160248D01*
X39350000Y-39160248D02*
X39350000Y-40585000D01*
X38193262Y-38002803D02*
X38193262Y-38003510D01*
D20*
%TO.N,/~{PGA_CS}*%
X42200000Y-39072792D02*
X42200000Y-42427208D01*
X43044500Y-37706525D02*
X43044500Y-38228292D01*
X43044500Y-38228292D02*
X42200000Y-39072792D01*
X67505000Y-34790000D02*
X68325000Y-33970000D01*
X59177208Y-45250000D02*
X63400000Y-41027208D01*
X42200000Y-42427208D02*
X45022792Y-45250000D01*
X45022792Y-45250000D02*
X59177208Y-45250000D01*
X63400000Y-41027208D02*
X63400000Y-36363604D01*
X63400000Y-36363604D02*
X64973604Y-34790000D01*
X64973604Y-34790000D02*
X67505000Y-34790000D01*
%TO.N,/PGA_SCK*%
X42071896Y-37537358D02*
X42071896Y-37928104D01*
X67505000Y-35690000D02*
X68325000Y-36510000D01*
X41300000Y-38700000D02*
X41300000Y-42800000D01*
X41300000Y-42800000D02*
X44650000Y-46150000D01*
X44650000Y-46150000D02*
X59550000Y-46150000D01*
X64300000Y-41400000D02*
X64300000Y-36736396D01*
X64300000Y-36736396D02*
X65346396Y-35690000D01*
X65346396Y-35690000D02*
X67505000Y-35690000D01*
X42071896Y-37928104D02*
X41300000Y-38700000D01*
X59550000Y-46150000D02*
X64300000Y-41400000D01*
%TO.N,/PGA_SI*%
X41750000Y-42613604D02*
X44836396Y-45700000D01*
X63850000Y-36550000D02*
X65160000Y-35240000D01*
X42570000Y-38066396D02*
X41750000Y-38886396D01*
X41750000Y-38886396D02*
X41750000Y-42613604D01*
X63850000Y-41213604D02*
X63850000Y-36550000D01*
X65160000Y-35240000D02*
X68325000Y-35240000D01*
X44836396Y-45700000D02*
X59363604Y-45700000D01*
X42570000Y-36700000D02*
X42570000Y-38066396D01*
X59363604Y-45700000D02*
X63850000Y-41213604D01*
D21*
X68285000Y-35200000D02*
X68325000Y-35240000D01*
%TD*%
M02*
