M48
; DRILL file {KiCad 7.0.7} date Tue 19 Mar 2024 01:44:46 PM PDT
; FORMAT={-:-/ absolute / inch / decimal}
; #@! TF.CreationDate,2024-03-19T13:44:46-07:00
; #@! TF.GenerationSoftware,Kicad,Pcbnew,7.0.7
; #@! TF.FileFunction,Plated,1,2,PTH
FMAT,2
INCH
; #@! TA.AperFunction,Plated,PTH,ViaDrill
T1C0.0315
; #@! TA.AperFunction,Plated,PTH,ComponentDrill
T2C0.0315
; #@! TA.AperFunction,Plated,PTH,ComponentDrill
T3C0.0394
%
G90
G05
T1
X3.29Y-2.86
X3.37Y-3.78
X3.38Y-3.3
X3.41Y-3.18
X3.58Y-3.19
X3.7Y-2.86
X3.82Y-3.75
X3.94Y-3.75
X4.0Y-2.88
X4.0Y-3.0
X4.1Y-3.75
T2
X3.69Y-2.9865
X3.69Y-3.1865
T3
X3.3Y-3.0
X3.3Y-3.1
X3.3Y-3.2
X3.3Y-3.3
X3.3Y-3.4
X3.3Y-3.5
X3.3Y-3.6
X3.3Y-3.7
X3.487Y-3.65
X3.587Y-3.65
X4.2Y-3.0
X4.2Y-3.1
X4.2Y-3.2
X4.2Y-3.3
X4.2Y-3.4
X4.2Y-3.5
X4.2Y-3.6
X4.2Y-3.7
T0
M30
